<svg width="202" height="222" viewBox="0 0 202 222" fill="none" xmlns="http://www.w3.org/2000/svg">
<line x1="0.81" y1="-0.81" x2="23.49" y2="-0.81" transform="matrix(0 -1 -1 0 8.51172 24.3)" stroke="black" stroke-width="1.62" stroke-linecap="round"/>
<path fill-rule="evenodd" clip-rule="evenodd" d="M31.1675 82.5242C31.4027 78.8256 31.1291 75.1122 30.3544 71.488L25.3752 48.195L20.2448 31.59C13.9427 38.6573 11.8667 32.5969 6.30449 20.25L0.111177 47.7027C0.0374222 48.0297 0.00453186 48.3645 0.0132637 48.6995L2.36426 138.915L0.000116348 221.13H27.5817L30.1035 218.7L27.5817 138.915L31.1675 82.5242Z" fill="#D7D2CA"/>
<path d="M6.47765 18.9151C6.57066 18.1981 6.8539 17.5191 7.29796 16.9486L8.51102 15.39C8.51102 15.39 9.82548 24.0248 11.6632 26.73C13.8529 29.9534 18.1252 26.73 18.1252 26.73C18.8303 28.0743 20.2448 31.59 20.2448 31.59C13.9427 38.6573 11.8667 32.5969 6.30449 20.25L6.47765 18.9151Z" fill="#DF9C34"/>
<mask id="mask0_467_7366" style="mask-type:alpha" maskUnits="userSpaceOnUse" x="-1" y="15" width="33" height="207">
<path fill-rule="evenodd" clip-rule="evenodd" d="M31.167 82.5242C31.4022 78.8256 31.1286 75.1122 30.3539 71.488L25.3747 48.195L20.2443 31.59C13.9422 38.6573 11.8662 32.5969 6.304 20.25L0.110689 47.7027C0.0369339 48.0297 0.00404358 48.3645 0.0127754 48.6995L2.36377 138.915L-0.000371933 221.13H27.5813L30.103 218.7L27.5813 138.915L31.167 82.5242Z" fill="#F2AB3D"/>
<path d="M6.47716 18.9151C6.57017 18.1981 6.85341 17.5191 7.29747 16.9486L8.51053 15.39C8.51053 15.39 9.82499 24.0248 11.6627 26.73C13.8524 29.9534 18.1247 26.73 18.1247 26.73C18.8298 28.0743 20.2443 31.59 20.2443 31.59C13.9422 38.6573 11.8662 32.5969 6.304 20.25L6.47716 18.9151Z" fill="#DF9C34"/>
</mask>
<g mask="url(#mask0_467_7366)">
<path d="M38.092 132.363C37.113 137.417 35.5205 141.516 33.5551 144.039C31.5897 146.562 29.3581 147.373 27.1975 146.349C25.0369 145.326 23.0645 142.523 21.5785 138.365C20.0924 134.207 19.1733 128.919 18.9599 123.3C18.7466 117.681 19.2507 112.037 20.396 107.219C21.5413 102.401 23.2656 98.6717 25.3085 96.5944C27.3514 94.5171 29.6019 94.2046 31.7201 95.704C33.8382 97.2034 35.7089 100.433 37.0496 104.906L29.0322 120.775L38.092 132.363Z" fill="#C3C3C3"/>
</g>
<path fill-rule="evenodd" clip-rule="evenodd" d="M1.26934 55.4839L1.26068 55.485C1.26068 55.485 1.05681 69.3234 1.26068 78.165C1.49187 88.1916 2.52155 103.68 2.52155 103.68H17.3368C17.3368 103.68 19.1993 83.9615 18.7553 71.28C18.5076 64.2053 17.3368 53.46 17.3368 53.46L17.2206 53.4746C16.5723 45.6472 13.2719 39.6899 9.298 39.6899C4.99033 39.6899 1.47409 46.6899 1.26934 55.4839Z" fill="#AA7FAE"/>
<ellipse cx="7.40764" cy="6.075" rx="7.40764" ry="6.075" transform="matrix(-1 0 0 1 17.3374 98.01)" fill="#8B678E"/>
<line x1="0.81" y1="-0.81" x2="23.49" y2="-0.81" transform="matrix(0 -1 -1 0 33.0278 24.3002)" stroke="black" stroke-width="1.62" stroke-linecap="round"/>
<path fill-rule="evenodd" clip-rule="evenodd" d="M55.3558 83.3779C55.8087 79.1196 55.5833 74.8165 54.6882 70.6288L49.8927 48.1951L44.7622 31.5901C38.4601 38.6574 36.3841 32.5969 30.8219 20.2501L24.6297 47.6978C24.5552 48.028 24.5224 48.3663 24.5321 48.7046L26.8525 130L25.9362 204.43H53.5178L56.0396 202L52.236 117.054C52.1449 115.021 52.2073 112.984 52.4225 110.96L55.3558 83.3779Z" fill="#324589"/>
<path d="M30.9951 18.9152C31.0881 18.1982 31.3713 17.5192 31.8154 16.9486L33.0285 15.3901C33.0285 15.3901 34.3429 24.0249 36.1807 26.7301C38.3704 29.9534 42.6426 26.7301 42.6426 26.7301C43.3477 28.0744 44.7622 31.5901 44.7622 31.5901C38.4601 38.6574 36.3841 32.5969 30.8219 20.2501L30.9951 18.9152Z" fill="#353841"/>
<path fill-rule="evenodd" clip-rule="evenodd" d="M25.7876 55.484L25.7787 55.4851C25.7787 55.4851 25.5749 69.3235 25.7787 78.1651C26.0099 88.1917 27.0396 103.68 27.0396 103.68H41.8549C41.8549 103.68 43.7174 83.9617 43.2734 71.2801C43.0257 64.2054 41.8549 53.4601 41.8549 53.4601L41.7388 53.4747C41.0905 45.6474 37.7901 39.6901 33.8162 39.6901C29.5085 39.6901 25.9923 46.69 25.7876 55.484Z" fill="#353841"/>
<ellipse cx="7.40764" cy="6.075" rx="7.40764" ry="6.075" transform="matrix(-1 0 0 1 41.855 98.0101)" fill="#233A8B"/>
<line x1="0.81" y1="-0.81" x2="22.4867" y2="-0.81" transform="matrix(0 -1 -1 0 55.9897 23.2968)" stroke="black" stroke-width="1.62" stroke-linecap="round"/>
<path fill-rule="evenodd" clip-rule="evenodd" d="M78.6151 79.5834C78.8707 75.7295 78.5737 71.8589 77.7332 68.0892L72.8537 46.2051L67.7233 30.2857C61.4212 37.0612 59.3452 31.251 53.783 19.4139L47.5991 45.6932C47.5191 46.033 47.4834 46.3818 47.4929 46.7309L49.8428 133.179L47.4786 212H75.0603L72.8537 175.444L75.0603 133.179L78.6151 79.5834Z" fill="#FFD998"/>
<path d="M53.9458 18.2111C54.0455 17.4741 54.3462 16.7788 54.8149 16.2015L55.9895 14.7546C55.9895 14.7546 57.304 23.0329 59.1417 25.6264C61.3314 28.7166 65.6037 25.6264 65.6037 25.6264C66.3088 26.9152 67.7233 30.2857 67.7233 30.2857C61.4212 37.0612 59.3452 31.251 53.783 19.4139L53.9458 18.2111Z" fill="#FFD998"/>
<mask id="mask1_467_7366" style="mask-type:alpha" maskUnits="userSpaceOnUse" x="47" y="14" width="32" height="198">
<path fill-rule="evenodd" clip-rule="evenodd" d="M78.6151 79.5834C78.8707 75.7296 78.5737 71.859 77.7332 68.0893L72.8537 46.2052L67.7233 30.2858C61.4212 37.0613 59.3452 31.251 53.783 19.414L47.5991 45.6932C47.5191 46.0331 47.4834 46.3819 47.4929 46.731L49.8428 133.18L47.4786 212H75.0603L77.582 209.67L75.0603 133.18L78.6151 79.5834Z" fill="#F2AB3D"/>
<path d="M53.9458 18.2111C54.0455 17.4742 54.3462 16.7789 54.8149 16.2015L55.9895 14.7546C55.9895 14.7546 57.304 23.0329 59.1417 25.6264C61.3314 28.7167 65.6037 25.6264 65.6037 25.6264C66.3088 26.9152 67.7233 30.2858 67.7233 30.2858C61.4212 37.0613 59.3452 31.251 53.783 19.414L53.9458 18.2111Z" fill="#DF9C34"/>
</mask>
<g mask="url(#mask1_467_7366)">
<path d="M85.3376 91.8048C84.3586 96.6502 82.7661 100.579 80.8007 102.998C78.8353 105.417 76.6037 106.195 74.4431 105.213C72.2825 104.232 75.9292 95.7912 74.4431 91.8048C72.957 87.8183 66.4189 88.5027 66.2055 83.1158C65.9922 77.7289 66.4963 72.3172 67.6416 67.6983C68.7869 63.0795 72.4002 74.5326 74.4431 72.5411C76.486 70.5496 76.8475 55.2215 78.9657 56.6591C81.0838 58.0966 82.9545 61.1932 84.2952 65.4811L76.2778 80.6951L85.3376 91.8048Z" fill="#FACA78"/>
</g>
<path fill-rule="evenodd" clip-rule="evenodd" d="M48.747 53.1931L48.7382 53.1942C48.7382 53.1942 48.5343 66.4613 48.7382 74.9378C48.9694 84.5505 49.9991 99.3993 49.9991 99.3993H64.8144C64.8144 99.3993 66.6769 80.495 66.2328 68.3371C65.9851 61.5545 64.8144 51.2528 64.8144 51.2528L64.6983 51.2668C64.05 43.7626 60.7496 38.0513 56.7757 38.0513C52.468 38.0513 48.9518 44.7622 48.747 53.1931Z" fill="#AB6952"/>
<ellipse cx="7.40764" cy="5.82418" rx="7.40764" ry="5.82418" transform="matrix(-1 0 0 1 64.8149 93.9634)" fill="#794A3A"/>
<line x1="0.81" y1="-0.81" x2="23.49" y2="-0.81" transform="matrix(0 -1 -1 0 80.9062 24.3)" stroke="black" stroke-width="1.62" stroke-linecap="round"/>
<path fill-rule="evenodd" clip-rule="evenodd" d="M104.597 82.7788C104.854 78.9129 104.555 75.0302 103.709 71.2492L98.5524 48.195L93.1839 31.59C86.5893 38.6573 84.4171 32.5969 78.5967 20.25L72.1211 47.6815C72.0406 48.0224 72.0047 48.3723 72.0142 48.7224L74.4737 138.915L71.9998 221.13H100.861L103.5 218.7L100.861 138.915L104.597 82.7788Z" fill="#248496"/>
<path d="M78.7733 18.9492C78.8736 18.2108 79.1756 17.5143 79.6462 16.9364L80.9057 15.39C80.9057 15.39 82.2811 24.0248 84.2041 26.73C86.4954 29.9534 90.9659 26.73 90.9659 26.73C91.7037 28.0743 93.1839 31.59 93.1839 31.59C86.5893 38.6573 84.4171 32.5969 78.5967 20.25L78.7733 18.9492Z" fill="#0096B2"/>
<mask id="mask2_467_7366" style="mask-type:alpha" maskUnits="userSpaceOnUse" x="72" y="15" width="33" height="207">
<path fill-rule="evenodd" clip-rule="evenodd" d="M104.597 82.7788C104.854 78.9129 104.555 75.0302 103.71 71.2492L98.5529 48.195L93.1844 31.59C86.5898 38.6573 84.4175 32.5969 78.5972 20.25L72.1215 47.6815C72.0411 48.0224 72.0052 48.3723 72.0147 48.7224L74.4742 138.915L72.0003 221.13H100.862L103.501 218.7L100.862 138.915L104.597 82.7788Z" fill="#F2AB3D"/>
<path d="M78.7738 18.9492C78.874 18.2108 79.1761 17.5143 79.6467 16.9364L80.9061 15.39C80.9061 15.39 82.2816 24.0248 84.2046 26.73C86.4959 29.9534 90.9664 26.73 90.9664 26.73C91.7042 28.0743 93.1844 31.59 93.1844 31.59C86.5898 38.6573 84.4175 32.5969 78.5972 20.25L78.7738 18.9492Z" fill="#DF9C34"/>
</mask>
<g mask="url(#mask2_467_7366)">
<path d="M111.86 132.363C110.836 137.417 109.17 141.516 107.113 144.039C105.056 146.562 102.721 147.373 100.46 146.349C98.1995 145.326 96.1356 142.523 94.5806 138.365C93.0256 134.207 92.0638 128.919 91.8406 123.3C91.6173 117.681 92.1448 112.037 93.3433 107.219C94.5417 102.401 96.3461 98.6717 98.4838 96.5944C100.621 94.5171 102.976 94.2046 105.193 95.704C107.409 97.2034 109.367 100.433 110.77 104.906L102.38 120.775L111.86 132.363Z" fill="#0096B2"/>
</g>
<path fill-rule="evenodd" clip-rule="evenodd" d="M73.3277 55.4839L73.3188 55.485C73.3188 55.485 73.1054 69.3234 73.3188 78.165C73.5607 88.1916 74.6381 103.68 74.6381 103.68H90.1409C90.1409 103.68 92.0898 83.9615 91.6252 71.28C91.366 64.2053 90.1409 53.46 90.1409 53.46L90.0192 53.4746C89.3408 45.6472 85.8873 39.6899 81.7289 39.6899C77.2214 39.6899 73.542 46.6899 73.3277 55.4839Z" fill="#0096B2"/>
<ellipse cx="7.75137" cy="6.075" rx="7.75137" ry="6.075" transform="matrix(-1 0 0 1 90.1411 98.01)" fill="#035F71"/>
<line x1="0.81" y1="-0.81" x2="23.49" y2="-0.81" transform="matrix(0 -1 -1 0 106.56 24.3)" stroke="black" stroke-width="1.62" stroke-linecap="round"/>
<path fill-rule="evenodd" clip-rule="evenodd" d="M129.891 83.6708C130.386 79.221 130.14 74.72 129.163 70.3507L124.207 48.195L118.839 31.59C112.244 38.6572 110.072 32.5968 104.251 20.25L97.7769 47.6763C97.6956 48.0206 97.6598 48.3741 97.6704 48.7277L100.098 130L99.1389 204.43H128L130.639 202L126.666 117.195C126.566 115.068 126.634 112.937 126.87 110.821L129.891 83.6708Z" fill="#A13939"/>
<path d="M104.428 18.9492C104.528 18.2107 104.83 17.5142 105.301 16.9364L106.56 15.39C106.56 15.39 107.936 24.0248 109.859 26.73C112.15 29.9533 116.621 26.73 116.621 26.73C117.358 28.0743 118.839 31.59 118.839 31.59C112.244 38.6572 110.072 32.5968 104.251 20.25L104.428 18.9492Z" fill="#C94949"/>
<path fill-rule="evenodd" clip-rule="evenodd" d="M98.9833 55.4837L98.9731 55.485C98.9731 55.485 98.7597 69.3234 98.9731 78.165C99.215 88.1916 100.292 103.68 100.292 103.68H115.795C115.795 103.68 117.744 83.9615 117.279 71.28C117.02 64.2053 115.795 53.46 115.795 53.46L115.675 53.4745C114.996 45.6472 111.543 39.6899 107.385 39.6899C102.877 39.6899 99.1976 46.6898 98.9833 55.4837Z" fill="#2D4AB1"/>
<ellipse cx="7.75137" cy="6.075" rx="7.75137" ry="6.075" transform="matrix(-1 0 0 1 115.795 98.01)" fill="#5F3232"/>
<line x1="0.81" y1="-0.81" x2="24.3898" y2="-0.81" transform="matrix(0 -1 -1 0 126.92 25.1998)" stroke="black" stroke-width="1.62" stroke-linecap="round"/>
<path fill-rule="evenodd" clip-rule="evenodd" d="M150.303 86.2844C150.764 81.9888 150.535 77.6471 149.624 73.4239L144.567 49.9797L139.199 32.7598C132.604 40.0888 130.432 33.8039 124.612 20.9999L118.129 49.4782C118.053 49.8112 118.02 50.1524 118.03 50.4937L120.458 134.814L119.499 212H148.361L151 209.48L147.016 121.303C146.923 119.252 146.986 117.196 147.205 115.154L150.303 86.2844Z" fill="#84D8D3"/>
<path d="M124.797 19.5818C124.892 18.8605 125.179 18.178 125.628 17.6059L126.921 15.9599C126.921 15.9599 128.296 24.9145 130.219 27.7198C132.51 31.0625 136.981 27.7198 136.981 27.7198C137.719 29.1139 139.199 32.7598 139.199 32.7598C132.604 40.0888 130.432 33.8039 124.612 20.9999L124.797 19.5818Z" fill="#68C7C1"/>
<path fill-rule="evenodd" clip-rule="evenodd" d="M119.344 57.5383L119.333 57.5396C119.333 57.5396 119.12 71.8904 119.333 81.0594C119.575 91.4573 120.653 107.519 120.653 107.519H136.156C136.156 107.519 138.104 87.0706 137.64 73.9194C137.381 66.5828 136.156 55.4396 136.156 55.4396L136.035 55.4546C135.357 47.3375 131.903 41.1597 127.745 41.1597C123.237 41.1597 119.558 48.4187 119.344 57.5383Z" fill="#AEEAE6"/>
<ellipse cx="7.75137" cy="6.29996" rx="7.75137" ry="6.29996" transform="matrix(-1 0 0 1 136.157 101.639)" fill="#68C7C1"/>
<line x1="0.81" y1="-0.81" x2="23.49" y2="-0.81" transform="matrix(0 -1 -1 0 150.529 24.3)" stroke="black" stroke-width="1.62" stroke-linecap="round"/>
<path fill-rule="evenodd" clip-rule="evenodd" d="M175.438 84.1316C176.003 79.3814 175.723 74.5686 174.609 69.9162L169.411 48.195L163.667 31.59C156.611 38.6572 154.286 32.5968 148.059 20.25L141.139 47.6429C141.047 48.0091 141.006 48.3865 141.018 48.7641L143.614 130L142.588 204.43H173.47L176.293 202L172.053 117.418C171.939 115.143 172.017 112.863 172.286 110.602L175.438 84.1316Z" fill="#3D65F2"/>
<path d="M148.24 18.9998C148.352 18.2296 148.683 17.5079 149.195 16.9211L150.529 15.39C150.529 15.39 152.001 24.0248 154.058 26.73C156.51 29.9533 161.293 26.73 161.293 26.73C162.083 28.0743 163.667 31.59 163.667 31.59C156.611 38.6572 154.286 32.5968 148.059 20.25L148.24 18.9998Z" fill="#2D4AB1"/>
<path fill-rule="evenodd" clip-rule="evenodd" d="M142.422 55.4838L142.411 55.4849C142.411 55.4849 142.183 69.3234 142.411 78.1649C142.67 88.1916 143.823 103.68 143.823 103.68H160.41C160.41 103.68 162.496 83.9615 161.999 71.2799C161.721 64.2053 160.41 53.4599 160.41 53.4599L160.281 53.4745C159.555 45.6472 155.86 39.6899 151.411 39.6899C146.588 39.6899 142.651 46.6898 142.422 55.4838Z" fill="#2D4AB1"/>
<ellipse cx="8.2938" cy="6.075" rx="8.2938" ry="6.075" transform="matrix(-1 0 0 1 160.411 98.01)" fill="#233A8B"/>
<line x1="0.81" y1="-0.81" x2="22.4867" y2="-0.81" transform="matrix(0 -1 -1 0 176.236 23.2968)" stroke="black" stroke-width="1.62" stroke-linecap="round"/>
<path fill-rule="evenodd" clip-rule="evenodd" d="M201.518 80.2653C201.837 75.9646 201.468 71.6406 200.423 67.4565L195.118 46.2051L189.374 30.2857C182.318 37.0612 179.993 31.251 173.766 19.4139L166.857 45.6372C166.758 46.0138 166.713 46.4029 166.725 46.7922L169.354 133.179L166.707 212H197.588L195.118 175.444L197.588 133.179L201.518 80.2653Z" fill="#3A8955"/>
<path d="M173.935 18.2953C174.055 17.5056 174.405 16.7689 174.943 16.1778L176.236 14.7546C176.236 14.7546 177.708 23.0329 179.766 25.6264C182.217 28.7166 187.001 25.6264 187.001 25.6264C187.79 26.9152 189.374 30.2857 189.374 30.2857C182.318 37.0612 179.993 31.251 173.766 19.4139L173.935 18.2953Z" fill="#2E6C43"/>
<mask id="mask3_467_7366" style="mask-type:alpha" maskUnits="userSpaceOnUse" x="166" y="14" width="36" height="198">
<path fill-rule="evenodd" clip-rule="evenodd" d="M201.518 80.2653C201.837 75.9646 201.468 71.6406 200.423 67.4565L195.118 46.2051L189.374 30.2857C182.318 37.0612 179.993 31.251 173.766 19.4139L166.857 45.6372C166.758 46.0138 166.713 46.4029 166.725 46.7922L169.354 133.179L166.707 212H197.588L200.412 209.67L197.588 133.179L201.518 80.2653Z" fill="#F2AB3D"/>
<path d="M173.935 18.2953C174.055 17.5056 174.405 16.7689 174.943 16.1778L176.236 14.7546C176.236 14.7546 177.708 23.0329 179.766 25.6264C182.217 28.7166 187.001 25.6264 187.001 25.6264C187.79 26.9152 189.374 30.2857 189.374 30.2857C182.318 37.0612 179.993 31.251 173.766 19.4139L173.935 18.2953Z" fill="#DF9C34"/>
</mask>
<g mask="url(#mask3_467_7366)">
<path d="M209.095 91.8047C207.999 96.6501 206.216 100.579 204.016 102.998C201.815 105.417 199.317 106.195 196.898 105.213C194.479 104.232 198.562 95.7912 196.898 91.8047C195.234 87.8182 187.913 88.5027 187.675 83.1157C187.436 77.7288 188 72.3172 189.282 67.6983C190.565 63.0794 194.61 74.5326 196.898 72.5411C199.185 70.5495 199.59 55.2215 201.961 56.659C204.333 58.0965 206.427 61.1931 207.928 65.481L198.952 80.695L209.095 91.8047Z" fill="#20D2EB"/>
</g>
<path fill-rule="evenodd" clip-rule="evenodd" d="M168.129 53.1931L168.119 53.1942C168.119 53.1942 167.891 66.4613 168.119 74.9378C168.378 84.5505 169.531 99.3993 169.531 99.3993H186.118C186.118 99.3993 188.204 80.495 187.707 68.3371C187.429 61.5545 186.118 51.2528 186.118 51.2528L185.989 51.2668C185.263 43.7626 181.568 38.0513 177.119 38.0513C172.296 38.0513 168.359 44.7622 168.129 53.1931Z" fill="#2E6C43"/>
<ellipse cx="8.2938" cy="5.82418" rx="8.2938" ry="5.82418" transform="matrix(-1 0 0 1 186.118 93.9634)" fill="#275536"/>
</svg>
