<svg width="278" height="222" viewBox="0 0 278 222" fill="none" xmlns="http://www.w3.org/2000/svg">
<line x1="0.81" y1="-0.81" x2="23.49" y2="-0.81" transform="matrix(0 -1 -1 0 65.5112 24.3)" stroke="black" stroke-width="1.62" stroke-linecap="round"/>
<path fill-rule="evenodd" clip-rule="evenodd" d="M88.168 82.5243C88.4032 78.8256 88.1296 75.1122 87.3549 71.4879L82.3756 48.195L77.2451 31.59C70.943 38.6573 68.867 32.5969 63.3047 20.25L57.1114 47.7027C57.0376 48.0297 57.0047 48.3645 57.0135 48.6995L59.3645 138.915L57.0003 221.13H84.5822L87.104 218.7L84.5822 138.915L88.168 82.5243Z" fill="#F2AB3D"/>
<path d="M63.4779 18.9151C63.5709 18.1981 63.8542 17.5191 64.2982 16.9486L65.5113 15.39C65.5113 15.39 66.8258 24.0248 68.6635 26.73C70.8532 29.9534 75.1255 26.73 75.1255 26.73C75.8306 28.0743 77.2451 31.59 77.2451 31.59C70.943 38.6573 68.867 32.5969 63.3047 20.25L63.4779 18.9151Z" fill="#DF9C34"/>
<mask id="mask0_467_8874" style="mask-type:alpha" maskUnits="userSpaceOnUse" x="57" y="15" width="32" height="207">
<path fill-rule="evenodd" clip-rule="evenodd" d="M88.1675 82.5243C88.4027 78.8256 88.1291 75.1122 87.3544 71.4879L82.3752 48.195L77.2447 31.59C70.9425 38.6573 68.8665 32.5969 63.3043 20.25L57.1109 47.7027C57.0371 48.0297 57.0042 48.3645 57.013 48.6995L59.364 138.915L56.9998 221.13H84.5817L87.1035 218.7L84.5817 138.915L88.1675 82.5243Z" fill="#F2AB3D"/>
<path d="M63.4774 18.9151C63.5704 18.1981 63.8537 17.5191 64.2977 16.9486L65.5108 15.39C65.5108 15.39 66.8253 24.0248 68.663 26.73C70.8528 29.9534 75.1251 26.73 75.1251 26.73C75.8302 28.0743 77.2447 31.59 77.2447 31.59C70.9425 38.6573 68.8665 32.5969 63.3043 20.25L63.4774 18.9151Z" fill="#DF9C34"/>
</mask>
<g mask="url(#mask0_467_8874)">
<path d="M95.0932 132.363C94.1141 137.417 92.5216 141.516 90.5562 144.039C88.5908 146.562 86.3592 147.373 84.1985 146.349C82.0379 145.326 80.0656 142.523 78.5795 138.365C77.0934 134.207 76.1742 128.919 75.9609 123.3C75.7476 117.681 76.2516 112.037 77.397 107.219C78.5423 102.401 80.2666 98.6717 82.3096 96.5944C84.3525 94.5171 86.603 94.2046 88.7212 95.704C90.8393 97.2034 92.71 100.433 94.0507 104.906L86.0333 120.775L95.0932 132.363Z" fill="#DBEB20"/>
</g>
<path fill-rule="evenodd" clip-rule="evenodd" d="M58.2701 55.4838L58.261 55.4849C58.261 55.4849 58.0571 69.3234 58.261 78.1649C58.4922 88.1916 59.5219 103.68 59.5219 103.68H74.3373C74.3373 103.68 76.1998 83.9615 75.7558 71.2799C75.5081 64.2053 74.3373 53.4599 74.3373 53.4599L74.2215 53.4745C73.5731 45.6472 70.2727 39.6899 66.2988 39.6899C61.9911 39.6899 58.4748 46.6899 58.2701 55.4838Z" fill="#D19435"/>
<ellipse cx="7.4077" cy="6.075" rx="7.4077" ry="6.075" transform="matrix(-1 0 0 1 74.3374 98.01)" fill="#A47225"/>
<line x1="0.81" y1="-0.81" x2="23.49" y2="-0.81" transform="matrix(0 -1 -1 0 90.0288 24.3)" stroke="black" stroke-width="1.62" stroke-linecap="round"/>
<path fill-rule="evenodd" clip-rule="evenodd" d="M112.357 83.3779C112.81 79.1196 112.584 74.8164 111.689 70.6287L106.894 48.195L101.763 31.59C95.4609 38.6573 93.3849 32.5969 87.8227 20.25L81.6304 47.6977C81.5559 48.028 81.5231 48.3662 81.5328 48.7046L83.8532 130L82.9369 204.43H110.519L113.041 202L109.237 117.054C109.146 115.021 109.208 112.984 109.423 110.96L112.357 83.3779Z" fill="#F7C7FF"/>
<path d="M87.9958 18.9151C88.0888 18.1981 88.3721 17.5191 88.8162 16.9486L90.0292 15.39C90.0292 15.39 91.3437 24.0248 93.1815 26.73C95.3712 29.9534 99.6435 26.73 99.6435 26.73C100.349 28.0743 101.763 31.59 101.763 31.59C95.4609 38.6573 93.3849 32.5969 87.8227 20.25L87.9958 18.9151Z" fill="#C95CDB"/>
<path fill-rule="evenodd" clip-rule="evenodd" d="M82.7879 55.4838L82.7786 55.4849C82.7786 55.4849 82.5747 69.3234 82.7786 78.1649C83.0098 88.1916 84.0395 103.68 84.0395 103.68H98.8549C98.8549 103.68 100.717 83.9615 100.273 71.2799C100.026 64.2053 98.8549 53.4599 98.8549 53.4599L98.7393 53.4745C98.091 45.6472 94.7906 39.6899 90.8166 39.6899C86.5089 39.6899 82.9927 46.6898 82.7879 55.4838Z" fill="#C8D4FE"/>
<ellipse cx="7.4077" cy="6.075" rx="7.4077" ry="6.075" transform="matrix(-1 0 0 1 98.8555 98.01)" fill="#939CBE"/>
<line x1="0.81" y1="-0.81" x2="22.4867" y2="-0.81" transform="matrix(0 -1 -1 0 112.989 23.2968)" stroke="black" stroke-width="1.62" stroke-linecap="round"/>
<path fill-rule="evenodd" clip-rule="evenodd" d="M135.615 79.5834C135.871 75.7296 135.574 71.8589 134.733 68.0892L129.854 46.2051L124.723 30.2857C118.421 37.0612 116.345 31.251 110.783 19.4139L104.599 45.6932C104.519 46.033 104.483 46.3818 104.493 46.7309L106.843 133.179L104.478 212H132.06L129.854 175.444L132.06 133.179L135.615 79.5834Z" fill="#D4D575"/>
<path d="M110.946 18.2111C111.045 17.4741 111.346 16.7788 111.815 16.2015L112.989 14.7546C112.989 14.7546 114.304 23.0329 116.142 25.6264C118.331 28.7166 122.604 25.6264 122.604 25.6264C123.309 26.9152 124.723 30.2857 124.723 30.2857C118.421 37.0612 116.345 31.251 110.783 19.4139L110.946 18.2111Z" fill="#F0CD4F"/>
<mask id="mask1_467_8874" style="mask-type:alpha" maskUnits="userSpaceOnUse" x="104" y="14" width="32" height="198">
<path fill-rule="evenodd" clip-rule="evenodd" d="M135.615 79.5834C135.871 75.7296 135.574 71.8589 134.733 68.0892L129.854 46.2051L124.723 30.2857C118.421 37.0612 116.345 31.251 110.783 19.4139L104.599 45.6932C104.519 46.033 104.483 46.3818 104.493 46.7309L106.843 133.179L104.478 212H132.06L134.582 209.67L132.06 133.179L135.615 79.5834Z" fill="#F2AB3D"/>
<path d="M110.946 18.2111C111.045 17.4741 111.346 16.7788 111.815 16.2015L112.989 14.7546C112.989 14.7546 114.304 23.0329 116.142 25.6264C118.331 28.7166 122.604 25.6264 122.604 25.6264C123.309 26.9152 124.723 30.2857 124.723 30.2857C118.421 37.0612 116.345 31.251 110.783 19.4139L110.946 18.2111Z" fill="#DF9C34"/>
</mask>
<g mask="url(#mask1_467_8874)">
<path d="M142.338 91.8047C141.359 96.6501 139.767 100.579 137.801 102.998C135.836 105.417 133.604 106.195 131.444 105.213C129.283 104.232 132.93 95.7912 131.444 91.8047C129.958 87.8182 123.419 88.5027 123.206 83.1157C122.993 77.7288 123.497 72.3172 124.642 67.6983C125.787 63.0794 129.401 74.5326 131.444 72.5411C133.487 70.5495 133.848 55.2215 135.966 56.659C138.084 58.0965 139.955 61.1931 141.296 65.481L133.278 80.695L142.338 91.8047Z" fill="#B4A7B3"/>
</g>
<path fill-rule="evenodd" clip-rule="evenodd" d="M105.748 53.1931L105.739 53.1942C105.739 53.1942 105.535 66.4612 105.739 74.9377C105.97 84.5504 107 99.3993 107 99.3993H121.815C121.815 99.3993 123.678 80.495 123.234 68.337C122.986 61.5545 121.815 51.2528 121.815 51.2528L121.7 51.2668C121.051 43.7626 117.751 38.0513 113.777 38.0513C109.469 38.0513 105.953 44.7622 105.748 53.1931Z" fill="#F0CD4F"/>
<ellipse cx="7.4077" cy="5.82418" rx="7.4077" ry="5.82418" transform="matrix(-1 0 0 1 121.815 93.9634)" fill="#B19738"/>
<line x1="0.81" y1="-0.81" x2="23.49" y2="-0.81" transform="matrix(0 -1 -1 0 5.92578 24.3)" stroke="black" stroke-width="1.62" stroke-linecap="round"/>
<path fill-rule="evenodd" clip-rule="evenodd" d="M21.7738 80.8458C21.8885 78.2546 21.7541 75.6584 21.3722 73.0929L17.6668 48.195L14.0949 31.59C9.70733 38.6573 8.26202 32.5969 4.38953 20.25L0.05513 47.8462C0.0186729 48.0783 0.00248528 48.3131 0.00674629 48.5481L1.64629 138.915L0.000341415 221.13H19.203L20.9587 218.7L19.203 138.915L21.7738 80.8458Z" fill="#248496"/>
<path d="M4.53391 18.6514C4.58344 18.1029 4.74431 17.5703 5.00667 17.0861L5.92575 15.39C5.92575 15.39 6.84089 24.0248 8.12034 26.73C9.64485 29.9534 12.6193 26.73 12.6193 26.73C13.1102 28.0743 14.0949 31.59 14.0949 31.59C9.70733 38.6573 8.26202 32.5969 4.38953 20.25L4.53391 18.6514Z" fill="#0096B2"/>
<mask id="mask2_467_8874" style="mask-type:alpha" maskUnits="userSpaceOnUse" x="0" y="15" width="22" height="207">
<path fill-rule="evenodd" clip-rule="evenodd" d="M21.7733 80.8458C21.888 78.2546 21.7536 75.6584 21.3718 73.0929L17.6663 48.195L14.0944 31.59C9.70684 38.6573 8.26153 32.5969 4.38904 20.25L0.0546417 47.8462C0.0181847 48.0783 0.00199699 48.3131 0.00625801 48.5481L1.6458 138.915L-0.000146866 221.13H19.2026L20.9582 218.7L19.2026 138.915L21.7733 80.8458Z" fill="#F2AB3D"/>
<path d="M4.53342 18.6514C4.58295 18.1029 4.74382 17.5703 5.00618 17.0861L5.92526 15.39C5.92526 15.39 6.84041 24.0248 8.11985 26.73C9.64437 29.9534 12.6188 26.73 12.6188 26.73C13.1097 28.0743 14.0944 31.59 14.0944 31.59C9.70684 38.6573 8.26153 32.5969 4.38904 20.25L4.53342 18.6514Z" fill="#DF9C34"/>
</mask>
<g mask="url(#mask2_467_8874)">
<path d="M26.5203 132.363C25.8387 137.417 24.73 141.516 23.3616 144.039C21.9933 146.562 20.4396 147.373 18.9354 146.349C17.4311 145.326 16.058 142.523 15.0233 138.365C13.9887 134.207 13.3488 128.919 13.2003 123.3C13.0518 117.681 13.4027 112.037 14.2001 107.219C14.9975 102.401 16.198 98.6717 17.6203 96.5944C19.0426 94.5171 20.6094 94.2046 22.0841 95.704C23.5587 97.2034 24.8611 100.433 25.7946 104.906L20.2128 120.775L26.5203 132.363Z" fill="#0096B2"/>
</g>
<path fill-rule="evenodd" clip-rule="evenodd" d="M0.883837 55.4839L0.877831 55.485C0.877831 55.485 0.735892 69.3234 0.877831 78.165C1.03879 88.1916 1.75567 103.68 1.75567 103.68H12.0703C12.0703 103.68 13.367 83.9615 13.0578 71.28C12.8854 64.2053 12.0703 53.46 12.0703 53.46L11.9893 53.4746C11.538 45.6472 9.2402 39.6899 6.4735 39.6899C3.47444 39.6899 1.02638 46.6899 0.883837 55.4839Z" fill="#0096B2"/>
<ellipse cx="5.1573" cy="6.075" rx="5.1573" ry="6.075" transform="matrix(-1 0 0 1 12.0708 98.01)" fill="#035F71"/>
<line x1="0.81" y1="-0.81" x2="23.49" y2="-0.81" transform="matrix(0 -1 -1 0 22.9951 24.3)" stroke="black" stroke-width="1.62" stroke-linecap="round"/>
<path fill-rule="evenodd" clip-rule="evenodd" d="M38.6832 81.4445C38.9044 78.4574 38.7935 75.4549 38.3526 72.4922L34.7366 48.195L31.1647 31.59C26.7771 38.6572 25.3317 32.5968 21.4593 20.25L17.1254 47.8426C17.0886 48.0771 17.0724 48.3143 17.0771 48.5515L18.6957 130L18.0577 204.43H37.2604L39.0161 202L36.2728 114L38.6832 81.4445Z" fill="#DEE5FF"/>
<path d="M21.6036 18.6513C21.6532 18.1028 21.814 17.5702 22.0764 17.086L22.9955 15.39C22.9955 15.39 23.9106 24.0248 25.1901 26.73C26.7146 29.9533 29.689 26.73 29.689 26.73C30.1799 28.0743 31.1647 31.59 31.1647 31.59C26.7771 38.6572 25.3317 32.5968 21.4593 20.25L21.6036 18.6513Z" fill="#7C98FA"/>
<path fill-rule="evenodd" clip-rule="evenodd" d="M17.9544 55.4838L17.9481 55.485C17.9481 55.485 17.8062 69.3234 17.9481 78.165C18.1091 88.1916 18.826 103.68 18.826 103.68H29.1406C29.1406 103.68 30.4373 83.9615 30.1281 71.28C29.9557 64.2053 29.1406 53.46 29.1406 53.46L29.0599 53.4746C28.6085 45.6472 26.3107 39.6899 23.544 39.6899C20.545 39.6899 18.0969 46.6899 17.9544 55.4838Z" fill="#7C98FA"/>
<ellipse cx="5.1573" cy="6.075" rx="5.1573" ry="6.075" transform="matrix(-1 0 0 1 29.1406 98.01)" fill="#657DD1"/>
<line x1="0.81" y1="-0.81" x2="22.4867" y2="-0.81" transform="matrix(0 -1 -1 0 38.9819 23.2968)" stroke="black" stroke-width="1.62" stroke-linecap="round"/>
<path fill-rule="evenodd" clip-rule="evenodd" d="M54.8144 77.8352C54.9391 75.1338 54.793 72.4267 54.3781 69.7545L50.7225 46.2052L47.1506 30.2858C42.763 37.0613 41.3177 31.251 37.4452 19.414L33.1155 45.8419C33.0759 46.0836 33.0583 46.3284 33.063 46.5733L34.702 133.18L33.056 212H52.2587L50.7225 175.444L52.2587 133.18L54.8144 77.8352Z" fill="#F3FFF7"/>
<path d="M37.5836 17.9448C37.637 17.3775 37.8096 16.8279 38.09 16.3319L38.9814 14.7546C38.9814 14.7546 39.8966 23.0329 41.176 25.6264C42.7005 28.7167 45.6749 25.6264 45.6749 25.6264C46.1658 26.9152 47.1506 30.2858 47.1506 30.2858C42.763 37.0613 41.3177 31.251 37.4452 19.414L37.5836 17.9448Z" fill="#4C4C4C"/>
<mask id="mask3_467_8874" style="mask-type:alpha" maskUnits="userSpaceOnUse" x="33" y="14" width="22" height="198">
<path fill-rule="evenodd" clip-rule="evenodd" d="M54.8144 77.8352C54.9391 75.1338 54.793 72.4267 54.3781 69.7544L50.7225 46.2051L47.1506 30.2857C42.763 37.0612 41.3177 31.251 37.4452 19.4139L33.1155 45.8418C33.0759 46.0835 33.0583 46.3283 33.063 46.5732L34.702 133.179L33.056 212H52.2587L54.0144 209.67L52.2587 133.179L54.8144 77.8352Z" fill="#F2AB3D"/>
<path d="M37.5836 17.9448C37.637 17.3775 37.8096 16.8278 38.09 16.3318L38.9814 14.7546C38.9814 14.7546 39.8966 23.0329 41.176 25.6264C42.7005 28.7166 45.6749 25.6264 45.6749 25.6264C46.1658 26.9152 47.1506 30.2857 47.1506 30.2857C42.763 37.0612 41.3177 31.251 37.4452 19.4139L37.5836 17.9448Z" fill="#DF9C34"/>
</mask>
<g mask="url(#mask3_467_8874)">
<path d="M59.4139 91.8047C58.7323 96.6501 57.6236 100.579 56.2552 102.998C54.8869 105.417 53.3332 106.195 51.829 105.213C50.3247 104.232 52.8636 95.7912 51.8289 91.8047C50.7943 87.8182 46.2424 88.5027 46.0938 83.1157C45.9453 77.7288 46.2963 72.3172 47.0936 67.6983C47.891 63.0794 50.4067 74.5326 51.8289 72.5411C53.2512 70.5495 53.503 55.2215 54.9776 56.659C56.4523 58.0965 57.7547 61.1931 58.6881 65.481L53.1063 80.695L59.4139 91.8047Z" fill="#DAFFD4"/>
</g>
<path fill-rule="evenodd" clip-rule="evenodd" d="M33.9402 53.1931L33.934 53.1942C33.934 53.1942 33.792 66.4613 33.934 74.9378C34.0949 84.5505 34.8118 99.3993 34.8118 99.3993H45.1264C45.1264 99.3993 46.4231 80.495 46.114 68.3371C45.9415 61.5545 45.1264 51.2528 45.1264 51.2528L45.0457 51.2668C44.5943 43.7626 42.2966 38.0513 39.5299 38.0513C36.5308 38.0513 34.0828 44.7622 33.9402 53.1931Z" fill="#4C4C4C"/>
<ellipse cx="5.1573" cy="5.82418" rx="5.1573" ry="5.82418" transform="matrix(-1 0 0 1 45.126 93.9634)" fill="#353535"/>
<line x1="0.81" y1="-0.81" x2="23.49" y2="-0.81" transform="matrix(0 -1 -1 0 130.936 24.3)" stroke="black" stroke-width="1.62" stroke-linecap="round"/>
<path fill-rule="evenodd" clip-rule="evenodd" d="M159.918 84.0778C160.303 79.3624 159.859 74.616 158.606 70.0539L152.602 48.195L146.011 31.59C137.914 38.6573 135.246 32.5969 128.1 20.25L120.179 47.5761C120.061 47.9861 120.007 48.4124 120.022 48.8391L123.037 138.915L120 221.13H155.437L158.677 218.7L155.437 138.915L159.918 84.0778Z" fill="#248496"/>
<path d="M128.292 19.1002C128.43 18.2676 128.826 17.4992 129.423 16.9023L130.935 15.39C130.935 15.39 132.624 24.0248 134.985 26.73C137.798 29.9534 143.287 26.73 143.287 26.73C144.193 28.0743 146.011 31.59 146.011 31.59C137.914 38.6573 135.246 32.5969 128.1 20.25L128.292 19.1002Z" fill="#0096B2"/>
<mask id="mask4_467_8874" style="mask-type:alpha" maskUnits="userSpaceOnUse" x="120" y="15" width="41" height="207">
<path fill-rule="evenodd" clip-rule="evenodd" d="M159.918 84.0777C160.303 79.3623 159.859 74.616 158.606 70.0538L152.602 48.195L146.011 31.59C137.914 38.6572 135.246 32.5968 128.1 20.25L120.179 47.576C120.061 47.9861 120.007 48.4123 120.022 48.839L123.037 138.915L120 221.13H155.437L158.677 218.7L155.437 138.915L159.918 84.0777Z" fill="#F2AB3D"/>
<path d="M128.292 19.1002C128.43 18.2676 128.826 17.4991 129.423 16.9022L130.935 15.39C130.935 15.39 132.624 24.0248 134.985 26.73C137.798 29.9533 143.287 26.73 143.287 26.73C144.193 28.0743 146.011 31.59 146.011 31.59C137.914 38.6572 135.246 32.5968 128.1 20.25L128.292 19.1002Z" fill="#DF9C34"/>
</mask>
<g mask="url(#mask4_467_8874)">
<path d="M168.942 132.363C167.684 137.417 165.638 141.515 163.113 144.039C160.588 146.562 157.721 147.373 154.945 146.349C152.169 145.326 149.634 142.523 147.725 138.365C145.816 134.207 144.635 128.919 144.361 123.3C144.087 117.681 144.734 112.036 146.206 107.219C147.677 102.401 149.893 98.6716 152.518 96.5943C155.142 94.517 158.034 94.2045 160.755 95.7039C163.477 97.2034 165.88 100.433 167.603 104.906L157.302 120.775L168.942 132.363Z" fill="#0096B2"/>
</g>
<path fill-rule="evenodd" clip-rule="evenodd" d="M121.63 55.4839L121.619 55.485C121.619 55.485 121.357 69.3234 121.619 78.165C121.916 88.1916 123.239 103.68 123.239 103.68H142.274C142.274 103.68 144.667 83.9615 144.097 71.28C143.778 64.2053 142.274 53.46 142.274 53.46L142.125 53.4746C141.292 45.6472 137.051 39.6899 131.946 39.6899C126.411 39.6899 121.893 46.6899 121.63 55.4839Z" fill="#0096B2"/>
<ellipse cx="9.5175" cy="6.075" rx="9.5175" ry="6.075" transform="matrix(-1 0 0 1 142.275 98.01)" fill="#035F71"/>
<line x1="0.81" y1="-0.81" x2="23.49" y2="-0.81" transform="matrix(0 -1 -1 0 162.435 24.3)" stroke="black" stroke-width="1.62" stroke-linecap="round"/>
<path fill-rule="evenodd" clip-rule="evenodd" d="M190.878 85.1643C191.619 79.7443 191.254 74.2304 189.805 68.9553L184.103 48.195L177.512 31.59C169.415 38.6572 166.747 32.5968 159.601 20.25L151.682 47.5696C151.562 47.9839 151.509 48.4146 151.525 48.8456L154.501 130L153.323 204.43H188.761L192.001 202L187.164 117.919C187.014 115.313 187.116 112.697 187.47 110.11L190.878 85.1643Z" fill="#9BD2E5"/>
<path d="M159.792 19.1002C159.931 18.2676 160.327 17.4991 160.924 16.9022L162.436 15.39C162.436 15.39 164.125 24.0248 166.486 26.73C169.299 29.9533 174.788 26.73 174.788 26.73C175.694 28.0743 177.512 31.59 177.512 31.59C169.415 38.6572 166.747 32.5968 159.601 20.25L159.792 19.1002Z" fill="#011353"/>
<path fill-rule="evenodd" clip-rule="evenodd" d="M153.133 55.4837L153.12 55.485C153.12 55.485 152.858 69.3234 153.12 78.165C153.417 88.1916 154.74 103.68 154.74 103.68H173.775C173.775 103.68 176.168 83.9615 175.598 71.28C175.279 64.2053 173.775 53.46 173.775 53.46L173.627 53.4745C172.794 45.6472 168.554 39.6899 163.448 39.6899C157.913 39.6899 153.396 46.6898 153.133 55.4837Z" fill="#2D4AB1"/>
<ellipse cx="9.5175" cy="6.075" rx="9.5175" ry="6.075" transform="matrix(-1 0 0 1 173.775 98.01)" fill="#233A8B"/>
<line x1="0.81" y1="-0.81" x2="24.3898" y2="-0.81" transform="matrix(0 -1 -1 0 187.435 25.1998)" stroke="black" stroke-width="1.62" stroke-linecap="round"/>
<path fill-rule="evenodd" clip-rule="evenodd" d="M215.955 87.7281C216.645 82.4929 216.304 77.1734 214.952 72.0689L209.102 49.9797L202.511 32.7598C194.414 40.0888 191.746 33.804 184.6 20.9999L176.669 49.3745C176.557 49.7756 176.507 50.1916 176.522 50.6078L179.5 134.814L178.322 212H213.76L217 209.48L212.147 122.002C212.008 119.487 212.103 116.965 212.432 114.468L215.955 87.7281Z" fill="#84D8D3"/>
<path d="M184.803 19.7342C184.934 18.9176 185.313 18.1608 185.887 17.5655L187.435 15.96C187.435 15.96 189.124 24.9145 191.485 27.7199C194.298 31.0626 199.787 27.7199 199.787 27.7199C200.693 29.114 202.511 32.7598 202.511 32.7598C194.414 40.0888 191.746 33.804 184.6 20.9999L184.803 19.7342Z" fill="#68C7C1"/>
<path fill-rule="evenodd" clip-rule="evenodd" d="M178.131 57.5383L178.119 57.5396C178.119 57.5396 177.857 71.8904 178.119 81.0594C178.416 91.4573 179.739 107.519 179.739 107.519H198.774C198.774 107.519 201.167 87.0706 200.597 73.9194C200.278 66.5828 198.774 55.4396 198.774 55.4396L198.626 55.4546C197.793 47.3375 193.553 41.1597 188.447 41.1597C182.912 41.1597 178.395 48.4188 178.131 57.5383Z" fill="#AEEAE6"/>
<ellipse cx="9.5175" cy="6.29996" rx="9.5175" ry="6.29996" transform="matrix(-1 0 0 1 198.776 101.639)" fill="#68C7C1"/>
<line x1="0.81" y1="-0.81" x2="23.49" y2="-0.81" transform="matrix(0 -1 -1 0 207.511 24.3)" stroke="black" stroke-width="1.62" stroke-linecap="round"/>
<path fill-rule="evenodd" clip-rule="evenodd" d="M230.168 82.5243C230.403 78.8256 230.13 75.1122 229.355 71.4879L224.376 48.195L219.245 31.59C212.943 38.6573 210.867 32.5969 205.305 20.25L199.111 47.7027C199.038 48.0297 199.005 48.3645 199.013 48.6995L201.364 138.915L199 221.13H226.582L229.104 218.7L226.582 138.915L230.168 82.5243Z" fill="#D7D2CA"/>
<path d="M205.478 18.9151C205.571 18.1981 205.854 17.5191 206.298 16.9486L207.511 15.39C207.511 15.39 208.826 24.0248 210.664 26.73C212.853 29.9534 217.126 26.73 217.126 26.73C217.831 28.0743 219.245 31.59 219.245 31.59C212.943 38.6573 210.867 32.5969 205.305 20.25L205.478 18.9151Z" fill="#DF9C34"/>
<mask id="mask5_467_8874" style="mask-type:alpha" maskUnits="userSpaceOnUse" x="199" y="15" width="32" height="207">
<path fill-rule="evenodd" clip-rule="evenodd" d="M230.168 82.5243C230.403 78.8256 230.129 75.1122 229.354 71.4879L224.375 48.195L219.245 31.59C212.942 38.6573 210.867 32.5969 205.304 20.25L199.111 47.7027C199.037 48.0297 199.004 48.3645 199.013 48.6995L201.364 138.915L199 221.13H226.582L229.103 218.7L226.582 138.915L230.168 82.5243Z" fill="#F2AB3D"/>
<path d="M205.477 18.9151C205.57 18.1981 205.854 17.5191 206.298 16.9486L207.511 15.39C207.511 15.39 208.825 24.0248 210.663 26.73C212.853 29.9534 217.125 26.73 217.125 26.73C217.83 28.0743 219.245 31.59 219.245 31.59C212.942 38.6573 210.867 32.5969 205.304 20.25L205.477 18.9151Z" fill="#DF9C34"/>
</mask>
<g mask="url(#mask5_467_8874)">
<path d="M237.093 132.363C236.114 137.417 234.522 141.516 232.556 144.039C230.591 146.562 228.359 147.373 226.199 146.349C224.038 145.326 222.066 142.523 220.579 138.365C219.093 134.207 218.174 128.919 217.961 123.3C217.748 117.681 218.252 112.037 219.397 107.219C220.542 102.401 222.267 98.6717 224.31 96.5944C226.352 94.5171 228.603 94.2046 230.721 95.704C232.839 97.2034 234.71 100.433 236.051 104.906L228.033 120.775L237.093 132.363Z" fill="#C3C3C3"/>
</g>
<path fill-rule="evenodd" clip-rule="evenodd" d="M200.27 55.4838L200.261 55.4849C200.261 55.4849 200.057 69.3234 200.261 78.1649C200.492 88.1916 201.522 103.68 201.522 103.68H216.337C216.337 103.68 218.2 83.9615 217.756 71.2799C217.508 64.2053 216.337 53.4599 216.337 53.4599L216.221 53.4745C215.573 45.6472 212.273 39.6899 208.299 39.6899C203.991 39.6899 200.475 46.6899 200.27 55.4838Z" fill="#AA7FAE"/>
<ellipse cx="7.4077" cy="6.075" rx="7.4077" ry="6.075" transform="matrix(-1 0 0 1 216.337 98.01)" fill="#8B678E"/>
<line x1="0.81" y1="-0.81" x2="23.49" y2="-0.81" transform="matrix(0 -1 -1 0 232.029 24.3)" stroke="black" stroke-width="1.62" stroke-linecap="round"/>
<path fill-rule="evenodd" clip-rule="evenodd" d="M254.357 83.3779C254.81 79.1196 254.584 74.8164 253.689 70.6287L248.894 48.195L243.763 31.59C237.461 38.6573 235.385 32.5969 229.823 20.25L223.63 47.6977C223.556 48.028 223.523 48.3662 223.533 48.7046L225.853 130L224.937 204.43H252.519L255.041 202L251.237 117.054C251.146 115.021 251.208 112.984 251.423 110.96L254.357 83.3779Z" fill="#84D8D3"/>
<path d="M229.996 18.9151C230.089 18.1981 230.372 17.5191 230.816 16.9486L232.029 15.39C232.029 15.39 233.344 24.0248 235.181 26.73C237.371 29.9534 241.643 26.73 241.643 26.73C242.349 28.0743 243.763 31.59 243.763 31.59C237.461 38.6573 235.385 32.5969 229.823 20.25L229.996 18.9151Z" fill="#68C7C1"/>
<path fill-rule="evenodd" clip-rule="evenodd" d="M224.788 55.4838L224.779 55.4849C224.779 55.4849 224.575 69.3234 224.779 78.1649C225.01 88.1916 226.039 103.68 226.039 103.68H240.855C240.855 103.68 242.717 83.9615 242.273 71.2799C242.026 64.2053 240.855 53.4599 240.855 53.4599L240.739 53.4745C240.091 45.6472 236.791 39.6899 232.817 39.6899C228.509 39.6899 224.993 46.6898 224.788 55.4838Z" fill="#AEEAE6"/>
<ellipse cx="7.4077" cy="6.075" rx="7.4077" ry="6.075" transform="matrix(-1 0 0 1 240.855 98.01)" fill="#68C7C1"/>
<line x1="0.81" y1="-0.81" x2="22.4867" y2="-0.81" transform="matrix(0 -1 -1 0 254.989 23.2968)" stroke="black" stroke-width="1.62" stroke-linecap="round"/>
<path fill-rule="evenodd" clip-rule="evenodd" d="M277.615 79.5834C277.871 75.7296 277.574 71.8589 276.733 68.0892L271.854 46.2051L266.723 30.2857C260.421 37.0612 258.345 31.251 252.783 19.4139L246.599 45.6932C246.519 46.033 246.483 46.3818 246.493 46.7309L248.843 133.179L246.478 212H274.06L271.854 175.444L274.06 133.179L277.615 79.5834Z" fill="#E66F06"/>
<path d="M252.946 18.2111C253.045 17.4741 253.346 16.7788 253.815 16.2015L254.989 14.7546C254.989 14.7546 256.304 23.0329 258.142 25.6264C260.331 28.7166 264.604 25.6264 264.604 25.6264C265.309 26.9152 266.723 30.2857 266.723 30.2857C260.421 37.0612 258.345 31.251 252.783 19.4139L252.946 18.2111Z" fill="#DD5341"/>
<mask id="mask6_467_8874" style="mask-type:alpha" maskUnits="userSpaceOnUse" x="246" y="14" width="32" height="198">
<path fill-rule="evenodd" clip-rule="evenodd" d="M277.615 79.5834C277.871 75.7296 277.574 71.8589 276.733 68.0892L271.854 46.2051L266.723 30.2857C260.421 37.0612 258.345 31.251 252.783 19.4139L246.599 45.6932C246.519 46.033 246.483 46.3818 246.493 46.7309L248.843 133.179L246.478 212H274.06L276.582 209.67L274.06 133.179L277.615 79.5834Z" fill="#F2AB3D"/>
<path d="M252.946 18.2111C253.045 17.4741 253.346 16.7788 253.815 16.2015L254.989 14.7546C254.989 14.7546 256.304 23.0329 258.142 25.6264C260.331 28.7166 264.604 25.6264 264.604 25.6264C265.309 26.9152 266.723 30.2857 266.723 30.2857C260.421 37.0612 258.345 31.251 252.783 19.4139L252.946 18.2111Z" fill="#DF9C34"/>
</mask>
<g mask="url(#mask6_467_8874)">
<path d="M284.338 91.8047C283.359 96.6501 281.767 100.579 279.801 102.998C277.836 105.417 275.604 106.195 273.444 105.213C271.283 104.232 274.93 95.7912 273.444 91.8047C271.958 87.8182 265.419 88.5027 265.206 83.1157C264.993 77.7288 265.497 72.3172 266.642 67.6983C267.787 63.0794 271.401 74.5326 273.444 72.5411C275.487 70.5495 275.848 55.2215 277.966 56.659C280.084 58.0965 281.955 61.1931 283.296 65.481L275.278 80.695L284.338 91.8047Z" fill="#794A3A"/>
</g>
<path fill-rule="evenodd" clip-rule="evenodd" d="M247.748 53.1931L247.739 53.1942C247.739 53.1942 247.535 66.4612 247.739 74.9377C247.97 84.5504 249 99.3993 249 99.3993H263.815C263.815 99.3993 265.678 80.495 265.234 68.337C264.986 61.5545 263.815 51.2528 263.815 51.2528L263.7 51.2668C263.051 43.7626 259.751 38.0513 255.777 38.0513C251.469 38.0513 247.953 44.7622 247.748 53.1931Z" fill="#FACA78"/>
<ellipse cx="7.4077" cy="5.82418" rx="7.4077" ry="5.82418" transform="matrix(-1 0 0 1 263.815 93.9634)" fill="#C09D60"/>
</svg>
