<svg width="305" height="597" viewBox="0 0 305 597" fill="none" xmlns="http://www.w3.org/2000/svg">
<path d="M55.708 0H30.6396V35.0577H0V569.202C0 569.202 26.2031 596.58 48 596.956C59.2363 597.15 66.1182 590.115 73 583.079C79.8818 576.044 86.7637 569.008 98 569.202C108.876 569.39 115.421 576.253 121.958 583.106C128.522 589.988 135.077 596.86 146 596.956C157.238 597.055 163.997 590.191 170.821 583.261C177.438 576.54 184.117 569.758 195 569.202C207.152 568.581 214.942 575.841 222.728 583.096C230.528 590.366 238.324 597.631 250.5 596.956C272.433 595.74 299 569.202 299 569.202L305 35.0577H275.753V0H250.685V35.0577H165.73V0H140.662V35.0577H55.708V0Z" fill="url(#paint0_linear_1142_201)"/>
<defs>
<linearGradient id="paint0_linear_1142_201" x1="263.219" y1="0" x2="263.219" y2="35.0578" gradientUnits="userSpaceOnUse">
<stop stop-color="#343232"/>
<stop offset="0.11"/>
</linearGradient>
</defs>
</svg>
