<svg width="221" height="200" viewBox="0 0 221 200" fill="none" xmlns="http://www.w3.org/2000/svg">
<g clip-path="url(#clip0_189_78)">
<path d="M16.5699 108.239C32.4792 120.592 54.5424 132.522 80.2417 141.788C105.943 151.055 131.035 156.134 151.982 157.079C151.982 157.079 175.889 159.156 178.178 146.897C180.257 135.766 160.195 132.652 151.919 131.711C132.893 129.929 111.125 125.056 88.8903 117.038C66.6538 109.02 45.6375 100.575 32.0065 88.4585C27.4191 84.3824 16.0322 74.5673 7.16443 80.0765C-1.63251 85.5548 3.01518 98.4381 16.5699 108.239Z" fill="#F89E04"/>
<path d="M171.399 136.59C171.893 137.856 172.051 139.259 171.758 140.831C169.471 153.09 145.562 151.013 145.562 151.013C124.614 150.067 99.5212 144.99 73.8219 135.725C48.1227 126.455 26.0595 114.524 10.1484 102.175C9.60548 101.782 9.10174 101.375 8.58813 100.974C10.7279 103.476 13.3927 105.945 16.5708 108.239C32.4802 120.592 54.5433 132.522 80.2426 141.787C105.944 151.054 131.036 156.134 151.983 157.079C151.983 157.079 175.89 159.156 178.179 146.897C179.064 142.155 175.928 138.874 171.399 136.59Z" fill="#E08F03"/>
<path d="M32.007 88.4612C30.6044 87.2171 28.5599 85.4376 26.1573 83.7176L22.2562 90.6112C20.5862 93.5622 21.9035 97.186 25.1963 98.6979C28.489 100.216 32.5127 99.0488 34.1827 96.1008L36.46 92.0787C34.907 90.9074 33.4094 89.7113 32.007 88.4612Z" fill="#E08F03"/>
<path d="M49.3941 100.3L45.8774 106.511C44.209 109.465 45.5248 113.083 48.8175 114.598C52.1119 116.115 56.1338 114.951 57.8043 112L61.1449 106.095C57.0451 104.253 53.1128 102.328 49.3941 100.3Z" fill="#E08F03"/>
<path d="M88.3033 125.073L92.2043 118.183C91.1 117.795 89.9994 117.441 88.892 117.04C85.807 115.927 82.7491 114.806 79.7257 113.669L76.3781 119.587C74.7082 122.535 76.0255 126.159 79.3183 127.67C82.6113 129.19 86.6368 128.022 88.3033 125.073Z" fill="#E08F03"/>
<path d="M111.198 134.305C114.491 135.823 118.515 134.659 120.183 131.705L122.857 126.982C118.539 126.011 114.147 124.885 109.707 123.654L108.257 126.217C106.59 129.169 107.904 132.787 111.198 134.305Z" fill="#E08F03"/>
<path d="M156.692 132.358C154.892 132.074 153.252 131.862 151.921 131.712C148.905 131.427 145.801 131.041 142.655 130.604L141.779 132.152C140.109 135.1 141.425 138.723 144.719 140.238C148.014 141.753 152.037 140.589 153.706 137.635L156.692 132.358Z" fill="#E08F03"/>
<path d="M54.7688 71.3983C71.3553 83.0054 94.0672 93.9085 120.254 101.982C146.441 110.059 171.784 113.974 192.753 113.954C192.753 113.954 216.743 114.929 218.325 102.579C219.761 91.3648 199.56 89.1748 191.245 88.6168C172.145 87.7148 150.138 83.8506 127.479 76.859C104.82 69.8748 83.3559 62.4046 69.0538 50.9328C64.2415 47.0697 52.3137 37.786 43.7776 43.7007C35.2994 49.573 40.6774 62.2313 54.7688 71.3983Z" fill="#F89E04"/>
<path d="M212.973 93.6095C213.706 94.9648 214.031 96.5195 213.8 98.3042C212.218 110.657 188.23 109.683 188.23 109.683C167.261 109.699 141.918 105.787 115.733 97.7106C89.5441 89.6353 66.8342 78.7338 50.2461 67.1282C48.6243 66.0726 47.1329 64.9673 45.7478 63.8336C48.1277 66.4698 51.1572 69.052 54.7708 71.3998C71.3556 83.0054 94.0675 93.9084 120.254 101.982C146.441 110.059 171.784 113.974 192.753 113.954C192.753 113.954 216.743 114.929 218.325 102.579C218.842 98.523 216.526 95.6504 212.973 93.6095Z" fill="#E08F03"/>
<path d="M69.0526 50.9312C67.58 49.7513 65.4415 48.0684 62.9423 46.4623L59.4384 53.5247C57.9398 56.5551 59.4611 60.1059 62.8344 61.4714C66.2089 62.8368 70.1608 61.4897 71.6594 58.4623L73.7029 54.3396C72.0873 53.2402 70.5235 52.1115 69.0526 50.9312Z" fill="#E08F03"/>
<path d="M87.0864 61.9563L83.9318 68.3198C82.4332 71.3503 83.9544 74.9041 87.3278 76.2665C90.7024 77.6289 94.6543 76.2848 96.1528 73.2574L99.1514 67.2061C94.9523 65.5541 90.9166 63.8116 87.0864 61.9563Z" fill="#E08F03"/>
<path d="M127.348 84.9126L130.85 77.8502C129.726 77.5148 128.607 77.2115 127.478 76.8574C124.333 75.8919 121.217 74.912 118.134 73.9159L115.129 79.9792C113.63 83.0002 115.151 86.5605 118.526 87.9229C121.9 89.2842 125.851 87.9367 127.348 84.9126Z" fill="#E08F03"/>
<path d="M150.733 93.0821C154.107 94.4445 158.059 93.0974 159.556 90.073L161.958 85.2335C157.59 84.457 153.141 83.5398 148.638 82.5124L147.337 85.1381C145.837 88.1624 147.358 91.7197 150.733 93.0821Z" fill="#E08F03"/>
<path d="M196.044 89.0437C194.232 88.8392 192.58 88.7058 191.243 88.6156C188.215 88.4737 185.091 88.2282 181.928 87.9361L181.141 89.5192C179.644 92.5467 181.164 96.1035 184.539 97.4659C187.911 98.8313 191.865 97.4842 193.362 94.4568L196.044 89.0437Z" fill="#E08F03"/>
</g>
<defs>
<clipPath id="clip0_189_78">
<rect width="216" height="194" fill="white" transform="translate(4.89014) rotate(1.44442)"/>
</clipPath>
</defs>
</svg>
