<svg width="83" height="66" viewBox="0 0 83 66" fill="none" xmlns="http://www.w3.org/2000/svg">
<g clip-path="url(#clip0_780_3982)">
<circle cx="40.5714" cy="32.5714" r="32.5714" fill="#F69C3B"/>
<path d="M88.9512 63.9821L31.8988 64.0227C29.0892 64.0247 26.8094 66.3103 26.8144 69.1199L88.9602 69.0756L88.9512 63.9821Z" fill="#F69C3B"/>
<path d="M88.9566 61.1385L32.1054 61.0935C27.6618 61.09 24.0501 64.6989 24.0501 69.1426L26.9308 69.1426C26.9308 66.4746 29.0993 64.3078 31.7672 64.31L88.9525 64.3562L88.9566 61.1385Z" fill="#BAD6D8"/>
<path d="M21.9638 69.1474L21.9613 68.9913C21.8707 63.292 26.4796 58.6088 32.1798 58.608L88.8875 58.6044L88.8874 61.3271L31.8894 61.3313C27.579 61.3316 24.0743 64.8365 24.0742 69.1471L21.9638 69.1474Z" fill="#007458"/>
<path d="M19.7793 69.1034C19.7789 61.4261 25.9371 55.1398 33.6133 54.9817L88.956 53.8415L88.9563 58.8348L32.2695 58.8038C26.5867 58.8007 21.9645 63.4208 21.9647 69.1037L19.7793 69.1034Z" fill="#DDCBC9"/>
<path d="M18.1568 69.1303C18.2398 60.0912 25.6156 52.7872 34.6544 52.7933L42.2039 52.7985L88.9576 52.8303L88.9525 55.4163L34.4068 55.4163C26.6857 55.4163 20.2701 61.4245 19.7617 69.1314L18.1568 69.1303Z" fill="#627A7F"/>
</g>
<path d="M33.9691 23.5618C33.8228 23.5491 33.6542 23.5364 33.4634 23.5236C33.298 23.5109 33.104 23.5014 32.8813 23.495C32.6587 23.4886 32.4074 23.4855 32.1275 23.4855C31.6567 23.4855 31.1255 23.5046 30.5339 23.5427C29.9486 23.5745 29.3284 23.6381 28.6731 23.7336C28.8958 22.7921 29.0643 21.8855 29.1789 21.014C29.2934 20.1424 29.3792 19.3663 29.4365 18.6856C29.5001 17.8904 29.5383 17.1429 29.551 16.4432C29.551 16.1442 29.5446 15.8165 29.5319 15.4603C29.5192 15.1549 29.5033 14.8019 29.4842 14.4011C29.4651 13.9939 29.4397 13.555 29.4079 13.0842C29.1089 13.3705 28.8099 13.679 28.5109 14.0099C28.2183 14.3343 27.9352 14.6746 27.6616 15.0309C27.3881 15.3808 27.1304 15.737 26.8887 16.0996C26.6533 16.4623 26.4465 16.8185 26.2684 17.1684L26.4974 9.87799C27.0954 9.94797 27.7252 10.002 28.3868 10.0402C29.0548 10.0784 29.7355 10.0975 30.4289 10.0975C31.4213 10.0975 32.4042 10.0625 33.3775 9.9925C34.3508 9.92252 35.2446 9.82074 36.0589 9.68714L36.412 17.0539C35.954 16.1823 35.445 15.3649 34.8852 14.6015C34.3318 13.8317 33.7401 13.1892 33.1103 12.6739C33.0594 13.1065 33.0213 13.5614 32.9958 14.0385C32.9767 14.5092 32.9672 14.9927 32.9672 15.4889C32.9672 16.1314 32.9863 16.7931 33.0244 17.4737C33.069 18.1481 33.1294 18.8288 33.2058 19.5158C33.2885 20.2029 33.3934 20.8868 33.5207 21.5674C33.6479 22.2481 33.7974 22.9129 33.9691 23.5618ZM47.4049 8.90466C47.1631 9.28 46.9214 9.66806 46.6796 10.0688C46.4379 10.4633 46.1993 10.8704 45.964 11.2903C46.2439 11.6338 46.492 12.0219 46.7083 12.4544C46.9309 12.887 47.1186 13.3546 47.2713 13.8572C47.4239 14.3597 47.5385 14.8941 47.6148 15.4603C47.6975 16.0201 47.7388 16.6022 47.7388 17.2066C47.7388 18.1735 47.6307 19.0832 47.4144 19.9357C47.1981 20.7818 46.8705 21.5229 46.4315 22.1591C45.9926 22.7889 45.4359 23.2851 44.7616 23.6477C44.0936 24.0167 43.3016 24.2011 42.3856 24.2011C41.9148 24.2011 41.4758 24.1503 41.0687 24.0485C40.6616 23.9467 40.2862 23.8035 39.9427 23.6191L39.4179 24.7164C39.3034 24.6783 39.1729 24.6433 39.0266 24.6115C38.8803 24.586 38.7244 24.5638 38.559 24.5447C38.4 24.5256 38.2314 24.5129 38.0533 24.5065C37.8815 24.5001 37.7161 24.497 37.5571 24.497H37.1468C37.3503 24.2043 37.5666 23.8831 37.7957 23.5332C38.0247 23.1833 38.2601 22.8016 38.5018 22.3881C37.9992 21.7392 37.6271 20.9726 37.3853 20.0884C37.15 19.1977 37.0323 18.2371 37.0323 17.2066C37.0323 16.4941 37.0991 15.807 37.2327 15.1454C37.3662 14.4838 37.5507 13.8667 37.7861 13.2942C38.0215 12.7216 38.3046 12.2 38.6354 11.7292C38.9662 11.2585 39.3288 10.8577 39.7232 10.5269C40.124 10.1897 40.547 9.92888 40.9924 9.7444C41.444 9.55991 41.9084 9.46767 42.3856 9.46767C42.78 9.46767 43.1553 9.51856 43.5116 9.62034C43.8678 9.72213 44.2082 9.86209 44.5326 10.0402C44.6217 9.843 44.7107 9.64897 44.7998 9.45812C44.8888 9.26728 44.9779 9.08279 45.067 8.90466C45.1242 8.93011 45.1974 8.9492 45.2864 8.96192C45.3755 8.97464 45.4678 8.98736 45.5632 9.00009C45.665 9.00645 45.7604 9.01281 45.8494 9.01917C45.9449 9.01917 46.0276 9.01917 46.0976 9.01917C46.1866 9.01917 46.2852 9.01599 46.3934 9.00963C46.5079 9.00327 46.6256 8.99691 46.7464 8.99055C46.8673 8.97782 46.985 8.9651 47.0995 8.95238C47.214 8.93329 47.3158 8.91739 47.4049 8.90466ZM40.9637 16.3859C40.9637 16.5831 40.9701 16.774 40.9828 16.9585C41.0019 17.1366 41.0273 17.3052 41.0592 17.4642C41.39 16.7772 41.7176 16.0901 42.042 15.403C42.3728 14.7096 42.6909 14.0353 42.9963 13.3801C42.8054 13.1701 42.6018 13.0652 42.3856 13.0652C42.1947 13.0652 42.0134 13.1669 41.8416 13.3705C41.6699 13.5677 41.5172 13.8254 41.3836 14.1434C41.2564 14.4615 41.1546 14.8178 41.0782 15.2122C41.0019 15.6066 40.9637 15.9979 40.9637 16.3859ZM43.836 16.3859C43.836 16.0615 43.8169 15.7498 43.7787 15.4508C43.4925 16.0424 43.2126 16.634 42.939 17.2256C42.6655 17.8109 42.3887 18.3994 42.1088 18.991C42.1534 19.0101 42.1979 19.0228 42.2424 19.0292C42.2869 19.0292 42.3347 19.0292 42.3856 19.0292C42.6018 19.0292 42.7991 18.9624 42.9772 18.8288C43.1617 18.6888 43.3143 18.5011 43.4352 18.2658C43.5624 18.0304 43.6611 17.7537 43.731 17.4356C43.801 17.1111 43.836 16.7612 43.836 16.3859ZM58.8939 9.89707C58.8112 10.1006 58.7381 10.3328 58.6744 10.5937C58.6172 10.8545 58.5631 11.128 58.5122 11.4143C58.4677 11.7006 58.4263 11.9932 58.3882 12.2922C58.3564 12.5912 58.3309 12.8807 58.3118 13.1606C58.2609 13.8222 58.2291 14.5061 58.2164 15.2122C58.2164 15.6511 58.2132 16.1155 58.2069 16.6054C58.2069 17.0952 58.1878 17.5946 58.1496 18.1035C58.1178 18.6125 58.0574 19.1182 57.9683 19.6208C57.8856 20.117 57.7552 20.5941 57.5771 21.0522C57.4053 21.5102 57.1795 21.9364 56.8996 22.3308C56.626 22.7189 56.2793 23.0592 55.8594 23.3519C55.4396 23.6381 54.9402 23.8608 54.3613 24.0198C53.7887 24.1852 53.1176 24.2679 52.3478 24.2679C51.6735 24.2679 51.0723 24.1566 50.5443 23.934C50.0227 23.7113 49.5805 23.4155 49.2179 23.0465C48.8553 22.6775 48.5786 22.2513 48.3877 21.7678C48.2032 21.2844 48.111 20.7818 48.111 20.2601C48.111 19.783 48.1873 19.3568 48.34 18.9814C48.4927 18.6061 48.6931 18.2912 48.9412 18.0368C49.1893 17.7759 49.4724 17.5787 49.7905 17.4451C50.1085 17.3115 50.433 17.2447 50.7638 17.2447C51.2282 17.2447 51.664 17.3815 52.0711 17.6551C52.4846 17.9286 52.7995 18.3453 53.0158 18.9051C52.9395 18.8351 52.8536 18.7842 52.7582 18.7524C52.6691 18.7143 52.5864 18.6952 52.5101 18.6952C52.4019 18.6952 52.2969 18.7206 52.1952 18.7715C52.0934 18.816 52.0043 18.8828 51.928 18.9719C51.8516 19.0546 51.788 19.1532 51.7371 19.2677C51.6926 19.3759 51.6703 19.4967 51.6703 19.6303C51.6703 19.783 51.6958 19.923 51.7467 20.0502C51.8039 20.1711 51.8803 20.276 51.9757 20.3651C52.0711 20.4478 52.1792 20.5146 52.3001 20.5655C52.4274 20.61 52.5609 20.6323 52.7009 20.6323C52.9935 20.6323 53.2385 20.5591 53.4357 20.4128C53.6392 20.2601 53.8015 20.0311 53.9223 19.7258C54.0432 19.4204 54.1291 19.0355 54.18 18.5711C54.2372 18.1067 54.2659 17.5564 54.2659 16.9203C54.2659 16.4941 54.2563 16.0456 54.2372 15.5748C54.2245 15.0977 54.2022 14.6206 54.1704 14.1434C54.1386 13.6663 54.0973 13.2019 54.0464 12.7503C53.9955 12.2922 53.9319 11.866 53.8555 11.4716C53.7856 11.0708 53.706 10.7114 53.617 10.3933C53.5279 10.0752 53.4261 9.82074 53.3116 9.62989C53.5406 9.71259 53.8142 9.78575 54.1323 9.84936C54.4058 9.90026 54.7462 9.94797 55.1533 9.9925C55.5604 10.037 56.0344 10.0593 56.5751 10.0593C56.9186 10.0593 57.2813 10.0498 57.663 10.0307C58.0446 10.0052 58.455 9.96069 58.8939 9.89707ZM16.0994 46.9896C15.5947 46.9525 15.1308 46.9265 14.7078 46.9117C14.2847 46.9043 13.8877 46.9006 13.5166 46.9006C12.8412 46.9006 12.2697 46.9191 11.8021 46.9562C11.342 46.9933 10.9672 47.0342 10.6777 47.0787C10.3363 47.1306 10.0617 47.19 9.85388 47.2568C9.88357 47.0267 9.91325 46.8078 9.94294 46.6C9.97263 46.3847 9.9949 46.1732 10.0097 45.9654C10.032 45.7576 10.0468 45.5498 10.0543 45.342C10.0691 45.1342 10.0765 44.9152 10.0765 44.6851C10.0765 43.8613 10.0431 43.1748 9.97634 42.6256C9.91697 42.0689 9.8279 41.6088 9.70915 41.2451C9.5904 40.8814 9.44568 40.5845 9.27497 40.3545C9.10427 40.1244 8.91501 39.9203 8.7072 39.7422C8.69236 40.0761 8.68122 40.399 8.6738 40.7107C8.66638 41.0224 8.66267 41.3527 8.66267 41.7015C8.66267 42.0504 8.67009 42.4103 8.68493 42.7814C8.69978 43.1525 8.72575 43.5496 8.76286 43.9726C8.79997 44.3883 8.85564 44.8336 8.92986 45.3086C9.00408 45.7761 9.09685 46.2808 9.20818 46.8226C8.92615 46.8004 8.61072 46.7744 8.26189 46.7447C7.96501 46.7299 7.61247 46.7113 7.20427 46.689C6.79607 46.6742 6.34704 46.6668 5.8572 46.6668C5.36736 46.6668 4.84782 46.6779 4.29861 46.7002C3.74939 46.7224 3.17419 46.7633 2.57302 46.8226C2.75115 46.6 2.91072 46.3105 3.05173 45.9543C3.20017 45.598 3.33005 45.2084 3.44138 44.7853C3.55271 44.3549 3.64548 43.9058 3.7197 43.4383C3.80134 42.9707 3.87185 42.5105 3.93122 42.0578C4.06482 40.9965 4.15388 39.8646 4.19841 38.6623C4.19841 38.0314 4.19099 37.382 4.17615 36.714C4.1613 36.0461 4.12419 35.3818 4.06482 34.7213C4.00544 34.0533 3.91638 33.3965 3.79763 32.7508C3.6863 32.1051 3.53044 31.4927 3.33005 30.9138C3.64177 30.9361 3.94978 30.9584 4.25407 30.9806C4.55837 30.9955 4.86638 31.0029 5.1781 31.0029C6.64021 31.0029 8.07634 30.8508 9.4865 30.5465C9.15993 31.5113 8.92615 32.4687 8.78513 33.4187C8.64411 34.3613 8.57361 35.3039 8.57361 36.2465C8.57361 36.4765 8.57361 36.7066 8.57361 36.9367C8.58103 37.1594 8.59587 37.3857 8.61814 37.6158C9.249 36.8142 9.73142 36.0275 10.0654 35.2556C10.4068 34.4838 10.5775 33.7267 10.5775 32.9845C10.5775 32.606 10.533 32.2386 10.4439 31.8824C10.3623 31.5187 10.225 31.1588 10.032 30.8025C10.4031 30.8396 10.7705 30.8693 11.1342 30.8916C11.5052 30.9064 11.8763 30.9138 12.2474 30.9138C12.8857 30.9138 13.524 30.8842 14.1623 30.8248C14.8006 30.7654 15.4463 30.6726 16.0994 30.5465C15.9732 30.7394 15.8582 30.9472 15.7543 31.1699C15.6504 31.3851 15.5539 31.6115 15.4648 31.849C15.3832 32.0791 15.3052 32.3129 15.231 32.5504C15.1642 32.7879 15.1049 33.0142 15.0529 33.2295C14.9267 33.7416 14.8265 34.2611 14.7523 34.7881C14.6707 35.3076 14.5334 35.8011 14.3404 36.2687C14.2588 36.4691 14.1586 36.6769 14.0398 36.8922C13.9211 37.1 13.7838 37.3041 13.6279 37.5045C13.472 37.6974 13.2939 37.883 13.0935 38.0611C12.9006 38.2318 12.6779 38.3802 12.4256 38.5064C12.9451 38.7217 13.3422 38.9888 13.6168 39.308C13.8988 39.6271 14.1103 39.9908 14.2513 40.399C14.3924 40.7998 14.4926 41.2414 14.5519 41.7238C14.6113 42.1988 14.6855 42.6998 14.7746 43.2267C14.8562 43.672 14.9601 44.1174 15.0863 44.5627C15.1902 44.9412 15.3238 45.3494 15.4871 45.7873C15.6578 46.2252 15.8619 46.626 16.0994 46.9896ZM29.7482 46.7781C29.2658 46.741 28.8131 46.715 28.39 46.7002C27.9744 46.6927 27.5885 46.689 27.2322 46.689C26.5345 46.689 25.9519 46.7076 25.4843 46.7447C25.0168 46.7892 24.6345 46.8338 24.3377 46.8783C23.9888 46.9302 23.7105 46.9896 23.5027 47.0564C23.5324 46.8263 23.5621 46.6111 23.5918 46.4107C23.6215 46.2103 23.6437 46.0174 23.6586 45.8318C23.6808 45.6388 23.6957 45.4496 23.7031 45.264C23.7179 45.0711 23.7254 44.8707 23.7254 44.6629C23.7254 43.8465 23.692 43.1674 23.6252 42.6256C23.5658 42.0838 23.4767 41.631 23.358 41.2674C23.2392 40.9037 23.0945 40.6105 22.9238 40.3879C22.7531 40.1652 22.5638 39.9648 22.356 39.7867C22.3412 40.1207 22.3301 40.4435 22.3226 40.7552C22.3152 41.067 22.3115 41.3972 22.3115 41.7461C22.3115 42.0875 22.3189 42.4437 22.3338 42.8148C22.3486 43.1859 22.3746 43.5793 22.4117 43.9949C22.4488 44.4105 22.5045 44.8558 22.5787 45.3308C22.6529 45.7984 22.7457 46.3068 22.857 46.856C22.8496 46.8263 22.7531 46.7929 22.5676 46.7558C22.382 46.7187 22.1334 46.6853 21.8217 46.6556C21.5099 46.626 21.15 46.6037 20.7418 46.5888C20.341 46.5666 19.9217 46.5554 19.4838 46.5554C18.9123 46.5554 18.3408 46.574 17.7693 46.6111C17.1978 46.6556 16.682 46.7373 16.2218 46.856C16.4 46.626 16.5595 46.3365 16.7006 45.9877C16.849 45.6314 16.9789 45.2418 17.0902 44.8187C17.2015 44.3957 17.2943 43.9504 17.3685 43.4828C17.4502 43.0152 17.5207 42.5551 17.5801 42.1023C17.7136 41.041 17.8027 39.9092 17.8472 38.7068C17.8472 38.4099 17.8472 38.0351 17.8472 37.5824C17.8547 37.1297 17.8472 36.6361 17.825 36.1017C17.8101 35.5674 17.7804 35.0181 17.7359 34.4541C17.6988 33.89 17.632 33.3482 17.5355 32.8287C17.4465 32.3092 17.3277 31.8342 17.1793 31.4037C17.0308 30.9732 16.8416 30.6281 16.6115 30.3683C17.1459 30.45 17.6654 30.5056 18.1701 30.5353C18.6748 30.5576 19.1052 30.5687 19.4615 30.5687C19.7732 30.5687 20.059 30.5613 20.3187 30.5465C20.5859 30.5316 20.8494 30.5168 21.1092 30.5019C21.3689 30.4871 21.6398 30.4722 21.9218 30.4574C22.2039 30.4426 22.5156 30.4351 22.857 30.4351C23.3246 30.4351 23.7959 30.4611 24.2709 30.5131C24.7459 30.5576 25.1986 30.6429 25.6291 30.7691C26.067 30.8879 26.4715 31.0549 26.8426 31.2701C27.2211 31.4779 27.5476 31.7451 27.8222 32.0717C28.1043 32.3908 28.3232 32.7767 28.4791 33.2295C28.6424 33.6822 28.724 34.2092 28.724 34.8103C28.724 35.1443 28.6795 35.4783 28.5904 35.8123C28.5088 36.1463 28.3715 36.4765 28.1785 36.8031C27.9855 37.1222 27.7332 37.4302 27.4215 37.7271C27.1172 38.0166 26.7424 38.2838 26.297 38.5287C26.824 38.7439 27.2211 39.0111 27.4883 39.3302C27.7629 39.6494 27.9595 40.0131 28.0783 40.4213C28.197 40.8295 28.2601 41.2748 28.2676 41.7572C28.2824 42.2322 28.2972 42.7295 28.3121 43.249C28.3418 43.8056 28.4123 44.3215 28.5236 44.7965C28.5681 44.9969 28.6238 45.201 28.6906 45.4088C28.7648 45.6166 28.8502 45.8095 28.9467 45.9877C29.0506 46.1658 29.1656 46.3254 29.2918 46.4664C29.4254 46.6074 29.5775 46.7113 29.7482 46.7781ZM22.356 37.1816C22.5193 37.0629 22.7011 36.9144 22.9015 36.7363C23.1093 36.5508 23.2986 36.3504 23.4693 36.1351C23.6474 35.9125 23.7959 35.6787 23.9146 35.4338C24.0334 35.1888 24.0927 34.9439 24.0927 34.699C24.0927 34.4615 24.0222 34.2685 23.8812 34.1201C23.7476 33.9717 23.5955 33.8974 23.4248 33.8974C23.1873 33.8974 22.998 34.0088 22.857 34.2314C22.716 34.4467 22.6047 34.7027 22.523 34.9996C22.4488 35.2965 22.3968 35.597 22.3672 35.9013C22.3449 36.1982 22.3338 36.4283 22.3338 36.5916C22.3338 36.6806 22.3338 36.7771 22.3338 36.881C22.3338 36.9775 22.3412 37.0777 22.356 37.1816ZM42.4842 39.141C42.4842 40.2691 42.358 41.3304 42.1056 42.325C41.8533 43.3121 41.4711 44.1767 40.959 44.9189C40.4469 45.6537 39.7974 46.2326 39.0107 46.6556C38.2314 47.0861 37.3074 47.3013 36.2386 47.3013C35.1773 47.3013 34.2533 47.0861 33.4666 46.6556C32.6873 46.2326 32.0379 45.6537 31.5183 44.9189C31.0062 44.1767 30.624 43.3121 30.3717 42.325C30.1193 41.3304 29.9931 40.2691 29.9931 39.141C29.9931 38.3097 30.0711 37.5082 30.2269 36.7363C30.3828 35.9644 30.598 35.2445 30.8726 34.5765C31.1472 33.9086 31.4775 33.3 31.8635 32.7508C32.2494 32.2015 32.6724 31.734 33.1326 31.348C33.6002 30.9547 34.0937 30.6504 34.6133 30.4351C35.1402 30.2199 35.682 30.1123 36.2386 30.1123C37.1738 30.1123 38.0236 30.3424 38.7881 30.8025C39.5599 31.2552 40.2168 31.8861 40.7586 32.6951C41.3078 33.5041 41.7308 34.4578 42.0277 35.5562C42.332 36.6547 42.4842 37.8496 42.4842 39.141ZM37.9308 38.1836C37.9308 37.6269 37.8863 37.1148 37.7972 36.6472C37.7082 36.1722 37.5857 35.764 37.4299 35.4226C37.2814 35.0738 37.1033 34.8029 36.8955 34.6099C36.6877 34.4095 36.4687 34.3093 36.2386 34.3093C36.016 34.3093 35.8045 34.4281 35.6041 34.6656C35.4037 34.8957 35.2256 35.1963 35.0697 35.5674C34.9213 35.9385 34.8025 36.3541 34.7135 36.8142C34.6244 37.2744 34.5799 37.7308 34.5799 38.1836C34.5799 38.6215 34.617 39.0297 34.6912 39.4082C34.7728 39.7793 34.8842 40.1021 35.0252 40.3767C35.1662 40.6513 35.3369 40.8703 35.5373 41.0336C35.7451 41.1894 35.9789 41.2674 36.2386 41.2674C36.491 41.2674 36.7211 41.1894 36.9289 41.0336C37.1441 40.8703 37.3222 40.6513 37.4633 40.3767C37.6117 40.1021 37.7267 39.7793 37.8084 39.4082C37.89 39.0297 37.9308 38.6215 37.9308 38.1836ZM56.1886 38.2281C55.5801 39.7347 55.2758 41.1969 55.2758 42.6144C55.2758 43.2972 55.3388 43.9875 55.465 44.6851C55.5912 45.3754 55.7879 46.0804 56.0551 46.8004C55.632 46.6965 55.2386 46.6185 54.875 46.5666C54.5113 46.5146 54.1513 46.4886 53.7951 46.4886C53.4166 46.4886 53.0306 46.522 52.6373 46.5888C52.2439 46.6556 51.8172 46.7595 51.357 46.9006L51.8135 45.1193C51.665 45.3568 51.4869 45.6017 51.2791 45.8541C51.0713 46.099 50.8226 46.3217 50.5332 46.522C50.2511 46.7224 49.9246 46.8857 49.5535 47.0119C49.1898 47.1455 48.7705 47.2123 48.2955 47.2123C47.583 47.2123 46.9261 47.0416 46.325 46.7002C45.7312 46.3588 45.2191 45.8652 44.7886 45.2195C44.3582 44.5738 44.0205 43.7834 43.7756 42.8482C43.5381 41.9056 43.4193 40.8369 43.4193 39.642C43.4193 38.8478 43.4935 38.0611 43.642 37.2818C43.7904 36.4951 44.0056 35.7492 44.2877 35.0441C44.5697 34.3316 44.9185 33.6748 45.3342 33.0736C45.7498 32.465 46.2211 31.9418 46.748 31.5039C47.275 31.0586 47.8576 30.7135 48.4959 30.4685C49.1416 30.2162 49.8355 30.09 50.5777 30.09C51.2531 30.09 51.8431 30.1605 52.3478 30.3015C52.8525 30.4351 53.2904 30.617 53.6615 30.847C54.0326 31.0697 54.3369 31.3295 54.5744 31.6263C54.8193 31.9158 55.0123 32.2201 55.1533 32.5392C55.2943 32.8584 55.3945 33.1775 55.4539 33.4967C55.5133 33.8084 55.5429 34.1015 55.5429 34.3761C55.5429 34.7695 55.4724 35.148 55.3314 35.5117C55.1978 35.8754 55.0086 36.1945 54.7636 36.4691C54.5187 36.7437 54.2293 36.9627 53.8953 37.126C53.5613 37.2892 53.1939 37.3709 52.7931 37.3709C52.3775 37.3709 52.0176 37.3078 51.7133 37.1816C51.409 37.0554 51.1566 36.8922 50.9562 36.6918C50.7558 36.484 50.6037 36.2539 50.4998 36.0015C50.4033 35.7492 50.3551 35.4969 50.3551 35.2445C50.3551 35.0293 50.3922 34.8103 50.4664 34.5877C50.5406 34.365 50.6445 34.1572 50.7781 33.9642C50.8226 34.1201 50.8857 34.2426 50.9674 34.3316C51.049 34.4133 51.1306 34.4726 51.2123 34.5097C51.3013 34.5543 51.4015 34.5802 51.5129 34.5877C51.7652 34.5877 51.9433 34.5246 52.0472 34.3984C52.1586 34.2722 52.2142 34.1275 52.2142 33.9642C52.2142 33.89 52.1957 33.8158 52.1586 33.7416C52.1289 33.6599 52.0806 33.5857 52.0138 33.5189C51.947 33.4521 51.858 33.3965 51.7467 33.3519C51.6427 33.3074 51.5129 33.2851 51.357 33.2851C51.2531 33.2851 51.1084 33.3074 50.9228 33.3519C50.7447 33.389 50.548 33.467 50.3328 33.5857C50.125 33.7045 49.9135 33.8752 49.6982 34.0978C49.483 34.3131 49.2863 34.6025 49.1082 34.9662C48.9301 35.3299 48.7853 35.7752 48.674 36.3021C48.5627 36.8291 48.507 37.4562 48.507 38.1836C48.507 38.7847 48.5552 39.3117 48.6517 39.7644C48.7556 40.2172 48.8967 40.5957 49.0748 40.9C49.2529 41.2043 49.4644 41.4344 49.7093 41.5902C49.9543 41.7386 50.2215 41.8129 50.5109 41.8129C50.7855 41.8129 51.0119 41.7424 51.19 41.6013C51.3681 41.4603 51.5092 41.2896 51.6131 41.0892C51.717 40.8888 51.7875 40.681 51.8246 40.4658C51.8617 40.2506 51.8802 40.0687 51.8802 39.9203C51.8802 39.9129 51.8728 39.8609 51.858 39.7644C51.8506 39.6679 51.8172 39.5566 51.7578 39.4304C51.6984 39.3043 51.6019 39.1744 51.4683 39.0408C51.3347 38.9072 51.1455 38.7959 50.9006 38.7068C51.7763 38.7068 52.6558 38.6697 53.539 38.5955C54.4222 38.5138 55.3054 38.3914 56.1886 38.2281ZM67.4662 46.7558C67.0803 46.6816 66.6832 46.626 66.275 46.5888C65.8742 46.5443 65.4474 46.5109 64.9947 46.4886C64.5494 46.4664 64.0707 46.4552 63.5586 46.4552C63.0539 46.4478 62.5047 46.4441 61.9109 46.4441C61.6289 46.4441 61.2912 46.4478 60.8978 46.4552C60.5119 46.4627 60.0926 46.4812 59.6398 46.5109C59.1945 46.5406 58.7344 46.5814 58.2594 46.6334C57.7844 46.6927 57.3205 46.767 56.8677 46.856C57.031 46.522 57.172 46.1027 57.2908 45.598C57.4095 45.0859 57.506 44.5441 57.5802 43.9726C57.6619 43.4011 57.725 42.8185 57.7695 42.2248C57.814 41.631 57.8474 41.0781 57.8697 40.566C57.892 40.0539 57.9031 39.6123 57.9031 39.2412C57.9105 38.8627 57.9142 38.6029 57.9142 38.4619C57.9142 38.4322 57.9105 38.3172 57.9031 38.1168C57.9031 37.9164 57.8994 37.6566 57.892 37.3375C57.8845 37.0183 57.8734 36.6547 57.8586 36.2465C57.8437 35.8308 57.8215 35.4004 57.7918 34.9551C57.7695 34.5097 57.7361 34.0607 57.6916 33.608C57.6545 33.1552 57.6062 32.7285 57.5469 32.3277C57.4949 31.9195 57.4318 31.5558 57.3576 31.2367C57.2908 30.9101 57.2092 30.6504 57.1127 30.4574C57.84 30.5613 58.5562 30.6392 59.2613 30.6912C59.9664 30.7357 60.6492 30.758 61.3097 30.758C62.1187 30.758 62.8758 30.7357 63.5808 30.6912C64.2859 30.6467 64.9019 30.5947 65.4289 30.5353C66.0449 30.4685 66.6053 30.3906 67.1099 30.3015V35.5228C66.6795 35.122 66.2676 34.814 65.8742 34.5988C65.4808 34.3836 65.132 34.224 64.8277 34.1201C64.4715 34.0013 64.1375 33.9345 63.8258 33.9197C63.4547 33.9197 63.1504 33.9679 62.9129 34.0644C62.6828 34.1535 62.501 34.2722 62.3674 34.4207C62.2412 34.5617 62.1558 34.725 62.1113 34.9105C62.0668 35.0886 62.0445 35.2705 62.0445 35.456C62.0445 35.649 62.0705 35.842 62.1224 36.0349C62.1818 36.2279 62.2709 36.4023 62.3896 36.5582C62.5084 36.714 62.6605 36.8439 62.8461 36.9478C63.039 37.0443 63.2654 37.0926 63.5252 37.0926C63.7404 37.0926 63.9371 37.0443 64.1152 36.9478C64.2933 36.8439 64.4455 36.7289 64.5717 36.6027C64.7201 36.4617 64.8574 36.2984 64.9836 36.1129V40.6439C64.8648 40.3619 64.7238 40.1392 64.5605 39.976C64.4047 39.8127 64.2488 39.6939 64.0929 39.6197C63.9445 39.5381 63.8072 39.4898 63.681 39.475C63.5623 39.4527 63.4806 39.4416 63.4361 39.4416C62.9537 39.4416 62.5937 39.59 62.3562 39.8869C62.1187 40.1838 62 40.566 62 41.0336C62 41.375 62.0371 41.6644 62.1113 41.9019C62.1929 42.1394 62.2969 42.3324 62.423 42.4808C62.5566 42.6293 62.7088 42.7369 62.8795 42.8037C63.0576 42.8705 63.2431 42.9039 63.4361 42.9039C63.733 42.9039 64.0521 42.8371 64.3935 42.7035C64.7349 42.5699 65.0615 42.3918 65.3732 42.1691C65.6924 41.9465 65.9818 41.6941 66.2416 41.4121C66.5088 41.1226 66.7203 40.8295 66.8761 40.5326L67.4662 46.7558ZM74.7582 46.5332C74.6172 46.5183 74.4502 46.5035 74.2572 46.4886C74.0939 46.4738 73.8972 46.4627 73.6672 46.4552C73.4371 46.4478 73.1736 46.4441 72.8767 46.4441C72.2978 46.4441 71.6187 46.4701 70.8394 46.522C70.0676 46.574 69.2177 46.6742 68.29 46.8226C68.4533 46.4886 68.5943 46.0656 68.7131 45.5535C68.8318 45.0414 68.9283 44.4959 69.0025 43.917C69.0842 43.3306 69.1472 42.7369 69.1918 42.1357C69.2363 41.5345 69.2697 40.9742 69.292 40.4547C69.3142 39.9351 69.3254 39.4861 69.3254 39.1076C69.3328 38.7291 69.3365 38.4693 69.3365 38.3283C69.3365 38.2986 69.3328 38.1836 69.3254 37.9832C69.3254 37.7828 69.3217 37.523 69.3142 37.2039C69.3068 36.8847 69.2957 36.5211 69.2808 36.1129C69.266 35.6972 69.2437 35.2668 69.214 34.8215C69.1918 34.3761 69.1584 33.9271 69.1138 33.4744C69.0767 33.0217 69.0285 32.5949 68.9691 32.1941C68.9172 31.7933 68.8541 31.4334 68.7799 31.1142C68.7131 30.7877 68.6314 30.5316 68.5349 30.3461C69.2845 30.4797 69.9674 30.5687 70.5834 30.6133C71.1994 30.6578 71.7486 30.6801 72.231 30.6801C72.5576 30.6801 72.847 30.6726 73.0994 30.6578C73.3592 30.6429 73.5744 30.6281 73.7451 30.6133C73.9455 30.591 74.1236 30.5687 74.2795 30.5465C74.5986 32.1199 74.9623 33.5783 75.3705 34.9217C75.7787 36.265 76.2388 37.5119 76.7509 38.6623V38.2058C76.7287 36.9961 76.6879 35.8679 76.6285 34.8215C76.5988 34.3761 76.5654 33.9271 76.5283 33.4744C76.4912 33.0217 76.4429 32.5949 76.3836 32.1941C76.3316 31.7933 76.2685 31.4334 76.1943 31.1142C76.1275 30.7877 76.0459 30.5316 75.9494 30.3461C76.6916 30.4797 77.3744 30.5687 77.9978 30.6133C78.6287 30.6578 79.1853 30.6801 79.6677 30.6801C79.9943 30.6801 80.2838 30.6726 80.5361 30.6578C80.7959 30.6429 81.0111 30.6281 81.1818 30.6133C81.3822 30.591 81.5603 30.5687 81.7162 30.5465C81.6271 30.9621 81.5492 31.426 81.4824 31.9381C81.4156 32.4502 81.3562 32.9957 81.3043 33.5746C81.2523 34.1535 81.2115 34.7621 81.1818 35.4004C81.1595 36.0386 81.1484 36.6955 81.1484 37.3709C81.1484 38.1353 81.167 38.9146 81.2041 39.7088C81.2412 40.4955 81.3006 41.2822 81.3822 42.0689C81.4713 42.8482 81.5789 43.6164 81.7051 44.3734C81.8386 45.123 81.9945 45.8429 82.1726 46.5332C82.039 46.5183 81.8795 46.5035 81.6939 46.4886C81.5381 46.4738 81.3488 46.4627 81.1261 46.4552C80.9035 46.4478 80.6511 46.4441 80.3691 46.4441C79.8347 46.4441 79.2187 46.4701 78.5211 46.522C77.8234 46.574 77.0738 46.6742 76.2722 46.8226C76.2722 46.0582 76.2092 45.3123 76.083 44.5849C75.9642 43.8502 75.7935 43.1302 75.5709 42.4252C75.3482 41.7127 75.081 41.015 74.7693 40.3322C74.4576 39.6494 74.1125 38.974 73.734 38.306C73.7414 39.0037 73.7674 39.7088 73.8119 40.4213C73.8638 41.1338 73.9306 41.8388 74.0123 42.5365C74.1013 43.2342 74.2052 43.9207 74.324 44.5961C74.4502 45.264 74.5949 45.9097 74.7582 46.5332Z" fill="#A6DFE3"/>
<path d="M32.3404 23.5618C32.1941 23.5491 32.0255 23.5364 31.8347 23.5236C31.6693 23.5109 31.4752 23.5014 31.2526 23.495C31.0299 23.4886 30.7786 23.4855 30.4987 23.4855C30.028 23.4855 29.4968 23.5046 28.9052 23.5427C28.3199 23.5745 27.6996 23.6381 27.0444 23.7336C27.267 22.7921 27.4356 21.8855 27.5501 21.014C27.6646 20.1424 27.7505 19.3663 27.8078 18.6856C27.8714 17.8904 27.9096 17.1429 27.9223 16.4432C27.9223 16.1442 27.9159 15.8165 27.9032 15.4603C27.8905 15.1549 27.8746 14.8019 27.8555 14.4011C27.8364 13.9939 27.811 13.555 27.7791 13.0842C27.4802 13.3705 27.1812 13.679 26.8822 14.0099C26.5895 14.3343 26.3064 14.6746 26.0329 15.0309C25.7593 15.3808 25.5017 15.737 25.26 16.0996C25.0246 16.4623 24.8178 16.8185 24.6397 17.1684L24.8687 9.87799C25.4667 9.94797 26.0965 10.002 26.7581 10.0402C27.4261 10.0784 28.1068 10.0975 28.8002 10.0975C29.7926 10.0975 30.7755 10.0625 31.7488 9.9925C32.7221 9.92252 33.6159 9.82074 34.4302 9.68714L34.7833 17.0539C34.3252 16.1823 33.8163 15.3649 33.2565 14.6015C32.703 13.8317 32.1114 13.1892 31.4816 12.6739C31.4307 13.1065 31.3925 13.5614 31.3671 14.0385C31.348 14.5092 31.3385 14.9927 31.3385 15.4889C31.3385 16.1314 31.3576 16.7931 31.3957 17.4737C31.4403 18.1481 31.5007 18.8288 31.577 19.5158C31.6597 20.2029 31.7647 20.8868 31.8919 21.5674C32.0192 22.2481 32.1687 22.9129 32.3404 23.5618ZM45.7761 8.90466C45.5344 9.28 45.2927 9.66806 45.0509 10.0688C44.8092 10.4633 44.5706 10.8704 44.3352 11.2903C44.6151 11.6338 44.8632 12.0219 45.0795 12.4544C45.3022 12.887 45.4899 13.3546 45.6425 13.8572C45.7952 14.3597 45.9097 14.8941 45.9861 15.4603C46.0688 16.0201 46.1101 16.6022 46.1101 17.2066C46.1101 18.1735 46.002 19.0832 45.7857 19.9357C45.5694 20.7818 45.2418 21.5229 44.8028 22.1591C44.3639 22.7889 43.8072 23.2851 43.1329 23.6477C42.4649 24.0167 41.6729 24.2011 40.7568 24.2011C40.2861 24.2011 39.8471 24.1503 39.44 24.0485C39.0328 23.9467 38.6575 23.8035 38.314 23.6191L37.7891 24.7164C37.6746 24.6783 37.5442 24.6433 37.3979 24.6115C37.2516 24.586 37.0957 24.5638 36.9303 24.5447C36.7713 24.5256 36.6027 24.5129 36.4246 24.5065C36.2528 24.5001 36.0874 24.497 35.9284 24.497H35.518C35.7216 24.2043 35.9379 23.8831 36.1669 23.5332C36.3959 23.1833 36.6313 22.8016 36.8731 22.3881C36.3705 21.7392 35.9983 20.9726 35.7566 20.0884C35.5212 19.1977 35.4035 18.2371 35.4035 17.2066C35.4035 16.4941 35.4703 15.807 35.6039 15.1454C35.7375 14.4838 35.922 13.8667 36.1574 13.2942C36.3928 12.7216 36.6759 12.2 37.0067 11.7292C37.3375 11.2585 37.7001 10.8577 38.0945 10.5269C38.4953 10.1897 38.9183 9.92888 39.3636 9.7444C39.8153 9.55991 40.2797 9.46767 40.7568 9.46767C41.1512 9.46767 41.5266 9.51856 41.8828 9.62034C42.2391 9.72213 42.5794 9.86209 42.9039 10.0402C42.9929 9.843 43.082 9.64897 43.1711 9.45812C43.2601 9.26728 43.3492 9.08279 43.4382 8.90466C43.4955 8.93011 43.5687 8.9492 43.6577 8.96192C43.7468 8.97464 43.839 8.98736 43.9345 9.00009C44.0362 9.00645 44.1317 9.01281 44.2207 9.01917C44.3161 9.01917 44.3988 9.01917 44.4688 9.01917C44.5579 9.01917 44.6565 9.01599 44.7646 9.00963C44.8792 9.00327 44.9968 8.99691 45.1177 8.99055C45.2386 8.97782 45.3563 8.9651 45.4708 8.95238C45.5853 8.93329 45.6871 8.91739 45.7761 8.90466ZM39.335 16.3859C39.335 16.5831 39.3414 16.774 39.3541 16.9585C39.3732 17.1366 39.3986 17.3052 39.4304 17.4642C39.7612 16.7772 40.0889 16.0901 40.4133 15.403C40.7441 14.7096 41.0622 14.0353 41.3675 13.3801C41.1767 13.1701 40.9731 13.0652 40.7568 13.0652C40.566 13.0652 40.3847 13.1669 40.2129 13.3705C40.0411 13.5677 39.8885 13.8254 39.7549 14.1434C39.6276 14.4615 39.5259 14.8178 39.4495 15.2122C39.3732 15.6066 39.335 15.9979 39.335 16.3859ZM42.2073 16.3859C42.2073 16.0615 42.1882 15.7498 42.15 15.4508C41.8637 16.0424 41.5838 16.634 41.3103 17.2256C41.0367 17.8109 40.76 18.3994 40.4801 18.991C40.5246 19.0101 40.5692 19.0228 40.6137 19.0292C40.6582 19.0292 40.7059 19.0292 40.7568 19.0292C40.9731 19.0292 41.1703 18.9624 41.3485 18.8288C41.5329 18.6888 41.6856 18.5011 41.8065 18.2658C41.9337 18.0304 42.0323 17.7537 42.1023 17.4356C42.1723 17.1111 42.2073 16.7612 42.2073 16.3859ZM57.2652 9.89707C57.1825 10.1006 57.1093 10.3328 57.0457 10.5937C56.9885 10.8545 56.9344 11.128 56.8835 11.4143C56.839 11.7006 56.7976 11.9932 56.7595 12.2922C56.7276 12.5912 56.7022 12.8807 56.6831 13.1606C56.6322 13.8222 56.6004 14.5061 56.5877 15.2122C56.5877 15.6511 56.5845 16.1155 56.5781 16.6054C56.5781 17.0952 56.5591 17.5946 56.5209 18.1035C56.4891 18.6125 56.4286 19.1182 56.3396 19.6208C56.2569 20.117 56.1265 20.5941 55.9483 21.0522C55.7766 21.5102 55.5507 21.9364 55.2708 22.3308C54.9973 22.7189 54.6506 23.0592 54.2307 23.3519C53.8108 23.6381 53.3115 23.8608 52.7326 24.0198C52.16 24.1852 51.4889 24.2679 50.7191 24.2679C50.0448 24.2679 49.4436 24.1566 48.9156 23.934C48.3939 23.7113 47.9518 23.4155 47.5892 23.0465C47.2266 22.6775 46.9499 22.2513 46.759 21.7678C46.5745 21.2844 46.4823 20.7818 46.4823 20.2601C46.4823 19.783 46.5586 19.3568 46.7113 18.9814C46.864 18.6061 47.0644 18.2912 47.3125 18.0368C47.5606 17.7759 47.8437 17.5787 48.1617 17.4451C48.4798 17.3115 48.8043 17.2447 49.1351 17.2447C49.5995 17.2447 50.0352 17.3815 50.4424 17.6551C50.8559 17.9286 51.1708 18.3453 51.3871 18.9051C51.3107 18.8351 51.2249 18.7842 51.1294 18.7524C51.0404 18.7143 50.9577 18.6952 50.8813 18.6952C50.7732 18.6952 50.6682 18.7206 50.5664 18.7715C50.4646 18.816 50.3756 18.8828 50.2992 18.9719C50.2229 19.0546 50.1593 19.1532 50.1084 19.2677C50.0639 19.3759 50.0416 19.4967 50.0416 19.6303C50.0416 19.783 50.067 19.923 50.1179 20.0502C50.1752 20.1711 50.2515 20.276 50.347 20.3651C50.4424 20.4478 50.5505 20.5146 50.6714 20.5655C50.7986 20.61 50.9322 20.6323 51.0722 20.6323C51.3648 20.6323 51.6097 20.5591 51.8069 20.4128C52.0105 20.2601 52.1727 20.0311 52.2936 19.7258C52.4145 19.4204 52.5004 19.0355 52.5513 18.5711C52.6085 18.1067 52.6371 17.5564 52.6371 16.9203C52.6371 16.4941 52.6276 16.0456 52.6085 15.5748C52.5958 15.0977 52.5735 14.6206 52.5417 14.1434C52.5099 13.6663 52.4685 13.2019 52.4177 12.7503C52.3668 12.2922 52.3031 11.866 52.2268 11.4716C52.1568 11.0708 52.0773 10.7114 51.9882 10.3933C51.8992 10.0752 51.7974 9.82074 51.6829 9.62989C51.9119 9.71259 52.1855 9.78575 52.5035 9.84936C52.7771 9.90026 53.1174 9.94797 53.5246 9.9925C53.9317 10.037 54.4057 10.0593 54.9464 10.0593C55.2899 10.0593 55.6525 10.0498 56.0342 10.0307C56.4159 10.0052 56.8262 9.96069 57.2652 9.89707ZM14.4707 46.9896C13.966 46.9525 13.5021 46.9265 13.0791 46.9117C12.656 46.9043 12.2589 46.9006 11.8879 46.9006C11.2125 46.9006 10.641 46.9191 10.1734 46.9562C9.71324 46.9933 9.33844 47.0342 9.04898 47.0787C8.70758 47.1306 8.43297 47.19 8.22516 47.2568C8.25484 47.0267 8.28453 46.8078 8.31422 46.6C8.34391 46.3847 8.36617 46.1732 8.38102 45.9654C8.40328 45.7576 8.41813 45.5498 8.42555 45.342C8.44039 45.1342 8.44781 44.9152 8.44781 44.6851C8.44781 43.8613 8.41441 43.1748 8.34762 42.6256C8.28824 42.0689 8.19918 41.6088 8.08043 41.2451C7.96168 40.8814 7.81695 40.5845 7.64625 40.3545C7.47555 40.1244 7.28629 39.9203 7.07848 39.7422C7.06363 40.0761 7.0525 40.399 7.04508 40.7107C7.03766 41.0224 7.03395 41.3527 7.03395 41.7015C7.03395 42.0504 7.04137 42.4103 7.05621 42.7814C7.07106 43.1525 7.09703 43.5496 7.13414 43.9726C7.17125 44.3883 7.22691 44.8336 7.30113 45.3086C7.37535 45.7761 7.46813 46.2808 7.57945 46.8226C7.29742 46.8004 6.98199 46.7744 6.63316 46.7447C6.33629 46.7299 5.98375 46.7113 5.57555 46.689C5.16734 46.6742 4.71832 46.6668 4.22848 46.6668C3.73863 46.6668 3.2191 46.6779 2.66988 46.7002C2.12066 46.7224 1.54547 46.7633 0.944297 46.8226C1.12242 46.6 1.28199 46.3105 1.42301 45.9543C1.57145 45.598 1.70133 45.2084 1.81266 44.7853C1.92398 44.3549 2.01676 43.9058 2.09098 43.4383C2.17262 42.9707 2.24313 42.5105 2.3025 42.0578C2.43609 40.9965 2.52516 39.8646 2.56969 38.6623C2.56969 38.0314 2.56227 37.382 2.54742 36.714C2.53258 36.0461 2.49547 35.3818 2.43609 34.7213C2.37672 34.0533 2.28766 33.3965 2.16891 32.7508C2.05758 32.1051 1.90172 31.4927 1.70133 30.9138C2.01305 30.9361 2.32105 30.9584 2.62535 30.9806C2.92965 30.9955 3.23766 31.0029 3.54938 31.0029C5.01148 31.0029 6.44762 30.8508 7.85777 30.5465C7.53121 31.5113 7.29742 32.4687 7.15641 33.4187C7.01539 34.3613 6.94488 35.3039 6.94488 36.2465C6.94488 36.4765 6.94488 36.7066 6.94488 36.9367C6.95231 37.1594 6.96715 37.3857 6.98941 37.6158C7.62027 36.8142 8.1027 36.0275 8.43668 35.2556C8.77809 34.4838 8.94879 33.7267 8.94879 32.9845C8.94879 32.606 8.90426 32.2386 8.8152 31.8824C8.73356 31.5187 8.59625 31.1588 8.40328 30.8025C8.77438 30.8396 9.14176 30.8693 9.50543 30.8916C9.87652 30.9064 10.2476 30.9138 10.6187 30.9138C11.257 30.9138 11.8953 30.8842 12.5336 30.8248C13.1718 30.7654 13.8175 30.6726 14.4707 30.5465C14.3445 30.7394 14.2295 30.9472 14.1255 31.1699C14.0216 31.3851 13.9252 31.6115 13.8361 31.849C13.7545 32.0791 13.6765 32.3129 13.6023 32.5504C13.5355 32.7879 13.4761 33.0142 13.4242 33.2295C13.298 33.7416 13.1978 34.2611 13.1236 34.7881C13.042 35.3076 12.9046 35.8011 12.7117 36.2687C12.63 36.4691 12.5298 36.6769 12.4111 36.8922C12.2923 37.1 12.155 37.3041 11.9992 37.5045C11.8433 37.6974 11.6652 37.883 11.4648 38.0611C11.2718 38.2318 11.0492 38.3802 10.7968 38.5064C11.3164 38.7217 11.7134 38.9888 11.988 39.308C12.2701 39.6271 12.4816 39.9908 12.6226 40.399C12.7636 40.7998 12.8638 41.2414 12.9232 41.7238C12.9826 42.1988 13.0568 42.6998 13.1459 43.2267C13.2275 43.672 13.3314 44.1174 13.4576 44.5627C13.5615 44.9412 13.6951 45.3494 13.8584 45.7873C14.0291 46.2252 14.2332 46.626 14.4707 46.9896ZM28.1195 46.7781C27.6371 46.741 27.1843 46.715 26.7613 46.7002C26.3457 46.6927 25.9597 46.689 25.6035 46.689C24.9058 46.689 24.3232 46.7076 23.8556 46.7447C23.388 46.7892 23.0058 46.8338 22.7089 46.8783C22.3601 46.9302 22.0818 46.9896 21.874 47.0564C21.9037 46.8263 21.9334 46.6111 21.963 46.4107C21.9927 46.2103 22.015 46.0174 22.0298 45.8318C22.0521 45.6388 22.067 45.4496 22.0744 45.264C22.0892 45.0711 22.0966 44.8707 22.0966 44.6629C22.0966 43.8465 22.0632 43.1674 21.9964 42.6256C21.9371 42.0838 21.848 41.631 21.7293 41.2674C21.6105 40.9037 21.4658 40.6105 21.2951 40.3879C21.1244 40.1652 20.9351 39.9648 20.7273 39.7867C20.7125 40.1207 20.7013 40.4435 20.6939 40.7552C20.6865 41.067 20.6828 41.3972 20.6828 41.7461C20.6828 42.0875 20.6902 42.4437 20.705 42.8148C20.7199 43.1859 20.7459 43.5793 20.783 43.9949C20.8201 44.4105 20.8757 44.8558 20.95 45.3308C21.0242 45.7984 21.117 46.3068 21.2283 46.856C21.2209 46.8263 21.1244 46.7929 20.9388 46.7558C20.7533 46.7187 20.5047 46.6853 20.1929 46.6556C19.8812 46.626 19.5213 46.6037 19.113 46.5888C18.7123 46.5666 18.2929 46.5554 17.855 46.5554C17.2836 46.5554 16.7121 46.574 16.1406 46.6111C15.5691 46.6556 15.0533 46.7373 14.5931 46.856C14.7713 46.626 14.9308 46.3365 15.0718 45.9877C15.2203 45.6314 15.3502 45.2418 15.4615 44.8187C15.5728 44.3957 15.6656 43.9504 15.7398 43.4828C15.8214 43.0152 15.892 42.5551 15.9513 42.1023C16.0849 41.041 16.174 39.9092 16.2185 38.7068C16.2185 38.4099 16.2185 38.0351 16.2185 37.5824C16.2259 37.1297 16.2185 36.6361 16.1963 36.1017C16.1814 35.5674 16.1517 35.0181 16.1072 34.4541C16.0701 33.89 16.0033 33.3482 15.9068 32.8287C15.8177 32.3092 15.699 31.8342 15.5505 31.4037C15.4021 30.9732 15.2129 30.6281 14.9828 30.3683C15.5171 30.45 16.0367 30.5056 16.5414 30.5353C17.0461 30.5576 17.4765 30.5687 17.8328 30.5687C18.1445 30.5687 18.4302 30.5613 18.69 30.5465C18.9572 30.5316 19.2207 30.5168 19.4804 30.5019C19.7402 30.4871 20.0111 30.4722 20.2931 30.4574C20.5752 30.4426 20.8869 30.4351 21.2283 30.4351C21.6959 30.4351 22.1672 30.4611 22.6422 30.5131C23.1172 30.5576 23.5699 30.6429 24.0004 30.7691C24.4382 30.8879 24.8427 31.0549 25.2138 31.2701C25.5923 31.4779 25.9189 31.7451 26.1935 32.0717C26.4755 32.3908 26.6945 32.7767 26.8504 33.2295C27.0136 33.6822 27.0953 34.2092 27.0953 34.8103C27.0953 35.1443 27.0507 35.4783 26.9617 35.8123C26.88 36.1463 26.7427 36.4765 26.5498 36.8031C26.3568 37.1222 26.1045 37.4302 25.7927 37.7271C25.4884 38.0166 25.1136 38.2838 24.6683 38.5287C25.1953 38.7439 25.5923 39.0111 25.8595 39.3302C26.1341 39.6494 26.3308 40.0131 26.4496 40.4213C26.5683 40.8295 26.6314 41.2748 26.6388 41.7572C26.6537 42.2322 26.6685 42.7295 26.6834 43.249C26.713 43.8056 26.7836 44.3215 26.8949 44.7965C26.9394 44.9969 26.9951 45.201 27.0619 45.4088C27.1361 45.6166 27.2214 45.8095 27.3179 45.9877C27.4218 46.1658 27.5369 46.3254 27.663 46.4664C27.7966 46.6074 27.9488 46.7113 28.1195 46.7781ZM20.7273 37.1816C20.8906 37.0629 21.0724 36.9144 21.2728 36.7363C21.4806 36.5508 21.6699 36.3504 21.8406 36.1351C22.0187 35.9125 22.1672 35.6787 22.2859 35.4338C22.4047 35.1888 22.464 34.9439 22.464 34.699C22.464 34.4615 22.3935 34.2685 22.2525 34.1201C22.1189 33.9717 21.9668 33.8974 21.7961 33.8974C21.5586 33.8974 21.3693 34.0088 21.2283 34.2314C21.0873 34.4467 20.9759 34.7027 20.8943 34.9996C20.8201 35.2965 20.7681 35.597 20.7384 35.9013C20.7162 36.1982 20.705 36.4283 20.705 36.5916C20.705 36.6806 20.705 36.7771 20.705 36.881C20.705 36.9775 20.7125 37.0777 20.7273 37.1816ZM40.8554 39.141C40.8554 40.2691 40.7293 41.3304 40.4769 42.325C40.2246 43.3121 39.8423 44.1767 39.3302 44.9189C38.8181 45.6537 38.1687 46.2326 37.382 46.6556C36.6027 47.0861 35.6787 47.3013 34.6099 47.3013C33.5486 47.3013 32.6246 47.0861 31.8379 46.6556C31.0586 46.2326 30.4091 45.6537 29.8896 44.9189C29.3775 44.1767 28.9953 43.3121 28.7429 42.325C28.4906 41.3304 28.3644 40.2691 28.3644 39.141C28.3644 38.3097 28.4423 37.5082 28.5982 36.7363C28.7541 35.9644 28.9693 35.2445 29.2439 34.5765C29.5185 33.9086 29.8488 33.3 30.2347 32.7508C30.6207 32.2015 31.0437 31.734 31.5039 31.348C31.9714 30.9547 32.465 30.6504 32.9845 30.4351C33.5115 30.2199 34.0533 30.1123 34.6099 30.1123C35.5451 30.1123 36.3949 30.3424 37.1593 30.8025C37.9312 31.2552 38.588 31.8861 39.1298 32.6951C39.6791 33.5041 40.1021 34.4578 40.399 35.5562C40.7033 36.6547 40.8554 37.8496 40.8554 39.141ZM36.3021 38.1836C36.3021 37.6269 36.2576 37.1148 36.1685 36.6472C36.0795 36.1722 35.957 35.764 35.8011 35.4226C35.6527 35.0738 35.4746 34.8029 35.2668 34.6099C35.0589 34.4095 34.84 34.3093 34.6099 34.3093C34.3873 34.3093 34.1757 34.4281 33.9754 34.6656C33.775 34.8957 33.5968 35.1963 33.441 35.5674C33.2925 35.9385 33.1738 36.3541 33.0847 36.8142C32.9957 37.2744 32.9511 37.7308 32.9511 38.1836C32.9511 38.6215 32.9882 39.0297 33.0625 39.4082C33.1441 39.7793 33.2554 40.1021 33.3964 40.3767C33.5375 40.6513 33.7082 40.8703 33.9086 41.0336C34.1164 41.1894 34.3502 41.2674 34.6099 41.2674C34.8623 41.2674 35.0923 41.1894 35.3002 41.0336C35.5154 40.8703 35.6935 40.6513 35.8345 40.3767C35.983 40.1021 36.098 39.7793 36.1797 39.4082C36.2613 39.0297 36.3021 38.6215 36.3021 38.1836ZM54.5599 38.2281C53.9513 39.7347 53.647 41.1969 53.647 42.6144C53.647 43.2972 53.7101 43.9875 53.8363 44.6851C53.9625 45.3754 54.1591 46.0804 54.4263 46.8004C54.0033 46.6965 53.6099 46.6185 53.2463 46.5666C52.8826 46.5146 52.5226 46.4886 52.1664 46.4886C51.7879 46.4886 51.4019 46.522 51.0086 46.5888C50.6152 46.6556 50.1884 46.7595 49.7283 46.9006L50.1847 45.1193C50.0363 45.3568 49.8582 45.6017 49.6504 45.8541C49.4425 46.099 49.1939 46.3217 48.9045 46.522C48.6224 46.7224 48.2959 46.8857 47.9248 47.0119C47.5611 47.1455 47.1418 47.2123 46.6668 47.2123C45.9543 47.2123 45.2974 47.0416 44.6963 46.7002C44.1025 46.3588 43.5904 45.8652 43.1599 45.2195C42.7295 44.5738 42.3918 43.7834 42.1468 42.8482C41.9093 41.9056 41.7906 40.8369 41.7906 39.642C41.7906 38.8478 41.8648 38.0611 42.0132 37.2818C42.1617 36.4951 42.3769 35.7492 42.6589 35.0441C42.941 34.3316 43.2898 33.6748 43.7054 33.0736C44.1211 32.465 44.5923 31.9418 45.1193 31.5039C45.6463 31.0586 46.2289 30.7135 46.8671 30.4685C47.5129 30.2162 48.2068 30.09 48.949 30.09C49.6244 30.09 50.2144 30.1605 50.7191 30.3015C51.2238 30.4351 51.6617 30.617 52.0328 30.847C52.4039 31.0697 52.7082 31.3295 52.9457 31.6263C53.1906 31.9158 53.3836 32.2201 53.5246 32.5392C53.6656 32.8584 53.7658 33.1775 53.8252 33.4967C53.8845 33.8084 53.9142 34.1015 53.9142 34.3761C53.9142 34.7695 53.8437 35.148 53.7027 35.5117C53.5691 35.8754 53.3798 36.1945 53.1349 36.4691C52.89 36.7437 52.6005 36.9627 52.2666 37.126C51.9326 37.2892 51.5652 37.3709 51.1644 37.3709C50.7488 37.3709 50.3888 37.3078 50.0845 37.1816C49.7802 37.0554 49.5279 36.8922 49.3275 36.6918C49.1271 36.484 48.975 36.2539 48.8711 36.0015C48.7746 35.7492 48.7263 35.4969 48.7263 35.2445C48.7263 35.0293 48.7634 34.8103 48.8377 34.5877C48.9119 34.365 49.0158 34.1572 49.1494 33.9642C49.1939 34.1201 49.257 34.2426 49.3386 34.3316C49.4203 34.4133 49.5019 34.4726 49.5836 34.5097C49.6726 34.5543 49.7728 34.5802 49.8841 34.5877C50.1365 34.5877 50.3146 34.5246 50.4185 34.3984C50.5298 34.2722 50.5855 34.1275 50.5855 33.9642C50.5855 33.89 50.567 33.8158 50.5298 33.7416C50.5002 33.6599 50.4519 33.5857 50.3851 33.5189C50.3183 33.4521 50.2293 33.3965 50.1179 33.3519C50.014 33.3074 49.8841 33.2851 49.7283 33.2851C49.6244 33.2851 49.4796 33.3074 49.2941 33.3519C49.116 33.389 48.9193 33.467 48.7041 33.5857C48.4963 33.7045 48.2847 33.8752 48.0695 34.0978C47.8543 34.3131 47.6576 34.6025 47.4795 34.9662C47.3013 35.3299 47.1566 35.7752 47.0453 36.3021C46.9339 36.8291 46.8783 37.4562 46.8783 38.1836C46.8783 38.7847 46.9265 39.3117 47.023 39.7644C47.1269 40.2172 47.2679 40.5957 47.4461 40.9C47.6242 41.2043 47.8357 41.4344 48.0806 41.5902C48.3255 41.7386 48.5927 41.8129 48.8822 41.8129C49.1568 41.8129 49.3832 41.7424 49.5613 41.6013C49.7394 41.4603 49.8804 41.2896 49.9843 41.0892C50.0882 40.8888 50.1588 40.681 50.1959 40.4658C50.233 40.2506 50.2515 40.0687 50.2515 39.9203C50.2515 39.9129 50.2441 39.8609 50.2293 39.7644C50.2218 39.6679 50.1884 39.5566 50.1291 39.4304C50.0697 39.3043 49.9732 39.1744 49.8396 39.0408C49.706 38.9072 49.5168 38.7959 49.2718 38.7068C50.1476 38.7068 51.0271 38.6697 51.9103 38.5955C52.7935 38.5138 53.6767 38.3914 54.5599 38.2281ZM65.8375 46.7558C65.4515 46.6816 65.0545 46.626 64.6463 46.5888C64.2455 46.5443 63.8187 46.5109 63.366 46.4886C62.9207 46.4664 62.442 46.4552 61.9298 46.4552C61.4252 46.4478 60.8759 46.4441 60.2822 46.4441C60.0002 46.4441 59.6625 46.4478 59.2691 46.4552C58.8832 46.4627 58.4638 46.4812 58.0111 46.5109C57.5658 46.5406 57.1056 46.5814 56.6306 46.6334C56.1556 46.6927 55.6918 46.767 55.239 46.856C55.4023 46.522 55.5433 46.1027 55.6621 45.598C55.7808 45.0859 55.8773 44.5441 55.9515 43.9726C56.0332 43.4011 56.0963 42.8185 56.1408 42.2248C56.1853 41.631 56.2187 41.0781 56.241 40.566C56.2632 40.0539 56.2744 39.6123 56.2744 39.2412C56.2818 38.8627 56.2855 38.6029 56.2855 38.4619C56.2855 38.4322 56.2818 38.3172 56.2744 38.1168C56.2744 37.9164 56.2707 37.6566 56.2632 37.3375C56.2558 37.0183 56.2447 36.6547 56.2298 36.2465C56.215 35.8308 56.1927 35.4004 56.1631 34.9551C56.1408 34.5097 56.1074 34.0607 56.0629 33.608C56.0257 33.1552 55.9775 32.7285 55.9181 32.3277C55.8662 31.9195 55.8031 31.5558 55.7289 31.2367C55.6621 30.9101 55.5804 30.6504 55.4839 30.4574C56.2113 30.5613 56.9275 30.6392 57.6326 30.6912C58.3377 30.7357 59.0205 30.758 59.681 30.758C60.49 30.758 61.247 30.7357 61.9521 30.6912C62.6572 30.6467 63.2732 30.5947 63.8002 30.5353C64.4162 30.4685 64.9765 30.3906 65.4812 30.3015V35.5228C65.0507 35.122 64.6388 34.814 64.2455 34.5988C63.8521 34.3836 63.5033 34.224 63.199 34.1201C62.8427 34.0013 62.5088 33.9345 62.197 33.9197C61.8259 33.9197 61.5216 33.9679 61.2841 34.0644C61.0541 34.1535 60.8722 34.2722 60.7386 34.4207C60.6125 34.5617 60.5271 34.725 60.4826 34.9105C60.4381 35.0886 60.4158 35.2705 60.4158 35.456C60.4158 35.649 60.4418 35.842 60.4937 36.0349C60.5531 36.2279 60.6422 36.4023 60.7609 36.5582C60.8797 36.714 61.0318 36.8439 61.2173 36.9478C61.4103 37.0443 61.6367 37.0926 61.8964 37.0926C62.1117 37.0926 62.3084 37.0443 62.4865 36.9478C62.6646 36.8439 62.8168 36.7289 62.9429 36.6027C63.0914 36.4617 63.2287 36.2984 63.3548 36.1129V40.6439C63.2361 40.3619 63.0951 40.1392 62.9318 39.976C62.7759 39.8127 62.6201 39.6939 62.4642 39.6197C62.3158 39.5381 62.1785 39.4898 62.0523 39.475C61.9336 39.4527 61.8519 39.4416 61.8074 39.4416C61.325 39.4416 60.965 39.59 60.7275 39.8869C60.49 40.1838 60.3713 40.566 60.3713 41.0336C60.3713 41.375 60.4084 41.6644 60.4826 41.9019C60.5642 42.1394 60.6681 42.3324 60.7943 42.4808C60.9279 42.6293 61.08 42.7369 61.2507 42.8037C61.4289 42.8705 61.6144 42.9039 61.8074 42.9039C62.1043 42.9039 62.4234 42.8371 62.7648 42.7035C63.1062 42.5699 63.4328 42.3918 63.7445 42.1691C64.0636 41.9465 64.3531 41.6941 64.6129 41.4121C64.88 41.1226 65.0916 40.8295 65.2474 40.5326L65.8375 46.7558ZM73.1295 46.5332C72.9884 46.5183 72.8214 46.5035 72.6285 46.4886C72.4652 46.4738 72.2685 46.4627 72.0384 46.4552C71.8084 46.4478 71.5449 46.4441 71.248 46.4441C70.6691 46.4441 69.99 46.4701 69.2107 46.522C68.4388 46.574 67.589 46.6742 66.6613 46.8226C66.8246 46.4886 66.9656 46.0656 67.0843 45.5535C67.2031 45.0414 67.2996 44.4959 67.3738 43.917C67.4554 43.3306 67.5185 42.7369 67.563 42.1357C67.6076 41.5345 67.641 40.9742 67.6632 40.4547C67.6855 39.9351 67.6966 39.4861 67.6966 39.1076C67.7041 38.7291 67.7078 38.4693 67.7078 38.3283C67.7078 38.2986 67.7041 38.1836 67.6966 37.9832C67.6966 37.7828 67.6929 37.523 67.6855 37.2039C67.6781 36.8847 67.667 36.5211 67.6521 36.1129C67.6373 35.6972 67.615 35.2668 67.5853 34.8215C67.563 34.3761 67.5296 33.9271 67.4851 33.4744C67.448 33.0217 67.3998 32.5949 67.3404 32.1941C67.2884 31.7933 67.2254 31.4334 67.1511 31.1142C67.0843 30.7877 67.0027 30.5316 66.9062 30.3461C67.6558 30.4797 68.3386 30.5687 68.9546 30.6133C69.5707 30.6578 70.1199 30.6801 70.6023 30.6801C70.9289 30.6801 71.2183 30.6726 71.4707 30.6578C71.7304 30.6429 71.9457 30.6281 72.1164 30.6133C72.3168 30.591 72.4949 30.5687 72.6507 30.5465C72.9699 32.1199 73.3336 33.5783 73.7418 34.9217C74.15 36.265 74.6101 37.5119 75.1222 38.6623V38.2058C75.1 36.9961 75.0591 35.8679 74.9998 34.8215C74.9701 34.3761 74.9367 33.9271 74.8996 33.4744C74.8625 33.0217 74.8142 32.5949 74.7548 32.1941C74.7029 31.7933 74.6398 31.4334 74.5656 31.1142C74.4988 30.7877 74.4171 30.5316 74.3207 30.3461C75.0629 30.4797 75.7457 30.5687 76.3691 30.6133C77 30.6578 77.5566 30.6801 78.039 30.6801C78.3656 30.6801 78.655 30.6726 78.9074 30.6578C79.1671 30.6429 79.3824 30.6281 79.5531 30.6133C79.7535 30.591 79.9316 30.5687 80.0875 30.5465C79.9984 30.9621 79.9205 31.426 79.8537 31.9381C79.7869 32.4502 79.7275 32.9957 79.6755 33.5746C79.6236 34.1535 79.5828 34.7621 79.5531 35.4004C79.5308 36.0386 79.5197 36.6955 79.5197 37.3709C79.5197 38.1353 79.5382 38.9146 79.5754 39.7088C79.6125 40.4955 79.6718 41.2822 79.7535 42.0689C79.8425 42.8482 79.9502 43.6164 80.0763 44.3734C80.2099 45.123 80.3658 45.8429 80.5439 46.5332C80.4103 46.5183 80.2507 46.5035 80.0652 46.4886C79.9093 46.4738 79.7201 46.4627 79.4974 46.4552C79.2748 46.4478 79.0224 46.4441 78.7404 46.4441C78.206 46.4441 77.59 46.4701 76.8923 46.522C76.1947 46.574 75.4451 46.6742 74.6435 46.8226C74.6435 46.0582 74.5804 45.3123 74.4543 44.5849C74.3355 43.8502 74.1648 43.1302 73.9421 42.4252C73.7195 41.7127 73.4523 41.015 73.1406 40.3322C72.8289 39.6494 72.4837 38.974 72.1052 38.306C72.1127 39.0037 72.1386 39.7088 72.1832 40.4213C72.2351 41.1338 72.3019 41.8388 72.3836 42.5365C72.4726 43.2342 72.5765 43.9207 72.6953 44.5961C72.8214 45.264 72.9662 45.9097 73.1295 46.5332Z" fill="#007458"/>
<defs>
<clipPath id="clip0_780_3982">
<rect x="8" width="65.1428" height="65.1428" rx="32.5714" fill="white"/>
</clipPath>
</defs>
</svg>
