<svg width="242" height="89" viewBox="0 0 242 89" fill="none" xmlns="http://www.w3.org/2000/svg">
<g filter="url(#filter0_d_913_40)">
<rect x="6.04614" width="233" height="67" rx="9" transform="rotate(4.57877 6.04614 0)" fill="#007458"/>
<rect x="6.96312" y="1.07664" width="231" height="65" rx="8" transform="rotate(4.57877 6.96312 1.07664)" stroke="white" stroke-width="2"/>
</g>
<path d="M34.1181 18.8862L38.0914 19.2123L39.336 26.9074L41.8185 19.5181L45.9676 19.8586L41.1951 31.6441L36.712 31.2762L34.1181 18.8862ZM49.2528 20.1282L59.397 20.9607L59.6348 23.6705L54.9231 23.2838L55.1119 25.5117L59.4368 25.8666L59.6243 28.1121L55.3169 27.7587L55.5118 30.1287L60.2411 30.5168L60.4789 33.2266L52.0577 32.5355L51.8613 30.1831L48.8901 29.9393L47.9789 32.2008L44.1287 31.8848L49.2528 20.1282ZM51.6168 27.986L51.2581 23.514L49.7181 27.8302L51.6168 27.986ZM62.7817 21.2384L66.5792 21.5501L65.8059 30.9734L70.0077 31.3182L69.7884 33.9905L61.7891 33.3341L62.7817 21.2384ZM76.5429 34.828C75.3591 34.7309 74.3156 34.3621 73.4124 33.7216C72.5102 33.0693 71.8299 32.2288 71.3715 31.2001C70.9132 30.1713 70.7326 29.065 70.8297 27.8812C70.923 26.7443 71.2782 25.7233 71.8952 24.8182C72.524 23.914 73.3474 23.2264 74.3654 22.7554C75.3835 22.2844 76.5137 22.0998 77.756 22.2018C78.4358 22.2576 79.0859 22.3876 79.7063 22.5919C80.3385 22.7972 80.9008 23.0616 81.3935 23.3853L80.0095 26.0151C79.2394 25.6215 78.5086 25.3963 77.8171 25.3396C76.9146 25.2655 76.1932 25.5013 75.6529 26.0469C75.1135 26.5808 74.8053 27.3166 74.7283 28.2543C74.6783 28.8637 74.7445 29.4238 74.9268 29.9343C75.11 30.4331 75.3894 30.8395 75.7648 31.1535C76.1519 31.4685 76.6033 31.6471 77.119 31.6894C77.4003 31.7125 77.6367 31.7083 77.828 31.6768L78.0603 28.8463L81.1307 28.7443L80.6791 34.2471C79.3047 34.7479 77.9259 34.9415 76.5429 34.828ZM86.8009 23.2095L95.2925 23.9064L95.0732 26.5787L90.8538 26.2324L90.6734 28.43L94.5237 28.746L94.3419 30.9612L90.4917 30.6452L90.2998 32.9835L94.5192 33.3297L94.2999 36.002L85.8083 35.3052L86.8009 23.2095ZM98.9186 26.8942L96.4045 26.6879L96.6238 24.0156L105.748 24.7644L105.529 27.4367L103.015 27.2304L102.242 36.6538L98.1453 36.3176L98.9186 26.8942ZM112.345 27.996L109.831 27.7897L110.05 25.1174L119.174 25.8662L118.955 28.5385L116.441 28.3322L115.668 37.7556L111.571 37.4194L112.345 27.996ZM120.83 26.002L124.891 26.3353L123.898 38.431L119.837 38.0977L120.83 26.002ZM127.182 26.5233L130.98 26.835L130.206 36.2583L134.408 36.6032L134.189 39.2755L126.189 38.619L127.182 26.5233ZM136.642 27.2997L144.975 27.9835L144.756 30.6558L140.203 30.2822L140.002 32.7259L144.222 33.0722L144.04 35.2874L139.82 34.9411L139.429 39.7055L135.649 39.3953L136.642 27.2997ZM149.107 28.3226L159.251 29.155L159.489 31.8648L154.777 31.4782L154.966 33.7061L159.291 34.061L159.478 36.3065L155.171 35.953L155.366 38.323L160.095 38.7111L160.333 41.4209L151.912 40.7299L151.715 38.3774L148.744 38.1336L147.833 40.3951L143.983 40.0792L149.107 28.3226ZM151.471 36.1804L151.112 31.7084L149.572 36.0245L151.471 36.1804ZM162.636 29.4328L167.892 29.8642C169.158 29.9681 170.257 30.3119 171.188 30.8957C172.131 31.4805 172.836 32.2463 173.301 33.193C173.778 34.1407 173.968 35.1947 173.873 36.355C173.773 37.574 173.415 38.6243 172.8 39.506C172.197 40.3886 171.382 41.0474 170.355 41.4823C169.341 41.9065 168.189 42.0656 166.9 41.9598L161.643 41.5285L162.636 29.4328ZM166.984 38.7808C167.863 38.853 168.553 38.6324 169.056 38.119C169.571 37.5949 169.865 36.8875 169.938 35.9967C170.007 35.1528 169.833 34.466 169.417 33.9362C169.013 33.3957 168.359 33.0884 167.457 33.0143L166.261 32.9162L165.788 38.6827L166.984 38.7808ZM176.062 30.5346L180.123 30.8679L179.13 42.9635L175.069 42.6302L176.062 30.5346ZM187.024 43.8945C185.841 43.7974 184.797 43.4286 183.894 42.7881C182.992 42.1358 182.311 41.2953 181.853 40.2666C181.395 39.2378 181.214 38.1315 181.311 36.9477C181.405 35.8108 181.76 34.7898 182.377 33.8847C183.006 32.9805 183.829 32.2929 184.847 31.8219C185.865 31.3509 186.995 31.1663 188.238 31.2683C188.917 31.3241 189.567 31.4541 190.188 31.6584C190.82 31.8637 191.382 32.1281 191.875 32.4517L190.491 35.0816C189.721 34.688 188.99 34.4628 188.299 34.4061C187.396 34.332 186.675 34.5678 186.134 35.1134C185.595 35.6473 185.287 36.3831 185.21 37.3208C185.16 37.9302 185.226 38.4902 185.408 39.0008C185.592 39.4996 185.871 39.906 186.246 40.22C186.633 40.535 187.085 40.7136 187.601 40.7559C187.882 40.779 188.118 40.7748 188.31 40.7433L188.542 37.9128L191.612 37.8108L191.161 43.3136C189.786 43.8144 188.407 44.008 187.024 43.8945ZM195.322 34.8054L192.808 34.5991L193.027 31.9268L202.151 32.6756L201.932 35.3479L199.418 35.1416L198.645 44.5649L194.548 44.2288L195.322 34.8054ZM87.2862 60.7937C86.0203 60.6898 84.9173 60.3279 83.977 59.708C83.0484 59.089 82.3477 58.2822 81.8747 57.2876C81.4144 56.2823 81.2343 55.1702 81.3343 53.9512C81.4353 52.7206 81.7948 51.6468 82.4128 50.73C83.0426 49.8141 83.8655 49.1323 84.8816 48.6847C85.9104 48.2264 87.0577 48.0491 88.3235 48.153C89.5893 48.2569 90.6865 48.6183 91.6151 49.2373C92.5563 49.8455 93.2571 50.6523 93.7174 51.6576C94.1903 52.6522 94.3758 53.7707 94.2739 55.0131C94.1738 56.232 93.809 57.2994 93.1792 58.2153C92.5622 59.1204 91.7392 59.8022 90.7105 60.2605C89.6817 60.7189 88.5403 60.8966 87.2862 60.7937ZM87.5487 57.594C88.2871 57.6546 88.9143 57.4169 89.4303 56.8811C89.9579 56.3462 90.2602 55.61 90.3372 54.6723C90.3882 54.0511 90.322 53.4911 90.1388 52.9923C89.9682 52.4827 89.7006 52.0773 89.3359 51.776C88.9722 51.4629 88.5443 51.2862 88.052 51.2458C87.5714 51.2064 87.1262 51.3114 86.7164 51.561C86.3075 51.7988 85.9773 52.1552 85.726 52.6302C85.4756 53.0934 85.3249 53.6356 85.2739 54.2568C85.1969 55.1945 85.3693 55.9697 85.791 56.5825C86.2127 57.1952 86.7986 57.5324 87.5487 57.594ZM101.313 61.9448C100.153 61.8496 99.1338 61.5418 98.2561 61.0214C97.3902 60.5019 96.7379 59.823 96.2993 58.9846C95.8617 58.1346 95.6852 57.1938 95.7699 56.1624L96.3513 49.0773L100.325 49.4034L99.7431 56.4885C99.6854 57.1917 99.8121 57.7331 100.123 58.1126C100.434 58.4921 100.918 58.7088 101.574 58.7627C102.231 58.8165 102.743 58.6816 103.112 58.3579C103.482 58.0224 103.695 57.5089 103.752 56.8174L104.333 49.7323L108.306 50.0584L107.725 57.1435C107.64 58.1749 107.313 59.0743 106.742 59.8416C106.173 60.5973 105.413 61.1603 104.462 61.5306C103.523 61.902 102.473 62.04 101.313 61.9448ZM112.146 53.0637L109.632 52.8574L109.851 50.1851L118.975 50.9339L118.756 53.6062L116.242 53.3999L115.469 62.8233L111.372 62.4871L112.146 53.0637ZM120.631 51.0697L128.964 51.7536L128.745 54.4259L124.191 54.0522L123.991 56.496L128.21 56.8422L128.028 59.0574L123.809 58.7112L123.418 63.4756L119.638 63.1654L120.631 51.0697ZM130.657 51.8926L134.718 52.2258L133.726 64.3215L129.665 63.9882L130.657 51.8926ZM138.671 55.2405L136.157 55.0342L136.377 52.3619L145.501 53.1107L145.282 55.783L142.768 55.5767L141.994 65.0001L137.898 64.6639L138.671 55.2405ZM146.619 55.9105L146.843 53.1854L150.552 53.4898L150.329 56.2149L149.235 61.134L146.914 60.9436L146.619 55.9105ZM147.702 65.5747C147.081 65.5237 146.609 65.3138 146.285 64.9451C145.961 64.5763 145.82 64.1341 145.863 63.6184C145.906 63.0909 146.123 62.678 146.513 62.3797C146.903 62.0813 147.397 61.9567 147.995 62.0057C148.581 62.0538 149.041 62.2686 149.376 62.65C149.711 63.0197 149.859 63.4507 149.818 63.943C149.773 64.4939 149.567 64.9194 149.2 65.2197C148.835 65.5083 148.335 65.6266 147.702 65.5747Z" fill="#F69C3B"/>
<defs>
<filter id="filter0_d_913_40" x="1.38684" y="0.68927" width="240.226" height="88.0079" filterUnits="userSpaceOnUse" color-interpolation-filters="sRGB">
<feFlood flood-opacity="0" result="BackgroundImageFix"/>
<feColorMatrix in="SourceAlpha" type="matrix" values="0 0 0 0 0 0 0 0 0 0 0 0 0 0 0 0 0 0 127 0" result="hardAlpha"/>
<feOffset dx="2" dy="2"/>
<feGaussianBlur stdDeviation="1"/>
<feComposite in2="hardAlpha" operator="out"/>
<feColorMatrix type="matrix" values="0 0 0 0 0 0 0 0 0 0 0 0 0 0 0 0 0 0 0.25 0"/>
<feBlend mode="normal" in2="BackgroundImageFix" result="effect1_dropShadow_913_40"/>
<feBlend mode="normal" in="SourceGraphic" in2="effect1_dropShadow_913_40" result="shape"/>
</filter>
</defs>
</svg>
