<svg width="218" height="634" viewBox="0 0 218 634" fill="none" xmlns="http://www.w3.org/2000/svg">
<mask id="mask0_679_214" style="mask-type:alpha" maskUnits="userSpaceOnUse" x="0" y="0" width="218" height="634">
<path d="M33.0467 610.953C30.5847 618.06 35.0921 625.755 42.5288 626.884C99.8444 635.587 136.449 635.479 190.404 627.036C197.977 625.851 202.434 617.88 199.672 610.729C193.459 594.644 183.163 566.931 175.25 540.376C132.126 548.262 106.521 549.783 54.8675 540.376C47.88 567.016 38.6113 594.889 33.0467 610.953Z" fill="#A1A1A1"/>
<path d="M204.416 18.311C203.431 12.3618 198.675 7.75772 192.701 6.93501C127.279 -2.07478 86.5044 -1.91042 21.2259 6.88724C14.9818 7.72877 10.0943 12.661 9.36552 18.9193C6.71968 41.6401 0.877549 96.1927 0.94392 134.394C1.03709 188.021 16.8169 237.588 32.8927 288.085C46.2926 330.176 59.8982 372.913 64.7964 419.187C67.8684 448.209 67.5153 478.622 61.5382 511.139C59.8687 520.222 57.5342 530.209 54.8675 540.376C106.521 549.783 132.126 548.262 175.25 540.376C172.224 530.223 169.546 520.239 167.578 511.139C160.59 478.826 159.402 448.375 161.734 419.187C165.43 372.937 177.965 329.86 190.268 287.58C205.061 236.742 219.519 187.057 217.871 134.394C216.662 95.7152 208.11 40.6236 204.416 18.311Z" fill="#F1F1F1"/>
</mask>
<g mask="url(#mask0_679_214)">
<path d="M33.0467 610.952C30.5847 618.06 35.0921 625.755 42.5288 626.884C99.8444 635.587 136.449 635.479 190.404 627.036C197.977 625.851 202.434 617.88 199.672 610.729C193.459 594.644 183.163 566.931 175.25 540.376H54.8675C47.88 567.016 38.6113 594.889 33.0467 610.952Z" fill="#A1A1A1"/>
<path d="M204.416 18.311C203.431 12.3618 198.675 7.75772 192.701 6.93501C127.279 -2.07478 86.5044 -1.91042 21.2259 6.88724C14.9818 7.72877 10.0943 12.661 9.36552 18.9193C6.71968 41.6401 0.877549 96.1927 0.94392 134.394C1.03709 188.021 16.8169 237.588 32.8927 288.085C46.2926 330.176 59.8982 372.913 64.7964 419.187C67.8684 448.209 67.5153 478.622 61.5382 511.139C59.8687 520.222 57.5342 530.209 54.8675 540.376H175.25C172.224 530.222 169.546 520.239 167.578 511.139C160.59 478.826 159.402 448.375 161.734 419.187C165.43 372.937 177.965 329.86 190.268 287.58C205.061 236.742 219.519 187.057 217.871 134.394C216.662 95.7152 208.11 40.6236 204.416 18.311Z" fill="#F1F1F1"/>
<path fill-rule="evenodd" clip-rule="evenodd" d="M276.805 540.217V110.439H-59.707V540.217H276.805Z" fill="#FAC900"/>
<path d="M276.805 35.4496H-59.707V110.439H276.805V35.4496Z" fill="white"/>
</g>
</svg>
