<svg width="447" height="552" viewBox="0 0 447 552" fill="none" xmlns="http://www.w3.org/2000/svg">
<path d="M421.8 278H409.2L384.258 136.471C384.086 135.498 384 134.511 384 133.523V97.577C384 95.4781 384.777 93.4536 386.182 91.8939L406.5 69.3312H424.5L444.818 91.8939C446.223 93.4536 447 95.4781 447 97.577V133.523C447 134.511 446.914 135.498 446.742 136.471L421.8 278Z" fill="url(#paint0_linear_619_8333)"/>
<path fill-rule="evenodd" clip-rule="evenodd" d="M86.8 271.442C35.8409 250.299 0.00012207 200.063 0.00012207 141.456C0.00012207 63.7659 62.9803 0.785767 140.67 0.785767C215.931 0.785767 277.387 59.8885 281.157 134.212L406.895 100.52C407.389 100.366 407.89 100.22 408.399 100.083C419.133 97.2071 429.122 99.6755 430.708 105.597C432.295 111.518 424.879 118.65 414.144 121.526C413.296 121.753 412.452 121.947 411.617 122.109L280.463 157.251C274.745 208.428 241.57 251.309 196.008 270.823L168.178 501.165L220.167 551.367H61.1406L116.188 501.165L86.8 271.442Z" fill="url(#paint1_linear_619_8333)"/>
<defs>
<linearGradient id="paint0_linear_619_8333" x1="438.265" y1="177.09" x2="375.839" y2="191.644" gradientUnits="userSpaceOnUse">
<stop stop-color="white"/>
<stop offset="1"/>
</linearGradient>
<linearGradient id="paint1_linear_619_8333" x1="393.487" y1="268.51" x2="-52.3797" y2="337.406" gradientUnits="userSpaceOnUse">
<stop stop-color="#D9D9D9"/>
<stop offset="1"/>
</linearGradient>
</defs>
</svg>
