<svg width="410" height="568" viewBox="0 0 410 568" fill="none" xmlns="http://www.w3.org/2000/svg">
<path d="M0 555.406L54.5938 567.325V553.023L0 555.406Z" fill="#949494"/>
<path d="M410 0H54.5938V553.023V567.325H410V0Z" fill="url(#paint0_linear_711_1772)"/>
<path d="M18.421 556.988L52.2101 555.513V564.365L18.421 556.988ZM56.9775 553.023V550.533V2.38372H407.616V564.941H56.9775V553.023Z" stroke="#8C8C8C" stroke-width="4.76744"/>
<path d="M112.1 134.614C110.946 134.465 109.828 134.363 108.748 134.307C107.687 134.251 106.607 134.223 105.508 134.223C102.547 134.223 99.5114 134.512 96.4014 135.089C96.5131 134.642 96.6342 134.251 96.7645 133.916C96.9135 133.562 97.0439 133.18 97.1556 132.771C97.2674 132.342 97.3605 131.849 97.435 131.29C97.5095 130.731 97.5467 130.014 97.5467 129.139C97.5467 128.245 97.4815 127.398 97.3512 126.597C97.2208 125.778 97.0253 125.061 96.7645 124.446C96.5038 123.813 96.1779 123.31 95.7868 122.938C95.4144 122.565 94.9768 122.379 94.4739 122.379C93.9153 122.379 93.4404 122.547 93.0493 122.882C92.6768 123.217 92.3696 123.673 92.1275 124.251C91.904 124.828 91.7364 125.489 91.6246 126.234C91.5315 126.979 91.485 127.77 91.485 128.608C91.485 129.446 91.5315 130.173 91.6246 130.787C91.7364 131.383 91.8574 131.905 91.9878 132.352C92.1368 132.799 92.2764 133.199 92.4068 133.553C92.5372 133.888 92.6303 134.223 92.6861 134.558C91.4012 134.409 90.1348 134.298 88.8871 134.223C87.658 134.149 86.4289 134.111 85.1998 134.111C83.9707 134.111 82.7323 134.149 81.4845 134.223C80.2554 134.298 78.9798 134.409 77.6575 134.558C78.8122 131.206 79.8178 127.882 80.6744 124.586C81.5497 121.29 82.2946 117.975 82.9092 114.641C83.5237 111.308 84.0172 107.937 84.3897 104.529C84.7808 101.121 85.0694 97.6294 85.2556 94.0538C86.6337 94.24 88.1422 94.3797 89.781 94.4728C91.4384 94.5473 93.1331 94.5845 94.865 94.5845C96.3362 94.5845 97.7609 94.5473 99.1389 94.4728C100.536 94.3983 101.821 94.24 102.994 93.9979C103.124 97.5549 103.459 101.056 104 104.501C104.54 107.946 105.21 111.364 106.011 114.753C106.83 118.124 107.761 121.467 108.804 124.781C109.847 128.078 110.946 131.355 112.1 134.614ZM96.4573 112.937C96.42 112.583 96.3083 112.062 96.1221 111.373C95.9545 110.777 95.703 109.995 95.3678 109.027C95.0326 108.04 94.5391 106.773 93.8873 105.227C93.7383 106.196 93.5707 107.062 93.3845 107.825C93.1983 108.57 93.0214 109.25 92.8538 109.865C92.6861 110.46 92.5372 111.01 92.4068 111.513C92.2951 112.015 92.2392 112.49 92.2392 112.937C92.2392 113.868 92.4534 114.595 92.8817 115.116C93.3286 115.619 93.8221 115.87 94.3622 115.87C94.9395 115.87 95.4237 115.591 95.8148 115.032C96.2059 114.474 96.42 113.775 96.4573 112.937ZM127.213 108.943C126.636 108.943 126.114 109.11 125.649 109.446C125.183 109.762 124.764 110.218 124.391 110.814C124.038 111.392 123.721 112.09 123.442 112.909C123.181 113.729 122.967 114.632 122.799 115.619C122.799 117.202 122.836 118.804 122.911 120.424C122.985 122.044 123.107 123.645 123.274 125.228C123.442 126.811 123.656 128.357 123.917 129.865C124.196 131.374 124.531 132.808 124.922 134.167C124.624 134.149 124.28 134.121 123.889 134.084C123.553 134.065 123.144 134.046 122.66 134.028C122.194 134.009 121.654 134 121.039 134C119.885 134 118.544 134.056 117.017 134.167C115.508 134.26 113.832 134.447 111.989 134.726C112.212 133.683 112.408 132.407 112.575 130.899C112.743 129.391 112.883 127.752 112.994 125.983C113.106 124.213 113.19 122.37 113.246 120.452C113.32 118.515 113.357 116.606 113.357 114.725C113.357 113.328 113.339 111.96 113.302 110.619C113.264 109.278 113.208 108.012 113.134 106.82C113.078 105.628 112.994 104.529 112.883 103.523C112.771 102.518 112.64 101.652 112.492 100.926C114 101.186 115.369 101.373 116.598 101.484C117.846 101.577 118.963 101.624 119.95 101.624C120.583 101.624 121.142 101.615 121.626 101.596C122.11 101.559 122.529 101.522 122.883 101.484C123.274 101.428 123.628 101.373 123.945 101.317C123.721 102.248 123.553 103.281 123.442 104.417C124.41 103.244 125.462 102.378 126.598 101.82C127.753 101.261 128.833 100.981 129.839 100.981C131.515 100.981 132.93 101.289 134.085 101.903C135.239 102.499 136.17 103.291 136.878 104.278C137.586 105.246 138.098 106.354 138.414 107.602C138.731 108.85 138.889 110.116 138.889 111.401C138.889 112.649 138.712 113.868 138.359 115.06C138.005 116.252 137.493 117.323 136.822 118.273C136.152 119.204 135.323 119.958 134.336 120.535C133.349 121.113 132.232 121.401 130.984 121.401C129.885 121.401 128.945 121.215 128.163 120.843C127.399 120.47 126.766 119.986 126.263 119.39C125.76 118.794 125.388 118.142 125.146 117.435C124.922 116.708 124.81 115.991 124.81 115.284C124.81 114.539 124.913 113.813 125.118 113.105C125.341 112.397 125.658 111.755 126.068 111.177C126.198 111.587 126.356 111.904 126.542 112.127C126.747 112.332 126.952 112.481 127.157 112.574C127.38 112.686 127.623 112.751 127.883 112.77C128.572 112.77 129.084 112.611 129.42 112.295C129.773 111.978 129.95 111.606 129.95 111.177C129.95 110.973 129.913 110.74 129.839 110.479C129.764 110.218 129.624 109.976 129.42 109.753C129.233 109.529 128.963 109.343 128.61 109.194C128.256 109.027 127.79 108.943 127.213 108.943ZM162.578 100.367C162.429 101.205 162.317 102.024 162.242 102.825C162.186 103.626 162.159 104.445 162.159 105.283C162.159 106.084 162.186 106.894 162.242 107.714C162.317 108.514 162.429 109.324 162.578 110.144C161.684 109.678 160.669 109.334 159.533 109.11C158.415 108.887 157.27 108.71 156.097 108.58V110.982C156.097 113.086 156.134 115.219 156.209 117.379C156.283 119.52 156.404 121.606 156.572 123.636C156.739 125.647 156.953 127.556 157.214 129.363C157.494 131.169 157.829 132.771 158.22 134.167C157.903 134.149 157.531 134.121 157.102 134.084C156.73 134.065 156.292 134.046 155.79 134.028C155.287 134.009 154.709 134 154.058 134C152.847 134 151.45 134.056 149.867 134.167C148.285 134.26 146.571 134.447 144.728 134.726C145.361 131.095 145.808 127.323 146.068 123.413C146.348 119.483 146.487 115.647 146.487 111.904V108.58C145.221 108.673 143.964 108.822 142.716 109.027C141.487 109.213 140.323 109.446 139.225 109.725C139.299 109.52 139.364 109.25 139.42 108.915C139.476 108.58 139.513 108.235 139.532 107.881C139.569 107.527 139.588 107.183 139.588 106.848C139.606 106.512 139.616 106.233 139.616 106.01C139.616 105.06 139.578 104.119 139.504 103.188C139.429 102.257 139.336 101.317 139.225 100.367C140.118 100.739 141.18 101.047 142.409 101.289C143.638 101.512 144.886 101.68 146.152 101.792C146.04 100.171 145.91 98.6723 145.761 97.2942C145.612 95.9161 145.435 94.6683 145.23 93.551C146.739 93.8117 148.136 93.9886 149.421 94.0817C150.705 94.1748 151.869 94.2214 152.912 94.2214C153.583 94.2214 154.179 94.2121 154.7 94.1935C155.24 94.1562 155.696 94.119 156.069 94.0817C156.516 94.0445 156.907 93.9979 157.242 93.9421C157.037 94.836 156.86 95.9533 156.711 97.2942C156.581 98.6164 156.451 100.097 156.32 101.736C157.549 101.605 158.704 101.428 159.784 101.205C160.883 100.981 161.814 100.702 162.578 100.367ZM172.159 134.67C172.494 133.422 172.783 131.979 173.025 130.34C173.267 128.683 173.463 126.914 173.612 125.033C173.761 123.133 173.863 121.159 173.919 119.111C173.993 117.062 174.031 115.004 174.031 112.937C174.031 110.703 173.993 108.514 173.919 106.373C173.844 104.213 173.742 102.192 173.612 100.311C173.5 98.4302 173.36 96.7448 173.193 95.255C173.025 93.7465 172.848 92.5267 172.662 91.5956C172.997 91.6515 173.388 91.698 173.835 91.7353C174.207 91.7725 174.654 91.8097 175.176 91.847C175.716 91.8656 176.33 91.8749 177.02 91.8749C178.044 91.8749 179.198 91.8284 180.483 91.7353C181.787 91.6421 183.184 91.4652 184.673 91.2045C184.506 91.5583 184.348 92.0798 184.199 92.7688C184.068 93.4392 183.947 94.2214 183.835 95.1153C183.724 96.0092 183.631 96.9776 183.556 98.0205C183.482 99.0633 183.416 100.116 183.361 101.177C183.305 102.22 183.258 103.253 183.221 104.278C183.184 105.283 183.156 106.205 183.137 107.043C183.901 105.386 184.916 104.091 186.182 103.16C187.467 102.211 189.087 101.736 191.042 101.736C191.471 101.736 192.011 101.82 192.663 101.987C193.333 102.155 194.031 102.462 194.758 102.909C195.503 103.356 196.238 103.97 196.965 104.753C197.709 105.516 198.371 106.503 198.948 107.714C199.544 108.905 200.019 110.349 200.373 112.043C200.745 113.719 200.931 115.693 200.931 117.965C200.931 121.318 200.596 124.13 199.926 126.402C199.255 128.655 198.399 130.471 197.356 131.849C196.331 133.208 195.186 134.177 193.92 134.754C192.672 135.35 191.462 135.648 190.288 135.648C189.432 135.648 188.612 135.406 187.83 134.922C187.048 134.437 186.34 133.813 185.707 133.05C185.074 132.286 184.515 131.42 184.031 130.452C183.565 129.484 183.212 128.506 182.97 127.519C183.025 127.91 183.1 128.487 183.193 129.251C183.305 129.996 183.416 130.769 183.528 131.569C183.64 132.352 183.752 133.069 183.863 133.72C183.994 134.372 184.115 134.791 184.227 134.977C183.053 134.773 181.861 134.633 180.651 134.558C179.459 134.484 178.342 134.447 177.299 134.447C176.535 134.447 175.846 134.456 175.232 134.475C174.617 134.493 174.077 134.521 173.612 134.558C173.071 134.596 172.587 134.633 172.159 134.67ZM183.528 118.552V120.2C183.528 120.703 183.556 121.215 183.612 121.737C183.668 122.258 183.789 122.733 183.975 123.161C184.18 123.59 184.469 123.943 184.841 124.223C185.214 124.483 185.716 124.614 186.35 124.614C186.796 124.614 187.178 124.483 187.495 124.223C187.811 123.943 188.072 123.59 188.277 123.161C188.482 122.733 188.649 122.249 188.78 121.709C188.91 121.15 189.003 120.601 189.059 120.061C189.115 119.52 189.152 118.999 189.171 118.496C189.19 117.993 189.199 117.574 189.199 117.239C189.199 116.736 189.171 116.057 189.115 115.2C189.078 114.343 188.975 113.505 188.808 112.686C188.64 111.848 188.379 111.131 188.026 110.535C187.69 109.92 187.225 109.613 186.629 109.613C186.182 109.613 185.791 109.781 185.456 110.116C185.139 110.451 184.86 110.889 184.618 111.429C184.394 111.95 184.208 112.546 184.059 113.217C183.929 113.868 183.817 114.53 183.724 115.2C183.649 115.852 183.593 116.476 183.556 117.072C183.538 117.668 183.528 118.161 183.528 118.552ZM231.016 102.183C230.811 102.965 230.635 103.905 230.486 105.004C230.355 106.103 230.234 107.285 230.122 108.552C230.011 109.818 229.918 111.14 229.843 112.518C229.787 113.896 229.731 115.237 229.675 116.541C229.564 119.614 229.499 122.854 229.48 126.262C229.48 128.161 229.359 130.033 229.117 131.877C228.893 133.72 228.521 135.462 227.999 137.1C227.497 138.758 226.836 140.285 226.016 141.682C225.215 143.097 224.228 144.307 223.055 145.313C221.9 146.337 220.55 147.138 219.005 147.715C217.478 148.293 215.746 148.581 213.809 148.581C212.002 148.581 210.438 148.395 209.116 148.023C207.794 147.65 206.695 147.119 205.82 146.43C204.963 145.76 204.321 144.95 203.892 144C203.483 143.05 203.278 142.008 203.278 140.872C203.278 139.736 203.473 138.702 203.864 137.771C204.255 136.858 204.767 136.085 205.401 135.452C206.034 134.819 206.751 134.335 207.552 134C208.352 133.646 209.162 133.469 209.982 133.469C211.025 133.469 212.012 133.767 212.943 134.363C213.874 134.959 214.582 135.899 215.066 137.184C214.954 137.091 214.824 137.026 214.675 136.989C214.544 136.97 214.405 136.961 214.256 136.961C214.051 136.961 213.837 137.007 213.613 137.1C213.408 137.194 213.222 137.324 213.055 137.491C212.887 137.659 212.747 137.845 212.636 138.05C212.543 138.274 212.496 138.506 212.496 138.749C212.496 139.028 212.552 139.261 212.664 139.447C212.775 139.652 212.906 139.81 213.055 139.922C213.222 140.033 213.399 140.108 213.585 140.145C213.79 140.201 213.976 140.229 214.144 140.229C214.405 140.229 214.731 140.173 215.122 140.061C215.513 139.95 215.913 139.717 216.323 139.363C216.751 139.009 217.17 138.516 217.58 137.883C218.008 137.249 218.381 136.402 218.697 135.341C219.033 134.298 219.293 133.022 219.48 131.514C219.684 130.005 219.777 128.199 219.759 126.094C219.275 127.398 218.763 128.459 218.222 129.279C217.701 130.08 217.142 130.703 216.546 131.15C215.969 131.597 215.355 131.895 214.703 132.044C214.07 132.193 213.39 132.268 212.664 132.268C211.751 132.268 210.792 132.109 209.786 131.793C208.799 131.458 207.887 130.88 207.049 130.061C206.229 129.223 205.55 128.087 205.01 126.653C204.47 125.219 204.199 123.394 204.199 121.178C204.199 120.88 204.199 120.675 204.199 120.563C204.218 120.433 204.227 120.34 204.227 120.284C204.227 120.21 204.237 120.126 204.255 120.033C204.274 119.939 204.283 119.763 204.283 119.502C204.283 119.223 204.283 118.831 204.283 118.329C204.302 117.826 204.311 117.118 204.311 116.206C204.311 115.144 204.293 113.943 204.255 112.602C204.218 111.261 204.134 109.948 204.004 108.663C203.892 107.378 203.725 106.214 203.501 105.172C203.278 104.11 202.989 103.328 202.635 102.825C204.144 103.086 205.559 103.263 206.881 103.356C208.222 103.449 209.442 103.496 210.541 103.496C211.267 103.496 211.919 103.486 212.496 103.468C213.092 103.43 213.604 103.393 214.032 103.356C214.517 103.319 214.954 103.272 215.345 103.216C215.196 103.533 215.029 104.138 214.842 105.032C214.675 105.926 214.507 106.997 214.34 108.244C214.172 109.492 214.032 110.861 213.921 112.351C213.809 113.822 213.753 115.312 213.753 116.82C213.753 117.956 213.837 118.925 214.004 119.725C214.172 120.526 214.395 121.187 214.675 121.709C214.973 122.211 215.308 122.584 215.68 122.826C216.072 123.068 216.491 123.189 216.937 123.189C217.645 123.189 218.204 122.901 218.614 122.323C219.042 121.746 219.405 121.02 219.703 120.144C219.666 118.99 219.601 117.64 219.507 116.094C219.414 114.548 219.284 112.937 219.116 111.261C218.967 109.585 218.763 107.9 218.502 106.205C218.26 104.492 217.952 102.9 217.58 101.428C218.157 101.633 218.846 101.82 219.647 101.987C220.336 102.136 221.174 102.266 222.161 102.378C223.148 102.471 224.312 102.518 225.653 102.518C227.236 102.518 229.024 102.406 231.016 102.183ZM257.498 134.111C257.181 134.074 256.79 134.037 256.325 134C255.934 133.962 255.449 133.935 254.872 133.916C254.313 133.897 253.68 133.888 252.973 133.888C251.595 133.888 249.956 133.953 248.056 134.084C246.157 134.214 244.043 134.465 241.715 134.838C242.702 130.685 243.382 126.616 243.754 122.63C244.145 118.645 244.341 114.809 244.341 111.122C244.341 107.769 244.211 104.622 243.95 101.68C243.689 98.7188 243.345 95.9906 242.916 93.4951C244.779 93.8303 246.445 94.0538 247.917 94.1655C249.406 94.2773 250.691 94.3331 251.771 94.3331C252.516 94.3331 253.168 94.3145 253.727 94.2773C254.304 94.24 254.779 94.2028 255.151 94.1655C255.598 94.1097 255.98 94.0538 256.297 93.9979C256.93 97.648 257.721 101.261 258.671 104.836C259.621 108.393 260.794 111.969 262.191 115.563C263.364 111.932 264.295 108.3 264.984 104.669C265.673 101.019 266.139 97.2942 266.381 93.4951L266.605 93.9979L266.381 93.4951C268.243 93.8303 269.938 94.0538 271.465 94.1655C272.992 94.2773 274.342 94.3331 275.516 94.3331C276.298 94.3331 276.987 94.3145 277.583 94.2773C278.179 94.24 278.691 94.2028 279.119 94.1655C279.603 94.1097 280.022 94.0538 280.376 93.9979C279.985 95.8602 279.687 98.067 279.482 100.618C279.277 103.151 279.175 105.87 279.175 108.775C279.175 110.842 279.231 112.975 279.343 115.172C279.454 117.351 279.622 119.53 279.845 121.709C280.087 123.869 280.395 126.001 280.767 128.106C281.14 130.21 281.587 132.212 282.108 134.111C281.736 134.074 281.307 134.037 280.823 134C280.395 133.962 279.892 133.935 279.315 133.916C278.737 133.897 278.067 133.888 277.303 133.888C275.851 133.888 274.137 133.953 272.163 134.084C270.208 134.214 268.066 134.465 265.739 134.838C266.204 133.907 266.586 132.715 266.884 131.262C267.2 129.81 267.452 128.264 267.638 126.625C267.843 124.986 267.992 123.357 268.085 121.737C268.197 120.098 268.271 118.636 268.309 117.351C267.768 118.506 267.247 119.679 266.744 120.871C266.241 122.062 265.72 123.338 265.18 124.698C264.658 126.038 264.109 127.491 263.532 129.055C262.954 130.62 262.321 132.361 261.632 134.279C260.925 132.361 260.282 130.62 259.705 129.055C259.127 127.491 258.578 126.038 258.057 124.698C257.554 123.357 257.051 122.09 256.548 120.899C256.064 119.688 255.561 118.487 255.04 117.295C255.207 120.237 255.487 123.143 255.878 126.011C256.269 128.86 256.809 131.56 257.498 134.111ZM313.003 134.67C312.649 134.633 312.24 134.596 311.774 134.558C311.383 134.521 310.908 134.493 310.349 134.475C309.809 134.456 309.213 134.447 308.562 134.447C307.631 134.447 306.606 134.484 305.489 134.558C304.39 134.633 303.254 134.773 302.081 134.977L302.193 127.128C301.485 129.903 300.442 132.044 299.064 133.553C297.705 135.061 296.103 135.815 294.259 135.815C293.682 135.815 293.03 135.741 292.304 135.592C291.578 135.443 290.833 135.154 290.069 134.726C289.324 134.316 288.589 133.739 287.862 132.994C287.155 132.249 286.522 131.29 285.963 130.117C285.404 128.925 284.957 127.491 284.622 125.815C284.287 124.12 284.119 122.118 284.119 119.809C284.119 116.681 284.436 114.008 285.069 111.792C285.702 109.557 286.512 107.732 287.499 106.317C288.486 104.902 289.576 103.868 290.768 103.216C291.959 102.564 293.123 102.239 294.259 102.239C295.228 102.239 296.103 102.378 296.885 102.658C297.686 102.918 298.394 103.263 299.008 103.691C299.623 104.101 300.153 104.566 300.6 105.088C301.047 105.609 301.411 106.131 301.69 106.652C301.634 106.019 301.55 105.349 301.438 104.641C301.327 103.915 301.196 103.17 301.047 102.406C302.258 102.648 303.487 102.807 304.735 102.881C305.982 102.955 307.137 102.993 308.199 102.993C309.465 102.993 310.489 102.965 311.271 102.909C311.718 102.89 312.128 102.862 312.5 102.825C312.296 103.756 312.109 104.799 311.942 105.954C311.774 107.108 311.625 108.347 311.495 109.669C311.383 110.973 311.29 112.351 311.215 113.803C311.16 115.237 311.132 116.708 311.132 118.217C311.132 121.029 311.271 123.85 311.551 126.681C311.83 129.512 312.314 132.175 313.003 134.67ZM301.522 118.664V114.138C301.522 113.636 301.494 113.124 301.438 112.602C301.383 112.081 301.252 111.606 301.047 111.177C300.861 110.749 300.582 110.405 300.209 110.144C299.837 109.865 299.334 109.725 298.701 109.725C298.03 109.725 297.472 109.958 297.025 110.423C296.597 110.889 296.243 111.531 295.963 112.351C295.703 113.151 295.516 114.111 295.405 115.228C295.312 116.327 295.265 117.528 295.265 118.831C295.265 119.576 295.312 120.331 295.405 121.094C295.516 121.858 295.693 122.556 295.935 123.189C296.178 123.804 296.503 124.307 296.913 124.698C297.323 125.089 297.826 125.284 298.422 125.284C299.092 125.284 299.632 125.051 300.042 124.586C300.451 124.12 300.759 123.543 300.964 122.854C301.187 122.165 301.336 121.448 301.411 120.703C301.485 119.939 301.522 119.26 301.522 118.664ZM330.518 108.943C329.941 108.943 329.419 109.11 328.954 109.446C328.488 109.762 328.069 110.218 327.697 110.814C327.343 111.392 327.026 112.09 326.747 112.909C326.486 113.729 326.272 114.632 326.104 115.619C326.104 117.202 326.142 118.804 326.216 120.424C326.291 122.044 326.412 123.645 326.579 125.228C326.747 126.811 326.961 128.357 327.222 129.865C327.501 131.374 327.836 132.808 328.227 134.167C327.929 134.149 327.585 134.121 327.194 134.084C326.859 134.065 326.449 134.046 325.965 134.028C325.499 134.009 324.959 134 324.345 134C323.19 134 321.849 134.056 320.322 134.167C318.814 134.26 317.138 134.447 315.294 134.726C315.517 133.683 315.713 132.407 315.88 130.899C316.048 129.391 316.188 127.752 316.299 125.983C316.411 124.213 316.495 122.37 316.551 120.452C316.625 118.515 316.663 116.606 316.663 114.725C316.663 113.328 316.644 111.96 316.607 110.619C316.57 109.278 316.514 108.012 316.439 106.82C316.383 105.628 316.299 104.529 316.188 103.523C316.076 102.518 315.946 101.652 315.797 100.926C317.305 101.186 318.674 101.373 319.903 101.484C321.151 101.577 322.268 101.624 323.255 101.624C323.888 101.624 324.447 101.615 324.931 101.596C325.415 101.559 325.834 101.522 326.188 101.484C326.579 101.428 326.933 101.373 327.25 101.317C327.026 102.248 326.859 103.281 326.747 104.417C327.715 103.244 328.767 102.378 329.903 101.82C331.058 101.261 332.138 100.981 333.144 100.981C334.82 100.981 336.235 101.289 337.39 101.903C338.544 102.499 339.476 103.291 340.183 104.278C340.891 105.246 341.403 106.354 341.72 107.602C342.036 108.85 342.194 110.116 342.194 111.401C342.194 112.649 342.018 113.868 341.664 115.06C341.31 116.252 340.798 117.323 340.127 118.273C339.457 119.204 338.628 119.958 337.641 120.535C336.654 121.113 335.537 121.401 334.289 121.401C333.19 121.401 332.25 121.215 331.468 120.843C330.704 120.47 330.071 119.986 329.568 119.39C329.065 118.794 328.693 118.142 328.451 117.435C328.227 116.708 328.116 115.991 328.116 115.284C328.116 114.539 328.218 113.813 328.423 113.105C328.646 112.397 328.963 111.755 329.373 111.177C329.503 111.587 329.661 111.904 329.848 112.127C330.052 112.332 330.257 112.481 330.462 112.574C330.686 112.686 330.928 112.751 331.188 112.77C331.877 112.77 332.39 112.611 332.725 112.295C333.079 111.978 333.256 111.606 333.256 111.177C333.256 110.973 333.218 110.74 333.144 110.479C333.069 110.218 332.93 109.976 332.725 109.753C332.539 109.529 332.269 109.343 331.915 109.194C331.561 109.027 331.095 108.943 330.518 108.943ZM356.72 134.167C356.404 134.149 356.031 134.121 355.603 134.084C355.23 134.065 354.793 134.046 354.29 134.028C353.787 134.009 353.21 134 352.558 134C351.348 134 349.951 134.056 348.368 134.167C346.785 134.26 345.072 134.447 343.228 134.726C343.582 134.018 343.88 133.134 344.122 132.072C344.364 130.992 344.56 129.847 344.709 128.636C344.876 127.407 344.997 126.169 345.072 124.921C345.165 123.673 345.23 122.528 345.267 121.485C345.305 120.442 345.323 119.558 345.323 118.831C345.342 118.105 345.351 117.649 345.351 117.463C345.314 115.042 345.23 112.779 345.1 110.675C345.044 109.781 344.969 108.878 344.876 107.965C344.802 107.053 344.709 106.196 344.597 105.395C344.485 104.576 344.355 103.849 344.206 103.216C344.075 102.564 343.917 102.052 343.731 101.68C345.239 101.941 346.636 102.117 347.921 102.211C349.206 102.304 350.37 102.35 351.413 102.35C352.083 102.35 352.679 102.341 353.201 102.322C353.741 102.285 354.197 102.248 354.569 102.211C355.016 102.173 355.407 102.127 355.743 102.071C355.407 103.747 355.128 105.768 354.905 108.133C354.7 110.498 354.597 113.03 354.597 115.731C354.597 117.276 354.635 118.841 354.709 120.424C354.784 122.007 354.905 123.59 355.072 125.173C355.24 126.737 355.454 128.283 355.715 129.81C355.994 131.318 356.329 132.771 356.72 134.167ZM343.898 94.2214C343.898 93.3648 344.057 92.564 344.373 91.8191C344.709 91.0555 345.156 90.3944 345.714 89.8357C346.292 89.2584 346.962 88.8115 347.725 88.4949C348.489 88.1597 349.299 87.9921 350.156 87.9921C351.012 87.9921 351.813 88.1597 352.558 88.4949C353.322 88.8115 353.983 89.2584 354.541 89.8357C355.119 90.3944 355.566 91.0555 355.882 91.8191C356.217 92.564 356.385 93.3648 356.385 94.2214C356.385 95.078 356.217 95.8881 355.882 96.6517C355.566 97.4152 355.119 98.0856 354.541 98.6629C353.983 99.2216 353.322 99.6686 352.558 100.004C351.813 100.32 351.012 100.479 350.156 100.479C349.299 100.479 348.489 100.32 347.725 100.004C346.962 99.6686 346.292 99.2216 345.714 98.6629C345.156 98.0856 344.709 97.4152 344.373 96.6517C344.057 95.8881 343.898 95.078 343.898 94.2214ZM387.588 134.67C387.234 134.633 386.824 134.596 386.358 134.558C385.967 134.521 385.493 134.493 384.934 134.475C384.394 134.456 383.798 134.447 383.146 134.447C382.215 134.447 381.191 134.484 380.073 134.558C378.975 134.633 377.839 134.773 376.665 134.977L376.777 127.128C376.069 129.903 375.027 132.044 373.648 133.553C372.289 135.061 370.687 135.815 368.844 135.815C368.266 135.815 367.615 135.741 366.888 135.592C366.162 135.443 365.417 135.154 364.654 134.726C363.909 134.316 363.173 133.739 362.447 132.994C361.739 132.249 361.106 131.29 360.547 130.117C359.989 128.925 359.542 127.491 359.206 125.815C358.871 124.12 358.704 122.118 358.704 119.809C358.704 116.681 359.02 114.008 359.653 111.792C360.287 109.557 361.097 107.732 362.084 106.317C363.071 104.902 364.16 103.868 365.352 103.216C366.544 102.564 367.708 102.239 368.844 102.239C369.812 102.239 370.687 102.378 371.47 102.658C372.27 102.918 372.978 103.263 373.593 103.691C374.207 104.101 374.738 104.566 375.185 105.088C375.632 105.609 375.995 106.131 376.274 106.652C376.218 106.019 376.135 105.349 376.023 104.641C375.911 103.915 375.781 103.17 375.632 102.406C376.842 102.648 378.071 102.807 379.319 102.881C380.567 102.955 381.721 102.993 382.783 102.993C384.049 102.993 385.074 102.965 385.856 102.909C386.303 102.89 386.712 102.862 387.085 102.825C386.88 103.756 386.694 104.799 386.526 105.954C386.358 107.108 386.209 108.347 386.079 109.669C385.967 110.973 385.874 112.351 385.8 113.803C385.744 115.237 385.716 116.708 385.716 118.217C385.716 121.029 385.856 123.85 386.135 126.681C386.414 129.512 386.899 132.175 387.588 134.67ZM376.107 118.664V114.138C376.107 113.636 376.079 113.124 376.023 112.602C375.967 112.081 375.837 111.606 375.632 111.177C375.446 110.749 375.166 110.405 374.794 110.144C374.421 109.865 373.918 109.725 373.285 109.725C372.615 109.725 372.056 109.958 371.609 110.423C371.181 110.889 370.827 111.531 370.548 112.351C370.287 113.151 370.101 114.111 369.989 115.228C369.896 116.327 369.849 117.528 369.849 118.831C369.849 119.576 369.896 120.331 369.989 121.094C370.101 121.858 370.278 122.556 370.52 123.189C370.762 123.804 371.088 124.307 371.497 124.698C371.907 125.089 372.41 125.284 373.006 125.284C373.676 125.284 374.216 125.051 374.626 124.586C375.036 124.12 375.343 123.543 375.548 122.854C375.771 122.165 375.92 121.448 375.995 120.703C376.069 119.939 376.107 119.26 376.107 118.664Z" fill="black"/>
<path d="M120.008 247.629C118.741 247.536 117.577 247.471 116.516 247.433C115.454 247.415 114.458 247.405 113.527 247.405C111.832 247.405 110.398 247.452 109.225 247.545C108.07 247.638 107.13 247.741 106.404 247.852C105.547 247.983 104.858 248.132 104.337 248.299C104.411 247.722 104.486 247.173 104.56 246.651C104.635 246.111 104.69 245.58 104.728 245.059C104.784 244.537 104.821 244.016 104.839 243.495C104.877 242.973 104.895 242.424 104.895 241.846C104.895 239.779 104.811 238.057 104.644 236.679C104.495 235.282 104.271 234.127 103.973 233.215C103.675 232.302 103.312 231.557 102.884 230.98C102.456 230.403 101.981 229.891 101.459 229.444C101.422 230.282 101.394 231.092 101.376 231.874C101.357 232.656 101.348 233.485 101.348 234.36C101.348 235.235 101.366 236.139 101.404 237.07C101.441 238.001 101.506 238.997 101.599 240.059C101.692 241.102 101.832 242.219 102.018 243.411C102.204 244.584 102.437 245.85 102.716 247.21C102.009 247.154 101.217 247.089 100.342 247.014C99.5971 246.977 98.7125 246.93 97.6883 246.875C96.664 246.837 95.5373 246.819 94.3082 246.819C93.0791 246.819 91.7755 246.847 90.3974 246.903C89.0193 246.958 87.5761 247.061 86.0676 247.21C86.5146 246.651 86.915 245.925 87.2688 245.031C87.6413 244.137 87.9672 243.159 88.2465 242.098C88.5258 241.018 88.7586 239.891 88.9449 238.718C89.1497 237.545 89.3266 236.39 89.4756 235.254C89.8108 232.591 90.0343 229.751 90.146 226.734C90.146 225.151 90.1274 223.522 90.0902 221.846C90.0529 220.169 89.9598 218.503 89.8108 216.845C89.6618 215.169 89.4384 213.521 89.1404 211.901C88.8611 210.281 88.47 208.744 87.9672 207.292C88.7493 207.348 89.5222 207.404 90.2857 207.459C91.0492 207.497 91.8221 207.515 92.6042 207.515C96.2729 207.515 99.8764 207.134 103.415 206.37C102.595 208.791 102.009 211.193 101.655 213.577C101.301 215.942 101.124 218.307 101.124 220.672C101.124 221.25 101.124 221.827 101.124 222.404C101.143 222.963 101.18 223.531 101.236 224.108C102.819 222.097 104.029 220.123 104.867 218.186C105.724 216.249 106.152 214.35 106.152 212.488C106.152 211.538 106.041 210.616 105.817 209.722C105.612 208.81 105.268 207.906 104.784 207.012C105.715 207.106 106.637 207.18 107.549 207.236C108.48 207.273 109.411 207.292 110.342 207.292C111.944 207.292 113.546 207.217 115.147 207.068C116.749 206.919 118.369 206.687 120.008 206.37C119.691 206.854 119.402 207.376 119.142 207.934C118.881 208.474 118.639 209.042 118.415 209.638C118.211 210.216 118.015 210.802 117.829 211.398C117.661 211.994 117.512 212.562 117.382 213.102C117.065 214.387 116.814 215.691 116.628 217.013C116.423 218.317 116.078 219.555 115.594 220.728C115.389 221.231 115.138 221.752 114.84 222.292C114.542 222.814 114.197 223.326 113.806 223.829C113.415 224.313 112.968 224.779 112.465 225.226C111.981 225.654 111.423 226.026 110.789 226.343C112.093 226.883 113.089 227.553 113.778 228.354C114.486 229.155 115.017 230.068 115.371 231.092C115.724 232.097 115.976 233.205 116.125 234.416C116.274 235.608 116.46 236.865 116.684 238.187C116.888 239.304 117.149 240.422 117.466 241.539C117.726 242.489 118.062 243.513 118.471 244.612C118.9 245.711 119.412 246.716 120.008 247.629ZM147.216 230.338C147.216 231.418 147.132 232.61 146.964 233.913C146.797 235.198 146.517 236.502 146.126 237.824C145.735 239.128 145.204 240.403 144.534 241.651C143.864 242.88 143.025 243.969 142.02 244.919C141.033 245.869 139.85 246.633 138.472 247.21C137.094 247.787 135.493 248.076 133.668 248.076C131.842 248.076 130.241 247.806 128.863 247.266C127.503 246.726 126.33 246.009 125.343 245.115C124.375 244.202 123.574 243.159 122.941 241.986C122.308 240.794 121.805 239.547 121.432 238.243C121.06 236.939 120.799 235.626 120.65 234.304C120.52 232.963 120.455 231.697 120.455 230.505C120.455 228.401 120.734 226.343 121.293 224.332C121.851 222.302 122.699 220.495 123.835 218.912C124.989 217.33 126.423 216.054 128.137 215.085C129.868 214.117 131.898 213.633 134.226 213.633C135.791 213.633 137.197 213.875 138.444 214.359C139.692 214.825 140.8 215.467 141.768 216.287C142.737 217.106 143.556 218.065 144.227 219.164C144.916 220.263 145.484 221.427 145.931 222.656C146.378 223.885 146.703 225.16 146.908 226.483C147.113 227.805 147.216 229.09 147.216 230.338ZM137.495 231.259C137.495 230.831 137.476 230.3 137.439 229.667C137.42 229.015 137.364 228.336 137.271 227.628C137.178 226.92 137.048 226.213 136.88 225.505C136.731 224.797 136.526 224.164 136.265 223.605C136.005 223.047 135.679 222.59 135.288 222.237C134.915 221.883 134.468 221.706 133.947 221.706C133.444 221.706 133.006 221.873 132.634 222.209C132.261 222.544 131.936 222.982 131.656 223.522C131.396 224.062 131.172 224.676 130.986 225.365C130.818 226.036 130.679 226.715 130.567 227.404C130.474 228.075 130.399 228.727 130.343 229.36C130.306 229.974 130.287 230.496 130.287 230.924C130.287 231.539 130.334 232.284 130.427 233.159C130.52 234.034 130.697 234.872 130.958 235.673C131.219 236.474 131.572 237.163 132.019 237.74C132.485 238.299 133.09 238.578 133.835 238.578C134.543 238.578 135.129 238.317 135.595 237.796C136.079 237.275 136.461 236.641 136.74 235.896C137.02 235.133 137.215 234.332 137.327 233.494C137.439 232.656 137.495 231.911 137.495 231.259ZM149.003 214.611C149.432 214.648 149.916 214.685 150.456 214.722C150.922 214.76 151.462 214.788 152.076 214.806C152.709 214.825 153.398 214.834 154.143 214.834C155.186 214.834 156.304 214.806 157.495 214.75C158.706 214.676 159.898 214.536 161.071 214.331C160.848 214.76 160.652 215.337 160.484 216.063C160.335 216.771 160.205 217.6 160.093 218.549C160.857 216.873 161.872 215.57 163.138 214.639C164.423 213.707 166.043 213.242 167.999 213.242C168.427 213.242 168.967 213.27 169.619 213.326C170.289 213.381 170.988 213.568 171.714 213.884C172.459 214.201 173.194 214.694 173.921 215.365C174.666 216.017 175.327 216.948 175.904 218.158C176.5 219.369 176.975 220.896 177.329 222.739C177.701 224.564 177.887 226.818 177.887 229.5C177.887 231.734 177.72 233.736 177.385 235.505C177.068 237.256 176.63 238.802 176.072 240.142C175.532 241.483 174.889 242.629 174.144 243.578C173.418 244.51 172.645 245.273 171.826 245.869C171.025 246.465 170.196 246.893 169.34 247.154C168.501 247.433 167.691 247.573 166.909 247.573C165.997 247.573 165.149 247.387 164.367 247.014C163.604 246.642 162.924 246.13 162.328 245.478C161.732 244.807 161.22 244.016 160.792 243.103C160.363 242.172 160.037 241.157 159.814 240.059C159.833 240.915 159.87 241.912 159.926 243.048C159.982 244.184 160.047 245.366 160.121 246.595C160.196 247.806 160.28 249.026 160.373 250.255C160.466 251.484 160.568 252.62 160.68 253.663C160.792 254.724 160.913 255.646 161.043 256.428C161.192 257.21 161.35 257.769 161.518 258.104C160.028 257.843 158.641 257.667 157.356 257.573C156.071 257.499 154.907 257.462 153.864 257.462C153.194 257.462 152.588 257.471 152.048 257.49C151.508 257.508 151.052 257.536 150.679 257.573C150.233 257.611 149.841 257.648 149.506 257.685C149.692 256.754 149.869 255.534 150.037 254.026C150.205 252.536 150.344 250.851 150.456 248.97C150.586 247.107 150.689 245.105 150.763 242.964C150.838 240.804 150.875 238.597 150.875 236.343C150.875 234.276 150.838 232.218 150.763 230.17C150.707 228.121 150.605 226.157 150.456 224.276C150.307 222.395 150.111 220.635 149.869 218.996C149.627 217.339 149.339 215.877 149.003 214.611ZM160.484 228.354V232.852C160.484 233.354 160.512 233.867 160.568 234.388C160.624 234.909 160.745 235.384 160.931 235.813C161.136 236.241 161.425 236.595 161.797 236.874C162.17 237.135 162.673 237.265 163.306 237.265C163.753 237.265 164.134 237.088 164.451 236.734C164.768 236.381 165.028 235.924 165.233 235.366C165.438 234.807 165.606 234.183 165.736 233.494C165.866 232.805 165.959 232.125 166.015 231.455C166.071 230.766 166.108 230.133 166.127 229.555C166.146 228.959 166.155 228.494 166.155 228.159C166.155 227.656 166.127 227.041 166.071 226.315C166.034 225.589 165.932 224.881 165.764 224.192C165.596 223.503 165.336 222.916 164.982 222.432C164.647 221.948 164.181 221.706 163.585 221.706C162.915 221.706 162.375 221.948 161.965 222.432C161.555 222.898 161.239 223.475 161.015 224.164C160.81 224.835 160.671 225.561 160.596 226.343C160.522 227.106 160.484 227.777 160.484 228.354Z" fill="black"/>
<path d="M118.918 338.017C117.391 341.797 116.628 345.466 116.628 349.023C116.628 350.736 116.786 352.468 117.103 354.219C117.419 355.95 117.913 357.72 118.583 359.526C117.522 359.265 116.535 359.07 115.622 358.939C114.71 358.809 113.806 358.744 112.912 358.744C111.963 358.744 110.994 358.828 110.007 358.995C109.02 359.163 107.949 359.424 106.795 359.777L107.94 355.308C107.568 355.904 107.121 356.518 106.599 357.152C106.078 357.766 105.454 358.325 104.728 358.828C104.02 359.33 103.201 359.74 102.269 360.057C101.357 360.392 100.305 360.56 99.1129 360.56C97.3251 360.56 95.677 360.131 94.1686 359.275C92.6787 358.418 91.3938 357.18 90.3136 355.559C89.2335 353.939 88.3862 351.956 87.7716 349.609C87.1757 347.244 86.8777 344.563 86.8777 341.564C86.8777 339.572 87.064 337.598 87.4364 335.642C87.8089 333.668 88.3489 331.797 89.0566 330.027C89.7643 328.24 90.6395 326.592 91.6824 325.083C92.7253 323.556 93.9078 322.243 95.2301 321.144C96.5523 320.027 98.0142 319.161 99.6157 318.547C101.236 317.913 102.977 317.597 104.839 317.597C106.534 317.597 108.015 317.774 109.281 318.128C110.547 318.463 111.646 318.919 112.577 319.496C113.508 320.055 114.272 320.707 114.868 321.452C115.482 322.178 115.967 322.942 116.32 323.742C116.674 324.543 116.926 325.344 117.075 326.145C117.224 326.927 117.298 327.662 117.298 328.351C117.298 329.338 117.121 330.288 116.767 331.201C116.432 332.113 115.957 332.914 115.343 333.603C114.728 334.292 114.002 334.841 113.164 335.251C112.326 335.661 111.404 335.866 110.398 335.866C109.355 335.866 108.452 335.707 107.689 335.391C106.925 335.074 106.292 334.665 105.789 334.162C105.286 333.64 104.905 333.063 104.644 332.43C104.402 331.797 104.281 331.163 104.281 330.53C104.281 329.99 104.374 329.441 104.56 328.882C104.746 328.324 105.007 327.802 105.342 327.318C105.454 327.709 105.612 328.016 105.817 328.24C106.022 328.445 106.227 328.594 106.432 328.687C106.655 328.798 106.907 328.864 107.186 328.882C107.819 328.882 108.266 328.724 108.527 328.407C108.806 328.091 108.946 327.728 108.946 327.318C108.946 327.132 108.899 326.945 108.806 326.759C108.732 326.554 108.611 326.368 108.443 326.201C108.275 326.033 108.052 325.893 107.773 325.781C107.512 325.67 107.186 325.614 106.795 325.614C106.534 325.614 106.171 325.67 105.705 325.781C105.258 325.875 104.765 326.07 104.225 326.368C103.703 326.666 103.173 327.094 102.633 327.653C102.093 328.193 101.599 328.919 101.152 329.832C100.705 330.744 100.342 331.862 100.063 333.184C99.7833 334.506 99.6437 336.08 99.6437 337.905C99.6437 339.413 99.7647 340.736 100.007 341.872C100.268 343.008 100.621 343.957 101.068 344.721C101.515 345.484 102.046 346.062 102.661 346.453C103.275 346.825 103.946 347.011 104.672 347.011C105.361 347.011 105.929 346.835 106.376 346.481C106.823 346.127 107.177 345.699 107.437 345.196C107.698 344.693 107.875 344.172 107.968 343.631C108.061 343.091 108.108 342.635 108.108 342.263C108.108 342.244 108.089 342.114 108.052 341.872C108.033 341.629 107.949 341.35 107.8 341.034C107.651 340.717 107.409 340.391 107.074 340.056C106.739 339.721 106.264 339.441 105.65 339.218C107.847 339.218 110.054 339.125 112.27 338.938C114.486 338.734 116.702 338.426 118.918 338.017ZM133.723 358.911C133.407 358.893 133.034 358.865 132.606 358.828C132.234 358.809 131.787 358.79 131.265 358.772C130.762 358.753 130.185 358.744 129.533 358.744C128.323 358.744 126.926 358.8 125.343 358.911C123.779 359.005 122.075 359.191 120.231 359.47C120.492 358.949 120.725 358.232 120.93 357.319C121.134 356.388 121.311 355.345 121.46 354.191C121.609 353.017 121.73 351.779 121.823 350.475C121.935 349.153 122.019 347.831 122.075 346.509C122.149 345.186 122.196 343.911 122.214 342.682C122.252 341.434 122.28 340.317 122.298 339.33C122.317 338.324 122.326 337.477 122.326 336.788C122.326 336.099 122.326 335.652 122.326 335.447C122.289 332.337 122.205 329.45 122.075 326.787C122.019 325.67 121.954 324.543 121.879 323.407C121.805 322.271 121.712 321.21 121.6 320.223C121.488 319.236 121.358 318.37 121.209 317.625C121.079 316.88 120.92 316.321 120.734 315.949C122.242 316.209 123.639 316.386 124.924 316.479C126.209 316.573 127.364 316.619 128.388 316.619C129.058 316.619 129.664 316.61 130.204 316.591C130.744 316.554 131.2 316.517 131.572 316.479C132.019 316.442 132.41 316.396 132.746 316.34C132.578 317.178 132.42 318.239 132.271 319.524C132.14 320.809 132.019 322.252 131.908 323.854C131.815 325.456 131.74 327.178 131.684 329.022C131.628 330.866 131.6 332.765 131.6 334.72C131.6 336.955 131.638 339.209 131.712 341.481C131.787 343.752 131.908 345.95 132.075 348.073C132.243 350.196 132.457 352.189 132.718 354.051C132.997 355.895 133.332 357.515 133.723 358.911ZM164.423 359.414C164.069 359.377 163.66 359.34 163.194 359.303C162.803 359.265 162.328 359.237 161.769 359.219C161.229 359.2 160.633 359.191 159.982 359.191C159.05 359.191 158.026 359.228 156.909 359.303C155.81 359.377 154.674 359.517 153.501 359.722L153.613 351.872C152.905 354.647 151.862 356.788 150.484 358.297C149.124 359.805 147.523 360.56 145.679 360.56C145.102 360.56 144.45 360.485 143.724 360.336C142.998 360.187 142.253 359.898 141.489 359.47C140.744 359.06 140.009 358.483 139.282 357.738C138.575 356.993 137.941 356.034 137.383 354.861C136.824 353.669 136.377 352.235 136.042 350.559C135.707 348.864 135.539 346.863 135.539 344.553C135.539 341.425 135.856 338.752 136.489 336.536C137.122 334.301 137.932 332.476 138.919 331.061C139.906 329.646 140.996 328.612 142.187 327.96C143.379 327.309 144.543 326.983 145.679 326.983C146.648 326.983 147.523 327.122 148.305 327.402C149.106 327.662 149.813 328.007 150.428 328.435C151.043 328.845 151.573 329.311 152.02 329.832C152.467 330.353 152.83 330.875 153.11 331.396C153.054 330.763 152.97 330.093 152.858 329.385C152.747 328.659 152.616 327.914 152.467 327.15C153.678 327.392 154.907 327.551 156.155 327.625C157.402 327.7 158.557 327.737 159.618 327.737C160.885 327.737 161.909 327.709 162.691 327.653C163.138 327.634 163.548 327.607 163.92 327.569C163.715 328.5 163.529 329.543 163.362 330.698C163.194 331.853 163.045 333.091 162.915 334.413C162.803 335.717 162.71 337.095 162.635 338.547C162.579 339.981 162.551 341.453 162.551 342.961C162.551 345.773 162.691 348.594 162.971 351.425C163.25 354.256 163.734 356.919 164.423 359.414ZM152.942 343.408V338.883C152.942 338.38 152.914 337.868 152.858 337.346C152.802 336.825 152.672 336.35 152.467 335.922C152.281 335.493 152.002 335.149 151.629 334.888C151.257 334.609 150.754 334.469 150.121 334.469C149.45 334.469 148.892 334.702 148.445 335.167C148.016 335.633 147.663 336.275 147.383 337.095C147.122 337.896 146.936 338.855 146.825 339.972C146.731 341.071 146.685 342.272 146.685 343.576C146.685 344.32 146.731 345.075 146.825 345.838C146.936 346.602 147.113 347.3 147.355 347.933C147.597 348.548 147.923 349.051 148.333 349.442C148.743 349.833 149.245 350.028 149.841 350.028C150.512 350.028 151.052 349.796 151.462 349.33C151.871 348.864 152.179 348.287 152.383 347.598C152.607 346.909 152.756 346.192 152.83 345.447C152.905 344.684 152.942 344.004 152.942 343.408ZM189.871 333.631C189.871 334.376 189.722 335.046 189.424 335.642C189.126 336.238 188.726 336.75 188.223 337.179C187.72 337.588 187.134 337.914 186.463 338.156C185.793 338.38 185.085 338.492 184.34 338.492C183.484 338.492 182.748 338.389 182.133 338.184C181.537 337.979 181.025 337.719 180.597 337.402C180.187 337.067 179.861 336.704 179.619 336.313C179.377 335.903 179.182 335.512 179.033 335.139C178.902 334.767 178.819 334.422 178.781 334.106C178.744 333.789 178.725 333.547 178.725 333.38C178.893 333.696 179.107 333.892 179.368 333.966C179.629 334.041 179.833 334.078 179.982 334.078C180.411 334.078 180.718 333.966 180.904 333.743C181.09 333.519 181.184 333.286 181.184 333.044C181.184 332.895 181.146 332.728 181.072 332.542C180.997 332.355 180.867 332.188 180.681 332.039C180.495 331.871 180.252 331.731 179.955 331.62C179.657 331.508 179.284 331.452 178.837 331.452C178.558 331.452 178.26 331.508 177.943 331.62C177.627 331.731 177.338 331.908 177.077 332.15C176.835 332.374 176.63 332.663 176.463 333.016C176.295 333.352 176.211 333.743 176.211 334.19C176.211 335.028 176.425 335.735 176.854 336.313C177.282 336.89 177.841 337.402 178.53 337.849C179.238 338.277 180.029 338.678 180.904 339.05C181.798 339.423 182.711 339.814 183.642 340.223C184.573 340.615 185.476 341.061 186.351 341.564C187.245 342.049 188.037 342.644 188.726 343.352C189.434 344.06 190.002 344.907 190.43 345.894C190.858 346.881 191.072 348.054 191.072 349.414C191.072 351.146 190.718 352.71 190.011 354.107C189.303 355.503 188.353 356.705 187.162 357.71C185.988 358.697 184.62 359.452 183.055 359.973C181.491 360.513 179.843 360.783 178.111 360.783C176.528 360.783 175.029 360.569 173.613 360.141C172.198 359.712 170.96 359.116 169.898 358.353C168.837 357.589 167.989 356.686 167.356 355.643C166.742 354.6 166.434 353.474 166.434 352.263C166.434 351.351 166.583 350.559 166.881 349.889C167.179 349.2 167.589 348.632 168.11 348.185C168.65 347.738 169.274 347.403 169.982 347.179C170.708 346.956 171.49 346.844 172.328 346.844C172.943 346.844 173.558 346.909 174.172 347.039C174.787 347.17 175.364 347.365 175.904 347.626C176.444 347.887 176.928 348.203 177.357 348.576C177.785 348.948 178.129 349.377 178.39 349.861C178.241 349.824 178.092 349.796 177.943 349.777C177.813 349.758 177.673 349.749 177.524 349.749C177.115 349.749 176.789 349.861 176.547 350.084C176.323 350.289 176.211 350.634 176.211 351.118C176.211 351.639 176.425 352.077 176.854 352.431C177.282 352.785 177.757 352.961 178.278 352.961C178.576 352.961 178.856 352.896 179.116 352.766C179.377 352.636 179.601 352.468 179.787 352.263C179.973 352.04 180.113 351.798 180.206 351.537C180.318 351.276 180.374 351.006 180.374 350.727C180.374 350.243 180.206 349.721 179.871 349.162C179.554 348.604 179.098 348.138 178.502 347.766C177.329 347.039 176.221 346.416 175.178 345.894C174.135 345.373 173.176 344.879 172.301 344.414C171.425 343.948 170.634 343.482 169.926 343.017C169.237 342.551 168.65 342.011 168.166 341.397C167.682 340.764 167.31 340.028 167.049 339.19C166.788 338.333 166.658 337.3 166.658 336.089C166.658 334.655 166.937 333.333 167.496 332.123C168.073 330.893 168.893 329.832 169.954 328.938C171.016 328.044 172.319 327.346 173.865 326.843C175.411 326.322 177.161 326.061 179.116 326.061C181.109 326.061 182.785 326.294 184.145 326.759C185.523 327.225 186.631 327.821 187.469 328.547C188.325 329.273 188.94 330.083 189.312 330.977C189.685 331.871 189.871 332.756 189.871 333.631Z" fill="black"/>
<path d="M289.26 225.7C289.111 226.538 288.999 227.367 288.925 228.187C288.869 228.987 288.841 229.807 288.841 230.645C288.841 232.265 288.981 233.885 289.26 235.505C288.832 235.301 288.375 235.114 287.891 234.947C287.407 234.779 286.923 234.621 286.439 234.472C286.644 236.595 286.914 238.671 287.249 240.701C287.603 242.712 288.04 244.64 288.562 246.484C288.189 246.446 287.761 246.409 287.277 246.372C286.848 246.335 286.327 246.307 285.712 246.288C285.116 246.269 284.427 246.26 283.645 246.26C282.155 246.26 280.405 246.325 278.394 246.456C276.401 246.586 274.241 246.837 271.913 247.21C272.248 246.521 272.546 245.664 272.807 244.64C273.068 243.616 273.291 242.517 273.477 241.344C273.682 240.152 273.84 238.913 273.952 237.628C274.082 236.343 274.185 235.096 274.259 233.885C273.887 233.904 273.235 233.895 272.304 233.857C271.373 233.82 270.209 233.82 268.812 233.857C267.434 233.895 265.861 233.997 264.091 234.165C262.322 234.332 260.413 234.621 258.365 235.03C259.296 232.163 260.162 229.509 260.963 227.069C261.763 224.63 262.49 222.283 263.142 220.03C263.793 217.776 264.352 215.551 264.818 213.354C265.283 211.156 265.646 208.865 265.907 206.482C269.501 206.798 273.077 206.938 276.634 206.901C280.191 206.845 283.766 206.668 287.361 206.37C286.932 208.474 286.588 210.998 286.327 213.94C286.066 216.864 285.936 220.002 285.936 223.354V226.734C286.569 226.585 287.165 226.436 287.724 226.287C288.282 226.138 288.794 225.943 289.26 225.7ZM274.539 227.544C274.539 227.06 274.529 226.417 274.511 225.617C274.511 224.816 274.492 223.913 274.455 222.907C274.436 221.901 274.408 220.821 274.371 219.667C274.334 218.493 274.278 217.302 274.204 216.091C273.365 217.711 272.695 219.49 272.192 221.427C271.689 223.363 271.233 225.347 270.823 227.377C271.252 227.414 271.634 227.442 271.969 227.46C272.304 227.479 272.611 227.498 272.891 227.516C273.17 227.516 273.44 227.526 273.701 227.544C273.961 227.544 274.241 227.544 274.539 227.544ZM304.149 219.89C304.149 221.473 304.419 222.721 304.959 223.633C305.499 224.527 306.356 224.974 307.529 224.974C307.995 224.974 308.432 224.862 308.842 224.639C309.252 224.397 309.605 224.052 309.903 223.605C310.201 223.158 310.434 222.628 310.602 222.013C310.788 221.38 310.89 220.672 310.909 219.89C310.928 219.182 310.853 218.512 310.686 217.879C310.537 217.227 310.313 216.659 310.015 216.175C309.736 215.672 309.382 215.281 308.954 215.002C308.525 214.704 308.05 214.555 307.529 214.555C306.989 214.555 306.505 214.694 306.076 214.974C305.667 215.253 305.313 215.635 305.015 216.119C304.736 216.603 304.521 217.171 304.372 217.823C304.223 218.475 304.149 219.164 304.149 219.89ZM310.853 231.958C310.686 232.125 310.443 232.302 310.127 232.488C309.81 232.675 309.447 232.852 309.037 233.019C308.628 233.168 308.172 233.299 307.669 233.41C307.166 233.503 306.644 233.55 306.104 233.55C305.006 233.55 303.888 233.457 302.752 233.271C301.635 233.066 300.555 232.749 299.512 232.321C298.469 231.874 297.482 231.306 296.551 230.617C295.638 229.928 294.838 229.09 294.149 228.103C293.478 227.097 292.947 225.933 292.556 224.611C292.165 223.289 291.97 221.79 291.97 220.114C291.97 217.655 292.351 215.486 293.115 213.605C293.879 211.724 294.94 210.15 296.299 208.884C297.678 207.618 299.307 206.668 301.188 206.035C303.087 205.383 305.164 205.057 307.417 205.057C309.801 205.057 311.943 205.457 313.842 206.258C315.742 207.04 317.353 208.223 318.675 209.806C320.016 211.389 321.04 213.363 321.748 215.728C322.455 218.093 322.809 220.849 322.809 223.996C322.809 225.803 322.725 227.656 322.558 229.555C322.409 231.455 322.111 233.317 321.664 235.142C321.217 236.949 320.584 238.662 319.764 240.282C318.963 241.884 317.902 243.29 316.58 244.5C315.276 245.692 313.693 246.642 311.831 247.349C309.969 248.057 307.753 248.411 305.183 248.411C303.693 248.411 302.268 248.215 300.909 247.824C299.549 247.433 298.348 246.893 297.305 246.204C296.281 245.497 295.461 244.658 294.847 243.69C294.232 242.703 293.925 241.614 293.925 240.422C293.925 239.528 294.111 238.69 294.484 237.908C294.856 237.126 295.35 236.455 295.964 235.896C296.597 235.319 297.314 234.872 298.115 234.556C298.916 234.22 299.745 234.053 300.601 234.053C301.7 234.053 302.762 234.341 303.786 234.919C304.81 235.496 305.713 236.437 306.495 237.74C306.067 237.647 305.685 237.6 305.35 237.6C304.978 237.6 304.698 237.721 304.512 237.964C304.345 238.206 304.261 238.466 304.261 238.746C304.261 239.044 304.41 239.332 304.708 239.612C305.006 239.872 305.471 240.003 306.104 240.003C307.11 240.003 307.92 239.751 308.535 239.249C309.168 238.746 309.652 238.103 309.987 237.321C310.341 236.539 310.574 235.673 310.686 234.723C310.797 233.773 310.853 232.852 310.853 231.958ZM352.252 247.461C350.147 247.294 348.322 247.21 346.777 247.21C345.436 247.21 344.3 247.247 343.369 247.322C342.456 247.415 341.711 247.508 341.134 247.601C340.463 247.713 339.923 247.834 339.514 247.964C339.663 247.014 339.774 246.139 339.849 245.338C339.923 244.537 339.961 243.681 339.961 242.768C339.961 241.129 339.895 239.77 339.765 238.69C339.635 237.591 339.449 236.669 339.206 235.924C338.964 235.179 338.676 234.574 338.34 234.109C338.005 233.643 337.633 233.224 337.223 232.852C337.186 233.522 337.158 234.192 337.139 234.863C337.121 235.515 337.111 236.185 337.111 236.874C337.111 238.271 337.186 239.789 337.335 241.427C337.484 243.048 337.791 244.938 338.257 247.098C337.698 247.061 337.065 247.014 336.357 246.958C335.761 246.921 335.044 246.884 334.206 246.847C333.368 246.828 332.446 246.819 331.441 246.819C330.435 246.819 329.364 246.837 328.228 246.875C327.111 246.912 325.947 246.986 324.736 247.098C325.109 246.521 325.435 245.757 325.714 244.807C326.012 243.858 326.264 242.796 326.468 241.623C326.673 240.431 326.841 239.165 326.971 237.824C327.12 236.483 327.232 235.133 327.306 233.773C327.4 232.395 327.465 231.045 327.502 229.723C327.539 228.401 327.558 227.162 327.558 226.008C327.558 224.462 327.53 222.879 327.474 221.259C327.418 219.639 327.344 218.056 327.251 216.51C327.157 214.964 327.046 213.493 326.915 212.097C326.785 210.7 326.655 209.443 326.524 208.325C326.394 207.189 326.254 206.24 326.105 205.476C325.975 204.713 325.845 204.191 325.714 203.912C326.906 204.024 328.144 204.079 329.429 204.079C331.05 204.079 332.651 204.005 334.234 203.856C335.836 203.688 337.363 203.465 338.815 203.185C338.592 203.837 338.387 204.685 338.201 205.728C338.015 206.752 337.847 207.897 337.698 209.163C337.568 210.411 337.447 211.743 337.335 213.158C337.242 214.555 337.158 215.961 337.083 217.376C337.009 218.773 336.953 220.132 336.916 221.454C336.897 222.777 336.888 223.987 336.888 225.086C336.888 225.831 336.897 226.501 336.916 227.097C336.934 227.693 336.962 228.205 337 228.634C338.285 226.995 339.281 225.412 339.989 223.885C340.696 222.339 341.05 220.812 341.05 219.304C341.05 217.87 340.668 216.417 339.905 214.946C340.612 215.02 341.339 215.076 342.084 215.113C342.829 215.132 343.555 215.141 344.263 215.141C345.603 215.141 346.935 215.095 348.257 215.002C349.579 214.89 350.911 214.704 352.252 214.443C351.73 215.225 351.293 216.1 350.939 217.069C350.604 218.019 350.334 218.94 350.129 219.834C349.887 220.859 349.682 221.901 349.514 222.963C349.347 223.987 349.067 224.974 348.676 225.924C348.509 226.334 348.304 226.753 348.062 227.181C347.838 227.591 347.559 228 347.224 228.41C346.907 228.801 346.544 229.174 346.134 229.527C345.724 229.863 345.268 230.151 344.765 230.393C345.845 230.822 346.665 231.362 347.224 232.014C347.801 232.665 348.229 233.401 348.509 234.22C348.788 235.021 348.983 235.906 349.095 236.874C349.207 237.824 349.347 238.83 349.514 239.891C349.682 240.766 349.896 241.651 350.157 242.545C350.38 243.308 350.659 244.137 350.995 245.031C351.348 245.906 351.768 246.716 352.252 247.461ZM368.649 221.315C368.072 221.315 367.55 221.482 367.085 221.818C366.619 222.134 366.2 222.59 365.828 223.186C365.474 223.764 365.157 224.462 364.878 225.281C364.617 226.101 364.403 227.004 364.235 227.991C364.235 229.574 364.273 231.176 364.347 232.796C364.422 234.416 364.543 236.018 364.71 237.6C364.878 239.183 365.092 240.729 365.353 242.238C365.632 243.746 365.967 245.18 366.358 246.539C366.061 246.521 365.716 246.493 365.325 246.456C364.99 246.437 364.58 246.418 364.096 246.4C363.63 246.381 363.09 246.372 362.476 246.372C361.321 246.372 359.98 246.428 358.453 246.539C356.945 246.633 355.269 246.819 353.425 247.098C353.648 246.055 353.844 244.78 354.012 243.271C354.179 241.763 354.319 240.124 354.431 238.355C354.542 236.585 354.626 234.742 354.682 232.824C354.756 230.887 354.794 228.978 354.794 227.097C354.794 225.7 354.775 224.332 354.738 222.991C354.701 221.65 354.645 220.384 354.57 219.192C354.514 218 354.431 216.901 354.319 215.896C354.207 214.89 354.077 214.024 353.928 213.298C355.436 213.558 356.805 213.745 358.034 213.856C359.282 213.949 360.399 213.996 361.386 213.996C362.019 213.996 362.578 213.987 363.062 213.968C363.546 213.931 363.965 213.894 364.319 213.856C364.71 213.8 365.064 213.745 365.381 213.689C365.157 214.62 364.99 215.653 364.878 216.789C365.846 215.616 366.899 214.75 368.035 214.192C369.189 213.633 370.269 213.354 371.275 213.354C372.951 213.354 374.366 213.661 375.521 214.275C376.675 214.871 377.607 215.663 378.314 216.65C379.022 217.618 379.534 218.726 379.851 219.974C380.167 221.222 380.326 222.488 380.326 223.773C380.326 225.021 380.149 226.241 379.795 227.432C379.441 228.624 378.929 229.695 378.258 230.645C377.588 231.576 376.759 232.33 375.772 232.907C374.785 233.485 373.668 233.773 372.42 233.773C371.321 233.773 370.381 233.587 369.599 233.215C368.835 232.842 368.202 232.358 367.699 231.762C367.196 231.166 366.824 230.514 366.582 229.807C366.358 229.081 366.247 228.364 366.247 227.656C366.247 226.911 366.349 226.185 366.554 225.477C366.777 224.769 367.094 224.127 367.504 223.55C367.634 223.959 367.792 224.276 367.979 224.499C368.183 224.704 368.388 224.853 368.593 224.946C368.817 225.058 369.059 225.123 369.319 225.142C370.009 225.142 370.521 224.983 370.856 224.667C371.21 224.35 371.387 223.978 371.387 223.55C371.387 223.345 371.349 223.112 371.275 222.851C371.2 222.59 371.061 222.348 370.856 222.125C370.67 221.901 370.4 221.715 370.046 221.566C369.692 221.399 369.226 221.315 368.649 221.315Z" fill="black"/>
<path d="M289.26 338.073C289.111 338.911 288.999 339.739 288.925 340.559C288.869 341.359 288.841 342.179 288.841 343.017C288.841 344.637 288.981 346.257 289.26 347.877C288.832 347.673 288.375 347.486 287.891 347.319C287.407 347.151 286.923 346.993 286.439 346.844C286.644 348.967 286.914 351.043 287.249 353.073C287.603 355.084 288.04 357.012 288.562 358.856C288.189 358.818 287.761 358.781 287.277 358.744C286.848 358.707 286.327 358.679 285.712 358.66C285.116 358.641 284.427 358.632 283.645 358.632C282.155 358.632 280.405 358.697 278.394 358.828C276.401 358.958 274.241 359.209 271.913 359.582C272.248 358.893 272.546 358.036 272.807 357.012C273.068 355.988 273.291 354.889 273.477 353.716C273.682 352.524 273.84 351.285 273.952 350C274.082 348.715 274.185 347.468 274.259 346.257C273.887 346.276 273.235 346.267 272.304 346.229C271.373 346.192 270.209 346.192 268.812 346.229C267.434 346.267 265.861 346.369 264.091 346.537C262.322 346.704 260.413 346.993 258.365 347.403C259.296 344.535 260.162 341.881 260.963 339.441C261.763 337.002 262.49 334.655 263.142 332.402C263.793 330.149 264.352 327.923 264.818 325.726C265.283 323.528 265.646 321.238 265.907 318.854C269.501 319.17 273.077 319.31 276.634 319.273C280.191 319.217 283.766 319.04 287.361 318.742C286.932 320.846 286.588 323.37 286.327 326.312C286.066 329.236 285.936 332.374 285.936 335.726V339.106C286.569 338.957 287.165 338.808 287.724 338.659C288.282 338.51 288.794 338.315 289.26 338.073ZM274.539 339.916C274.539 339.432 274.529 338.79 274.511 337.989C274.511 337.188 274.492 336.285 274.455 335.279C274.436 334.273 274.408 333.193 274.371 332.039C274.334 330.866 274.278 329.674 274.204 328.463C273.365 330.083 272.695 331.862 272.192 333.799C271.689 335.735 271.233 337.719 270.823 339.749C271.252 339.786 271.634 339.814 271.969 339.832C272.304 339.851 272.611 339.87 272.891 339.888C273.17 339.888 273.44 339.898 273.701 339.916C273.961 339.916 274.241 339.916 274.539 339.916ZM304.149 332.262C304.149 333.845 304.419 335.093 304.959 336.005C305.499 336.899 306.356 337.346 307.529 337.346C307.995 337.346 308.432 337.235 308.842 337.011C309.252 336.769 309.605 336.424 309.903 335.977C310.201 335.531 310.434 335 310.602 334.385C310.788 333.752 310.89 333.044 310.909 332.262C310.928 331.555 310.853 330.884 310.686 330.251C310.537 329.599 310.313 329.031 310.015 328.547C309.736 328.044 309.382 327.653 308.954 327.374C308.525 327.076 308.05 326.927 307.529 326.927C306.989 326.927 306.505 327.066 306.076 327.346C305.667 327.625 305.313 328.007 305.015 328.491C304.736 328.975 304.521 329.543 304.372 330.195C304.223 330.847 304.149 331.536 304.149 332.262ZM310.853 344.33C310.686 344.497 310.443 344.674 310.127 344.861C309.81 345.047 309.447 345.224 309.037 345.391C308.628 345.54 308.172 345.671 307.669 345.782C307.166 345.875 306.644 345.922 306.104 345.922C305.006 345.922 303.888 345.829 302.752 345.643C301.635 345.438 300.555 345.121 299.512 344.693C298.469 344.246 297.482 343.678 296.551 342.989C295.638 342.3 294.838 341.462 294.149 340.475C293.478 339.469 292.947 338.305 292.556 336.983C292.165 335.661 291.97 334.162 291.97 332.486C291.97 330.027 292.351 327.858 293.115 325.977C293.879 324.096 294.94 322.522 296.299 321.256C297.678 319.99 299.307 319.04 301.188 318.407C303.087 317.755 305.164 317.429 307.417 317.429C309.801 317.429 311.943 317.83 313.842 318.63C315.742 319.412 317.353 320.595 318.675 322.178C320.016 323.761 321.04 325.735 321.748 328.1C322.455 330.465 322.809 333.221 322.809 336.369C322.809 338.175 322.725 340.028 322.558 341.927C322.409 343.827 322.111 345.689 321.664 347.514C321.217 349.321 320.584 351.034 319.764 352.654C318.963 354.256 317.902 355.662 316.58 356.872C315.276 358.064 313.693 359.014 311.831 359.722C309.969 360.429 307.753 360.783 305.183 360.783C303.693 360.783 302.268 360.588 300.909 360.196C299.549 359.805 298.348 359.265 297.305 358.576C296.281 357.869 295.461 357.031 294.847 356.062C294.232 355.075 293.925 353.986 293.925 352.794C293.925 351.9 294.111 351.062 294.484 350.28C294.856 349.498 295.35 348.827 295.964 348.269C296.597 347.691 297.314 347.244 298.115 346.928C298.916 346.592 299.745 346.425 300.601 346.425C301.7 346.425 302.762 346.714 303.786 347.291C304.81 347.868 305.713 348.809 306.495 350.112C306.067 350.019 305.685 349.973 305.35 349.973C304.978 349.973 304.698 350.094 304.512 350.336C304.345 350.578 304.261 350.838 304.261 351.118C304.261 351.416 304.41 351.704 304.708 351.984C305.006 352.244 305.471 352.375 306.104 352.375C307.11 352.375 307.92 352.123 308.535 351.621C309.168 351.118 309.652 350.475 309.987 349.693C310.341 348.911 310.574 348.045 310.686 347.095C310.797 346.146 310.853 345.224 310.853 344.33ZM352.252 359.833C350.147 359.666 348.322 359.582 346.777 359.582C345.436 359.582 344.3 359.619 343.369 359.694C342.456 359.787 341.711 359.88 341.134 359.973C340.463 360.085 339.923 360.206 339.514 360.336C339.663 359.386 339.774 358.511 339.849 357.71C339.923 356.91 339.961 356.053 339.961 355.14C339.961 353.502 339.895 352.142 339.765 351.062C339.635 349.963 339.449 349.041 339.206 348.296C338.964 347.552 338.676 346.946 338.34 346.481C338.005 346.015 337.633 345.596 337.223 345.224C337.186 345.894 337.158 346.565 337.139 347.235C337.121 347.887 337.111 348.557 337.111 349.246C337.111 350.643 337.186 352.161 337.335 353.799C337.484 355.42 337.791 357.31 338.257 359.47C337.698 359.433 337.065 359.386 336.357 359.33C335.761 359.293 335.044 359.256 334.206 359.219C333.368 359.2 332.446 359.191 331.441 359.191C330.435 359.191 329.364 359.209 328.228 359.247C327.111 359.284 325.947 359.358 324.736 359.47C325.109 358.893 325.435 358.129 325.714 357.18C326.012 356.23 326.264 355.168 326.468 353.995C326.673 352.803 326.841 351.537 326.971 350.196C327.12 348.855 327.232 347.505 327.306 346.146C327.4 344.767 327.465 343.417 327.502 342.095C327.539 340.773 327.558 339.534 327.558 338.38C327.558 336.834 327.53 335.251 327.474 333.631C327.418 332.011 327.344 330.428 327.251 328.882C327.157 327.336 327.046 325.865 326.915 324.469C326.785 323.072 326.655 321.815 326.524 320.697C326.394 319.561 326.254 318.612 326.105 317.848C325.975 317.085 325.845 316.563 325.714 316.284C326.906 316.396 328.144 316.451 329.429 316.451C331.05 316.451 332.651 316.377 334.234 316.228C335.836 316.06 337.363 315.837 338.815 315.558C338.592 316.209 338.387 317.057 338.201 318.1C338.015 319.124 337.847 320.269 337.698 321.535C337.568 322.783 337.447 324.115 337.335 325.53C337.242 326.927 337.158 328.333 337.083 329.748C337.009 331.145 336.953 332.504 336.916 333.827C336.897 335.149 336.888 336.359 336.888 337.458C336.888 338.203 336.897 338.873 336.916 339.469C336.934 340.065 336.962 340.577 337 341.006C338.285 339.367 339.281 337.784 339.989 336.257C340.696 334.711 341.05 333.184 341.05 331.676C341.05 330.242 340.668 328.789 339.905 327.318C340.612 327.392 341.339 327.448 342.084 327.485C342.829 327.504 343.555 327.513 344.263 327.513C345.603 327.513 346.935 327.467 348.257 327.374C349.579 327.262 350.911 327.076 352.252 326.815C351.73 327.597 351.293 328.472 350.939 329.441C350.604 330.391 350.334 331.312 350.129 332.206C349.887 333.231 349.682 334.273 349.514 335.335C349.347 336.359 349.067 337.346 348.676 338.296C348.509 338.706 348.304 339.125 348.062 339.553C347.838 339.963 347.559 340.372 347.224 340.782C346.907 341.173 346.544 341.546 346.134 341.9C345.724 342.235 345.268 342.523 344.765 342.765C345.845 343.194 346.665 343.734 347.224 344.386C347.801 345.037 348.229 345.773 348.509 346.592C348.788 347.393 348.983 348.278 349.095 349.246C349.207 350.196 349.347 351.202 349.514 352.263C349.682 353.138 349.896 354.023 350.157 354.917C350.38 355.68 350.659 356.509 350.995 357.403C351.348 358.278 351.768 359.088 352.252 359.833ZM368.649 333.687C368.072 333.687 367.55 333.854 367.085 334.19C366.619 334.506 366.2 334.963 365.828 335.558C365.474 336.136 365.157 336.834 364.878 337.654C364.617 338.473 364.403 339.376 364.235 340.363C364.235 341.946 364.273 343.548 364.347 345.168C364.422 346.788 364.543 348.39 364.71 349.973C364.878 351.555 365.092 353.101 365.353 354.61C365.632 356.118 365.967 357.552 366.358 358.911C366.061 358.893 365.716 358.865 365.325 358.828C364.99 358.809 364.58 358.79 364.096 358.772C363.63 358.753 363.09 358.744 362.476 358.744C361.321 358.744 359.98 358.8 358.453 358.911C356.945 359.005 355.269 359.191 353.425 359.47C353.648 358.427 353.844 357.152 354.012 355.643C354.179 354.135 354.319 352.496 354.431 350.727C354.542 348.958 354.626 347.114 354.682 345.196C354.756 343.259 354.794 341.35 354.794 339.469C354.794 338.073 354.775 336.704 354.738 335.363C354.701 334.022 354.645 332.756 354.57 331.564C354.514 330.372 354.431 329.273 354.319 328.268C354.207 327.262 354.077 326.396 353.928 325.67C355.436 325.93 356.805 326.117 358.034 326.228C359.282 326.322 360.399 326.368 361.386 326.368C362.019 326.368 362.578 326.359 363.062 326.34C363.546 326.303 363.965 326.266 364.319 326.228C364.71 326.173 365.064 326.117 365.381 326.061C365.157 326.992 364.99 328.026 364.878 329.162C365.846 327.988 366.899 327.122 368.035 326.564C369.189 326.005 370.269 325.726 371.275 325.726C372.951 325.726 374.366 326.033 375.521 326.647C376.675 327.243 377.607 328.035 378.314 329.022C379.022 329.99 379.534 331.098 379.851 332.346C380.167 333.594 380.326 334.86 380.326 336.145C380.326 337.393 380.149 338.613 379.795 339.804C379.441 340.996 378.929 342.067 378.258 343.017C377.588 343.948 376.759 344.702 375.772 345.28C374.785 345.857 373.668 346.146 372.42 346.146C371.321 346.146 370.381 345.959 369.599 345.587C368.835 345.214 368.202 344.73 367.699 344.134C367.196 343.538 366.824 342.887 366.582 342.179C366.358 341.453 366.247 340.736 366.247 340.028C366.247 339.283 366.349 338.557 366.554 337.849C366.777 337.141 367.094 336.499 367.504 335.922C367.634 336.331 367.792 336.648 367.979 336.871C368.183 337.076 368.388 337.225 368.593 337.318C368.817 337.43 369.059 337.495 369.319 337.514C370.009 337.514 370.521 337.356 370.856 337.039C371.21 336.722 371.387 336.35 371.387 335.922C371.387 335.717 371.349 335.484 371.275 335.223C371.2 334.963 371.061 334.72 370.856 334.497C370.67 334.273 370.4 334.087 370.046 333.938C369.692 333.771 369.226 333.687 368.649 333.687Z" fill="black"/>
<defs>
<linearGradient id="paint0_linear_711_1772" x1="205" y1="0" x2="205" y2="567.325" gradientUnits="userSpaceOnUse">
<stop stop-color="#F2AB3D"/>
<stop offset="1" stop-color="#238C60"/>
</linearGradient>
</defs>
</svg>
