<svg width="86" height="119" viewBox="0 0 86 119" fill="none" xmlns="http://www.w3.org/2000/svg">
<path d="M0 116.5L11.4514 119V116L0 116.5Z" fill="#949494"/>
<path d="M86.0001 0H11.4514V116V119H86.0001V0Z" fill="url(#paint0_linear_225_5214)"/>
<path d="M3.86391 116.832L10.9514 116.522V118.379L3.86391 116.832ZM11.9514 116V115.478V0.5H85.5001V118.5H11.9514V116Z" stroke="#8C8C8C"/>
<path d="M23.1309 28.0703C22.8887 28.0391 22.6543 28.0176 22.4277 28.0059C22.2051 27.9941 21.9785 27.9883 21.748 27.9883C21.127 27.9883 20.4902 28.0488 19.8379 28.1699C19.8613 28.0762 19.8867 27.9941 19.9141 27.9238C19.9453 27.8496 19.9727 27.7695 19.9961 27.6836C20.0195 27.5938 20.0391 27.4902 20.0547 27.373C20.0703 27.2559 20.0781 27.1055 20.0781 26.9219C20.0781 26.7344 20.0645 26.5566 20.0371 26.3887C20.0098 26.2168 19.9688 26.0664 19.9141 25.9375C19.8594 25.8047 19.791 25.6992 19.709 25.6211C19.6309 25.543 19.5391 25.5039 19.4336 25.5039C19.3164 25.5039 19.2168 25.5391 19.1348 25.6094C19.0566 25.6797 18.9922 25.7754 18.9414 25.8965C18.8945 26.0176 18.8594 26.1562 18.8359 26.3125C18.8164 26.4688 18.8066 26.6348 18.8066 26.8105C18.8066 26.9863 18.8164 27.1387 18.8359 27.2676C18.8594 27.3926 18.8848 27.502 18.9121 27.5957C18.9434 27.6895 18.9727 27.7734 19 27.8477C19.0273 27.918 19.0469 27.9883 19.0586 28.0586C18.7891 28.0273 18.5234 28.0039 18.2617 27.9883C18.0039 27.9727 17.7461 27.9648 17.4883 27.9648C17.2305 27.9648 16.9707 27.9727 16.709 27.9883C16.4512 28.0039 16.1836 28.0273 15.9062 28.0586C16.1484 27.3555 16.3594 26.6582 16.5391 25.9668C16.7227 25.2754 16.8789 24.5801 17.0078 23.8809C17.1367 23.1816 17.2402 22.4746 17.3184 21.7598C17.4004 21.0449 17.4609 20.3125 17.5 19.5625C17.7891 19.6016 18.1055 19.6309 18.4492 19.6504C18.7969 19.666 19.1523 19.6738 19.5156 19.6738C19.8242 19.6738 20.123 19.666 20.4121 19.6504C20.7051 19.6348 20.9746 19.6016 21.2207 19.5508C21.248 20.2969 21.3184 21.0312 21.4316 21.7539C21.5449 22.4766 21.6855 23.1934 21.8535 23.9043C22.0254 24.6113 22.2207 25.3125 22.4395 26.0078C22.6582 26.6992 22.8887 27.3867 23.1309 28.0703ZM19.8496 23.5234C19.8418 23.4492 19.8184 23.3398 19.7793 23.1953C19.7441 23.0703 19.6914 22.9062 19.6211 22.7031C19.5508 22.4961 19.4473 22.2305 19.3105 21.9062C19.2793 22.1094 19.2441 22.291 19.2051 22.4512C19.166 22.6074 19.1289 22.75 19.0938 22.8789C19.0586 23.0039 19.0273 23.1191 19 23.2246C18.9766 23.3301 18.9648 23.4297 18.9648 23.5234C18.9648 23.7188 19.0098 23.8711 19.0996 23.9805C19.1934 24.0859 19.2969 24.1387 19.4102 24.1387C19.5312 24.1387 19.6328 24.0801 19.7148 23.9629C19.7969 23.8457 19.8418 23.6992 19.8496 23.5234ZM26.3008 22.6855C26.1797 22.6855 26.0703 22.7207 25.9727 22.791C25.875 22.8574 25.7871 22.9531 25.709 23.0781C25.6348 23.1992 25.5684 23.3457 25.5098 23.5176C25.4551 23.6895 25.4102 23.8789 25.375 24.0859C25.375 24.418 25.3828 24.7539 25.3984 25.0938C25.4141 25.4336 25.4395 25.7695 25.4746 26.1016C25.5098 26.4336 25.5547 26.7578 25.6094 27.0742C25.668 27.3906 25.7383 27.6914 25.8203 27.9766C25.7578 27.9727 25.6855 27.9668 25.6035 27.959C25.5332 27.9551 25.4473 27.9512 25.3457 27.9473C25.248 27.9434 25.1348 27.9414 25.0059 27.9414C24.7637 27.9414 24.4824 27.9531 24.1621 27.9766C23.8457 27.9961 23.4941 28.0352 23.1074 28.0938C23.1543 27.875 23.1953 27.6074 23.2305 27.291C23.2656 26.9746 23.2949 26.6309 23.3184 26.2598C23.3418 25.8887 23.3594 25.502 23.3711 25.0996C23.3867 24.6934 23.3945 24.293 23.3945 23.8984C23.3945 23.6055 23.3906 23.3184 23.3828 23.0371C23.375 22.7559 23.3633 22.4902 23.3477 22.2402C23.3359 21.9902 23.3184 21.7598 23.2949 21.5488C23.2715 21.3379 23.2441 21.1562 23.2129 21.0039C23.5293 21.0586 23.8164 21.0977 24.0742 21.1211C24.3359 21.1406 24.5703 21.1504 24.7773 21.1504C24.9102 21.1504 25.0273 21.1484 25.1289 21.1445C25.2305 21.1367 25.3184 21.1289 25.3926 21.1211C25.4746 21.1094 25.5488 21.0977 25.6152 21.0859C25.5684 21.2812 25.5332 21.498 25.5098 21.7363C25.7129 21.4902 25.9336 21.3086 26.1719 21.1914C26.4141 21.0742 26.6406 21.0156 26.8516 21.0156C27.2031 21.0156 27.5 21.0801 27.7422 21.209C27.9844 21.334 28.1797 21.5 28.3281 21.707C28.4766 21.9102 28.584 22.1426 28.6504 22.4043C28.7168 22.666 28.75 22.9316 28.75 23.2012C28.75 23.4629 28.7129 23.7188 28.6387 23.9688C28.5645 24.2188 28.457 24.4434 28.3164 24.6426C28.1758 24.8379 28.002 24.9961 27.7949 25.1172C27.5879 25.2383 27.3535 25.2988 27.0918 25.2988C26.8613 25.2988 26.6641 25.2598 26.5 25.1816C26.3398 25.1035 26.207 25.002 26.1016 24.877C25.9961 24.752 25.918 24.6152 25.8672 24.4668C25.8203 24.3145 25.7969 24.1641 25.7969 24.0156C25.7969 23.8594 25.8184 23.707 25.8613 23.5586C25.9082 23.4102 25.9746 23.2754 26.0605 23.1543C26.0879 23.2402 26.1211 23.3066 26.1602 23.3535C26.2031 23.3965 26.2461 23.4277 26.2891 23.4473C26.3359 23.4707 26.3867 23.4844 26.4414 23.4883C26.5859 23.4883 26.6934 23.4551 26.7637 23.3887C26.8379 23.3223 26.875 23.2441 26.875 23.1543C26.875 23.1113 26.8672 23.0625 26.8516 23.0078C26.8359 22.9531 26.8066 22.9023 26.7637 22.8555C26.7246 22.8086 26.668 22.7695 26.5938 22.7383C26.5195 22.7031 26.4219 22.6855 26.3008 22.6855ZM33.7188 20.8867C33.6875 21.0625 33.6641 21.2344 33.6484 21.4023C33.6367 21.5703 33.6309 21.7422 33.6309 21.918C33.6309 22.0859 33.6367 22.2559 33.6484 22.4277C33.6641 22.5957 33.6875 22.7656 33.7188 22.9375C33.5312 22.8398 33.3184 22.7676 33.0801 22.7207C32.8457 22.6738 32.6055 22.6367 32.3594 22.6094V23.1133C32.3594 23.5547 32.3672 24.002 32.3828 24.4551C32.3984 24.9043 32.4238 25.3418 32.459 25.7676C32.4941 26.1895 32.5391 26.5898 32.5938 26.9688C32.6523 27.3477 32.7227 27.6836 32.8047 27.9766C32.7383 27.9727 32.6602 27.9668 32.5703 27.959C32.4922 27.9551 32.4004 27.9512 32.2949 27.9473C32.1895 27.9434 32.0684 27.9414 31.9316 27.9414C31.6777 27.9414 31.3848 27.9531 31.0527 27.9766C30.7207 27.9961 30.3613 28.0352 29.9746 28.0938C30.1074 27.332 30.2012 26.541 30.2559 25.7207C30.3145 24.8965 30.3438 24.0918 30.3438 23.3066V22.6094C30.0781 22.6289 29.8145 22.6602 29.5527 22.7031C29.2949 22.7422 29.0508 22.791 28.8203 22.8496C28.8359 22.8066 28.8496 22.75 28.8613 22.6797C28.873 22.6094 28.8809 22.5371 28.8848 22.4629C28.8926 22.3887 28.8965 22.3164 28.8965 22.2461C28.9004 22.1758 28.9023 22.1172 28.9023 22.0703C28.9023 21.8711 28.8945 21.6738 28.8789 21.4785C28.8633 21.2832 28.8438 21.0859 28.8203 20.8867C29.0078 20.9648 29.2305 21.0293 29.4883 21.0801C29.7461 21.127 30.0078 21.1621 30.2734 21.1855C30.25 20.8457 30.2227 20.5312 30.1914 20.2422C30.1602 19.9531 30.123 19.6914 30.0801 19.457C30.3965 19.5117 30.6895 19.5488 30.959 19.5684C31.2285 19.5879 31.4727 19.5977 31.6914 19.5977C31.832 19.5977 31.957 19.5957 32.0664 19.5918C32.1797 19.584 32.2754 19.5762 32.3535 19.5684C32.4473 19.5605 32.5293 19.5508 32.5996 19.5391C32.5566 19.7266 32.5195 19.9609 32.4883 20.2422C32.4609 20.5195 32.4336 20.8301 32.4062 21.1738C32.6641 21.1465 32.9062 21.1094 33.1328 21.0625C33.3633 21.0156 33.5586 20.957 33.7188 20.8867ZM35.7285 28.082C35.7988 27.8203 35.8594 27.5176 35.9102 27.1738C35.9609 26.8262 36.002 26.4551 36.0332 26.0605C36.0645 25.6621 36.0859 25.248 36.0977 24.8184C36.1133 24.3887 36.1211 23.957 36.1211 23.5234C36.1211 23.0547 36.1133 22.5957 36.0977 22.1465C36.082 21.6934 36.0605 21.2695 36.0332 20.875C36.0098 20.4805 35.9805 20.127 35.9453 19.8145C35.9102 19.498 35.873 19.2422 35.834 19.0469C35.9043 19.0586 35.9863 19.0684 36.0801 19.0762C36.1582 19.084 36.252 19.0918 36.3613 19.0996C36.4746 19.1035 36.6035 19.1055 36.748 19.1055C36.9629 19.1055 37.2051 19.0957 37.4746 19.0762C37.748 19.0566 38.041 19.0195 38.3535 18.9648C38.3184 19.0391 38.2852 19.1484 38.2539 19.293C38.2266 19.4336 38.2012 19.5977 38.1777 19.7852C38.1543 19.9727 38.1348 20.1758 38.1191 20.3945C38.1035 20.6133 38.0898 20.834 38.0781 21.0566C38.0664 21.2754 38.0566 21.4922 38.0488 21.707C38.041 21.918 38.0352 22.1113 38.0312 22.2871C38.1914 21.9395 38.4043 21.668 38.6699 21.4727C38.9395 21.2734 39.2793 21.1738 39.6895 21.1738C39.7793 21.1738 39.8926 21.1914 40.0293 21.2266C40.1699 21.2617 40.3164 21.3262 40.4688 21.4199C40.625 21.5137 40.7793 21.6426 40.9316 21.8066C41.0879 21.9668 41.2266 22.1738 41.3477 22.4277C41.4727 22.6777 41.5723 22.9805 41.6465 23.3359C41.7246 23.6875 41.7637 24.1016 41.7637 24.5781C41.7637 25.2812 41.6934 25.8711 41.5527 26.3477C41.4121 26.8203 41.2324 27.2012 41.0137 27.4902C40.7988 27.7754 40.5586 27.9785 40.293 28.0996C40.0312 28.2246 39.7773 28.2871 39.5312 28.2871C39.3516 28.2871 39.1797 28.2363 39.0156 28.1348C38.8516 28.0332 38.7031 27.9023 38.5703 27.7422C38.4375 27.582 38.3203 27.4004 38.2188 27.1973C38.1211 26.9941 38.0469 26.7891 37.9961 26.582C38.0078 26.6641 38.0234 26.7852 38.043 26.9453C38.0664 27.1016 38.0898 27.2637 38.1133 27.4316C38.1367 27.5957 38.1602 27.7461 38.1836 27.8828C38.2109 28.0195 38.2363 28.1074 38.2598 28.1465C38.0137 28.1035 37.7637 28.0742 37.5098 28.0586C37.2598 28.043 37.0254 28.0352 36.8066 28.0352C36.6465 28.0352 36.502 28.0371 36.373 28.041C36.2441 28.0449 36.1309 28.0508 36.0332 28.0586C35.9199 28.0664 35.8184 28.0742 35.7285 28.082ZM38.1133 24.7012V25.0469C38.1133 25.1523 38.1191 25.2598 38.1309 25.3691C38.1426 25.4785 38.168 25.5781 38.207 25.668C38.25 25.7578 38.3105 25.832 38.3887 25.8906C38.4668 25.9453 38.5723 25.9727 38.7051 25.9727C38.7988 25.9727 38.8789 25.9453 38.9453 25.8906C39.0117 25.832 39.0664 25.7578 39.1094 25.668C39.1523 25.5781 39.1875 25.4766 39.2148 25.3633C39.2422 25.2461 39.2617 25.1309 39.2734 25.0176C39.2852 24.9043 39.293 24.7949 39.2969 24.6895C39.3008 24.584 39.3027 24.4961 39.3027 24.4258C39.3027 24.3203 39.2969 24.1777 39.2852 23.998C39.2773 23.8184 39.2559 23.6426 39.2207 23.4707C39.1855 23.2949 39.1309 23.1445 39.0566 23.0195C38.9863 22.8906 38.8887 22.8262 38.7637 22.8262C38.6699 22.8262 38.5879 22.8613 38.5176 22.9316C38.4512 23.002 38.3926 23.0938 38.3418 23.207C38.2949 23.3164 38.2559 23.4414 38.2246 23.582C38.1973 23.7188 38.1738 23.8574 38.1543 23.998C38.1387 24.1348 38.127 24.2656 38.1191 24.3906C38.1152 24.5156 38.1133 24.6191 38.1133 24.7012ZM48.0742 21.2676C48.0312 21.4316 47.9941 21.6289 47.9629 21.8594C47.9355 22.0898 47.9102 22.3379 47.8867 22.6035C47.8633 22.8691 47.8438 23.1465 47.8281 23.4355C47.8164 23.7246 47.8047 24.0059 47.793 24.2793C47.7695 24.9238 47.7559 25.6035 47.752 26.3184C47.752 26.7168 47.7266 27.1094 47.6758 27.4961C47.6289 27.8828 47.5508 28.248 47.4414 28.5918C47.3359 28.9395 47.1973 29.2598 47.0254 29.5527C46.8574 29.8496 46.6504 30.1035 46.4043 30.3145C46.1621 30.5293 45.8789 30.6973 45.5547 30.8184C45.2344 30.9395 44.8711 31 44.4648 31C44.0859 31 43.7578 30.9609 43.4805 30.8828C43.2031 30.8047 42.9727 30.6934 42.7891 30.5488C42.6094 30.4082 42.4746 30.2383 42.3848 30.0391C42.2988 29.8398 42.2559 29.6211 42.2559 29.3828C42.2559 29.1445 42.2969 28.9277 42.3789 28.7324C42.4609 28.541 42.5684 28.3789 42.7012 28.2461C42.834 28.1133 42.9844 28.0117 43.1523 27.9414C43.3203 27.8672 43.4902 27.8301 43.6621 27.8301C43.8809 27.8301 44.0879 27.8926 44.2832 28.0176C44.4785 28.1426 44.627 28.3398 44.7285 28.6094C44.7051 28.5898 44.6777 28.5762 44.6465 28.5684C44.6191 28.5645 44.5898 28.5625 44.5586 28.5625C44.5156 28.5625 44.4707 28.5723 44.4238 28.5918C44.3809 28.6113 44.3418 28.6387 44.3066 28.6738C44.2715 28.709 44.2422 28.748 44.2188 28.791C44.1992 28.8379 44.1895 28.8867 44.1895 28.9375C44.1895 28.9961 44.2012 29.0449 44.2246 29.084C44.248 29.127 44.2754 29.1602 44.3066 29.1836C44.3418 29.207 44.3789 29.2227 44.418 29.2305C44.4609 29.2422 44.5 29.248 44.5352 29.248C44.5898 29.248 44.6582 29.2363 44.7402 29.2129C44.8223 29.1895 44.9062 29.1406 44.9922 29.0664C45.082 28.9922 45.1699 28.8887 45.2559 28.7559C45.3457 28.623 45.4238 28.4453 45.4902 28.2227C45.5605 28.0039 45.6152 27.7363 45.6543 27.4199C45.6973 27.1035 45.7168 26.7246 45.7129 26.2832C45.6113 26.5566 45.5039 26.7793 45.3906 26.9512C45.2812 27.1191 45.1641 27.25 45.0391 27.3438C44.918 27.4375 44.7891 27.5 44.6523 27.5312C44.5195 27.5625 44.377 27.5781 44.2246 27.5781C44.0332 27.5781 43.832 27.5449 43.6211 27.4785C43.4141 27.4082 43.2227 27.2871 43.0469 27.1152C42.875 26.9395 42.7324 26.7012 42.6191 26.4004C42.5059 26.0996 42.4492 25.7168 42.4492 25.252C42.4492 25.1895 42.4492 25.1465 42.4492 25.123C42.4531 25.0957 42.4551 25.0762 42.4551 25.0645C42.4551 25.0488 42.457 25.0312 42.4609 25.0117C42.4648 24.9922 42.4668 24.9551 42.4668 24.9004C42.4668 24.8418 42.4668 24.7598 42.4668 24.6543C42.4707 24.5488 42.4727 24.4004 42.4727 24.209C42.4727 23.9863 42.4688 23.7344 42.4609 23.4531C42.4531 23.1719 42.4355 22.8965 42.4082 22.627C42.3848 22.3574 42.3496 22.1133 42.3027 21.8945C42.2559 21.6719 42.1953 21.5078 42.1211 21.4023C42.4375 21.457 42.7344 21.4941 43.0117 21.5137C43.293 21.5332 43.5488 21.543 43.7793 21.543C43.9316 21.543 44.0684 21.541 44.1895 21.5371C44.3145 21.5293 44.4219 21.5215 44.5117 21.5137C44.6133 21.5059 44.7051 21.4961 44.7871 21.4844C44.7559 21.5508 44.7207 21.6777 44.6816 21.8652C44.6465 22.0527 44.6113 22.2773 44.5762 22.5391C44.541 22.8008 44.5117 23.0879 44.4883 23.4004C44.4648 23.709 44.4531 24.0215 44.4531 24.3379C44.4531 24.5762 44.4707 24.7793 44.5059 24.9473C44.541 25.1152 44.5879 25.2539 44.6465 25.3633C44.709 25.4688 44.7793 25.5469 44.8574 25.5977C44.9395 25.6484 45.0273 25.6738 45.1211 25.6738C45.2695 25.6738 45.3867 25.6133 45.4727 25.4922C45.5625 25.3711 45.6387 25.2188 45.7012 25.0352C45.6934 24.793 45.6797 24.5098 45.6602 24.1855C45.6406 23.8613 45.6133 23.5234 45.5781 23.1719C45.5469 22.8203 45.5039 22.4668 45.4492 22.1113C45.3984 21.752 45.334 21.418 45.2559 21.1094C45.377 21.1523 45.5215 21.1914 45.6895 21.2266C45.834 21.2578 46.0098 21.2852 46.2168 21.3086C46.4238 21.3281 46.668 21.3379 46.9492 21.3379C47.2812 21.3379 47.6562 21.3145 48.0742 21.2676ZM53.6289 27.9648C53.5625 27.957 53.4805 27.9492 53.3828 27.9414C53.3008 27.9336 53.1992 27.9277 53.0781 27.9238C52.9609 27.9199 52.8281 27.918 52.6797 27.918C52.3906 27.918 52.0469 27.9316 51.6484 27.959C51.25 27.9863 50.8066 28.0391 50.3184 28.1172C50.5254 27.2461 50.668 26.3926 50.7461 25.5566C50.8281 24.7207 50.8691 23.916 50.8691 23.1426C50.8691 22.4395 50.8418 21.7793 50.7871 21.1621C50.7324 20.541 50.6602 19.9688 50.5703 19.4453C50.9609 19.5156 51.3105 19.5625 51.6191 19.5859C51.9316 19.6094 52.2012 19.6211 52.4277 19.6211C52.584 19.6211 52.7207 19.6172 52.8379 19.6094C52.959 19.6016 53.0586 19.5938 53.1367 19.5859C53.2305 19.5742 53.3105 19.5625 53.377 19.5508C53.5098 20.3164 53.6758 21.0742 53.875 21.8242C54.0742 22.5703 54.3203 23.3203 54.6133 24.0742C54.8594 23.3125 55.0547 22.5508 55.1992 21.7891C55.3438 21.0234 55.4414 20.2422 55.4922 19.4453L55.5391 19.5508L55.4922 19.4453C55.8828 19.5156 56.2383 19.5625 56.5586 19.5859C56.8789 19.6094 57.1621 19.6211 57.4082 19.6211C57.5723 19.6211 57.7168 19.6172 57.8418 19.6094C57.9668 19.6016 58.0742 19.5938 58.1641 19.5859C58.2656 19.5742 58.3535 19.5625 58.4277 19.5508C58.3457 19.9414 58.2832 20.4043 58.2402 20.9395C58.1973 21.4707 58.1758 22.041 58.1758 22.6504C58.1758 23.084 58.1875 23.5312 58.2109 23.9922C58.2344 24.4492 58.2695 24.9062 58.3164 25.3633C58.3672 25.8164 58.4316 26.2637 58.5098 26.7051C58.5879 27.1465 58.6816 27.5664 58.791 27.9648C58.7129 27.957 58.623 27.9492 58.5215 27.9414C58.4316 27.9336 58.3262 27.9277 58.2051 27.9238C58.084 27.9199 57.9434 27.918 57.7832 27.918C57.4785 27.918 57.1191 27.9316 56.7051 27.959C56.2949 27.9863 55.8457 28.0391 55.3574 28.1172C55.4551 27.9219 55.5352 27.6719 55.5977 27.3672C55.6641 27.0625 55.7168 26.7383 55.7559 26.3945C55.7988 26.0508 55.8301 25.709 55.8496 25.3691C55.873 25.0254 55.8887 24.7188 55.8965 24.4492C55.7832 24.6914 55.6738 24.9375 55.5684 25.1875C55.4629 25.4375 55.3535 25.7051 55.2402 25.9902C55.1309 26.2715 55.0156 26.5762 54.8945 26.9043C54.7734 27.2324 54.6406 27.5977 54.4961 28C54.3477 27.5977 54.2129 27.2324 54.0918 26.9043C53.9707 26.5762 53.8555 26.2715 53.7461 25.9902C53.6406 25.709 53.5352 25.4434 53.4297 25.1934C53.3281 24.9395 53.2227 24.6875 53.1133 24.4375C53.1484 25.0547 53.207 25.6641 53.2891 26.2656C53.3711 26.8633 53.4844 27.4297 53.6289 27.9648ZM65.2715 28.082C65.1973 28.0742 65.1113 28.0664 65.0137 28.0586C64.9316 28.0508 64.832 28.0449 64.7148 28.041C64.6016 28.0371 64.4766 28.0352 64.3398 28.0352C64.1445 28.0352 63.9297 28.043 63.6953 28.0586C63.4648 28.0742 63.2266 28.1035 62.9805 28.1465L63.0039 26.5C62.8555 27.082 62.6367 27.5312 62.3477 27.8477C62.0625 28.1641 61.7266 28.3223 61.3398 28.3223C61.2188 28.3223 61.082 28.3066 60.9297 28.2754C60.7773 28.2441 60.6211 28.1836 60.4609 28.0938C60.3047 28.0078 60.1504 27.8867 59.998 27.7305C59.8496 27.5742 59.7168 27.373 59.5996 27.127C59.4824 26.877 59.3887 26.5762 59.3184 26.2246C59.248 25.8691 59.2129 25.4492 59.2129 24.9648C59.2129 24.3086 59.2793 23.748 59.4121 23.2832C59.5449 22.8145 59.7148 22.4316 59.9219 22.1348C60.1289 21.8379 60.3574 21.6211 60.6074 21.4844C60.8574 21.3477 61.1016 21.2793 61.3398 21.2793C61.543 21.2793 61.7266 21.3086 61.8906 21.3672C62.0586 21.4219 62.207 21.4941 62.3359 21.584C62.4648 21.6699 62.5762 21.7676 62.6699 21.877C62.7637 21.9863 62.8398 22.0957 62.8984 22.2051C62.8867 22.0723 62.8691 21.9316 62.8457 21.7832C62.8223 21.6309 62.7949 21.4746 62.7637 21.3145C63.0176 21.3652 63.2754 21.3984 63.5371 21.4141C63.7988 21.4297 64.041 21.4375 64.2637 21.4375C64.5293 21.4375 64.7441 21.4316 64.9082 21.4199C65.002 21.416 65.0879 21.4102 65.166 21.4023C65.123 21.5977 65.084 21.8164 65.0488 22.0586C65.0137 22.3008 64.9824 22.5605 64.9551 22.8379C64.9316 23.1113 64.9121 23.4004 64.8965 23.7051C64.8848 24.0059 64.8789 24.3145 64.8789 24.6309C64.8789 25.2207 64.9082 25.8125 64.9668 26.4062C65.0254 27 65.127 27.5586 65.2715 28.082ZM62.8633 24.7246V23.7754C62.8633 23.6699 62.8574 23.5625 62.8457 23.4531C62.834 23.3438 62.8066 23.2441 62.7637 23.1543C62.7246 23.0645 62.666 22.9922 62.5879 22.9375C62.5098 22.8789 62.4043 22.8496 62.2715 22.8496C62.1309 22.8496 62.0137 22.8984 61.9199 22.9961C61.8301 23.0938 61.7559 23.2285 61.6973 23.4004C61.6426 23.5684 61.6035 23.7695 61.5801 24.0039C61.5605 24.2344 61.5508 24.4863 61.5508 24.7598C61.5508 24.916 61.5605 25.0742 61.5801 25.2344C61.6035 25.3945 61.6406 25.541 61.6914 25.6738C61.7422 25.8027 61.8105 25.9082 61.8965 25.9902C61.9824 26.0723 62.0879 26.1133 62.2129 26.1133C62.3535 26.1133 62.4668 26.0645 62.5527 25.9668C62.6387 25.8691 62.7031 25.748 62.7461 25.6035C62.793 25.459 62.8242 25.3086 62.8398 25.1523C62.8555 24.9922 62.8633 24.8496 62.8633 24.7246ZM68.9453 22.6855C68.8242 22.6855 68.7148 22.7207 68.6172 22.791C68.5195 22.8574 68.4316 22.9531 68.3535 23.0781C68.2793 23.1992 68.2129 23.3457 68.1543 23.5176C68.0996 23.6895 68.0547 23.8789 68.0195 24.0859C68.0195 24.418 68.0273 24.7539 68.043 25.0938C68.0586 25.4336 68.084 25.7695 68.1191 26.1016C68.1543 26.4336 68.1992 26.7578 68.2539 27.0742C68.3125 27.3906 68.3828 27.6914 68.4648 27.9766C68.4023 27.9727 68.3301 27.9668 68.248 27.959C68.1777 27.9551 68.0918 27.9512 67.9902 27.9473C67.8926 27.9434 67.7793 27.9414 67.6504 27.9414C67.4082 27.9414 67.127 27.9531 66.8066 27.9766C66.4902 27.9961 66.1387 28.0352 65.752 28.0938C65.7988 27.875 65.8398 27.6074 65.875 27.291C65.9102 26.9746 65.9395 26.6309 65.9629 26.2598C65.9863 25.8887 66.0039 25.502 66.0156 25.0996C66.0312 24.6934 66.0391 24.293 66.0391 23.8984C66.0391 23.6055 66.0352 23.3184 66.0273 23.0371C66.0195 22.7559 66.0078 22.4902 65.9922 22.2402C65.9805 21.9902 65.9629 21.7598 65.9395 21.5488C65.916 21.3379 65.8887 21.1562 65.8574 21.0039C66.1738 21.0586 66.4609 21.0977 66.7188 21.1211C66.9805 21.1406 67.2148 21.1504 67.4219 21.1504C67.5547 21.1504 67.6719 21.1484 67.7734 21.1445C67.875 21.1367 67.9629 21.1289 68.0371 21.1211C68.1191 21.1094 68.1934 21.0977 68.2598 21.0859C68.2129 21.2812 68.1777 21.498 68.1543 21.7363C68.3574 21.4902 68.5781 21.3086 68.8164 21.1914C69.0586 21.0742 69.2852 21.0156 69.4961 21.0156C69.8477 21.0156 70.1445 21.0801 70.3867 21.209C70.6289 21.334 70.8242 21.5 70.9727 21.707C71.1211 21.9102 71.2285 22.1426 71.2949 22.4043C71.3613 22.666 71.3945 22.9316 71.3945 23.2012C71.3945 23.4629 71.3574 23.7188 71.2832 23.9688C71.209 24.2188 71.1016 24.4434 70.9609 24.6426C70.8203 24.8379 70.6465 24.9961 70.4395 25.1172C70.2324 25.2383 69.998 25.2988 69.7363 25.2988C69.5059 25.2988 69.3086 25.2598 69.1445 25.1816C68.9844 25.1035 68.8516 25.002 68.7461 24.877C68.6406 24.752 68.5625 24.6152 68.5117 24.4668C68.4648 24.3145 68.4414 24.1641 68.4414 24.0156C68.4414 23.8594 68.4629 23.707 68.5059 23.5586C68.5527 23.4102 68.6191 23.2754 68.7051 23.1543C68.7324 23.2402 68.7656 23.3066 68.8047 23.3535C68.8477 23.3965 68.8906 23.4277 68.9336 23.4473C68.9805 23.4707 69.0312 23.4844 69.0859 23.4883C69.2305 23.4883 69.3379 23.4551 69.4082 23.3887C69.4824 23.3223 69.5195 23.2441 69.5195 23.1543C69.5195 23.1113 69.5117 23.0625 69.4961 23.0078C69.4805 22.9531 69.4512 22.9023 69.4082 22.8555C69.3691 22.8086 69.3125 22.7695 69.2383 22.7383C69.1641 22.7031 69.0664 22.6855 68.9453 22.6855ZM74.4414 27.9766C74.375 27.9727 74.2969 27.9668 74.207 27.959C74.1289 27.9551 74.0371 27.9512 73.9316 27.9473C73.8262 27.9434 73.7051 27.9414 73.5684 27.9414C73.3145 27.9414 73.0215 27.9531 72.6895 27.9766C72.3574 27.9961 71.998 28.0352 71.6113 28.0938C71.6855 27.9453 71.748 27.7598 71.7988 27.5371C71.8496 27.3105 71.8906 27.0703 71.9219 26.8164C71.957 26.5586 71.9824 26.2988 71.998 26.0371C72.0176 25.7754 72.0312 25.5352 72.0391 25.3164C72.0469 25.0977 72.0508 24.9121 72.0508 24.7598C72.0547 24.6074 72.0566 24.5117 72.0566 24.4727C72.0488 23.9648 72.0312 23.4902 72.0039 23.0488C71.9922 22.8613 71.9766 22.6719 71.957 22.4805C71.9414 22.2891 71.9219 22.1094 71.8984 21.9414C71.875 21.7695 71.8477 21.6172 71.8164 21.4844C71.7891 21.3477 71.7559 21.2402 71.7168 21.1621C72.0332 21.2168 72.3262 21.2539 72.5957 21.2734C72.8652 21.293 73.1094 21.3027 73.3281 21.3027C73.4688 21.3027 73.5938 21.3008 73.7031 21.2969C73.8164 21.2891 73.9121 21.2812 73.9902 21.2734C74.084 21.2656 74.166 21.2559 74.2363 21.2441C74.166 21.5957 74.1074 22.0195 74.0605 22.5156C74.0176 23.0117 73.9961 23.543 73.9961 24.1094C73.9961 24.4336 74.0039 24.7617 74.0195 25.0938C74.0352 25.4258 74.0605 25.7578 74.0957 26.0898C74.1309 26.418 74.1758 26.7422 74.2305 27.0625C74.2891 27.3789 74.3594 27.6836 74.4414 27.9766ZM71.752 19.5977C71.752 19.418 71.7852 19.25 71.8516 19.0938C71.9219 18.9336 72.0156 18.7949 72.1328 18.6777C72.2539 18.5566 72.3945 18.4629 72.5547 18.3965C72.7148 18.3262 72.8848 18.291 73.0645 18.291C73.2441 18.291 73.4121 18.3262 73.5684 18.3965C73.7285 18.4629 73.8672 18.5566 73.9844 18.6777C74.1055 18.7949 74.1992 18.9336 74.2656 19.0938C74.3359 19.25 74.3711 19.418 74.3711 19.5977C74.3711 19.7773 74.3359 19.9473 74.2656 20.1074C74.1992 20.2676 74.1055 20.4082 73.9844 20.5293C73.8672 20.6465 73.7285 20.7402 73.5684 20.8105C73.4121 20.877 73.2441 20.9102 73.0645 20.9102C72.8848 20.9102 72.7148 20.877 72.5547 20.8105C72.3945 20.7402 72.2539 20.6465 72.1328 20.5293C72.0156 20.4082 71.9219 20.2676 71.8516 20.1074C71.7852 19.9473 71.752 19.7773 71.752 19.5977ZM80.916 28.082C80.8418 28.0742 80.7559 28.0664 80.6582 28.0586C80.5762 28.0508 80.4766 28.0449 80.3594 28.041C80.2461 28.0371 80.1211 28.0352 79.9844 28.0352C79.7891 28.0352 79.5742 28.043 79.3398 28.0586C79.1094 28.0742 78.8711 28.1035 78.625 28.1465L78.6484 26.5C78.5 27.082 78.2812 27.5312 77.9922 27.8477C77.707 28.1641 77.3711 28.3223 76.9844 28.3223C76.8633 28.3223 76.7266 28.3066 76.5742 28.2754C76.4219 28.2441 76.2656 28.1836 76.1055 28.0938C75.9492 28.0078 75.7949 27.8867 75.6426 27.7305C75.4941 27.5742 75.3613 27.373 75.2441 27.127C75.127 26.877 75.0332 26.5762 74.9629 26.2246C74.8926 25.8691 74.8574 25.4492 74.8574 24.9648C74.8574 24.3086 74.9238 23.748 75.0566 23.2832C75.1895 22.8145 75.3594 22.4316 75.5664 22.1348C75.7734 21.8379 76.002 21.6211 76.252 21.4844C76.502 21.3477 76.7461 21.2793 76.9844 21.2793C77.1875 21.2793 77.3711 21.3086 77.5352 21.3672C77.7031 21.4219 77.8516 21.4941 77.9805 21.584C78.1094 21.6699 78.2207 21.7676 78.3145 21.877C78.4082 21.9863 78.4844 22.0957 78.543 22.2051C78.5312 22.0723 78.5137 21.9316 78.4902 21.7832C78.4668 21.6309 78.4395 21.4746 78.4082 21.3145C78.6621 21.3652 78.9199 21.3984 79.1816 21.4141C79.4434 21.4297 79.6855 21.4375 79.9082 21.4375C80.1738 21.4375 80.3887 21.4316 80.5527 21.4199C80.6465 21.416 80.7324 21.4102 80.8105 21.4023C80.7676 21.5977 80.7285 21.8164 80.6934 22.0586C80.6582 22.3008 80.627 22.5605 80.5996 22.8379C80.5762 23.1113 80.5566 23.4004 80.541 23.7051C80.5293 24.0059 80.5234 24.3145 80.5234 24.6309C80.5234 25.2207 80.5527 25.8125 80.6113 26.4062C80.6699 27 80.7715 27.5586 80.916 28.082ZM78.5078 24.7246V23.7754C78.5078 23.6699 78.502 23.5625 78.4902 23.4531C78.4785 23.3438 78.4512 23.2441 78.4082 23.1543C78.3691 23.0645 78.3105 22.9922 78.2324 22.9375C78.1543 22.8789 78.0488 22.8496 77.916 22.8496C77.7754 22.8496 77.6582 22.8984 77.5645 22.9961C77.4746 23.0938 77.4004 23.2285 77.3418 23.4004C77.2871 23.5684 77.248 23.7695 77.2246 24.0039C77.2051 24.2344 77.1953 24.4863 77.1953 24.7598C77.1953 24.916 77.2051 25.0742 77.2246 25.2344C77.248 25.3945 77.2852 25.541 77.3359 25.6738C77.3867 25.8027 77.4551 25.9082 77.541 25.9902C77.627 26.0723 77.7324 26.1133 77.8574 26.1133C77.998 26.1133 78.1113 26.0645 78.1973 25.9668C78.2832 25.8691 78.3477 25.748 78.3906 25.6035C78.4375 25.459 78.4688 25.3086 78.4844 25.1523C78.5 24.9922 78.5078 24.8496 78.5078 24.7246Z" fill="black"/>
<path d="M24.6895 52.2051C24.4238 52.1855 24.1797 52.1719 23.957 52.1641C23.7344 52.1602 23.5254 52.1582 23.3301 52.1582C22.9746 52.1582 22.6738 52.168 22.4277 52.1875C22.1855 52.207 21.9883 52.2285 21.8359 52.252C21.6562 52.2793 21.5117 52.3105 21.4023 52.3457C21.418 52.2246 21.4336 52.1094 21.4492 52C21.4648 51.8867 21.4766 51.7754 21.4844 51.666C21.4961 51.5566 21.5039 51.4473 21.5078 51.3379C21.5156 51.2285 21.5195 51.1133 21.5195 50.9922C21.5195 50.5586 21.502 50.1973 21.4668 49.9082C21.4355 49.6152 21.3887 49.373 21.3262 49.1816C21.2637 48.9902 21.1875 48.834 21.0977 48.7129C21.0078 48.5918 20.9082 48.4844 20.7988 48.3906C20.791 48.5664 20.7852 48.7363 20.7812 48.9004C20.7773 49.0645 20.7754 49.2383 20.7754 49.4219C20.7754 49.6055 20.7793 49.7949 20.7871 49.9902C20.7949 50.1855 20.8086 50.3945 20.8281 50.6172C20.8477 50.8359 20.877 51.0703 20.916 51.3203C20.9551 51.5664 21.0039 51.832 21.0625 52.1172C20.9141 52.1055 20.748 52.0918 20.5645 52.0762C20.4082 52.0684 20.2227 52.0586 20.0078 52.0469C19.793 52.0391 19.5566 52.0352 19.2988 52.0352C19.041 52.0352 18.7676 52.041 18.4785 52.0527C18.1895 52.0645 17.8867 52.0859 17.5703 52.1172C17.6641 52 17.748 51.8477 17.8223 51.6602C17.9004 51.4727 17.9688 51.2676 18.0273 51.0449C18.0859 50.8184 18.1348 50.582 18.1738 50.3359C18.2168 50.0898 18.2539 49.8477 18.2852 49.6094C18.3555 49.0508 18.4023 48.4551 18.4258 47.8223C18.4258 47.4902 18.4219 47.1484 18.4141 46.7969C18.4062 46.4453 18.3867 46.0957 18.3555 45.748C18.3242 45.3965 18.2773 45.0508 18.2148 44.7109C18.1562 44.3711 18.0742 44.0488 17.9688 43.7441C18.1328 43.7559 18.2949 43.7676 18.4551 43.7793C18.6152 43.7871 18.7773 43.791 18.9414 43.791C19.7109 43.791 20.4668 43.7109 21.209 43.5508C21.0371 44.0586 20.9141 44.5625 20.8398 45.0625C20.7656 45.5586 20.7285 46.0547 20.7285 46.5508C20.7285 46.6719 20.7285 46.793 20.7285 46.9141C20.7324 47.0312 20.7402 47.1504 20.752 47.2715C21.084 46.8496 21.3379 46.4355 21.5137 46.0293C21.6934 45.623 21.7832 45.2246 21.7832 44.834C21.7832 44.6348 21.7598 44.4414 21.7129 44.2539C21.6699 44.0625 21.5977 43.873 21.4961 43.6855C21.6914 43.7051 21.8848 43.7207 22.0762 43.7324C22.2715 43.7402 22.4668 43.7441 22.6621 43.7441C22.998 43.7441 23.334 43.7285 23.6699 43.6973C24.0059 43.666 24.3457 43.6172 24.6895 43.5508C24.623 43.6523 24.5625 43.7617 24.5078 43.8789C24.4531 43.9922 24.4023 44.1113 24.3555 44.2363C24.3125 44.3574 24.2715 44.4805 24.2324 44.6055C24.1973 44.7305 24.166 44.8496 24.1387 44.9629C24.0723 45.2324 24.0195 45.5059 23.9805 45.7832C23.9375 46.0566 23.8652 46.3164 23.7637 46.5625C23.7207 46.668 23.668 46.7773 23.6055 46.8906C23.543 47 23.4707 47.1074 23.3887 47.2129C23.3066 47.3145 23.2129 47.4121 23.1074 47.5059C23.0059 47.5957 22.8887 47.6738 22.7559 47.7402C23.0293 47.8535 23.2383 47.9941 23.3828 48.1621C23.5312 48.3301 23.6426 48.5215 23.7168 48.7363C23.791 48.9473 23.8438 49.1797 23.875 49.4336C23.9062 49.6836 23.9453 49.9473 23.9922 50.2246C24.0352 50.459 24.0898 50.6934 24.1562 50.9277C24.2109 51.127 24.2812 51.3418 24.3672 51.5723C24.457 51.8027 24.5645 52.0137 24.6895 52.2051ZM30.3965 48.5781C30.3965 48.8047 30.3789 49.0547 30.3438 49.3281C30.3086 49.5977 30.25 49.8711 30.168 50.1484C30.0859 50.4219 29.9746 50.6895 29.834 50.9512C29.6934 51.209 29.5176 51.4375 29.3066 51.6367C29.0996 51.8359 28.8516 51.9961 28.5625 52.1172C28.2734 52.2383 27.9375 52.2988 27.5547 52.2988C27.1719 52.2988 26.8359 52.2422 26.5469 52.1289C26.2617 52.0156 26.0156 51.8652 25.8086 51.6777C25.6055 51.4863 25.4375 51.2676 25.3047 51.0215C25.1719 50.7715 25.0664 50.5098 24.9883 50.2363C24.9102 49.9629 24.8555 49.6875 24.8242 49.4102C24.7969 49.1289 24.7832 48.8633 24.7832 48.6133C24.7832 48.1719 24.8418 47.7402 24.959 47.3184C25.0762 46.8926 25.2539 46.5137 25.4922 46.1816C25.7344 45.8496 26.0352 45.582 26.3945 45.3789C26.7578 45.1758 27.1836 45.0742 27.6719 45.0742C28 45.0742 28.2949 45.125 28.5566 45.2266C28.8184 45.3242 29.0508 45.459 29.2539 45.6309C29.457 45.8027 29.6289 46.0039 29.7695 46.2344C29.9141 46.4648 30.0332 46.709 30.127 46.9668C30.2207 47.2246 30.2891 47.4922 30.332 47.7695C30.375 48.0469 30.3965 48.3164 30.3965 48.5781ZM28.3574 48.7715C28.3574 48.6816 28.3535 48.5703 28.3457 48.4375C28.3418 48.3008 28.3301 48.1582 28.3105 48.0098C28.291 47.8613 28.2637 47.7129 28.2285 47.5645C28.1973 47.416 28.1543 47.2832 28.0996 47.166C28.0449 47.0488 27.9766 46.9531 27.8945 46.8789C27.8164 46.8047 27.7227 46.7676 27.6133 46.7676C27.5078 46.7676 27.416 46.8027 27.3379 46.873C27.2598 46.9434 27.1914 47.0352 27.1328 47.1484C27.0781 47.2617 27.0312 47.3906 26.9922 47.5352C26.957 47.6758 26.9277 47.8184 26.9043 47.9629C26.8848 48.1035 26.8691 48.2402 26.8574 48.373C26.8496 48.502 26.8457 48.6113 26.8457 48.7012C26.8457 48.8301 26.8555 48.9863 26.875 49.1699C26.8945 49.3535 26.9316 49.5293 26.9863 49.6973C27.041 49.8652 27.1152 50.0098 27.209 50.1309C27.3066 50.248 27.4336 50.3066 27.5898 50.3066C27.7383 50.3066 27.8613 50.252 27.959 50.1426C28.0605 50.0332 28.1406 49.9004 28.1992 49.7441C28.2578 49.584 28.2988 49.416 28.3223 49.2402C28.3457 49.0645 28.3574 48.9082 28.3574 48.7715ZM30.7715 45.2793C30.8613 45.2871 30.9629 45.2949 31.0762 45.3027C31.1738 45.3105 31.2871 45.3164 31.416 45.3203C31.5488 45.3242 31.6934 45.3262 31.8496 45.3262C32.0684 45.3262 32.3027 45.3203 32.5527 45.3086C32.8066 45.293 33.0566 45.2637 33.3027 45.2207C33.2559 45.3105 33.2148 45.4316 33.1797 45.584C33.1484 45.7324 33.1211 45.9062 33.0977 46.1055C33.2578 45.7539 33.4707 45.4805 33.7363 45.2852C34.0059 45.0898 34.3457 44.9922 34.7559 44.9922C34.8457 44.9922 34.959 44.998 35.0957 45.0098C35.2363 45.0215 35.3828 45.0605 35.5352 45.127C35.6914 45.1934 35.8457 45.2969 35.998 45.4375C36.1543 45.5742 36.293 45.7695 36.4141 46.0234C36.5391 46.2773 36.6387 46.5977 36.7129 46.9844C36.791 47.3672 36.8301 47.8398 36.8301 48.4023C36.8301 48.8711 36.7949 49.291 36.7246 49.6621C36.6582 50.0293 36.5664 50.3535 36.4492 50.6348C36.3359 50.916 36.2012 51.1562 36.0449 51.3555C35.8926 51.5508 35.7305 51.7109 35.5586 51.8359C35.3906 51.9609 35.2168 52.0508 35.0371 52.1055C34.8613 52.1641 34.6914 52.1934 34.5273 52.1934C34.3359 52.1934 34.1582 52.1543 33.9941 52.0762C33.834 51.998 33.6914 51.8906 33.5664 51.7539C33.4414 51.6133 33.334 51.4473 33.2441 51.2559C33.1543 51.0605 33.0859 50.8477 33.0391 50.6172C33.043 50.7969 33.0508 51.0059 33.0625 51.2441C33.0742 51.4824 33.0879 51.7305 33.1035 51.9883C33.1191 52.2422 33.1367 52.498 33.1562 52.7559C33.1758 53.0137 33.1973 53.252 33.2207 53.4707C33.2441 53.6934 33.2695 53.8867 33.2969 54.0508C33.3281 54.2148 33.3613 54.332 33.3965 54.4023C33.084 54.3477 32.793 54.3105 32.5234 54.291C32.2539 54.2754 32.0098 54.2676 31.791 54.2676C31.6504 54.2676 31.5234 54.2695 31.4102 54.2734C31.2969 54.2773 31.2012 54.2832 31.123 54.291C31.0293 54.2988 30.9473 54.3066 30.877 54.3145C30.916 54.1191 30.9531 53.8633 30.9883 53.5469C31.0234 53.2344 31.0527 52.8809 31.0762 52.4863C31.1035 52.0957 31.125 51.6758 31.1406 51.2266C31.1562 50.7734 31.1641 50.3105 31.1641 49.8379C31.1641 49.4043 31.1562 48.9727 31.1406 48.543C31.1289 48.1133 31.1074 47.7012 31.0762 47.3066C31.0449 46.9121 31.0039 46.543 30.9531 46.1992C30.9023 45.8516 30.8418 45.5449 30.7715 45.2793ZM33.1797 48.1621V49.1055C33.1797 49.2109 33.1855 49.3184 33.1973 49.4277C33.209 49.5371 33.2344 49.6367 33.2734 49.7266C33.3164 49.8164 33.377 49.8906 33.4551 49.9492C33.5332 50.0039 33.6387 50.0312 33.7715 50.0312C33.8652 50.0312 33.9453 49.9941 34.0117 49.9199C34.0781 49.8457 34.1328 49.75 34.1758 49.6328C34.2188 49.5156 34.2539 49.3848 34.2812 49.2402C34.3086 49.0957 34.3281 48.9531 34.3398 48.8125C34.3516 48.668 34.3594 48.5352 34.3633 48.4141C34.3672 48.2891 34.3691 48.1914 34.3691 48.1211C34.3691 48.0156 34.3633 47.8867 34.3516 47.7344C34.3438 47.582 34.3223 47.4336 34.2871 47.2891C34.252 47.1445 34.1973 47.0215 34.123 46.9199C34.0527 46.8184 33.9551 46.7676 33.8301 46.7676C33.6895 46.7676 33.5762 46.8184 33.4902 46.9199C33.4043 47.0176 33.3379 47.1387 33.291 47.2832C33.248 47.4238 33.2188 47.5762 33.2031 47.7402C33.1875 47.9004 33.1797 48.041 33.1797 48.1621Z" fill="black"/>
<path d="M24.4609 71.5938C24.1406 72.3867 23.9805 73.1562 23.9805 73.9023C23.9805 74.2617 24.0137 74.625 24.0801 74.9922C24.1465 75.3555 24.25 75.7266 24.3906 76.1055C24.168 76.0508 23.9609 76.0098 23.7695 75.9824C23.5781 75.9551 23.3887 75.9414 23.2012 75.9414C23.002 75.9414 22.7988 75.959 22.5918 75.9941C22.3848 76.0293 22.1602 76.084 21.918 76.1582L22.1582 75.2207C22.0801 75.3457 21.9863 75.4746 21.877 75.6074C21.7676 75.7363 21.6367 75.8535 21.4844 75.959C21.3359 76.0645 21.1641 76.1504 20.9688 76.2168C20.7773 76.2871 20.5566 76.3223 20.3066 76.3223C19.9316 76.3223 19.5859 76.2324 19.2695 76.0527C18.957 75.873 18.6875 75.6133 18.4609 75.2734C18.2344 74.9336 18.0566 74.5176 17.9277 74.0254C17.8027 73.5293 17.7402 72.9668 17.7402 72.3379C17.7402 71.9199 17.7793 71.5059 17.8574 71.0957C17.9355 70.6816 18.0488 70.2891 18.1973 69.918C18.3457 69.543 18.5293 69.1973 18.748 68.8809C18.9668 68.5605 19.2148 68.2852 19.4922 68.0547C19.7695 67.8203 20.0762 67.6387 20.4121 67.5098C20.752 67.377 21.1172 67.3105 21.5078 67.3105C21.8633 67.3105 22.1738 67.3477 22.4395 67.4219C22.7051 67.4922 22.9355 67.5879 23.1309 67.709C23.3262 67.8262 23.4863 67.9629 23.6113 68.1191C23.7402 68.2715 23.8418 68.4316 23.916 68.5996C23.9902 68.7676 24.043 68.9355 24.0742 69.1035C24.1055 69.2676 24.1211 69.4219 24.1211 69.5664C24.1211 69.7734 24.084 69.9727 24.0098 70.1641C23.9395 70.3555 23.8398 70.5234 23.7109 70.668C23.582 70.8125 23.4297 70.9277 23.2539 71.0137C23.0781 71.0996 22.8848 71.1426 22.6738 71.1426C22.4551 71.1426 22.2656 71.1094 22.1055 71.043C21.9453 70.9766 21.8125 70.8906 21.707 70.7852C21.6016 70.6758 21.5215 70.5547 21.4668 70.4219C21.416 70.2891 21.3906 70.1562 21.3906 70.0234C21.3906 69.9102 21.4102 69.7949 21.4492 69.6777C21.4883 69.5605 21.543 69.4512 21.6133 69.3496C21.6367 69.4316 21.6699 69.4961 21.7129 69.543C21.7559 69.5859 21.7988 69.6172 21.8418 69.6367C21.8887 69.6602 21.9414 69.6738 22 69.6777C22.1328 69.6777 22.2266 69.6445 22.2812 69.5781C22.3398 69.5117 22.3691 69.4355 22.3691 69.3496C22.3691 69.3105 22.3594 69.2715 22.3398 69.2324C22.3242 69.1895 22.2988 69.1504 22.2637 69.1152C22.2285 69.0801 22.1816 69.0508 22.123 69.0273C22.0684 69.0039 22 68.9922 21.918 68.9922C21.8633 68.9922 21.7871 69.0039 21.6895 69.0273C21.5957 69.0469 21.4922 69.0879 21.3789 69.1504C21.2695 69.2129 21.1582 69.3027 21.0449 69.4199C20.9316 69.5332 20.8281 69.6855 20.7344 69.877C20.6406 70.0684 20.5645 70.3027 20.5059 70.5801C20.4473 70.8574 20.418 71.1875 20.418 71.5703C20.418 71.8867 20.4434 72.1641 20.4941 72.4023C20.5488 72.6406 20.623 72.8398 20.7168 73C20.8105 73.1602 20.9219 73.2812 21.0508 73.3633C21.1797 73.4414 21.3203 73.4805 21.4727 73.4805C21.6172 73.4805 21.7363 73.4434 21.8301 73.3691C21.9238 73.2949 21.998 73.2051 22.0527 73.0996C22.1074 72.9941 22.1445 72.8848 22.1641 72.7715C22.1836 72.6582 22.1934 72.5625 22.1934 72.4844C22.1934 72.4805 22.1895 72.4531 22.1816 72.4023C22.1777 72.3516 22.1602 72.293 22.1289 72.2266C22.0977 72.1602 22.0469 72.0918 21.9766 72.0215C21.9062 71.9512 21.8066 71.8926 21.6777 71.8457C22.1387 71.8457 22.6016 71.8262 23.0664 71.7871C23.5312 71.7441 23.9961 71.6797 24.4609 71.5938ZM27.5664 75.9766C27.5 75.9727 27.4219 75.9668 27.332 75.959C27.2539 75.9551 27.1602 75.9512 27.0508 75.9473C26.9453 75.9434 26.8242 75.9414 26.6875 75.9414C26.4336 75.9414 26.1406 75.9531 25.8086 75.9766C25.4805 75.9961 25.123 76.0352 24.7363 76.0938C24.791 75.9844 24.8398 75.834 24.8828 75.6426C24.9258 75.4473 24.9629 75.2285 24.9941 74.9863C25.0254 74.7402 25.0508 74.4805 25.0703 74.207C25.0938 73.9297 25.1113 73.6523 25.123 73.375C25.1387 73.0977 25.1484 72.8301 25.1523 72.5723C25.1602 72.3105 25.166 72.0762 25.1699 71.8691C25.1738 71.6582 25.1758 71.4805 25.1758 71.3359C25.1758 71.1914 25.1758 71.0977 25.1758 71.0547C25.168 70.4023 25.1504 69.7969 25.123 69.2383C25.1113 69.0039 25.0977 68.7676 25.082 68.5293C25.0664 68.291 25.0469 68.0684 25.0234 67.8613C25 67.6543 24.9727 67.4727 24.9414 67.3164C24.9141 67.1602 24.8809 67.043 24.8418 66.9648C25.1582 67.0195 25.4512 67.0566 25.7207 67.0762C25.9902 67.0957 26.2324 67.1055 26.4473 67.1055C26.5879 67.1055 26.7148 67.1035 26.8281 67.0996C26.9414 67.0918 27.0371 67.084 27.1152 67.0762C27.209 67.0684 27.291 67.0586 27.3613 67.0469C27.3262 67.2227 27.293 67.4453 27.2617 67.7148C27.2344 67.9844 27.209 68.2871 27.1855 68.623C27.166 68.959 27.1504 69.3203 27.1387 69.707C27.127 70.0938 27.1211 70.4922 27.1211 70.9023C27.1211 71.3711 27.1289 71.8438 27.1445 72.3203C27.1602 72.7969 27.1855 73.2578 27.2207 73.7031C27.2559 74.1484 27.3008 74.5664 27.3555 74.957C27.4141 75.3438 27.4844 75.6836 27.5664 75.9766ZM34.0059 76.082C33.9316 76.0742 33.8457 76.0664 33.748 76.0586C33.666 76.0508 33.5664 76.0449 33.4492 76.041C33.3359 76.0371 33.2109 76.0352 33.0742 76.0352C32.8789 76.0352 32.6641 76.043 32.4297 76.0586C32.1992 76.0742 31.9609 76.1035 31.7148 76.1465L31.7383 74.5C31.5898 75.082 31.3711 75.5312 31.082 75.8477C30.7969 76.1641 30.4609 76.3223 30.0742 76.3223C29.9531 76.3223 29.8164 76.3066 29.6641 76.2754C29.5117 76.2441 29.3555 76.1836 29.1953 76.0938C29.0391 76.0078 28.8848 75.8867 28.7324 75.7305C28.584 75.5742 28.4512 75.373 28.334 75.127C28.2168 74.877 28.123 74.5762 28.0527 74.2246C27.9824 73.8691 27.9473 73.4492 27.9473 72.9648C27.9473 72.3086 28.0137 71.748 28.1465 71.2832C28.2793 70.8145 28.4492 70.4316 28.6562 70.1348C28.8633 69.8379 29.0918 69.6211 29.3418 69.4844C29.5918 69.3477 29.8359 69.2793 30.0742 69.2793C30.2773 69.2793 30.4609 69.3086 30.625 69.3672C30.793 69.4219 30.9414 69.4941 31.0703 69.584C31.1992 69.6699 31.3105 69.7676 31.4043 69.877C31.498 69.9863 31.5742 70.0957 31.6328 70.2051C31.6211 70.0723 31.6035 69.9316 31.5801 69.7832C31.5566 69.6309 31.5293 69.4746 31.498 69.3145C31.752 69.3652 32.0098 69.3984 32.2715 69.4141C32.5332 69.4297 32.7754 69.4375 32.998 69.4375C33.2637 69.4375 33.4785 69.4316 33.6426 69.4199C33.7363 69.416 33.8223 69.4102 33.9004 69.4023C33.8574 69.5977 33.8184 69.8164 33.7832 70.0586C33.748 70.3008 33.7168 70.5605 33.6895 70.8379C33.666 71.1113 33.6465 71.4004 33.6309 71.7051C33.6191 72.0059 33.6133 72.3145 33.6133 72.6309C33.6133 73.2207 33.6426 73.8125 33.7012 74.4062C33.7598 75 33.8613 75.5586 34.0059 76.082ZM31.5977 72.7246V71.7754C31.5977 71.6699 31.5918 71.5625 31.5801 71.4531C31.5684 71.3438 31.541 71.2441 31.498 71.1543C31.459 71.0645 31.4004 70.9922 31.3223 70.9375C31.2441 70.8789 31.1387 70.8496 31.0059 70.8496C30.8652 70.8496 30.748 70.8984 30.6543 70.9961C30.5645 71.0938 30.4902 71.2285 30.4316 71.4004C30.377 71.5684 30.3379 71.7695 30.3145 72.0039C30.2949 72.2344 30.2852 72.4863 30.2852 72.7598C30.2852 72.916 30.2949 73.0742 30.3145 73.2344C30.3379 73.3945 30.375 73.541 30.4258 73.6738C30.4766 73.8027 30.5449 73.9082 30.6309 73.9902C30.7168 74.0723 30.8223 74.1133 30.9473 74.1133C31.0879 74.1133 31.2012 74.0645 31.2871 73.9668C31.373 73.8691 31.4375 73.748 31.4805 73.6035C31.5273 73.459 31.5586 73.3086 31.5742 73.1523C31.5898 72.9922 31.5977 72.8496 31.5977 72.7246ZM39.3438 70.6738C39.3438 70.8301 39.3125 70.9707 39.25 71.0957C39.1875 71.2207 39.1035 71.3281 38.998 71.418C38.8926 71.5039 38.7695 71.5723 38.6289 71.623C38.4883 71.6699 38.3398 71.6934 38.1836 71.6934C38.0039 71.6934 37.8496 71.6719 37.7207 71.6289C37.5957 71.5859 37.4883 71.5312 37.3984 71.4648C37.3125 71.3945 37.2441 71.3184 37.1934 71.2363C37.1426 71.1504 37.1016 71.0684 37.0703 70.9902C37.043 70.9121 37.0254 70.8398 37.0176 70.7734C37.0098 70.707 37.0059 70.6562 37.0059 70.6211C37.041 70.6875 37.0859 70.7285 37.1406 70.7441C37.1953 70.7598 37.2383 70.7676 37.2695 70.7676C37.3594 70.7676 37.4238 70.7441 37.4629 70.6973C37.502 70.6504 37.5215 70.6016 37.5215 70.5508C37.5215 70.5195 37.5137 70.4844 37.498 70.4453C37.4824 70.4062 37.4551 70.3711 37.416 70.3398C37.377 70.3047 37.3262 70.2754 37.2637 70.252C37.2012 70.2285 37.123 70.2168 37.0293 70.2168C36.9707 70.2168 36.9082 70.2285 36.8418 70.252C36.7754 70.2754 36.7148 70.3125 36.6602 70.3633C36.6094 70.4102 36.5664 70.4707 36.5312 70.5449C36.4961 70.6152 36.4785 70.6973 36.4785 70.791C36.4785 70.9668 36.5234 71.1152 36.6133 71.2363C36.7031 71.3574 36.8203 71.4648 36.9648 71.5586C37.1133 71.6484 37.2793 71.7324 37.4629 71.8105C37.6504 71.8887 37.8418 71.9707 38.0371 72.0566C38.2324 72.1387 38.4219 72.2324 38.6055 72.3379C38.793 72.4395 38.959 72.5645 39.1035 72.7129C39.252 72.8613 39.3711 73.0391 39.4609 73.2461C39.5508 73.4531 39.5957 73.6992 39.5957 73.9844C39.5957 74.3477 39.5215 74.6758 39.373 74.9688C39.2246 75.2617 39.0254 75.5137 38.7754 75.7246C38.5293 75.9316 38.2422 76.0898 37.9141 76.1992C37.5859 76.3125 37.2402 76.3691 36.877 76.3691C36.5449 76.3691 36.2305 76.3242 35.9336 76.2344C35.6367 76.1445 35.377 76.0195 35.1543 75.8594C34.9316 75.6992 34.7539 75.5098 34.6211 75.291C34.4922 75.0723 34.4277 74.8359 34.4277 74.582C34.4277 74.3906 34.459 74.2246 34.5215 74.084C34.584 73.9395 34.6699 73.8203 34.7793 73.7266C34.8926 73.6328 35.0234 73.5625 35.1719 73.5156C35.3242 73.4688 35.4883 73.4453 35.6641 73.4453C35.793 73.4453 35.9219 73.459 36.0508 73.4863C36.1797 73.5137 36.3008 73.5547 36.4141 73.6094C36.5273 73.6641 36.6289 73.7305 36.7188 73.8086C36.8086 73.8867 36.8809 73.9766 36.9355 74.0781C36.9043 74.0703 36.873 74.0645 36.8418 74.0605C36.8145 74.0566 36.7852 74.0547 36.7539 74.0547C36.668 74.0547 36.5996 74.0781 36.5488 74.125C36.502 74.168 36.4785 74.2402 36.4785 74.3418C36.4785 74.4512 36.5234 74.543 36.6133 74.6172C36.7031 74.6914 36.8027 74.7285 36.9121 74.7285C36.9746 74.7285 37.0332 74.7148 37.0879 74.6875C37.1426 74.6602 37.1895 74.625 37.2285 74.582C37.2676 74.5352 37.2969 74.4844 37.3164 74.4297C37.3398 74.375 37.3516 74.3184 37.3516 74.2598C37.3516 74.1582 37.3164 74.0488 37.2461 73.9316C37.1797 73.8145 37.084 73.7168 36.959 73.6387C36.7129 73.4863 36.4805 73.3555 36.2617 73.2461C36.043 73.1367 35.8418 73.0332 35.6582 72.9355C35.4746 72.8379 35.3086 72.7402 35.1602 72.6426C35.0156 72.5449 34.8926 72.4316 34.791 72.3027C34.6895 72.1699 34.6113 72.0156 34.5566 71.8398C34.502 71.6602 34.4746 71.4434 34.4746 71.1895C34.4746 70.8887 34.5332 70.6113 34.6504 70.3574C34.7715 70.0996 34.9434 69.877 35.166 69.6895C35.3887 69.502 35.6621 69.3555 35.9863 69.25C36.3105 69.1406 36.6777 69.0859 37.0879 69.0859C37.5059 69.0859 37.8574 69.1348 38.1426 69.2324C38.4316 69.3301 38.6641 69.4551 38.8398 69.6074C39.0195 69.7598 39.1484 69.9297 39.2266 70.1172C39.3047 70.3047 39.3438 70.4902 39.3438 70.6738Z" fill="black"/>
<path d="M60.957 47.6055C60.9258 47.7812 60.9023 47.9551 60.8867 48.127C60.875 48.2949 60.8691 48.4668 60.8691 48.6426C60.8691 48.9824 60.8984 49.3223 60.957 49.6621C60.8672 49.6191 60.7715 49.5801 60.6699 49.5449C60.5684 49.5098 60.4668 49.4766 60.3652 49.4453C60.4082 49.8906 60.4648 50.3262 60.5352 50.752C60.6094 51.1738 60.7012 51.5781 60.8105 51.9648C60.7324 51.957 60.6426 51.9492 60.541 51.9414C60.4512 51.9336 60.3418 51.9277 60.2129 51.9238C60.0879 51.9199 59.9434 51.918 59.7793 51.918C59.4668 51.918 59.0996 51.9316 58.6777 51.959C58.2598 51.9863 57.8066 52.0391 57.3184 52.1172C57.3887 51.9727 57.4512 51.793 57.5059 51.5781C57.5605 51.3633 57.6074 51.1328 57.6465 50.8867C57.6895 50.6367 57.7227 50.377 57.7461 50.1074C57.7734 49.8379 57.7949 49.5762 57.8105 49.3223C57.7324 49.3262 57.5957 49.3242 57.4004 49.3164C57.2051 49.3086 56.9609 49.3086 56.668 49.3164C56.3789 49.3242 56.0488 49.3457 55.6777 49.3809C55.3066 49.416 54.9062 49.4766 54.4766 49.5625C54.6719 48.9609 54.8535 48.4043 55.0215 47.8926C55.1895 47.3809 55.3418 46.8887 55.4785 46.416C55.6152 45.9434 55.7324 45.4766 55.8301 45.0156C55.9277 44.5547 56.0039 44.0742 56.0586 43.5742C56.8125 43.6406 57.5625 43.6699 58.3086 43.6621C59.0547 43.6504 59.8047 43.6133 60.5586 43.5508C60.4688 43.9922 60.3965 44.5215 60.3418 45.1387C60.2871 45.752 60.2598 46.4102 60.2598 47.1133V47.8223C60.3926 47.791 60.5176 47.7598 60.6348 47.7285C60.752 47.6973 60.8594 47.6562 60.957 47.6055ZM57.8691 47.9922C57.8691 47.8906 57.8672 47.7559 57.8633 47.5879C57.8633 47.4199 57.8594 47.2305 57.8516 47.0195C57.8477 46.8086 57.8418 46.582 57.834 46.3398C57.8262 46.0938 57.8145 45.8438 57.7988 45.5898C57.623 45.9297 57.4824 46.3027 57.377 46.709C57.2715 47.1152 57.1758 47.5312 57.0898 47.957C57.1797 47.9648 57.2598 47.9707 57.3301 47.9746C57.4004 47.9785 57.4648 47.9824 57.5234 47.9863C57.582 47.9863 57.6387 47.9883 57.6934 47.9922C57.748 47.9922 57.8066 47.9922 57.8691 47.9922ZM64.0801 46.3867C64.0801 46.7188 64.1367 46.9805 64.25 47.1719C64.3633 47.3594 64.543 47.4531 64.7891 47.4531C64.8867 47.4531 64.9785 47.4297 65.0645 47.3828C65.1504 47.332 65.2246 47.2598 65.2871 47.166C65.3496 47.0723 65.3984 46.9609 65.4336 46.832C65.4727 46.6992 65.4941 46.5508 65.498 46.3867C65.502 46.2383 65.4863 46.0977 65.4512 45.9648C65.4199 45.8281 65.373 45.709 65.3105 45.6074C65.252 45.502 65.1777 45.4199 65.0879 45.3613C64.998 45.2988 64.8984 45.2676 64.7891 45.2676C64.6758 45.2676 64.5742 45.2969 64.4844 45.3555C64.3984 45.4141 64.3242 45.4941 64.2617 45.5957C64.2031 45.6973 64.1582 45.8164 64.127 45.9531C64.0957 46.0898 64.0801 46.2344 64.0801 46.3867ZM65.4863 48.918C65.4512 48.9531 65.4004 48.9902 65.334 49.0293C65.2676 49.0684 65.1914 49.1055 65.1055 49.1406C65.0195 49.1719 64.9238 49.1992 64.8184 49.2227C64.7129 49.2422 64.6035 49.252 64.4902 49.252C64.2598 49.252 64.0254 49.2324 63.7871 49.1934C63.5527 49.1504 63.3262 49.084 63.1074 48.9941C62.8887 48.9004 62.6816 48.7812 62.4863 48.6367C62.2949 48.4922 62.127 48.3164 61.9824 48.1094C61.8418 47.8984 61.7305 47.6543 61.6484 47.377C61.5664 47.0996 61.5254 46.7852 61.5254 46.4336C61.5254 45.918 61.6055 45.4629 61.7656 45.0684C61.9258 44.6738 62.1484 44.3438 62.4336 44.0781C62.7227 43.8125 63.0645 43.6133 63.459 43.4805C63.8574 43.3438 64.293 43.2754 64.7656 43.2754C65.2656 43.2754 65.7148 43.3594 66.1133 43.5273C66.5117 43.6914 66.8496 43.9395 67.127 44.2715C67.4082 44.6035 67.623 45.0176 67.7715 45.5137C67.9199 46.0098 67.9941 46.5879 67.9941 47.248C67.9941 47.627 67.9766 48.0156 67.9414 48.4141C67.9102 48.8125 67.8477 49.2031 67.7539 49.5859C67.6602 49.9648 67.5273 50.3242 67.3555 50.6641C67.1875 51 66.9648 51.2949 66.6875 51.5488C66.4141 51.7988 66.082 51.998 65.6914 52.1465C65.3008 52.2949 64.8359 52.3691 64.2969 52.3691C63.9844 52.3691 63.6855 52.3281 63.4004 52.2461C63.1152 52.1641 62.8633 52.0508 62.6445 51.9062C62.4297 51.7578 62.2578 51.582 62.1289 51.3789C62 51.1719 61.9355 50.9434 61.9355 50.6934C61.9355 50.5059 61.9746 50.3301 62.0527 50.166C62.1309 50.002 62.2344 49.8613 62.3633 49.7441C62.4961 49.623 62.6465 49.5293 62.8145 49.4629C62.9824 49.3926 63.1562 49.3574 63.3359 49.3574C63.5664 49.3574 63.7891 49.418 64.0039 49.5391C64.2188 49.6602 64.4082 49.8574 64.5723 50.1309C64.4824 50.1113 64.4023 50.1016 64.332 50.1016C64.2539 50.1016 64.1953 50.127 64.1562 50.1777C64.1211 50.2285 64.1035 50.2832 64.1035 50.3418C64.1035 50.4043 64.1348 50.4648 64.1973 50.5234C64.2598 50.5781 64.3574 50.6055 64.4902 50.6055C64.7012 50.6055 64.8711 50.5527 65 50.4473C65.1328 50.3418 65.2344 50.207 65.3047 50.043C65.3789 49.8789 65.4277 49.6973 65.4512 49.498C65.4746 49.2988 65.4863 49.1055 65.4863 48.918ZM74.1699 52.1699C73.7285 52.1348 73.3457 52.1172 73.0215 52.1172C72.7402 52.1172 72.502 52.125 72.3066 52.1406C72.1152 52.1602 71.959 52.1797 71.8379 52.1992C71.6973 52.2227 71.584 52.248 71.498 52.2754C71.5293 52.0762 71.5527 51.8926 71.5684 51.7246C71.584 51.5566 71.5918 51.377 71.5918 51.1855C71.5918 50.8418 71.5781 50.5566 71.5508 50.3301C71.5234 50.0996 71.4844 49.9062 71.4336 49.75C71.3828 49.5938 71.3223 49.4668 71.252 49.3691C71.1816 49.2715 71.1035 49.1836 71.0176 49.1055C71.0098 49.2461 71.0039 49.3867 71 49.5273C70.9961 49.6641 70.9941 49.8047 70.9941 49.9492C70.9941 50.2422 71.0098 50.5605 71.041 50.9043C71.0723 51.2441 71.1367 51.6406 71.2344 52.0938C71.1172 52.0859 70.9844 52.0762 70.8359 52.0645C70.7109 52.0566 70.5605 52.0488 70.3848 52.041C70.209 52.0371 70.0156 52.0352 69.8047 52.0352C69.5938 52.0352 69.3691 52.0391 69.1309 52.0469C68.8965 52.0547 68.6523 52.0703 68.3984 52.0938C68.4766 51.9727 68.5449 51.8125 68.6035 51.6133C68.666 51.4141 68.7188 51.1914 68.7617 50.9453C68.8047 50.6953 68.8398 50.4297 68.8672 50.1484C68.8984 49.8672 68.9219 49.584 68.9375 49.2988C68.957 49.0098 68.9707 48.7266 68.9785 48.4492C68.9863 48.1719 68.9902 47.9121 68.9902 47.6699C68.9902 47.3457 68.9844 47.0137 68.9727 46.6738C68.9609 46.334 68.9453 46.002 68.9258 45.6777C68.9062 45.3535 68.8828 45.0449 68.8555 44.752C68.8281 44.459 68.8008 44.1953 68.7734 43.9609C68.7461 43.7227 68.7168 43.5234 68.6855 43.3633C68.6582 43.2031 68.6309 43.0938 68.6035 43.0352C68.8535 43.0586 69.1133 43.0703 69.3828 43.0703C69.7227 43.0703 70.0586 43.0547 70.3906 43.0234C70.7266 42.9883 71.0469 42.9414 71.3516 42.8828C71.3047 43.0195 71.2617 43.1973 71.2227 43.416C71.1836 43.6309 71.1484 43.8711 71.1172 44.1367C71.0898 44.3984 71.0645 44.6777 71.041 44.9746C71.0215 45.2676 71.0039 45.5625 70.9883 45.8594C70.9727 46.1523 70.9609 46.4375 70.9531 46.7148C70.9492 46.9922 70.9473 47.2461 70.9473 47.4766C70.9473 47.6328 70.9492 47.7734 70.9531 47.8984C70.957 48.0234 70.9629 48.1309 70.9707 48.2207C71.2402 47.877 71.4492 47.5449 71.5977 47.2246C71.7461 46.9004 71.8203 46.5801 71.8203 46.2637C71.8203 45.9629 71.7402 45.6582 71.5801 45.3496C71.7285 45.3652 71.8809 45.377 72.0371 45.3848C72.1934 45.3887 72.3457 45.3906 72.4941 45.3906C72.7754 45.3906 73.0547 45.3809 73.332 45.3613C73.6094 45.3379 73.8887 45.2988 74.1699 45.2441C74.0605 45.4082 73.9688 45.5918 73.8945 45.7949C73.8242 45.9941 73.7676 46.1875 73.7246 46.375C73.6738 46.5898 73.6309 46.8086 73.5957 47.0312C73.5605 47.2461 73.502 47.4531 73.4199 47.6523C73.3848 47.7383 73.3418 47.8262 73.291 47.916C73.2441 48.002 73.1855 48.0879 73.1152 48.1738C73.0488 48.2559 72.9727 48.334 72.8867 48.4082C72.8008 48.4785 72.7051 48.5391 72.5996 48.5898C72.8262 48.6797 72.998 48.793 73.1152 48.9297C73.2363 49.0664 73.3262 49.2207 73.3848 49.3926C73.4434 49.5605 73.4844 49.7461 73.5078 49.9492C73.5312 50.1484 73.5605 50.3594 73.5957 50.582C73.6309 50.7656 73.6758 50.9512 73.7305 51.1387C73.7773 51.2988 73.8359 51.4727 73.9062 51.6602C73.9805 51.8438 74.0684 52.0137 74.1699 52.1699ZM77.6094 46.6855C77.4883 46.6855 77.3789 46.7207 77.2812 46.791C77.1836 46.8574 77.0957 46.9531 77.0176 47.0781C76.9434 47.1992 76.877 47.3457 76.8184 47.5176C76.7637 47.6895 76.7188 47.8789 76.6836 48.0859C76.6836 48.418 76.6914 48.7539 76.707 49.0938C76.7227 49.4336 76.748 49.7695 76.7832 50.1016C76.8184 50.4336 76.8633 50.7578 76.918 51.0742C76.9766 51.3906 77.0469 51.6914 77.1289 51.9766C77.0664 51.9727 76.9941 51.9668 76.9121 51.959C76.8418 51.9551 76.7559 51.9512 76.6543 51.9473C76.5566 51.9434 76.4434 51.9414 76.3145 51.9414C76.0723 51.9414 75.791 51.9531 75.4707 51.9766C75.1543 51.9961 74.8027 52.0352 74.416 52.0938C74.4629 51.875 74.5039 51.6074 74.5391 51.291C74.5742 50.9746 74.6035 50.6309 74.627 50.2598C74.6504 49.8887 74.668 49.502 74.6797 49.0996C74.6953 48.6934 74.7031 48.293 74.7031 47.8984C74.7031 47.6055 74.6992 47.3184 74.6914 47.0371C74.6836 46.7559 74.6719 46.4902 74.6562 46.2402C74.6445 45.9902 74.627 45.7598 74.6035 45.5488C74.5801 45.3379 74.5527 45.1562 74.5215 45.0039C74.8379 45.0586 75.125 45.0977 75.3828 45.1211C75.6445 45.1406 75.8789 45.1504 76.0859 45.1504C76.2188 45.1504 76.3359 45.1484 76.4375 45.1445C76.5391 45.1367 76.627 45.1289 76.7012 45.1211C76.7832 45.1094 76.8574 45.0977 76.9238 45.0859C76.877 45.2812 76.8418 45.498 76.8184 45.7363C77.0215 45.4902 77.2422 45.3086 77.4805 45.1914C77.7227 45.0742 77.9492 45.0156 78.1602 45.0156C78.5117 45.0156 78.8086 45.0801 79.0508 45.209C79.293 45.334 79.4883 45.5 79.6367 45.707C79.7852 45.9102 79.8926 46.1426 79.959 46.4043C80.0254 46.666 80.0586 46.9316 80.0586 47.2012C80.0586 47.4629 80.0215 47.7188 79.9473 47.9688C79.873 48.2188 79.7656 48.4434 79.625 48.6426C79.4844 48.8379 79.3105 48.9961 79.1035 49.1172C78.8965 49.2383 78.6621 49.2988 78.4004 49.2988C78.1699 49.2988 77.9727 49.2598 77.8086 49.1816C77.6484 49.1035 77.5156 49.002 77.4102 48.877C77.3047 48.752 77.2266 48.6152 77.1758 48.4668C77.1289 48.3145 77.1055 48.1641 77.1055 48.0156C77.1055 47.8594 77.127 47.707 77.1699 47.5586C77.2168 47.4102 77.2832 47.2754 77.3691 47.1543C77.3965 47.2402 77.4297 47.3066 77.4688 47.3535C77.5117 47.3965 77.5547 47.4277 77.5977 47.4473C77.6445 47.4707 77.6953 47.4844 77.75 47.4883C77.8945 47.4883 78.002 47.4551 78.0723 47.3887C78.1465 47.3223 78.1836 47.2441 78.1836 47.1543C78.1836 47.1113 78.1758 47.0625 78.1602 47.0078C78.1445 46.9531 78.1152 46.9023 78.0723 46.8555C78.0332 46.8086 77.9766 46.7695 77.9023 46.7383C77.8281 46.7031 77.7305 46.6855 77.6094 46.6855Z" fill="black"/>
<path d="M60.957 71.6055C60.9258 71.7812 60.9023 71.9551 60.8867 72.127C60.875 72.2949 60.8691 72.4668 60.8691 72.6426C60.8691 72.9824 60.8984 73.3223 60.957 73.6621C60.8672 73.6191 60.7715 73.5801 60.6699 73.5449C60.5684 73.5098 60.4668 73.4766 60.3652 73.4453C60.4082 73.8906 60.4648 74.3262 60.5352 74.752C60.6094 75.1738 60.7012 75.5781 60.8105 75.9648C60.7324 75.957 60.6426 75.9492 60.541 75.9414C60.4512 75.9336 60.3418 75.9277 60.2129 75.9238C60.0879 75.9199 59.9434 75.918 59.7793 75.918C59.4668 75.918 59.0996 75.9316 58.6777 75.959C58.2598 75.9863 57.8066 76.0391 57.3184 76.1172C57.3887 75.9727 57.4512 75.793 57.5059 75.5781C57.5605 75.3633 57.6074 75.1328 57.6465 74.8867C57.6895 74.6367 57.7227 74.377 57.7461 74.1074C57.7734 73.8379 57.7949 73.5762 57.8105 73.3223C57.7324 73.3262 57.5957 73.3242 57.4004 73.3164C57.2051 73.3086 56.9609 73.3086 56.668 73.3164C56.3789 73.3242 56.0488 73.3457 55.6777 73.3809C55.3066 73.416 54.9062 73.4766 54.4766 73.5625C54.6719 72.9609 54.8535 72.4043 55.0215 71.8926C55.1895 71.3809 55.3418 70.8887 55.4785 70.416C55.6152 69.9434 55.7324 69.4766 55.8301 69.0156C55.9277 68.5547 56.0039 68.0742 56.0586 67.5742C56.8125 67.6406 57.5625 67.6699 58.3086 67.6621C59.0547 67.6504 59.8047 67.6133 60.5586 67.5508C60.4688 67.9922 60.3965 68.5215 60.3418 69.1387C60.2871 69.752 60.2598 70.4102 60.2598 71.1133V71.8223C60.3926 71.791 60.5176 71.7598 60.6348 71.7285C60.752 71.6973 60.8594 71.6562 60.957 71.6055ZM57.8691 71.9922C57.8691 71.8906 57.8672 71.7559 57.8633 71.5879C57.8633 71.4199 57.8594 71.2305 57.8516 71.0195C57.8477 70.8086 57.8418 70.582 57.834 70.3398C57.8262 70.0938 57.8145 69.8438 57.7988 69.5898C57.623 69.9297 57.4824 70.3027 57.377 70.709C57.2715 71.1152 57.1758 71.5312 57.0898 71.957C57.1797 71.9648 57.2598 71.9707 57.3301 71.9746C57.4004 71.9785 57.4648 71.9824 57.5234 71.9863C57.582 71.9863 57.6387 71.9883 57.6934 71.9922C57.748 71.9922 57.8066 71.9922 57.8691 71.9922ZM64.0801 70.3867C64.0801 70.7188 64.1367 70.9805 64.25 71.1719C64.3633 71.3594 64.543 71.4531 64.7891 71.4531C64.8867 71.4531 64.9785 71.4297 65.0645 71.3828C65.1504 71.332 65.2246 71.2598 65.2871 71.166C65.3496 71.0723 65.3984 70.9609 65.4336 70.832C65.4727 70.6992 65.4941 70.5508 65.498 70.3867C65.502 70.2383 65.4863 70.0977 65.4512 69.9648C65.4199 69.8281 65.373 69.709 65.3105 69.6074C65.252 69.502 65.1777 69.4199 65.0879 69.3613C64.998 69.2988 64.8984 69.2676 64.7891 69.2676C64.6758 69.2676 64.5742 69.2969 64.4844 69.3555C64.3984 69.4141 64.3242 69.4941 64.2617 69.5957C64.2031 69.6973 64.1582 69.8164 64.127 69.9531C64.0957 70.0898 64.0801 70.2344 64.0801 70.3867ZM65.4863 72.918C65.4512 72.9531 65.4004 72.9902 65.334 73.0293C65.2676 73.0684 65.1914 73.1055 65.1055 73.1406C65.0195 73.1719 64.9238 73.1992 64.8184 73.2227C64.7129 73.2422 64.6035 73.252 64.4902 73.252C64.2598 73.252 64.0254 73.2324 63.7871 73.1934C63.5527 73.1504 63.3262 73.084 63.1074 72.9941C62.8887 72.9004 62.6816 72.7812 62.4863 72.6367C62.2949 72.4922 62.127 72.3164 61.9824 72.1094C61.8418 71.8984 61.7305 71.6543 61.6484 71.377C61.5664 71.0996 61.5254 70.7852 61.5254 70.4336C61.5254 69.918 61.6055 69.4629 61.7656 69.0684C61.9258 68.6738 62.1484 68.3438 62.4336 68.0781C62.7227 67.8125 63.0645 67.6133 63.459 67.4805C63.8574 67.3438 64.293 67.2754 64.7656 67.2754C65.2656 67.2754 65.7148 67.3594 66.1133 67.5273C66.5117 67.6914 66.8496 67.9395 67.127 68.2715C67.4082 68.6035 67.623 69.0176 67.7715 69.5137C67.9199 70.0098 67.9941 70.5879 67.9941 71.248C67.9941 71.627 67.9766 72.0156 67.9414 72.4141C67.9102 72.8125 67.8477 73.2031 67.7539 73.5859C67.6602 73.9648 67.5273 74.3242 67.3555 74.6641C67.1875 75 66.9648 75.2949 66.6875 75.5488C66.4141 75.7988 66.082 75.998 65.6914 76.1465C65.3008 76.2949 64.8359 76.3691 64.2969 76.3691C63.9844 76.3691 63.6855 76.3281 63.4004 76.2461C63.1152 76.1641 62.8633 76.0508 62.6445 75.9062C62.4297 75.7578 62.2578 75.582 62.1289 75.3789C62 75.1719 61.9355 74.9434 61.9355 74.6934C61.9355 74.5059 61.9746 74.3301 62.0527 74.166C62.1309 74.002 62.2344 73.8613 62.3633 73.7441C62.4961 73.623 62.6465 73.5293 62.8145 73.4629C62.9824 73.3926 63.1562 73.3574 63.3359 73.3574C63.5664 73.3574 63.7891 73.418 64.0039 73.5391C64.2188 73.6602 64.4082 73.8574 64.5723 74.1309C64.4824 74.1113 64.4023 74.1016 64.332 74.1016C64.2539 74.1016 64.1953 74.127 64.1562 74.1777C64.1211 74.2285 64.1035 74.2832 64.1035 74.3418C64.1035 74.4043 64.1348 74.4648 64.1973 74.5234C64.2598 74.5781 64.3574 74.6055 64.4902 74.6055C64.7012 74.6055 64.8711 74.5527 65 74.4473C65.1328 74.3418 65.2344 74.207 65.3047 74.043C65.3789 73.8789 65.4277 73.6973 65.4512 73.498C65.4746 73.2988 65.4863 73.1055 65.4863 72.918ZM74.1699 76.1699C73.7285 76.1348 73.3457 76.1172 73.0215 76.1172C72.7402 76.1172 72.502 76.125 72.3066 76.1406C72.1152 76.1602 71.959 76.1797 71.8379 76.1992C71.6973 76.2227 71.584 76.248 71.498 76.2754C71.5293 76.0762 71.5527 75.8926 71.5684 75.7246C71.584 75.5566 71.5918 75.377 71.5918 75.1855C71.5918 74.8418 71.5781 74.5566 71.5508 74.3301C71.5234 74.0996 71.4844 73.9062 71.4336 73.75C71.3828 73.5938 71.3223 73.4668 71.252 73.3691C71.1816 73.2715 71.1035 73.1836 71.0176 73.1055C71.0098 73.2461 71.0039 73.3867 71 73.5273C70.9961 73.6641 70.9941 73.8047 70.9941 73.9492C70.9941 74.2422 71.0098 74.5605 71.041 74.9043C71.0723 75.2441 71.1367 75.6406 71.2344 76.0938C71.1172 76.0859 70.9844 76.0762 70.8359 76.0645C70.7109 76.0566 70.5605 76.0488 70.3848 76.041C70.209 76.0371 70.0156 76.0352 69.8047 76.0352C69.5938 76.0352 69.3691 76.0391 69.1309 76.0469C68.8965 76.0547 68.6523 76.0703 68.3984 76.0938C68.4766 75.9727 68.5449 75.8125 68.6035 75.6133C68.666 75.4141 68.7188 75.1914 68.7617 74.9453C68.8047 74.6953 68.8398 74.4297 68.8672 74.1484C68.8984 73.8672 68.9219 73.584 68.9375 73.2988C68.957 73.0098 68.9707 72.7266 68.9785 72.4492C68.9863 72.1719 68.9902 71.9121 68.9902 71.6699C68.9902 71.3457 68.9844 71.0137 68.9727 70.6738C68.9609 70.334 68.9453 70.002 68.9258 69.6777C68.9062 69.3535 68.8828 69.0449 68.8555 68.752C68.8281 68.459 68.8008 68.1953 68.7734 67.9609C68.7461 67.7227 68.7168 67.5234 68.6855 67.3633C68.6582 67.2031 68.6309 67.0938 68.6035 67.0352C68.8535 67.0586 69.1133 67.0703 69.3828 67.0703C69.7227 67.0703 70.0586 67.0547 70.3906 67.0234C70.7266 66.9883 71.0469 66.9414 71.3516 66.8828C71.3047 67.0195 71.2617 67.1973 71.2227 67.416C71.1836 67.6309 71.1484 67.8711 71.1172 68.1367C71.0898 68.3984 71.0645 68.6777 71.041 68.9746C71.0215 69.2676 71.0039 69.5625 70.9883 69.8594C70.9727 70.1523 70.9609 70.4375 70.9531 70.7148C70.9492 70.9922 70.9473 71.2461 70.9473 71.4766C70.9473 71.6328 70.9492 71.7734 70.9531 71.8984C70.957 72.0234 70.9629 72.1309 70.9707 72.2207C71.2402 71.877 71.4492 71.5449 71.5977 71.2246C71.7461 70.9004 71.8203 70.5801 71.8203 70.2637C71.8203 69.9629 71.7402 69.6582 71.5801 69.3496C71.7285 69.3652 71.8809 69.377 72.0371 69.3848C72.1934 69.3887 72.3457 69.3906 72.4941 69.3906C72.7754 69.3906 73.0547 69.3809 73.332 69.3613C73.6094 69.3379 73.8887 69.2988 74.1699 69.2441C74.0605 69.4082 73.9688 69.5918 73.8945 69.7949C73.8242 69.9941 73.7676 70.1875 73.7246 70.375C73.6738 70.5898 73.6309 70.8086 73.5957 71.0312C73.5605 71.2461 73.502 71.4531 73.4199 71.6523C73.3848 71.7383 73.3418 71.8262 73.291 71.916C73.2441 72.002 73.1855 72.0879 73.1152 72.1738C73.0488 72.2559 72.9727 72.334 72.8867 72.4082C72.8008 72.4785 72.7051 72.5391 72.5996 72.5898C72.8262 72.6797 72.998 72.793 73.1152 72.9297C73.2363 73.0664 73.3262 73.2207 73.3848 73.3926C73.4434 73.5605 73.4844 73.7461 73.5078 73.9492C73.5312 74.1484 73.5605 74.3594 73.5957 74.582C73.6309 74.7656 73.6758 74.9512 73.7305 75.1387C73.7773 75.2988 73.8359 75.4727 73.9062 75.6602C73.9805 75.8438 74.0684 76.0137 74.1699 76.1699ZM77.6094 70.6855C77.4883 70.6855 77.3789 70.7207 77.2812 70.791C77.1836 70.8574 77.0957 70.9531 77.0176 71.0781C76.9434 71.1992 76.877 71.3457 76.8184 71.5176C76.7637 71.6895 76.7188 71.8789 76.6836 72.0859C76.6836 72.418 76.6914 72.7539 76.707 73.0938C76.7227 73.4336 76.748 73.7695 76.7832 74.1016C76.8184 74.4336 76.8633 74.7578 76.918 75.0742C76.9766 75.3906 77.0469 75.6914 77.1289 75.9766C77.0664 75.9727 76.9941 75.9668 76.9121 75.959C76.8418 75.9551 76.7559 75.9512 76.6543 75.9473C76.5566 75.9434 76.4434 75.9414 76.3145 75.9414C76.0723 75.9414 75.791 75.9531 75.4707 75.9766C75.1543 75.9961 74.8027 76.0352 74.416 76.0938C74.4629 75.875 74.5039 75.6074 74.5391 75.291C74.5742 74.9746 74.6035 74.6309 74.627 74.2598C74.6504 73.8887 74.668 73.502 74.6797 73.0996C74.6953 72.6934 74.7031 72.293 74.7031 71.8984C74.7031 71.6055 74.6992 71.3184 74.6914 71.0371C74.6836 70.7559 74.6719 70.4902 74.6562 70.2402C74.6445 69.9902 74.627 69.7598 74.6035 69.5488C74.5801 69.3379 74.5527 69.1562 74.5215 69.0039C74.8379 69.0586 75.125 69.0977 75.3828 69.1211C75.6445 69.1406 75.8789 69.1504 76.0859 69.1504C76.2188 69.1504 76.3359 69.1484 76.4375 69.1445C76.5391 69.1367 76.627 69.1289 76.7012 69.1211C76.7832 69.1094 76.8574 69.0977 76.9238 69.0859C76.877 69.2812 76.8418 69.498 76.8184 69.7363C77.0215 69.4902 77.2422 69.3086 77.4805 69.1914C77.7227 69.0742 77.9492 69.0156 78.1602 69.0156C78.5117 69.0156 78.8086 69.0801 79.0508 69.209C79.293 69.334 79.4883 69.5 79.6367 69.707C79.7852 69.9102 79.8926 70.1426 79.959 70.4043C80.0254 70.666 80.0586 70.9316 80.0586 71.2012C80.0586 71.4629 80.0215 71.7188 79.9473 71.9688C79.873 72.2188 79.7656 72.4434 79.625 72.6426C79.4844 72.8379 79.3105 72.9961 79.1035 73.1172C78.8965 73.2383 78.6621 73.2988 78.4004 73.2988C78.1699 73.2988 77.9727 73.2598 77.8086 73.1816C77.6484 73.1035 77.5156 73.002 77.4102 72.877C77.3047 72.752 77.2266 72.6152 77.1758 72.4668C77.1289 72.3145 77.1055 72.1641 77.1055 72.0156C77.1055 71.8594 77.127 71.707 77.1699 71.5586C77.2168 71.4102 77.2832 71.2754 77.3691 71.1543C77.3965 71.2402 77.4297 71.3066 77.4688 71.3535C77.5117 71.3965 77.5547 71.4277 77.5977 71.4473C77.6445 71.4707 77.6953 71.4844 77.75 71.4883C77.8945 71.4883 78.002 71.4551 78.0723 71.3887C78.1465 71.3223 78.1836 71.2441 78.1836 71.1543C78.1836 71.1113 78.1758 71.0625 78.1602 71.0078C78.1445 70.9531 78.1152 70.9023 78.0723 70.8555C78.0332 70.8086 77.9766 70.7695 77.9023 70.7383C77.8281 70.7031 77.7305 70.6855 77.6094 70.6855Z" fill="black"/>
<defs>
<linearGradient id="paint0_linear_225_5214" x1="43" y1="0" x2="43" y2="119" gradientUnits="userSpaceOnUse">
<stop stop-color="#F2AB3D"/>
<stop offset="1" stop-color="#238C60"/>
</linearGradient>
</defs>
</svg>
