<svg width="124" height="52" viewBox="0 0 124 52" fill="none" xmlns="http://www.w3.org/2000/svg">
<path d="M5 5C41.83 5 74.66 5 101.61 5C106.3 18.32 111.39 31.65 116.56 44.98C79.54 44.98 47.19 44.97 18.95 44.97C14.52 31.64 9.8 18.31 5 5Z" fill="#BFEAED"/>
<path d="M115.43 42C84.52 42 56.19 42 31.07 42.01C28.92 42.01 25.88 44.96 27.99 44.95C52.26 44.97 85.56 44.96 116.55 44.95C116.17 43.96 115.81 42.98 115.43 42Z" fill="#F69C3B"/>
<path d="M114.79 40.35C83.51 40.33 52.22 40.45 26.33 40.44C24.74 40.44 26.07 42.77 25.86 44.35C24.66 45.12 26.81 44.97 27.74 44.97C28.69 44.97 29.17 43.94 29.61 43.1C29.91 42.53 30.45 42.17 31.14 42.17C56.23 42.18 84.57 42.2 115.51 42.21C115.27 41.59 115.04 40.97 114.79 40.35Z" fill="#BAD6D8"/>
<path d="M23.59 44.98C22.55 41.64 24.05 38.87 26.92 38.87C53.47 38.86 82.63 38.87 114.12 38.87C114.33 39.4 114.53 39.93 114.73 40.45C83.43 40.45 54.63 40.44 28.75 40.44C26.62 40.44 25.45 42.47 26.09 44.97C25.26 44.97 24.42 44.98 23.59 44.98Z" fill="#F69C3B"/>
<path d="M21 44.95C19.67 40.51 21.68 36.9 25.55 36.86C52.71 36.61 81.99 36.37 113.15 36.11C113.52 37.08 113.9 38.04 114.28 39.01C82.76 39 53.58 38.98 27.04 38.98C24.2 38.98 22.67 41.66 23.58 44.95C22.72 44.95 21.86 44.95 21 44.95Z" fill="#DDCBC9"/>
<path d="M19.08 44.97C17.5 39.69 19.94 35.49 24.6 35.49C52.2 35.5 81.67 35.52 112.92 35.52C113.12 36.03 113.31 36.53 113.5 37.03C82.08 37.02 52.7 37 25.52 36.99C21.67 36.99 19.66 40.56 20.99 44.97C20.35 44.97 19.71 44.97 19.08 44.97Z" fill="#627A7F"/>
<path d="M26.47 24.91C26.32 26.19 26.41 27.42 26.73 28.62C26.88 29.2 27.07 29.78 27.32 30.38C27.58 30.96 27.88 31.56 28.24 32.16C27.89 32.08 27.58 32.01 27.29 31.97C27 31.92 26.71 31.9 26.45 31.9C26.15 31.9 25.86 31.93 25.58 31.98C25.29 32.05 24.99 32.13 24.67 32.25C24.65 31.75 24.63 31.25 24.6 30.74C24.55 30.94 24.47 31.15 24.37 31.37C24.27 31.57 24.13 31.76 23.97 31.93C23.79 32.1 23.58 32.24 23.33 32.35C23.07 32.45 22.78 32.52 22.42 32.52C21.88 32.52 21.33 32.37 20.78 32.08C20.24 31.79 19.71 31.37 19.21 30.83C18.69 30.28 18.23 29.61 17.77 28.82C17.34 28.02 16.94 27.12 16.61 26.11C16.38 25.43 16.22 24.77 16.12 24.11C16.01 23.45 15.98 22.81 16.01 22.21C16.04 21.61 16.14 21.05 16.32 20.55C16.5 20.04 16.75 19.59 17.07 19.22C17.38 18.84 17.77 18.55 18.26 18.35C18.73 18.13 19.27 18.02 19.9 18.02C20.48 18.02 20.99 18.08 21.46 18.2C21.91 18.31 22.32 18.47 22.69 18.66C23.05 18.85 23.37 19.07 23.64 19.33C23.91 19.57 24.15 19.83 24.33 20.1C24.53 20.37 24.68 20.64 24.8 20.91C24.92 21.17 25 21.42 25.07 21.65C25.16 21.98 25.18 22.31 25.16 22.61C25.13 22.92 25.05 23.19 24.92 23.42C24.78 23.66 24.6 23.84 24.36 23.98C24.13 24.12 23.85 24.19 23.53 24.19C23.2 24.19 22.89 24.13 22.61 24.03C22.34 23.92 22.08 23.78 21.87 23.61C21.66 23.43 21.47 23.24 21.33 23.02C21.19 22.81 21.09 22.6 21.02 22.38C20.97 22.2 20.95 22.02 20.94 21.83C20.95 21.64 20.99 21.46 21.04 21.3C21.12 21.43 21.21 21.54 21.29 21.61C21.38 21.68 21.46 21.73 21.54 21.76C21.63 21.8 21.71 21.83 21.81 21.83C22.01 21.83 22.14 21.77 22.21 21.67C22.26 21.56 22.27 21.44 22.23 21.3C22.22 21.24 22.18 21.18 22.13 21.12C22.09 21.05 22.03 20.99 21.95 20.92C21.89 20.87 21.79 20.82 21.69 20.78C21.6 20.75 21.49 20.73 21.36 20.73C21.27 20.73 21.16 20.75 21.01 20.78C20.88 20.82 20.73 20.88 20.58 20.99C20.44 21.09 20.31 21.22 20.19 21.42C20.07 21.59 19.98 21.84 19.93 22.15C19.89 22.46 19.88 22.84 19.92 23.28C19.98 23.73 20.08 24.26 20.28 24.88C20.44 25.38 20.61 25.82 20.8 26.21C21.01 26.6 21.21 26.91 21.44 27.18C21.64 27.43 21.87 27.62 22.1 27.75C22.33 27.88 22.57 27.95 22.79 27.95C23 27.95 23.17 27.89 23.27 27.76C23.38 27.65 23.45 27.5 23.48 27.33C23.52 27.16 23.52 26.98 23.49 26.8C23.47 26.62 23.44 26.47 23.41 26.34C23.41 26.33 23.39 26.3 23.35 26.21C23.33 26.13 23.27 26.03 23.19 25.92C23.12 25.82 23.01 25.71 22.86 25.6C22.73 25.49 22.55 25.39 22.33 25.32C23.04 25.32 23.72 25.28 24.42 25.22C25.11 25.15 25.79 25.04 26.47 24.91Z" fill="#F69C3B"/>
<path d="M38.86 32.11C38.49 32.06 38.15 32.02 37.81 32.01C37.49 31.98 37.16 31.98 36.83 31.98C35.92 31.98 35.02 32.08 34.11 32.27C34.11 32.12 34.11 31.98 34.14 31.88C34.15 31.75 34.16 31.62 34.17 31.49C34.17 31.34 34.17 31.17 34.15 30.99C34.14 30.8 34.1 30.56 34.03 30.26C33.97 29.96 33.89 29.68 33.79 29.41C33.7 29.13 33.58 28.89 33.46 28.68C33.32 28.46 33.19 28.29 33.04 28.17C32.89 28.05 32.74 27.98 32.58 27.98C32.41 27.98 32.28 28.04 32.18 28.15C32.08 28.26 32.02 28.42 31.99 28.61C31.97 28.81 31.96 29.03 31.99 29.28C32 29.53 32.05 29.8 32.13 30.09C32.18 30.36 32.26 30.61 32.33 30.82C32.41 31.02 32.48 31.2 32.55 31.34C32.64 31.5 32.7 31.63 32.77 31.75C32.85 31.86 32.9 31.98 32.93 32.09C32.53 32.04 32.14 32 31.75 31.98C31.37 31.95 30.99 31.94 30.61 31.94C30.24 31.94 29.86 31.95 29.49 31.98C29.13 32 28.74 32.04 28.36 32.09C28.42 30.96 28.45 29.84 28.43 28.73C28.44 27.62 28.39 26.5 28.31 25.37C28.23 24.25 28.09 23.11 27.93 21.96C27.78 20.82 27.58 19.63 27.35 18.43C27.83 18.49 28.35 18.54 28.89 18.57C29.46 18.59 30.04 18.61 30.63 18.61C31.11 18.61 31.58 18.59 32.04 18.57C32.51 18.55 32.92 18.49 33.32 18.41C33.6 19.61 33.95 20.79 34.36 21.95C34.78 23.12 35.23 24.27 35.71 25.41C36.19 26.55 36.7 27.68 37.24 28.79C37.78 29.91 38.31 31.01 38.86 32.11ZM32.51 24.8C32.48 24.67 32.41 24.5 32.28 24.27C32.19 24.06 32.05 23.8 31.88 23.48C31.7 23.15 31.42 22.72 31.1 22.2C31.12 22.52 31.13 22.81 31.14 23.07C31.13 23.32 31.13 23.56 31.12 23.76C31.1 23.96 31.11 24.15 31.1 24.32C31.1 24.49 31.13 24.64 31.15 24.8C31.23 25.11 31.35 25.35 31.53 25.53C31.71 25.7 31.89 25.79 32.06 25.79C32.25 25.79 32.38 25.69 32.46 25.5C32.55 25.32 32.56 25.08 32.51 24.8Z" fill="#F69C3B"/>
<path d="M47.04 18.33C46.8 19.46 46.59 20.6 46.44 21.73C46.29 22.87 46.18 24 46.08 25.14C46.02 26.27 45.96 27.41 45.93 28.56C45.92 29.69 45.91 30.83 45.93 31.98C45.63 31.95 45.32 31.93 45 31.92C44.68 31.91 44.34 31.9 44 31.9C43.47 31.9 42.95 31.92 42.43 31.96C41.9 31.99 41.41 32.04 40.95 32.11C40.62 30.96 40.27 29.82 39.87 28.68C39.48 27.54 39.04 26.4 38.57 25.26C38.09 24.12 37.57 22.99 37 21.87C36.42 20.74 35.81 19.61 35.13 18.48C35.52 18.54 35.89 18.58 36.27 18.61C36.64 18.63 37.03 18.65 37.4 18.65C37.95 18.65 38.49 18.62 39 18.57C39.52 18.52 40.04 18.44 40.56 18.33C40.59 18.7 40.63 19.07 40.67 19.43C40.72 19.8 40.78 20.15 40.83 20.51C41.02 21.72 41.27 22.89 41.59 24.03C41.89 25.18 42.28 26.31 42.71 27.42C42.8 26.45 42.83 25.49 42.79 24.54C42.76 23.57 42.67 22.61 42.53 21.65C42.36 20.55 42.13 19.44 41.83 18.33C42.26 18.39 42.69 18.43 43.12 18.45C43.57 18.48 44.01 18.48 44.44 18.48C44.87 18.48 45.31 18.48 45.74 18.45C46.17 18.43 46.61 18.39 47.04 18.33Z" fill="#F69C3B"/>
<path d="M57.21 32.13C56.9 32.06 56.59 32.01 56.25 31.98C55.93 31.95 55.59 31.92 55.23 31.9C54.88 31.88 54.5 31.88 54.1 31.88C53.7 31.87 53.26 31.86 52.79 31.86C52.58 31.86 52.32 31.87 52 31.88C51.69 31.88 51.38 31.89 51.01 31.92C50.68 31.95 50.33 31.98 49.96 32.02C49.59 32.08 49.24 32.14 48.89 32.22C48.98 31.93 49.07 31.57 49.11 31.15C49.16 30.71 49.18 30.25 49.19 29.77C49.21 29.29 49.2 28.8 49.18 28.29C49.16 27.79 49.13 27.32 49.1 26.89C49.08 26.46 49.04 26.08 49 25.77C48.98 25.45 48.95 25.23 48.94 25.11C48.93 25.08 48.93 24.98 48.9 24.81C48.89 24.64 48.86 24.43 48.82 24.16C48.78 23.89 48.74 23.58 48.68 23.23C48.64 22.88 48.57 22.51 48.51 22.14C48.45 21.76 48.38 21.39 48.3 21C48.23 20.61 48.14 20.26 48.05 19.92C47.97 19.57 47.88 19.26 47.79 18.99C47.71 18.72 47.62 18.5 47.51 18.33C48.13 18.42 48.74 18.48 49.34 18.53C49.92 18.57 50.5 18.58 51.05 18.58C51.72 18.58 52.34 18.57 52.93 18.53C53.51 18.49 54.01 18.45 54.45 18.4C54.95 18.35 55.4 18.28 55.82 18.2C55.93 19.68 56.05 21.15 56.17 22.62C55.79 22.28 55.44 22.02 55.1 21.84C54.76 21.66 54.47 21.52 54.2 21.43C53.91 21.33 53.62 21.28 53.36 21.26C53.07 21.26 52.81 21.3 52.62 21.39C52.45 21.46 52.31 21.56 52.22 21.69C52.13 21.81 52.07 21.94 52.04 22.1C52.03 22.25 52.01 22.41 52.03 22.57C52.05 22.73 52.08 22.89 52.15 23.05C52.21 23.22 52.3 23.36 52.4 23.49C52.52 23.63 52.65 23.74 52.81 23.83C52.97 23.91 53.16 23.95 53.36 23.95C53.55 23.95 53.71 23.91 53.84 23.83C53.97 23.74 54.08 23.64 54.18 23.53C54.29 23.42 54.4 23.28 54.47 23.12C54.59 24.4 54.7 25.68 54.81 26.95C54.7 26.72 54.56 26.53 54.43 26.39C54.3 26.25 54.16 26.15 54.03 26.09C53.89 26.02 53.78 25.98 53.69 25.96C53.59 25.95 53.51 25.94 53.48 25.94C53.09 25.94 52.82 26.06 52.65 26.31C52.48 26.57 52.42 26.89 52.45 27.28C52.48 27.58 52.53 27.82 52.61 28.02C52.69 28.22 52.79 28.39 52.91 28.51C53.02 28.63 53.15 28.73 53.3 28.78C53.44 28.84 53.6 28.87 53.75 28.87C53.98 28.87 54.23 28.81 54.5 28.7C54.75 28.59 55.01 28.43 55.24 28.25C55.48 28.06 55.7 27.85 55.88 27.61C56.08 27.36 56.23 27.11 56.33 26.86C56.63 28.61 56.92 30.37 57.21 32.13Z" fill="#F69C3B"/>
<path d="M68.67 32.33C68.24 32.3 67.86 32.28 67.5 32.27C67.16 32.26 66.83 32.26 66.52 32.26C65.96 32.26 65.5 32.27 65.12 32.31C64.74 32.34 64.44 32.37 64.2 32.41C63.93 32.46 63.71 32.5 63.55 32.57C63.55 32.36 63.56 32.18 63.58 32.01C63.6 31.82 63.6 31.65 63.6 31.47C63.6 31.29 63.61 31.11 63.59 30.94C63.59 30.77 63.59 30.58 63.58 30.39C63.52 29.69 63.46 29.11 63.36 28.64C63.29 28.17 63.18 27.78 63.07 27.47C62.94 27.16 62.81 26.92 62.65 26.72C62.5 26.52 62.33 26.35 62.15 26.21C62.16 26.48 62.18 26.76 62.19 27.02C62.21 27.29 62.22 27.56 62.25 27.86C62.26 28.16 62.29 28.46 62.33 28.78C62.36 29.08 62.41 29.42 62.46 29.78C62.51 30.13 62.59 30.51 62.68 30.91C62.77 31.31 62.87 31.74 63 32.19C62.76 32.17 62.5 32.16 62.22 32.13C61.98 32.12 61.69 32.1 61.36 32.08C61.02 32.07 60.66 32.06 60.27 32.06C59.88 32.05 59.46 32.06 59.02 32.08C58.58 32.1 58.12 32.13 57.65 32.18C57.77 32 57.88 31.75 57.97 31.45C58.08 31.15 58.15 30.82 58.22 30.46C58.29 30.09 58.33 29.71 58.36 29.32C58.39 28.93 58.43 28.53 58.44 28.15C58.48 27.25 58.48 26.3 58.44 25.28C58.39 24.74 58.35 24.2 58.29 23.63C58.23 23.07 58.15 22.51 58.06 21.94C57.97 21.38 57.86 20.82 57.72 20.28C57.58 19.73 57.41 19.21 57.22 18.72C57.48 18.74 57.74 18.75 57.99 18.79C58.23 18.8 58.48 18.8 58.73 18.8C59.92 18.8 61.08 18.68 62.2 18.42C62 19.24 61.87 20.05 61.81 20.85C61.76 21.65 61.75 22.45 61.82 23.24C61.83 23.43 61.84 23.63 61.86 23.83C61.88 24.01 61.91 24.21 61.94 24.4C62.39 23.73 62.74 23.06 62.96 22.41C63.18 21.75 63.27 21.11 63.22 20.49C63.2 20.16 63.15 19.85 63.05 19.55C62.97 19.24 62.83 18.93 62.66 18.63C62.96 18.66 63.26 18.7 63.55 18.71C63.86 18.73 64.14 18.73 64.44 18.73C64.95 18.73 65.46 18.7 65.97 18.66C66.46 18.6 66.98 18.53 67.49 18.42C67.4 18.58 67.32 18.76 67.26 18.95C67.18 19.13 67.13 19.32 67.07 19.52C67.01 19.71 66.96 19.91 66.92 20.12C66.89 20.32 66.86 20.51 66.83 20.69C66.77 21.13 66.72 21.57 66.7 22.01C66.67 22.45 66.59 22.86 66.48 23.26C66.42 23.43 66.36 23.6 66.28 23.79C66.2 23.97 66.1 24.14 65.99 24.31C65.86 24.47 65.74 24.63 65.59 24.78C65.45 24.92 65.27 25.05 65.08 25.16C65.52 25.34 65.86 25.56 66.1 25.83C66.35 26.1 66.55 26.41 66.7 26.76C66.84 27.1 66.94 27.47 67.04 27.88C67.11 28.28 67.22 28.71 67.31 29.15C67.41 29.52 67.54 29.9 67.67 30.28C67.78 30.6 67.92 30.94 68.08 31.31C68.25 31.69 68.45 32.02 68.67 32.33Z" fill="#F69C3B"/>
<path d="M78.42 25.7C78.55 26.65 78.58 27.55 78.5 28.39C78.41 29.22 78.19 29.96 77.85 30.58C77.5 31.21 77.01 31.69 76.39 32.06C75.78 32.42 75.01 32.6 74.12 32.6C73.23 32.6 72.44 32.42 71.74 32.06C71.06 31.69 70.47 31.21 69.99 30.58C69.52 29.96 69.13 29.22 68.85 28.39C68.57 27.55 68.38 26.65 68.3 25.7C68.24 24.99 68.24 24.31 68.3 23.66C68.37 23 68.5 22.39 68.67 21.83C68.83 21.27 69.05 20.75 69.31 20.29C69.58 19.82 69.87 19.42 70.21 19.1C70.55 18.76 70.91 18.51 71.3 18.32C71.7 18.14 72.1 18.05 72.53 18.05C73.26 18.05 73.94 18.25 74.58 18.63C75.22 19.02 75.79 19.55 76.31 20.24C76.82 20.93 77.26 21.73 77.62 22.66C77.99 23.59 78.26 24.6 78.42 25.7ZM74.64 24.89C74.58 24.41 74.49 23.97 74.37 23.58C74.25 23.18 74.11 22.83 73.95 22.55C73.81 22.25 73.63 22.02 73.45 21.86C73.27 21.69 73.08 21.6 72.9 21.6C72.74 21.6 72.57 21.71 72.44 21.91C72.3 22.1 72.18 22.35 72.09 22.67C72.01 22.98 71.96 23.33 71.92 23.73C71.88 24.11 71.89 24.5 71.92 24.89C71.97 25.26 72.03 25.6 72.14 25.92C72.23 26.24 72.35 26.51 72.49 26.74C72.63 26.97 72.78 27.15 72.96 27.29C73.14 27.42 73.35 27.49 73.55 27.49C73.77 27.49 73.95 27.42 74.1 27.29C74.27 27.15 74.39 26.97 74.47 26.74C74.57 26.51 74.62 26.24 74.66 25.92C74.68 25.6 74.67 25.26 74.64 24.89Z" fill="#F69C3B"/>
<path d="M91.34 32.16C90.92 32.13 90.52 32.1 90.17 32.09C89.81 32.09 89.48 32.08 89.18 32.08C88.59 32.08 88.09 32.09 87.7 32.13C87.31 32.16 86.99 32.2 86.76 32.24C86.46 32.29 86.24 32.33 86.07 32.4C86.06 32.19 86.05 32.02 86.05 31.85C86.03 31.68 86.02 31.52 86 31.35C85.99 31.19 85.97 31.03 85.95 30.87C85.93 30.71 85.91 30.54 85.87 30.37C85.74 29.68 85.59 29.1 85.45 28.64C85.32 28.18 85.16 27.8 85.01 27.49C84.85 27.19 84.68 26.94 84.51 26.75C84.33 26.56 84.15 26.39 83.95 26.24C83.99 26.52 84.03 26.79 84.08 27.06C84.12 27.32 84.16 27.6 84.21 27.9C84.28 28.19 84.34 28.49 84.41 28.8C84.48 29.11 84.56 29.45 84.66 29.8C84.76 30.15 84.87 30.53 85.02 30.93C85.15 31.33 85.31 31.75 85.49 32.23C85.47 32.19 85.39 32.17 85.23 32.14C85.06 32.11 84.85 32.08 84.58 32.06C84.31 32.02 83.99 32.01 83.65 31.99C83.3 31.98 82.95 31.97 82.58 31.97C82.09 31.97 81.61 31.99 81.13 32.02C80.66 32.06 80.23 32.13 79.86 32.23C79.98 32.02 80.07 31.79 80.15 31.48C80.24 31.18 80.3 30.86 80.32 30.5C80.37 30.14 80.39 29.76 80.38 29.37C80.39 28.97 80.39 28.58 80.39 28.2C80.34 27.3 80.27 26.34 80.15 25.33C80.11 25.07 80.06 24.75 80 24.38C79.95 23.99 79.87 23.57 79.79 23.12C79.71 22.67 79.62 22.21 79.51 21.73C79.41 21.25 79.28 20.79 79.15 20.35C79.01 19.91 78.86 19.51 78.7 19.14C78.53 18.78 78.34 18.49 78.13 18.27C78.56 18.34 78.96 18.39 79.35 18.41C79.74 18.43 80.07 18.44 80.34 18.44C80.58 18.44 80.79 18.43 80.99 18.42C81.19 18.41 81.39 18.39 81.59 18.38C81.78 18.37 81.99 18.36 82.2 18.34C82.42 18.33 82.65 18.32 82.91 18.32C83.28 18.32 83.63 18.35 84 18.39C84.36 18.43 84.73 18.5 85.08 18.61C85.43 18.71 85.77 18.85 86.08 19.03C86.41 19.2 86.71 19.44 86.97 19.71C87.25 19.98 87.48 20.31 87.69 20.69C87.9 21.07 88.06 21.52 88.17 22.03C88.23 22.31 88.27 22.59 88.25 22.88C88.26 23.16 88.2 23.43 88.12 23.71C88.02 23.98 87.87 24.24 87.68 24.5C87.48 24.74 87.24 24.97 86.93 25.17C87.38 25.36 87.76 25.58 88.03 25.85C88.31 26.12 88.54 26.43 88.72 26.78C88.89 27.12 89.02 27.5 89.13 27.9C89.23 28.31 89.33 28.73 89.44 29.17C89.57 29.64 89.73 30.08 89.92 30.48C89.99 30.65 90.08 30.82 90.18 31C90.28 31.18 90.39 31.34 90.51 31.48C90.62 31.64 90.75 31.77 90.89 31.89C91.03 32.01 91.18 32.1 91.34 32.16ZM83.55 24.04C83.65 23.94 83.78 23.8 83.92 23.66C84.05 23.5 84.17 23.33 84.26 23.15C84.37 22.96 84.45 22.76 84.51 22.55C84.56 22.35 84.57 22.14 84.53 21.94C84.49 21.74 84.4 21.57 84.27 21.44C84.14 21.32 84.01 21.26 83.88 21.26C83.69 21.26 83.56 21.35 83.48 21.54C83.41 21.72 83.37 21.94 83.34 22.19C83.34 22.44 83.33 22.69 83.36 22.95C83.38 23.2 83.41 23.4 83.44 23.53C83.45 23.61 83.47 23.69 83.48 23.78C83.5 23.86 83.52 23.94 83.55 24.04Z" fill="#F69C3B"/>
<path d="M99.12 31.97C98.97 31.96 98.8 31.94 98.61 31.93C98.45 31.92 98.25 31.91 98.03 31.9C97.8 31.89 97.55 31.89 97.27 31.89C96.81 31.89 96.29 31.91 95.71 31.95C95.14 31.98 94.54 32.04 93.92 32.14C93.9 31.21 93.82 30.31 93.72 29.45C93.6 28.59 93.48 27.83 93.37 27.15C93.22 26.37 93.06 25.63 92.9 24.94C92.82 24.65 92.72 24.32 92.62 23.97C92.53 23.67 92.43 23.32 92.32 22.92C92.19 22.52 92.06 22.09 91.9 21.62C91.71 21.91 91.51 22.21 91.32 22.54C91.13 22.86 90.96 23.19 90.79 23.54C90.62 23.89 90.46 24.24 90.33 24.6C90.19 24.95 90.08 25.31 89.99 25.66C89.49 23.25 89.02 20.85 88.55 18.46C89.09 18.53 89.66 18.58 90.25 18.62C90.86 18.66 91.46 18.67 92.08 18.67C92.96 18.67 93.81 18.64 94.65 18.57C95.5 18.5 96.26 18.4 96.94 18.27C97.78 20.69 98.62 23.12 99.5 25.54C98.8 24.68 98.07 23.87 97.34 23.12C96.6 22.36 95.87 21.73 95.16 21.22C95.23 21.64 95.32 22.09 95.44 22.56C95.55 23.03 95.67 23.5 95.81 24C96 24.63 96.21 25.29 96.44 25.96C96.67 26.62 96.92 27.29 97.2 27.97C97.48 28.65 97.77 29.32 98.09 29.99C98.42 30.67 98.76 31.33 99.12 31.97Z" fill="#F69C3B"/>
<path d="M101.27 30.5C101.19 30.23 101.16 29.97 101.16 29.73C101.2 29.49 101.27 29.28 101.38 29.09C101.5 28.91 101.66 28.77 101.87 28.67C102.06 28.57 102.3 28.51 102.57 28.51C102.83 28.51 103.1 28.57 103.36 28.67C103.64 28.77 103.9 28.91 104.14 29.09C104.38 29.28 104.6 29.49 104.78 29.73C104.97 29.97 105.1 30.23 105.2 30.5C105.3 30.77 105.34 31.04 105.32 31.28C105.3 31.52 105.24 31.73 105.11 31.91C104.99 32.09 104.83 32.23 104.62 32.33C104.41 32.43 104.18 32.49 103.91 32.49C103.63 32.49 103.35 32.43 103.07 32.33C102.8 32.23 102.54 32.09 102.3 31.91C102.06 31.73 101.86 31.52 101.67 31.28C101.49 31.04 101.36 30.77 101.27 30.5Z" fill="#F69C3B"/>
<g filter="url(#filter0_d_893_44)">
<path d="M6 4C42.83 4 75.66 4 102.61 4C107.3 17.32 112.39 30.65 117.56 43.98C80.54 43.98 48.19 43.97 19.95 43.97C15.52 30.64 10.8 17.31 6 4Z" fill="#BFEAED"/>
<path d="M116.43 41C85.52 41 57.19 41 32.07 41.01C29.92 41.01 26.88 43.96 28.99 43.95C53.26 43.97 86.56 43.96 117.55 43.95C117.17 42.96 116.81 41.98 116.43 41Z" fill="#F69C3B"/>
<path d="M115.79 39.35C84.51 39.33 53.22 39.45 27.33 39.44C25.74 39.44 27.07 41.77 26.86 43.35C25.66 44.12 27.81 43.97 28.74 43.97C29.69 43.97 30.17 42.94 30.61 42.1C30.91 41.53 31.45 41.17 32.14 41.17C57.23 41.18 85.57 41.2 116.51 41.21C116.27 40.59 116.04 39.97 115.79 39.35Z" fill="#BAD6D8"/>
<path d="M24.59 43.98C23.55 40.64 25.05 37.87 27.92 37.87C54.47 37.86 83.63 37.87 115.12 37.87C115.33 38.4 115.53 38.93 115.73 39.45C84.43 39.45 55.63 39.44 29.75 39.44C27.62 39.44 26.45 41.47 27.09 43.97C26.26 43.97 25.42 43.98 24.59 43.98Z" fill="#F69C3B"/>
<path d="M22 43.95C20.67 39.51 22.68 35.9 26.55 35.86C53.71 35.61 82.99 35.37 114.15 35.11C114.52 36.08 114.9 37.04 115.28 38.01C83.76 38 54.58 37.98 28.04 37.98C25.2 37.98 23.67 40.66 24.58 43.95C23.72 43.95 22.86 43.95 22 43.95Z" fill="#DDCBC9"/>
<path d="M20.08 43.97C18.5 38.69 20.94 34.49 25.6 34.49C53.2 34.5 82.67 34.52 113.92 34.52C114.12 35.03 114.31 35.53 114.5 36.03C83.08 36.02 53.7 36 26.52 35.99C22.67 35.99 20.66 39.56 21.99 43.97C21.35 43.97 20.71 43.97 20.08 43.97Z" fill="#627A7F"/>
<path d="M27.47 23.91C27.32 25.19 27.41 26.42 27.73 27.62C27.88 28.2 28.07 28.78 28.32 29.38C28.58 29.96 28.88 30.56 29.24 31.16C28.89 31.08 28.58 31.01 28.29 30.97C28 30.92 27.71 30.9 27.45 30.9C27.15 30.9 26.86 30.93 26.58 30.98C26.29 31.05 25.99 31.13 25.67 31.25C25.65 30.75 25.63 30.25 25.6 29.74C25.55 29.94 25.47 30.15 25.37 30.37C25.27 30.57 25.13 30.76 24.97 30.93C24.79 31.1 24.58 31.24 24.33 31.35C24.07 31.45 23.78 31.52 23.42 31.52C22.88 31.52 22.33 31.37 21.78 31.08C21.24 30.79 20.71 30.37 20.21 29.83C19.69 29.28 19.23 28.61 18.77 27.82C18.34 27.02 17.94 26.12 17.61 25.11C17.38 24.43 17.22 23.77 17.12 23.11C17.01 22.45 16.98 21.81 17.01 21.21C17.04 20.61 17.14 20.05 17.32 19.55C17.5 19.04 17.75 18.59 18.07 18.22C18.38 17.84 18.77 17.55 19.26 17.35C19.73 17.13 20.27 17.02 20.9 17.02C21.48 17.02 21.99 17.08 22.46 17.2C22.91 17.31 23.32 17.47 23.69 17.66C24.05 17.85 24.37 18.07 24.64 18.33C24.91 18.57 25.15 18.83 25.33 19.1C25.53 19.37 25.68 19.64 25.8 19.91C25.92 20.17 26 20.42 26.07 20.65C26.16 20.98 26.18 21.31 26.16 21.61C26.13 21.92 26.05 22.19 25.92 22.42C25.78 22.66 25.6 22.84 25.36 22.98C25.13 23.12 24.85 23.19 24.53 23.19C24.2 23.19 23.89 23.13 23.61 23.03C23.34 22.92 23.08 22.78 22.87 22.61C22.66 22.43 22.47 22.24 22.33 22.02C22.19 21.81 22.09 21.6 22.02 21.38C21.97 21.2 21.95 21.02 21.94 20.83C21.95 20.64 21.99 20.46 22.04 20.3C22.12 20.43 22.21 20.54 22.29 20.61C22.38 20.68 22.46 20.73 22.54 20.76C22.63 20.8 22.71 20.83 22.81 20.83C23.01 20.83 23.14 20.77 23.21 20.67C23.26 20.56 23.27 20.44 23.23 20.3C23.22 20.24 23.18 20.18 23.13 20.12C23.09 20.05 23.03 19.99 22.95 19.92C22.89 19.87 22.79 19.82 22.69 19.78C22.6 19.75 22.49 19.73 22.36 19.73C22.27 19.73 22.16 19.75 22.01 19.78C21.88 19.82 21.73 19.88 21.58 19.99C21.44 20.09 21.31 20.22 21.19 20.42C21.07 20.59 20.98 20.84 20.93 21.15C20.89 21.46 20.88 21.84 20.92 22.28C20.98 22.73 21.08 23.26 21.28 23.88C21.44 24.38 21.61 24.82 21.8 25.21C22.01 25.6 22.21 25.91 22.44 26.18C22.64 26.43 22.87 26.62 23.1 26.75C23.33 26.88 23.57 26.95 23.79 26.95C24 26.95 24.17 26.89 24.27 26.76C24.38 26.65 24.45 26.5 24.48 26.33C24.52 26.16 24.52 25.98 24.49 25.8C24.47 25.62 24.44 25.47 24.41 25.34C24.41 25.33 24.39 25.3 24.35 25.21C24.33 25.13 24.27 25.03 24.19 24.92C24.12 24.82 24.01 24.71 23.86 24.6C23.73 24.49 23.55 24.39 23.33 24.32C24.04 24.32 24.72 24.28 25.42 24.22C26.11 24.15 26.79 24.04 27.47 23.91Z" fill="#F69C3B"/>
<path d="M39.86 31.11C39.49 31.06 39.15 31.02 38.81 31.01C38.49 30.98 38.16 30.98 37.83 30.98C36.92 30.98 36.02 31.08 35.11 31.27C35.11 31.12 35.11 30.98 35.14 30.88C35.15 30.75 35.16 30.62 35.17 30.49C35.17 30.34 35.17 30.17 35.15 29.99C35.14 29.8 35.1 29.56 35.03 29.26C34.97 28.96 34.89 28.68 34.79 28.41C34.7 28.13 34.58 27.89 34.46 27.68C34.32 27.46 34.19 27.29 34.04 27.17C33.89 27.05 33.74 26.98 33.58 26.98C33.41 26.98 33.28 27.04 33.18 27.15C33.08 27.26 33.02 27.42 32.99 27.61C32.97 27.81 32.96 28.03 32.99 28.28C33 28.53 33.05 28.8 33.13 29.09C33.18 29.36 33.26 29.61 33.33 29.82C33.41 30.02 33.48 30.2 33.55 30.34C33.64 30.5 33.7 30.63 33.77 30.75C33.85 30.86 33.9 30.98 33.93 31.09C33.53 31.04 33.14 31 32.75 30.98C32.37 30.95 31.99 30.94 31.61 30.94C31.24 30.94 30.86 30.95 30.49 30.98C30.13 31 29.74 31.04 29.36 31.09C29.42 29.96 29.45 28.84 29.43 27.73C29.44 26.62 29.39 25.5 29.31 24.37C29.23 23.25 29.09 22.11 28.93 20.96C28.78 19.82 28.58 18.63 28.35 17.43C28.83 17.49 29.35 17.54 29.89 17.57C30.46 17.59 31.04 17.61 31.63 17.61C32.11 17.61 32.58 17.59 33.04 17.57C33.51 17.55 33.92 17.49 34.32 17.41C34.6 18.61 34.95 19.79 35.36 20.95C35.78 22.12 36.23 23.27 36.71 24.41C37.19 25.55 37.7 26.68 38.24 27.79C38.78 28.91 39.31 30.01 39.86 31.11ZM33.51 23.8C33.48 23.67 33.41 23.5 33.28 23.27C33.19 23.06 33.05 22.8 32.88 22.48C32.7 22.15 32.42 21.72 32.1 21.2C32.12 21.52 32.13 21.81 32.14 22.07C32.13 22.32 32.13 22.56 32.12 22.76C32.1 22.96 32.11 23.15 32.1 23.32C32.1 23.49 32.13 23.64 32.15 23.8C32.23 24.11 32.35 24.35 32.53 24.53C32.71 24.7 32.89 24.79 33.06 24.79C33.25 24.79 33.38 24.69 33.46 24.5C33.55 24.32 33.56 24.08 33.51 23.8Z" fill="#F69C3B"/>
<path d="M48.04 17.33C47.8 18.46 47.59 19.6 47.44 20.73C47.29 21.87 47.18 23 47.08 24.14C47.02 25.27 46.96 26.41 46.93 27.56C46.92 28.69 46.91 29.83 46.93 30.98C46.63 30.95 46.32 30.93 46 30.92C45.68 30.91 45.34 30.9 45 30.9C44.47 30.9 43.95 30.92 43.43 30.96C42.9 30.99 42.41 31.04 41.95 31.11C41.62 29.96 41.27 28.82 40.87 27.68C40.48 26.54 40.04 25.4 39.57 24.26C39.09 23.12 38.57 21.99 38 20.87C37.42 19.74 36.81 18.61 36.13 17.48C36.52 17.54 36.89 17.58 37.27 17.61C37.64 17.63 38.03 17.65 38.4 17.65C38.95 17.65 39.49 17.62 40 17.57C40.52 17.52 41.04 17.44 41.56 17.33C41.59 17.7 41.63 18.07 41.67 18.43C41.72 18.8 41.78 19.15 41.83 19.51C42.02 20.72 42.27 21.89 42.59 23.03C42.89 24.18 43.28 25.31 43.71 26.42C43.8 25.45 43.83 24.49 43.79 23.54C43.76 22.57 43.67 21.61 43.53 20.65C43.36 19.55 43.13 18.44 42.83 17.33C43.26 17.39 43.69 17.43 44.12 17.45C44.57 17.48 45.01 17.48 45.44 17.48C45.87 17.48 46.31 17.48 46.74 17.45C47.17 17.43 47.61 17.39 48.04 17.33Z" fill="#F69C3B"/>
<path d="M58.21 31.13C57.9 31.06 57.59 31.01 57.25 30.98C56.93 30.95 56.59 30.92 56.23 30.9C55.88 30.88 55.5 30.88 55.1 30.88C54.7 30.87 54.26 30.86 53.79 30.86C53.58 30.86 53.32 30.87 53 30.88C52.69 30.88 52.38 30.89 52.01 30.92C51.68 30.95 51.33 30.98 50.96 31.02C50.59 31.08 50.24 31.14 49.89 31.22C49.98 30.93 50.07 30.57 50.11 30.15C50.16 29.71 50.18 29.25 50.19 28.77C50.21 28.29 50.2 27.8 50.18 27.29C50.16 26.79 50.13 26.32 50.1 25.89C50.08 25.46 50.04 25.08 50 24.77C49.98 24.45 49.95 24.23 49.94 24.11C49.93 24.08 49.93 23.98 49.9 23.81C49.89 23.64 49.86 23.43 49.82 23.16C49.78 22.89 49.74 22.58 49.68 22.23C49.64 21.88 49.57 21.51 49.51 21.14C49.45 20.76 49.38 20.39 49.3 20C49.23 19.61 49.14 19.26 49.05 18.92C48.97 18.57 48.88 18.26 48.79 17.99C48.71 17.72 48.62 17.5 48.51 17.33C49.13 17.42 49.74 17.48 50.34 17.53C50.92 17.57 51.5 17.58 52.05 17.58C52.72 17.58 53.34 17.57 53.93 17.53C54.51 17.49 55.01 17.45 55.45 17.4C55.95 17.35 56.4 17.28 56.82 17.2C56.93 18.68 57.05 20.15 57.17 21.62C56.79 21.28 56.44 21.02 56.1 20.84C55.76 20.66 55.47 20.52 55.2 20.43C54.91 20.33 54.62 20.28 54.36 20.26C54.07 20.26 53.81 20.3 53.62 20.39C53.45 20.46 53.31 20.56 53.22 20.69C53.13 20.81 53.07 20.94 53.04 21.1C53.03 21.25 53.01 21.41 53.03 21.57C53.05 21.73 53.08 21.89 53.15 22.05C53.21 22.22 53.3 22.36 53.4 22.49C53.52 22.63 53.65 22.74 53.81 22.83C53.97 22.91 54.16 22.95 54.36 22.95C54.55 22.95 54.71 22.91 54.84 22.83C54.97 22.74 55.08 22.64 55.18 22.53C55.29 22.42 55.4 22.28 55.47 22.12C55.59 23.4 55.7 24.68 55.81 25.95C55.7 25.72 55.56 25.53 55.43 25.39C55.3 25.25 55.16 25.15 55.03 25.09C54.89 25.02 54.78 24.98 54.69 24.96C54.59 24.95 54.51 24.94 54.48 24.94C54.09 24.94 53.82 25.06 53.65 25.31C53.48 25.57 53.42 25.89 53.45 26.28C53.48 26.58 53.53 26.82 53.61 27.02C53.69 27.22 53.79 27.39 53.91 27.51C54.02 27.63 54.15 27.73 54.3 27.78C54.44 27.84 54.6 27.87 54.75 27.87C54.98 27.87 55.23 27.81 55.5 27.7C55.75 27.59 56.01 27.43 56.24 27.25C56.48 27.06 56.7 26.85 56.88 26.61C57.08 26.36 57.23 26.11 57.33 25.86C57.63 27.61 57.92 29.37 58.21 31.13Z" fill="#F69C3B"/>
<path d="M69.67 31.33C69.24 31.3 68.86 31.28 68.5 31.27C68.16 31.26 67.83 31.26 67.52 31.26C66.96 31.26 66.5 31.27 66.12 31.31C65.74 31.34 65.44 31.37 65.2 31.41C64.93 31.46 64.71 31.5 64.55 31.57C64.55 31.36 64.56 31.18 64.58 31.01C64.6 30.82 64.6 30.65 64.6 30.47C64.6 30.29 64.61 30.11 64.59 29.94C64.59 29.77 64.59 29.58 64.58 29.39C64.52 28.69 64.46 28.11 64.36 27.64C64.29 27.17 64.18 26.78 64.07 26.47C63.94 26.16 63.81 25.92 63.65 25.72C63.5 25.52 63.33 25.35 63.15 25.21C63.16 25.48 63.18 25.76 63.19 26.02C63.21 26.29 63.22 26.56 63.25 26.86C63.26 27.16 63.29 27.46 63.33 27.78C63.36 28.08 63.41 28.42 63.46 28.78C63.51 29.13 63.59 29.51 63.68 29.91C63.77 30.31 63.87 30.74 64 31.19C63.76 31.17 63.5 31.16 63.22 31.13C62.98 31.12 62.69 31.1 62.36 31.08C62.02 31.07 61.66 31.06 61.27 31.06C60.88 31.05 60.46 31.06 60.02 31.08C59.58 31.1 59.12 31.13 58.65 31.18C58.77 31 58.88 30.75 58.97 30.45C59.08 30.15 59.15 29.82 59.22 29.46C59.29 29.09 59.33 28.71 59.36 28.32C59.39 27.93 59.43 27.53 59.44 27.15C59.48 26.25 59.48 25.3 59.44 24.28C59.39 23.74 59.35 23.2 59.29 22.63C59.23 22.07 59.15 21.51 59.06 20.94C58.97 20.38 58.86 19.82 58.72 19.28C58.58 18.73 58.41 18.21 58.22 17.72C58.48 17.74 58.74 17.75 58.99 17.79C59.23 17.8 59.48 17.8 59.73 17.8C60.92 17.8 62.08 17.68 63.2 17.42C63 18.24 62.87 19.05 62.81 19.85C62.76 20.65 62.75 21.45 62.82 22.24C62.83 22.43 62.84 22.63 62.86 22.83C62.88 23.01 62.91 23.21 62.94 23.4C63.39 22.73 63.74 22.06 63.96 21.41C64.18 20.75 64.27 20.11 64.22 19.49C64.2 19.16 64.15 18.85 64.05 18.55C63.97 18.24 63.83 17.93 63.66 17.63C63.96 17.66 64.26 17.7 64.55 17.71C64.86 17.73 65.14 17.73 65.44 17.73C65.95 17.73 66.46 17.7 66.97 17.66C67.46 17.6 67.98 17.53 68.49 17.42C68.4 17.58 68.32 17.76 68.26 17.95C68.18 18.13 68.13 18.32 68.07 18.52C68.01 18.71 67.96 18.91 67.92 19.12C67.89 19.32 67.86 19.51 67.83 19.69C67.77 20.13 67.72 20.57 67.7 21.01C67.67 21.45 67.59 21.86 67.48 22.26C67.42 22.43 67.36 22.6 67.28 22.79C67.2 22.97 67.1 23.14 66.99 23.31C66.86 23.47 66.74 23.63 66.59 23.78C66.45 23.92 66.27 24.05 66.08 24.16C66.52 24.34 66.86 24.56 67.1 24.83C67.35 25.1 67.55 25.41 67.7 25.76C67.84 26.1 67.94 26.47 68.04 26.88C68.11 27.28 68.22 27.71 68.31 28.15C68.41 28.52 68.54 28.9 68.67 29.28C68.78 29.6 68.92 29.94 69.08 30.31C69.25 30.69 69.45 31.02 69.67 31.33Z" fill="#F69C3B"/>
<path d="M79.42 24.7C79.55 25.65 79.58 26.55 79.5 27.39C79.41 28.22 79.19 28.96 78.85 29.58C78.5 30.21 78.01 30.69 77.39 31.06C76.78 31.42 76.01 31.6 75.12 31.6C74.23 31.6 73.44 31.42 72.74 31.06C72.06 30.69 71.47 30.21 70.99 29.58C70.52 28.96 70.13 28.22 69.85 27.39C69.57 26.55 69.38 25.65 69.3 24.7C69.24 23.99 69.24 23.31 69.3 22.66C69.37 22 69.5 21.39 69.67 20.83C69.83 20.27 70.05 19.75 70.31 19.29C70.58 18.82 70.87 18.42 71.21 18.1C71.55 17.76 71.91 17.51 72.3 17.32C72.7 17.14 73.1 17.05 73.53 17.05C74.26 17.05 74.94 17.25 75.58 17.63C76.22 18.02 76.79 18.55 77.31 19.24C77.82 19.93 78.26 20.73 78.62 21.66C78.99 22.59 79.26 23.6 79.42 24.7ZM75.64 23.89C75.58 23.41 75.49 22.97 75.37 22.58C75.25 22.18 75.11 21.83 74.95 21.55C74.81 21.25 74.63 21.02 74.45 20.86C74.27 20.69 74.08 20.6 73.9 20.6C73.74 20.6 73.57 20.71 73.44 20.91C73.3 21.1 73.18 21.35 73.09 21.67C73.01 21.98 72.96 22.33 72.92 22.73C72.88 23.11 72.89 23.5 72.92 23.89C72.97 24.26 73.03 24.6 73.14 24.92C73.23 25.24 73.35 25.51 73.49 25.74C73.63 25.97 73.78 26.15 73.96 26.29C74.14 26.42 74.35 26.49 74.55 26.49C74.77 26.49 74.95 26.42 75.1 26.29C75.27 26.15 75.39 25.97 75.47 25.74C75.57 25.51 75.62 25.24 75.66 24.92C75.68 24.6 75.67 24.26 75.64 23.89Z" fill="#F69C3B"/>
<path d="M92.34 31.16C91.92 31.13 91.52 31.1 91.17 31.09C90.81 31.09 90.48 31.08 90.18 31.08C89.59 31.08 89.09 31.09 88.7 31.13C88.31 31.16 87.99 31.2 87.76 31.24C87.46 31.29 87.24 31.33 87.07 31.4C87.06 31.19 87.05 31.02 87.05 30.85C87.03 30.68 87.02 30.52 87 30.35C86.99 30.19 86.97 30.03 86.95 29.87C86.93 29.71 86.91 29.54 86.87 29.37C86.74 28.68 86.59 28.1 86.45 27.64C86.32 27.18 86.16 26.8 86.01 26.49C85.85 26.19 85.68 25.94 85.51 25.75C85.33 25.56 85.15 25.39 84.95 25.24C84.99 25.52 85.03 25.79 85.08 26.06C85.12 26.32 85.16 26.6 85.21 26.9C85.28 27.19 85.34 27.49 85.41 27.8C85.48 28.11 85.56 28.45 85.66 28.8C85.76 29.15 85.87 29.53 86.02 29.93C86.15 30.33 86.31 30.75 86.49 31.23C86.47 31.19 86.39 31.17 86.23 31.14C86.06 31.11 85.85 31.08 85.58 31.06C85.31 31.02 84.99 31.01 84.65 30.99C84.3 30.98 83.95 30.97 83.58 30.97C83.09 30.97 82.61 30.99 82.13 31.02C81.66 31.06 81.23 31.13 80.86 31.23C80.98 31.02 81.07 30.79 81.15 30.48C81.24 30.18 81.3 29.86 81.32 29.5C81.37 29.14 81.39 28.76 81.38 28.37C81.39 27.97 81.39 27.58 81.39 27.2C81.34 26.3 81.27 25.34 81.15 24.33C81.11 24.07 81.06 23.75 81 23.38C80.95 22.99 80.87 22.57 80.79 22.12C80.71 21.67 80.62 21.21 80.51 20.73C80.41 20.25 80.28 19.79 80.15 19.35C80.01 18.91 79.86 18.51 79.7 18.14C79.53 17.78 79.34 17.49 79.13 17.27C79.56 17.34 79.96 17.39 80.35 17.41C80.74 17.43 81.07 17.44 81.34 17.44C81.58 17.44 81.79 17.43 81.99 17.42C82.19 17.41 82.39 17.39 82.59 17.38C82.78 17.37 82.99 17.36 83.2 17.34C83.42 17.33 83.65 17.32 83.91 17.32C84.28 17.32 84.63 17.35 85 17.39C85.36 17.43 85.73 17.5 86.08 17.61C86.43 17.71 86.77 17.85 87.08 18.03C87.41 18.2 87.71 18.44 87.97 18.71C88.25 18.98 88.48 19.31 88.69 19.69C88.9 20.07 89.06 20.52 89.17 21.03C89.23 21.31 89.27 21.59 89.25 21.88C89.26 22.16 89.2 22.43 89.12 22.71C89.02 22.98 88.87 23.24 88.68 23.5C88.48 23.74 88.24 23.97 87.93 24.17C88.38 24.36 88.76 24.58 89.03 24.85C89.31 25.12 89.54 25.43 89.72 25.78C89.89 26.12 90.02 26.5 90.13 26.9C90.23 27.31 90.33 27.73 90.44 28.17C90.57 28.64 90.73 29.08 90.92 29.48C90.99 29.65 91.08 29.82 91.18 30C91.28 30.18 91.39 30.34 91.51 30.48C91.62 30.64 91.75 30.77 91.89 30.89C92.03 31.01 92.18 31.1 92.34 31.16ZM84.55 23.04C84.65 22.94 84.78 22.8 84.92 22.66C85.05 22.5 85.17 22.33 85.26 22.15C85.37 21.96 85.45 21.76 85.51 21.55C85.56 21.35 85.57 21.14 85.53 20.94C85.49 20.74 85.4 20.57 85.27 20.44C85.14 20.32 85.01 20.26 84.88 20.26C84.69 20.26 84.56 20.35 84.48 20.54C84.41 20.72 84.37 20.94 84.34 21.19C84.34 21.44 84.33 21.69 84.36 21.95C84.38 22.2 84.41 22.4 84.44 22.53C84.45 22.61 84.47 22.69 84.48 22.78C84.5 22.86 84.52 22.94 84.55 23.04Z" fill="#F69C3B"/>
<path d="M100.12 30.97C99.97 30.96 99.8 30.94 99.61 30.93C99.45 30.92 99.25 30.91 99.03 30.9C98.8 30.89 98.55 30.89 98.27 30.89C97.81 30.89 97.29 30.91 96.71 30.95C96.14 30.98 95.54 31.04 94.92 31.14C94.9 30.21 94.82 29.31 94.72 28.45C94.6 27.59 94.48 26.83 94.37 26.15C94.22 25.37 94.06 24.63 93.9 23.94C93.82 23.65 93.72 23.32 93.62 22.97C93.53 22.67 93.43 22.32 93.32 21.92C93.19 21.52 93.06 21.09 92.9 20.62C92.71 20.91 92.51 21.21 92.32 21.54C92.13 21.86 91.96 22.19 91.79 22.54C91.62 22.89 91.46 23.24 91.33 23.6C91.19 23.95 91.08 24.31 90.99 24.66C90.49 22.25 90.02 19.85 89.55 17.46C90.09 17.53 90.66 17.58 91.25 17.62C91.86 17.66 92.46 17.67 93.08 17.67C93.96 17.67 94.81 17.64 95.65 17.57C96.5 17.5 97.26 17.4 97.94 17.27C98.78 19.69 99.62 22.12 100.5 24.54C99.8 23.68 99.07 22.87 98.34 22.12C97.6 21.36 96.87 20.73 96.16 20.22C96.23 20.64 96.32 21.09 96.44 21.56C96.55 22.03 96.67 22.5 96.81 23C97 23.63 97.21 24.29 97.44 24.96C97.67 25.62 97.92 26.29 98.2 26.97C98.48 27.65 98.77 28.32 99.09 28.99C99.42 29.67 99.76 30.33 100.12 30.97Z" fill="#F69C3B"/>
<path d="M102.27 29.5C102.19 29.23 102.16 28.97 102.16 28.73C102.2 28.49 102.27 28.28 102.38 28.09C102.5 27.91 102.66 27.77 102.87 27.67C103.06 27.57 103.3 27.51 103.57 27.51C103.83 27.51 104.1 27.57 104.36 27.67C104.64 27.77 104.9 27.91 105.14 28.09C105.38 28.28 105.6 28.49 105.78 28.73C105.97 28.97 106.1 29.23 106.2 29.5C106.3 29.77 106.34 30.04 106.32 30.28C106.3 30.52 106.24 30.73 106.11 30.91C105.99 31.09 105.83 31.23 105.62 31.33C105.41 31.43 105.18 31.49 104.91 31.49C104.63 31.49 104.35 31.43 104.07 31.33C103.8 31.23 103.54 31.09 103.3 30.91C103.06 30.73 102.86 30.52 102.67 30.28C102.49 30.04 102.36 29.77 102.27 29.5Z" fill="#F69C3B"/>
</g>
<g filter="url(#filter1_d_893_44)">
<path d="M7 2C43.83 2 76.66 2 103.61 2C108.3 15.32 113.39 28.65 118.56 41.98C81.54 41.98 49.19 41.97 20.95 41.97C16.52 28.64 11.8 15.31 7 2Z" fill="#BFEAED"/>
<path d="M117.43 39C86.52 39 58.19 39 33.07 39.01C30.92 39.01 27.88 41.96 29.99 41.95C54.26 41.97 87.56 41.96 118.55 41.95C118.17 40.96 117.81 39.98 117.43 39Z" fill="#F69C3B"/>
<path d="M116.79 37.35C85.51 37.33 54.22 37.45 28.33 37.44C26.74 37.44 28.07 39.77 27.86 41.35C26.66 42.12 28.81 41.97 29.74 41.97C30.69 41.97 31.17 40.94 31.61 40.1C31.91 39.53 32.45 39.17 33.14 39.17C58.23 39.18 86.57 39.2 117.51 39.21C117.27 38.59 117.04 37.97 116.79 37.35Z" fill="#BAD6D8"/>
<path d="M25.59 41.98C24.55 38.64 26.05 35.87 28.92 35.87C55.47 35.86 84.63 35.87 116.12 35.87C116.33 36.4 116.53 36.93 116.73 37.45C85.43 37.45 56.63 37.44 30.75 37.44C28.62 37.44 27.45 39.47 28.09 41.97C27.26 41.97 26.42 41.98 25.59 41.98Z" fill="#F69C3B"/>
<path d="M23 41.95C21.67 37.51 23.68 33.9 27.55 33.86C54.71 33.61 83.99 33.37 115.15 33.11C115.52 34.08 115.9 35.04 116.28 36.01C84.76 36 55.58 35.98 29.04 35.98C26.2 35.98 24.67 38.66 25.58 41.95C24.72 41.95 23.86 41.95 23 41.95Z" fill="#DDCBC9"/>
<path d="M21.08 41.97C19.5 36.69 21.94 32.49 26.6 32.49C54.2 32.5 83.67 32.52 114.92 32.52C115.12 33.03 115.31 33.53 115.5 34.03C84.08 34.02 54.7 34 27.52 33.99C23.67 33.99 21.66 37.56 22.99 41.97C22.35 41.97 21.71 41.97 21.08 41.97Z" fill="#627A7F"/>
<path d="M28.47 21.91C28.32 23.19 28.41 24.42 28.73 25.62C28.88 26.2 29.07 26.78 29.32 27.38C29.58 27.96 29.88 28.56 30.24 29.16C29.89 29.08 29.58 29.01 29.29 28.97C29 28.92 28.71 28.9 28.45 28.9C28.15 28.9 27.86 28.93 27.58 28.98C27.29 29.05 26.99 29.13 26.67 29.25C26.65 28.75 26.63 28.25 26.6 27.74C26.55 27.94 26.47 28.15 26.37 28.37C26.27 28.57 26.13 28.76 25.97 28.93C25.79 29.1 25.58 29.24 25.33 29.35C25.07 29.45 24.78 29.52 24.42 29.52C23.88 29.52 23.33 29.37 22.78 29.08C22.24 28.79 21.71 28.37 21.21 27.83C20.69 27.28 20.23 26.61 19.77 25.82C19.34 25.02 18.94 24.12 18.61 23.11C18.38 22.43 18.22 21.77 18.12 21.11C18.01 20.45 17.98 19.81 18.01 19.21C18.04 18.61 18.14 18.05 18.32 17.55C18.5 17.04 18.75 16.59 19.07 16.22C19.38 15.84 19.77 15.55 20.26 15.35C20.73 15.13 21.27 15.02 21.9 15.02C22.48 15.02 22.99 15.08 23.46 15.2C23.91 15.31 24.32 15.47 24.69 15.66C25.05 15.85 25.37 16.07 25.64 16.33C25.91 16.57 26.15 16.83 26.33 17.1C26.53 17.37 26.68 17.64 26.8 17.91C26.92 18.17 27 18.42 27.07 18.65C27.16 18.98 27.18 19.31 27.16 19.61C27.13 19.92 27.05 20.19 26.92 20.42C26.78 20.66 26.6 20.84 26.36 20.98C26.13 21.12 25.85 21.19 25.53 21.19C25.2 21.19 24.89 21.13 24.61 21.03C24.34 20.92 24.08 20.78 23.87 20.61C23.66 20.43 23.47 20.24 23.33 20.02C23.19 19.81 23.09 19.6 23.02 19.38C22.97 19.2 22.95 19.02 22.94 18.83C22.95 18.64 22.99 18.46 23.04 18.3C23.12 18.43 23.21 18.54 23.29 18.61C23.38 18.68 23.46 18.73 23.54 18.76C23.63 18.8 23.71 18.83 23.81 18.83C24.01 18.83 24.14 18.77 24.21 18.67C24.26 18.56 24.27 18.44 24.23 18.3C24.22 18.24 24.18 18.18 24.13 18.12C24.09 18.05 24.03 17.99 23.95 17.92C23.89 17.87 23.79 17.82 23.69 17.78C23.6 17.75 23.49 17.73 23.36 17.73C23.27 17.73 23.16 17.75 23.01 17.78C22.88 17.82 22.73 17.88 22.58 17.99C22.44 18.09 22.31 18.22 22.19 18.42C22.07 18.59 21.98 18.84 21.93 19.15C21.89 19.46 21.88 19.84 21.92 20.28C21.98 20.73 22.08 21.26 22.28 21.88C22.44 22.38 22.61 22.82 22.8 23.21C23.01 23.6 23.21 23.91 23.44 24.18C23.64 24.43 23.87 24.62 24.1 24.75C24.33 24.88 24.57 24.95 24.79 24.95C25 24.95 25.17 24.89 25.27 24.76C25.38 24.65 25.45 24.5 25.48 24.33C25.52 24.16 25.52 23.98 25.49 23.8C25.47 23.62 25.44 23.47 25.41 23.34C25.41 23.33 25.39 23.3 25.35 23.21C25.33 23.13 25.27 23.03 25.19 22.92C25.12 22.82 25.01 22.71 24.86 22.6C24.73 22.49 24.55 22.39 24.33 22.32C25.04 22.32 25.72 22.28 26.42 22.22C27.11 22.15 27.79 22.04 28.47 21.91Z" fill="#F69C3B"/>
<path d="M40.86 29.11C40.49 29.06 40.15 29.02 39.81 29.01C39.49 28.98 39.16 28.98 38.83 28.98C37.92 28.98 37.02 29.08 36.11 29.27C36.11 29.12 36.11 28.98 36.14 28.88C36.15 28.75 36.16 28.62 36.17 28.49C36.17 28.34 36.17 28.17 36.15 27.99C36.14 27.8 36.1 27.56 36.03 27.26C35.97 26.96 35.89 26.68 35.79 26.41C35.7 26.13 35.58 25.89 35.46 25.68C35.32 25.46 35.19 25.29 35.04 25.17C34.89 25.05 34.74 24.98 34.58 24.98C34.41 24.98 34.28 25.04 34.18 25.15C34.08 25.26 34.02 25.42 33.99 25.61C33.97 25.81 33.96 26.03 33.99 26.28C34 26.53 34.05 26.8 34.13 27.09C34.18 27.36 34.26 27.61 34.33 27.82C34.41 28.02 34.48 28.2 34.55 28.34C34.64 28.5 34.7 28.63 34.77 28.75C34.85 28.86 34.9 28.98 34.93 29.09C34.53 29.04 34.14 29 33.75 28.98C33.37 28.95 32.99 28.94 32.61 28.94C32.24 28.94 31.86 28.95 31.49 28.98C31.13 29 30.74 29.04 30.36 29.09C30.42 27.96 30.45 26.84 30.43 25.73C30.44 24.62 30.39 23.5 30.31 22.37C30.23 21.25 30.09 20.11 29.93 18.96C29.78 17.82 29.58 16.63 29.35 15.43C29.83 15.49 30.35 15.54 30.89 15.57C31.46 15.59 32.04 15.61 32.63 15.61C33.11 15.61 33.58 15.59 34.04 15.57C34.51 15.55 34.92 15.49 35.32 15.41C35.6 16.61 35.95 17.79 36.36 18.95C36.78 20.12 37.23 21.27 37.71 22.41C38.19 23.55 38.7 24.68 39.24 25.79C39.78 26.91 40.31 28.01 40.86 29.11ZM34.51 21.8C34.48 21.67 34.41 21.5 34.28 21.27C34.19 21.06 34.05 20.8 33.88 20.48C33.7 20.15 33.42 19.72 33.1 19.2C33.12 19.52 33.13 19.81 33.14 20.07C33.13 20.32 33.13 20.56 33.12 20.76C33.1 20.96 33.11 21.15 33.1 21.32C33.1 21.49 33.13 21.64 33.15 21.8C33.23 22.11 33.35 22.35 33.53 22.53C33.71 22.7 33.89 22.79 34.06 22.79C34.25 22.79 34.38 22.69 34.46 22.5C34.55 22.32 34.56 22.08 34.51 21.8Z" fill="#F69C3B"/>
<path d="M49.04 15.33C48.8 16.46 48.59 17.6 48.44 18.73C48.29 19.87 48.18 21 48.08 22.14C48.02 23.27 47.96 24.41 47.93 25.56C47.92 26.69 47.91 27.83 47.93 28.98C47.63 28.95 47.32 28.93 47 28.92C46.68 28.91 46.34 28.9 46 28.9C45.47 28.9 44.95 28.92 44.43 28.96C43.9 28.99 43.41 29.04 42.95 29.11C42.62 27.96 42.27 26.82 41.87 25.68C41.48 24.54 41.04 23.4 40.57 22.26C40.09 21.12 39.57 19.99 39 18.87C38.42 17.74 37.81 16.61 37.13 15.48C37.52 15.54 37.89 15.58 38.27 15.61C38.64 15.63 39.03 15.65 39.4 15.65C39.95 15.65 40.49 15.62 41 15.57C41.52 15.52 42.04 15.44 42.56 15.33C42.59 15.7 42.63 16.07 42.67 16.43C42.72 16.8 42.78 17.15 42.83 17.51C43.02 18.72 43.27 19.89 43.59 21.03C43.89 22.18 44.28 23.31 44.71 24.42C44.8 23.45 44.83 22.49 44.79 21.54C44.76 20.57 44.67 19.61 44.53 18.65C44.36 17.55 44.13 16.44 43.83 15.33C44.26 15.39 44.69 15.43 45.12 15.45C45.57 15.48 46.01 15.48 46.44 15.48C46.87 15.48 47.31 15.48 47.74 15.45C48.17 15.43 48.61 15.39 49.04 15.33Z" fill="#F69C3B"/>
<path d="M59.21 29.13C58.9 29.06 58.59 29.01 58.25 28.98C57.93 28.95 57.59 28.92 57.23 28.9C56.88 28.88 56.5 28.88 56.1 28.88C55.7 28.87 55.26 28.86 54.79 28.86C54.58 28.86 54.32 28.87 54 28.88C53.69 28.88 53.38 28.89 53.01 28.92C52.68 28.95 52.33 28.98 51.96 29.02C51.59 29.08 51.24 29.14 50.89 29.22C50.98 28.93 51.07 28.57 51.11 28.15C51.16 27.71 51.18 27.25 51.19 26.77C51.21 26.29 51.2 25.8 51.18 25.29C51.16 24.79 51.13 24.32 51.1 23.89C51.08 23.46 51.04 23.08 51 22.77C50.98 22.45 50.95 22.23 50.94 22.11C50.93 22.08 50.93 21.98 50.9 21.81C50.89 21.64 50.86 21.43 50.82 21.16C50.78 20.89 50.74 20.58 50.68 20.23C50.64 19.88 50.57 19.51 50.51 19.14C50.45 18.76 50.38 18.39 50.3 18C50.23 17.61 50.14 17.26 50.05 16.92C49.97 16.57 49.88 16.26 49.79 15.99C49.71 15.72 49.62 15.5 49.51 15.33C50.13 15.42 50.74 15.48 51.34 15.53C51.92 15.57 52.5 15.58 53.05 15.58C53.72 15.58 54.34 15.57 54.93 15.53C55.51 15.49 56.01 15.45 56.45 15.4C56.95 15.35 57.4 15.28 57.82 15.2C57.93 16.68 58.05 18.15 58.17 19.62C57.79 19.28 57.44 19.02 57.1 18.84C56.76 18.66 56.47 18.52 56.2 18.43C55.91 18.33 55.62 18.28 55.36 18.26C55.07 18.26 54.81 18.3 54.62 18.39C54.45 18.46 54.31 18.56 54.22 18.69C54.13 18.81 54.07 18.94 54.04 19.1C54.03 19.25 54.01 19.41 54.03 19.57C54.05 19.73 54.08 19.89 54.15 20.05C54.21 20.22 54.3 20.36 54.4 20.49C54.52 20.63 54.65 20.74 54.81 20.83C54.97 20.91 55.16 20.95 55.36 20.95C55.55 20.95 55.71 20.91 55.84 20.83C55.97 20.74 56.08 20.64 56.18 20.53C56.29 20.42 56.4 20.28 56.47 20.12C56.59 21.4 56.7 22.68 56.81 23.95C56.7 23.72 56.56 23.53 56.43 23.39C56.3 23.25 56.16 23.15 56.03 23.09C55.89 23.02 55.78 22.98 55.69 22.96C55.59 22.95 55.51 22.94 55.48 22.94C55.09 22.94 54.82 23.06 54.65 23.31C54.48 23.57 54.42 23.89 54.45 24.28C54.48 24.58 54.53 24.82 54.61 25.02C54.69 25.22 54.79 25.39 54.91 25.51C55.02 25.63 55.15 25.73 55.3 25.78C55.44 25.84 55.6 25.87 55.75 25.87C55.98 25.87 56.23 25.81 56.5 25.7C56.75 25.59 57.01 25.43 57.24 25.25C57.48 25.06 57.7 24.85 57.88 24.61C58.08 24.36 58.23 24.11 58.33 23.86C58.63 25.61 58.92 27.37 59.21 29.13Z" fill="#F69C3B"/>
<path d="M70.67 29.33C70.24 29.3 69.86 29.28 69.5 29.27C69.16 29.26 68.83 29.26 68.52 29.26C67.96 29.26 67.5 29.27 67.12 29.31C66.74 29.34 66.44 29.37 66.2 29.41C65.93 29.46 65.71 29.5 65.55 29.57C65.55 29.36 65.56 29.18 65.58 29.01C65.6 28.82 65.6 28.65 65.6 28.47C65.6 28.29 65.61 28.11 65.59 27.94C65.59 27.77 65.59 27.58 65.58 27.39C65.52 26.69 65.46 26.11 65.36 25.64C65.29 25.17 65.18 24.78 65.07 24.47C64.94 24.16 64.81 23.92 64.65 23.72C64.5 23.52 64.33 23.35 64.15 23.21C64.16 23.48 64.18 23.76 64.19 24.02C64.21 24.29 64.22 24.56 64.25 24.86C64.26 25.16 64.29 25.46 64.33 25.78C64.36 26.08 64.41 26.42 64.46 26.78C64.51 27.13 64.59 27.51 64.68 27.91C64.77 28.31 64.87 28.74 65 29.19C64.76 29.17 64.5 29.16 64.22 29.13C63.98 29.12 63.69 29.1 63.36 29.08C63.02 29.07 62.66 29.06 62.27 29.06C61.88 29.05 61.46 29.06 61.02 29.08C60.58 29.1 60.12 29.13 59.65 29.18C59.77 29 59.88 28.75 59.97 28.45C60.08 28.15 60.15 27.82 60.22 27.46C60.29 27.09 60.33 26.71 60.36 26.32C60.39 25.93 60.43 25.53 60.44 25.15C60.48 24.25 60.48 23.3 60.44 22.28C60.39 21.74 60.35 21.2 60.29 20.63C60.23 20.07 60.15 19.51 60.06 18.94C59.97 18.38 59.86 17.82 59.72 17.28C59.58 16.73 59.41 16.21 59.22 15.72C59.48 15.74 59.74 15.75 59.99 15.79C60.23 15.8 60.48 15.8 60.73 15.8C61.92 15.8 63.08 15.68 64.2 15.42C64 16.24 63.87 17.05 63.81 17.85C63.76 18.65 63.75 19.45 63.82 20.24C63.83 20.43 63.84 20.63 63.86 20.83C63.88 21.01 63.91 21.21 63.94 21.4C64.39 20.73 64.74 20.06 64.96 19.41C65.18 18.75 65.27 18.11 65.22 17.49C65.2 17.16 65.15 16.85 65.05 16.55C64.97 16.24 64.83 15.93 64.66 15.63C64.96 15.66 65.26 15.7 65.55 15.71C65.86 15.73 66.14 15.73 66.44 15.73C66.95 15.73 67.46 15.7 67.97 15.66C68.46 15.6 68.98 15.53 69.49 15.42C69.4 15.58 69.32 15.76 69.26 15.95C69.18 16.13 69.13 16.32 69.07 16.52C69.01 16.71 68.96 16.91 68.92 17.12C68.89 17.32 68.86 17.51 68.83 17.69C68.77 18.13 68.72 18.57 68.7 19.01C68.67 19.45 68.59 19.86 68.48 20.26C68.42 20.43 68.36 20.6 68.28 20.79C68.2 20.97 68.1 21.14 67.99 21.31C67.86 21.47 67.74 21.63 67.59 21.78C67.45 21.92 67.27 22.05 67.08 22.16C67.52 22.34 67.86 22.56 68.1 22.83C68.35 23.1 68.55 23.41 68.7 23.76C68.84 24.1 68.94 24.47 69.04 24.88C69.11 25.28 69.22 25.71 69.31 26.15C69.41 26.52 69.54 26.9 69.67 27.28C69.78 27.6 69.92 27.94 70.08 28.31C70.25 28.69 70.45 29.02 70.67 29.33Z" fill="#F69C3B"/>
<path d="M80.42 22.7C80.55 23.65 80.58 24.55 80.5 25.39C80.41 26.22 80.19 26.96 79.85 27.58C79.5 28.21 79.01 28.69 78.39 29.06C77.78 29.42 77.01 29.6 76.12 29.6C75.23 29.6 74.44 29.42 73.74 29.06C73.06 28.69 72.47 28.21 71.99 27.58C71.52 26.96 71.13 26.22 70.85 25.39C70.57 24.55 70.38 23.65 70.3 22.7C70.24 21.99 70.24 21.31 70.3 20.66C70.37 20 70.5 19.39 70.67 18.83C70.83 18.27 71.05 17.75 71.31 17.29C71.58 16.82 71.87 16.42 72.21 16.1C72.55 15.76 72.91 15.51 73.3 15.32C73.7 15.14 74.1 15.05 74.53 15.05C75.26 15.05 75.94 15.25 76.58 15.63C77.22 16.02 77.79 16.55 78.31 17.24C78.82 17.93 79.26 18.73 79.62 19.66C79.99 20.59 80.26 21.6 80.42 22.7ZM76.64 21.89C76.58 21.41 76.49 20.97 76.37 20.58C76.25 20.18 76.11 19.83 75.95 19.55C75.81 19.25 75.63 19.02 75.45 18.86C75.27 18.69 75.08 18.6 74.9 18.6C74.74 18.6 74.57 18.71 74.44 18.91C74.3 19.1 74.18 19.35 74.09 19.67C74.01 19.98 73.96 20.33 73.92 20.73C73.88 21.11 73.89 21.5 73.92 21.89C73.97 22.26 74.03 22.6 74.14 22.92C74.23 23.24 74.35 23.51 74.49 23.74C74.63 23.97 74.78 24.15 74.96 24.29C75.14 24.42 75.35 24.49 75.55 24.49C75.77 24.49 75.95 24.42 76.1 24.29C76.27 24.15 76.39 23.97 76.47 23.74C76.57 23.51 76.62 23.24 76.66 22.92C76.68 22.6 76.67 22.26 76.64 21.89Z" fill="#F69C3B"/>
<path d="M93.34 29.16C92.92 29.13 92.52 29.1 92.17 29.09C91.81 29.09 91.48 29.08 91.18 29.08C90.59 29.08 90.09 29.09 89.7 29.13C89.31 29.16 88.99 29.2 88.76 29.24C88.46 29.29 88.24 29.33 88.07 29.4C88.06 29.19 88.05 29.02 88.05 28.85C88.03 28.68 88.02 28.52 88 28.35C87.99 28.19 87.97 28.03 87.95 27.87C87.93 27.71 87.91 27.54 87.87 27.37C87.74 26.68 87.59 26.1 87.45 25.64C87.32 25.18 87.16 24.8 87.01 24.49C86.85 24.19 86.68 23.94 86.51 23.75C86.33 23.56 86.15 23.39 85.95 23.24C85.99 23.52 86.03 23.79 86.08 24.06C86.12 24.32 86.16 24.6 86.21 24.9C86.28 25.19 86.34 25.49 86.41 25.8C86.48 26.11 86.56 26.45 86.66 26.8C86.76 27.15 86.87 27.53 87.02 27.93C87.15 28.33 87.31 28.75 87.49 29.23C87.47 29.19 87.39 29.17 87.23 29.14C87.06 29.11 86.85 29.08 86.58 29.06C86.31 29.02 85.99 29.01 85.65 28.99C85.3 28.98 84.95 28.97 84.58 28.97C84.09 28.97 83.61 28.99 83.13 29.02C82.66 29.06 82.23 29.13 81.86 29.23C81.98 29.02 82.07 28.79 82.15 28.48C82.24 28.18 82.3 27.86 82.32 27.5C82.37 27.14 82.39 26.76 82.38 26.37C82.39 25.97 82.39 25.58 82.39 25.2C82.34 24.3 82.27 23.34 82.15 22.33C82.11 22.07 82.06 21.75 82 21.38C81.95 20.99 81.87 20.57 81.79 20.12C81.71 19.67 81.62 19.21 81.51 18.73C81.41 18.25 81.28 17.79 81.15 17.35C81.01 16.91 80.86 16.51 80.7 16.14C80.53 15.78 80.34 15.49 80.13 15.27C80.56 15.34 80.96 15.39 81.35 15.41C81.74 15.43 82.07 15.44 82.34 15.44C82.58 15.44 82.79 15.43 82.99 15.42C83.19 15.41 83.39 15.39 83.59 15.38C83.78 15.37 83.99 15.36 84.2 15.34C84.42 15.33 84.65 15.32 84.91 15.32C85.28 15.32 85.63 15.35 86 15.39C86.36 15.43 86.73 15.5 87.08 15.61C87.43 15.71 87.77 15.85 88.08 16.03C88.41 16.2 88.71 16.44 88.97 16.71C89.25 16.98 89.48 17.31 89.69 17.69C89.9 18.07 90.06 18.52 90.17 19.03C90.23 19.31 90.27 19.59 90.25 19.88C90.26 20.16 90.2 20.43 90.12 20.71C90.02 20.98 89.87 21.24 89.68 21.5C89.48 21.74 89.24 21.97 88.93 22.17C89.38 22.36 89.76 22.58 90.03 22.85C90.31 23.12 90.54 23.43 90.72 23.78C90.89 24.12 91.02 24.5 91.13 24.9C91.23 25.31 91.33 25.73 91.44 26.17C91.57 26.64 91.73 27.08 91.92 27.48C91.99 27.65 92.08 27.82 92.18 28C92.28 28.18 92.39 28.34 92.51 28.48C92.62 28.64 92.75 28.77 92.89 28.89C93.03 29.01 93.18 29.1 93.34 29.16ZM85.55 21.04C85.65 20.94 85.78 20.8 85.92 20.66C86.05 20.5 86.17 20.33 86.26 20.15C86.37 19.96 86.45 19.76 86.51 19.55C86.56 19.35 86.57 19.14 86.53 18.94C86.49 18.74 86.4 18.57 86.27 18.44C86.14 18.32 86.01 18.26 85.88 18.26C85.69 18.26 85.56 18.35 85.48 18.54C85.41 18.72 85.37 18.94 85.34 19.19C85.34 19.44 85.33 19.69 85.36 19.95C85.38 20.2 85.41 20.4 85.44 20.53C85.45 20.61 85.47 20.69 85.48 20.78C85.5 20.86 85.52 20.94 85.55 21.04Z" fill="#F69C3B"/>
<path d="M101.12 28.97C100.97 28.96 100.8 28.94 100.61 28.93C100.45 28.92 100.25 28.91 100.03 28.9C99.8 28.89 99.55 28.89 99.27 28.89C98.81 28.89 98.29 28.91 97.71 28.95C97.14 28.98 96.54 29.04 95.92 29.14C95.9 28.21 95.82 27.31 95.72 26.45C95.6 25.59 95.48 24.83 95.37 24.15C95.22 23.37 95.06 22.63 94.9 21.94C94.82 21.65 94.72 21.32 94.62 20.97C94.53 20.67 94.43 20.32 94.32 19.92C94.19 19.52 94.06 19.09 93.9 18.62C93.71 18.91 93.51 19.21 93.32 19.54C93.13 19.86 92.96 20.19 92.79 20.54C92.62 20.89 92.46 21.24 92.33 21.6C92.19 21.95 92.08 22.31 91.99 22.66C91.49 20.25 91.02 17.85 90.55 15.46C91.09 15.53 91.66 15.58 92.25 15.62C92.86 15.66 93.46 15.67 94.08 15.67C94.96 15.67 95.81 15.64 96.65 15.57C97.5 15.5 98.26 15.4 98.94 15.27C99.78 17.69 100.62 20.12 101.5 22.54C100.8 21.68 100.07 20.87 99.34 20.12C98.6 19.36 97.87 18.73 97.16 18.22C97.23 18.64 97.32 19.09 97.44 19.56C97.55 20.03 97.67 20.5 97.81 21C98 21.63 98.21 22.29 98.44 22.96C98.67 23.62 98.92 24.29 99.2 24.97C99.48 25.65 99.77 26.32 100.09 26.99C100.42 27.67 100.76 28.33 101.12 28.97Z" fill="#F69C3B"/>
<path d="M103.27 27.5C103.19 27.23 103.16 26.97 103.16 26.73C103.2 26.49 103.27 26.28 103.38 26.09C103.5 25.91 103.66 25.77 103.87 25.67C104.06 25.57 104.3 25.51 104.57 25.51C104.83 25.51 105.1 25.57 105.36 25.67C105.64 25.77 105.9 25.91 106.14 26.09C106.38 26.28 106.6 26.49 106.78 26.73C106.97 26.97 107.1 27.23 107.2 27.5C107.3 27.77 107.34 28.04 107.32 28.28C107.3 28.52 107.24 28.73 107.11 28.91C106.99 29.09 106.83 29.23 106.62 29.33C106.41 29.43 106.18 29.49 105.91 29.49C105.63 29.49 105.35 29.43 105.07 29.33C104.8 29.23 104.54 29.09 104.3 28.91C104.06 28.73 103.86 28.52 103.67 28.28C103.49 28.04 103.36 27.77 103.27 27.5Z" fill="#3A6C89"/>
</g>
<defs>
<filter id="filter0_d_893_44" x="0" y="0" width="123.56" height="51.9818" filterUnits="userSpaceOnUse" color-interpolation-filters="sRGB">
<feFlood flood-opacity="0" result="BackgroundImageFix"/>
<feColorMatrix in="SourceAlpha" type="matrix" values="0 0 0 0 0 0 0 0 0 0 0 0 0 0 0 0 0 0 127 0" result="hardAlpha"/>
<feOffset dy="2"/>
<feGaussianBlur stdDeviation="3"/>
<feComposite in2="hardAlpha" operator="out"/>
<feColorMatrix type="matrix" values="0 0 0 0 0 0 0 0 0 0 0 0 0 0 0 0 0 0 0.25 0"/>
<feBlend mode="normal" in2="BackgroundImageFix" result="effect1_dropShadow_893_44"/>
<feBlend mode="normal" in="SourceGraphic" in2="effect1_dropShadow_893_44" result="shape"/>
</filter>
<filter id="filter1_d_893_44" x="3" y="2" width="119.56" height="47.9818" filterUnits="userSpaceOnUse" color-interpolation-filters="sRGB">
<feFlood flood-opacity="0" result="BackgroundImageFix"/>
<feColorMatrix in="SourceAlpha" type="matrix" values="0 0 0 0 0 0 0 0 0 0 0 0 0 0 0 0 0 0 127 0" result="hardAlpha"/>
<feOffset dy="4"/>
<feGaussianBlur stdDeviation="2"/>
<feComposite in2="hardAlpha" operator="out"/>
<feColorMatrix type="matrix" values="0 0 0 0 0 0 0 0 0 0 0 0 0 0 0 0 0 0 0.25 0"/>
<feBlend mode="normal" in2="BackgroundImageFix" result="effect1_dropShadow_893_44"/>
<feBlend mode="normal" in="SourceGraphic" in2="effect1_dropShadow_893_44" result="shape"/>
</filter>
</defs>
</svg>
