<svg width="1280" height="443" viewBox="0 0 1280 443" fill="none" xmlns="http://www.w3.org/2000/svg">
<mask id="path-1-inside-1_477_651" fill="white">
<path d="M-24 1.10722e-06H31.375V55.375H-24V1.10722e-06Z"/>
<path d="M31.375 1.10722e-06L86.75 -6.02047e-05V55.3749L31.375 55.375V1.10722e-06Z"/>
<path d="M-24 55.375H31.375V110.75H-24L-24 55.375Z"/>
<path d="M31.375 55.375L86.75 55.3749V110.75H31.375V55.375Z"/>
<path d="M86.75 -6.02047e-05L142.125 1.10722e-06V55.375L86.75 55.3749V-6.02047e-05Z"/>
<path d="M142.125 1.10722e-06L197.5 8.30412e-07V55.375H142.125V1.10722e-06Z"/>
<path d="M86.75 55.3749L142.125 55.375V110.75L86.75 110.75V55.3749Z"/>
<path d="M142.125 55.375H197.5V110.75L142.125 110.75V55.375Z"/>
<path d="M-24 110.75H31.375V166.125H-24V110.75Z"/>
<path d="M31.375 110.75H86.75V166.125L31.375 166.125V110.75Z"/>
<path d="M-24 166.125H31.375V221.5H-24L-24 166.125Z"/>
<path d="M31.375 166.125L86.75 166.125V221.5H31.375V166.125Z"/>
<path d="M86.75 110.75L142.125 110.75V166.125L86.75 166.125V110.75Z"/>
<path d="M142.125 110.75L197.5 110.75V166.125H142.125V110.75Z"/>
<path d="M86.75 166.125L142.125 166.125V221.5H86.75V166.125Z"/>
<path d="M142.125 166.125H197.5V221.5L142.125 221.5V166.125Z"/>
<path d="M197.5 8.30412e-07L252.875 -6.02047e-05V55.3749L197.5 55.375V8.30412e-07Z"/>
<path d="M252.875 -6.02047e-05H308.25V55.3749H252.875V-6.02047e-05Z"/>
<path d="M197.5 55.375L252.875 55.3749V110.75L197.5 110.75V55.375Z"/>
<path d="M252.875 55.3749H308.25V110.75H252.875V55.3749Z"/>
<path d="M308.25 -6.02047e-05L363.625 -6.04815e-05V55.3749H308.25V-6.02047e-05Z"/>
<path d="M363.625 -6.04815e-05L419 -6.07584e-05V55.3749H363.625V-6.04815e-05Z"/>
<path d="M308.25 55.3749H363.625V110.75L308.25 110.75V55.3749Z"/>
<path d="M363.625 55.3749H419V110.75H363.625V55.3749Z"/>
<path d="M197.5 110.75L252.875 110.75V166.125L197.5 166.125V110.75Z"/>
<path d="M252.875 110.75H308.25V166.125H252.875V110.75Z"/>
<path d="M197.5 166.125L252.875 166.125V221.5L197.5 221.5V166.125Z"/>
<path d="M252.875 166.125H308.25V221.5L252.875 221.5V166.125Z"/>
<path d="M308.25 110.75L363.625 110.75V166.125L308.25 166.125V110.75Z"/>
<path d="M363.625 110.75H419V166.125L363.625 166.125V110.75Z"/>
<path d="M308.25 166.125L363.625 166.125V221.5L308.25 221.5V166.125Z"/>
<path d="M363.625 166.125L419 166.125V221.5H363.625V166.125Z"/>
<path d="M419 -6.07584e-05L474.375 1.10722e-06V55.375L419 55.3749V-6.07584e-05Z"/>
<path d="M474.375 1.10722e-06H529.75V55.375H474.375V1.10722e-06Z"/>
<path d="M419 55.3749L474.375 55.375V110.75L419 110.75V55.3749Z"/>
<path d="M474.375 55.375H529.75V110.75L474.375 110.75V55.375Z"/>
<path d="M529.75 1.10722e-06H585.125V55.375H529.75V1.10722e-06Z"/>
<path d="M585.125 1.10722e-06H640.5V55.375H585.125V1.10722e-06Z"/>
<path d="M529.75 55.375H585.125V110.75L529.75 110.75V55.375Z"/>
<path d="M585.125 55.375H640.5V110.75L585.125 110.75V55.375Z"/>
<path d="M419 110.75L474.375 110.75V166.125L419 166.125V110.75Z"/>
<path d="M474.375 110.75L529.75 110.75V166.125L474.375 166.125V110.75Z"/>
<path d="M419 166.125L474.375 166.125V221.5H419V166.125Z"/>
<path d="M474.375 166.125L529.75 166.125V221.5L474.375 221.5V166.125Z"/>
<path d="M529.75 110.75L585.125 110.75V166.125L529.75 166.125V110.75Z"/>
<path d="M585.125 110.75L640.5 110.75V166.125H585.125V110.75Z"/>
<path d="M529.75 166.125L585.125 166.125V221.5L529.75 221.5V166.125Z"/>
<path d="M585.125 166.125H640.5V221.5L585.125 221.5V166.125Z"/>
<path d="M640.5 1.10722e-06L695.875 -6.02047e-05V55.3749L640.5 55.375V1.10722e-06Z"/>
<path d="M695.875 -6.02047e-05L751.25 -6.04815e-05V55.3749H695.875V-6.02047e-05Z"/>
<path d="M640.5 55.375L695.875 55.3749V110.75H640.5V55.375Z"/>
<path d="M695.875 55.3749H751.25V110.75L695.875 110.75V55.3749Z"/>
<path d="M751.25 -6.04815e-05H806.625V55.3749H751.25V-6.04815e-05Z"/>
<path d="M806.625 -6.04815e-05L862 -6.07584e-05V55.3749H806.625V-6.04815e-05Z"/>
<path d="M751.25 55.3749H806.625V110.75L751.25 110.75V55.3749Z"/>
<path d="M806.625 55.3749H862V110.75L806.625 110.75V55.3749Z"/>
<path d="M640.5 110.75H695.875V166.125H640.5V110.75Z"/>
<path d="M695.875 110.75L751.25 110.75V166.125H695.875V110.75Z"/>
<path d="M640.5 166.125H695.875V221.5L640.5 221.5V166.125Z"/>
<path d="M695.875 166.125H751.25V221.5L695.875 221.5V166.125Z"/>
<path d="M751.25 110.75L806.625 110.75V166.125L751.25 166.125V110.75Z"/>
<path d="M806.625 110.75L862 110.75V166.125L806.625 166.125V110.75Z"/>
<path d="M751.25 166.125L806.625 166.125V221.5L751.25 221.5V166.125Z"/>
<path d="M806.625 166.125L862 166.125V221.5L806.625 221.5V166.125Z"/>
<path d="M862 -6.07584e-05L917.375 -6.04815e-05V55.3749H862V-6.07584e-05Z"/>
<path d="M917.375 -6.04815e-05L972.75 -6.07584e-05V55.3749H917.375V-6.04815e-05Z"/>
<path d="M862 55.3749H917.375V110.75L862 110.75V55.3749Z"/>
<path d="M917.375 55.3749H972.75V110.75L917.375 110.75V55.3749Z"/>
<path d="M972.75 -6.07584e-05H1028.12V55.3749H972.75V-6.07584e-05Z"/>
<path d="M1028.12 -6.07584e-05L1083.5 -6.10352e-05V55.3749H1028.12V-6.07584e-05Z"/>
<path d="M972.75 55.3749H1028.12V110.75L972.75 110.75V55.3749Z"/>
<path d="M1028.12 55.3749H1083.5V110.75L1028.12 110.75V55.3749Z"/>
<path d="M862 110.75L917.375 110.75V166.125L862 166.125V110.75Z"/>
<path d="M917.375 110.75L972.75 110.75V166.125H917.375V110.75Z"/>
<path d="M862 166.125L917.375 166.125V221.5H862V166.125Z"/>
<path d="M917.375 166.125H972.75V221.5L917.375 221.5V166.125Z"/>
<path d="M972.75 110.75L1028.12 110.75V166.125H972.75V110.75Z"/>
<path d="M1028.12 110.75L1083.5 110.75V166.125H1028.12V110.75Z"/>
<path d="M972.75 166.125H1028.12V221.5L972.75 221.5V166.125Z"/>
<path d="M1028.12 166.125H1083.5V221.5L1028.12 221.5V166.125Z"/>
<path d="M1083.5 -6.10352e-05L1138.88 -6.04815e-05V55.3749H1083.5V-6.10352e-05Z"/>
<path d="M1138.88 -6.04815e-05L1194.25 -6.07584e-05V55.3749H1138.88V-6.04815e-05Z"/>
<path d="M1083.5 55.3749H1138.88V110.75L1083.5 110.75V55.3749Z"/>
<path d="M1138.88 55.3749H1194.25V110.75L1138.88 110.75V55.3749Z"/>
<path d="M1194.25 -6.07584e-05H1249.62V55.3749H1194.25V-6.07584e-05Z"/>
<path d="M1249.62 -6.07584e-05L1305 -6.10352e-05V55.3749H1249.62V-6.07584e-05Z"/>
<path d="M1194.25 55.3749H1249.62V110.75L1194.25 110.75V55.3749Z"/>
<path d="M1249.62 55.3749H1305V110.75L1249.62 110.75V55.3749Z"/>
<path d="M1083.5 110.75L1138.88 110.75V166.125H1083.5V110.75Z"/>
<path d="M1138.88 110.75L1194.25 110.75V166.125L1138.88 166.125V110.75Z"/>
<path d="M1083.5 166.125H1138.88V221.5L1083.5 221.5V166.125Z"/>
<path d="M1138.88 166.125L1194.25 166.125V221.5L1138.88 221.5V166.125Z"/>
<path d="M1194.25 110.75L1249.62 110.75V166.125H1194.25V110.75Z"/>
<path d="M1249.62 110.75L1305 110.75V166.125H1249.62V110.75Z"/>
<path d="M1194.25 166.125H1249.62V221.5L1194.25 221.5V166.125Z"/>
<path d="M1249.62 166.125H1305V221.5L1249.62 221.5V166.125Z"/>
<path d="M-24 221.5H31.375V276.875H-24L-24 221.5Z"/>
<path d="M31.375 221.5H86.75V276.875L31.375 276.875V221.5Z"/>
<path d="M-24 276.875H31.375V332.25H-24L-24 276.875Z"/>
<path d="M31.375 276.875L86.75 276.875V332.25H31.375V276.875Z"/>
<path d="M86.75 221.5H142.125V276.875L86.75 276.875V221.5Z"/>
<path d="M142.125 221.5L197.5 221.5V276.875H142.125V221.5Z"/>
<path d="M86.75 276.875L142.125 276.875V332.25L86.75 332.25V276.875Z"/>
<path d="M142.125 276.875H197.5V332.25L142.125 332.25V276.875Z"/>
<path d="M-24 332.25H31.375V387.625H-24V332.25Z"/>
<path d="M31.375 332.25H86.75V387.625L31.375 387.625V332.25Z"/>
<path d="M-24 387.625H31.375V443H-24L-24 387.625Z"/>
<path d="M31.375 387.625L86.75 387.625V443H31.375V387.625Z"/>
<path d="M86.75 332.25L142.125 332.25V387.625L86.75 387.625V332.25Z"/>
<path d="M142.125 332.25L197.5 332.25V387.625H142.125V332.25Z"/>
<path d="M86.75 387.625L142.125 387.625V443L86.75 443V387.625Z"/>
<path d="M142.125 387.625H197.5V443L142.125 443V387.625Z"/>
<path d="M197.5 221.5L252.875 221.5V276.875L197.5 276.875V221.5Z"/>
<path d="M252.875 221.5L308.25 221.5V276.875H252.875V221.5Z"/>
<path d="M197.5 276.875L252.875 276.875V332.25L197.5 332.25V276.875Z"/>
<path d="M252.875 276.875H308.25V332.25H252.875V276.875Z"/>
<path d="M308.25 221.5L363.625 221.5V276.875H308.25V221.5Z"/>
<path d="M363.625 221.5H419V276.875H363.625V221.5Z"/>
<path d="M308.25 276.875H363.625V332.25L308.25 332.25V276.875Z"/>
<path d="M363.625 276.875H419V332.25H363.625V276.875Z"/>
<path d="M197.5 332.25L252.875 332.25V387.625L197.5 387.625V332.25Z"/>
<path d="M252.875 332.25H308.25V387.625H252.875V332.25Z"/>
<path d="M197.5 387.625L252.875 387.625V443L197.5 443V387.625Z"/>
<path d="M252.875 387.625H308.25V443L252.875 443V387.625Z"/>
<path d="M308.25 332.25L363.625 332.25V387.625H308.25V332.25Z"/>
<path d="M363.625 332.25H419V387.625L363.625 387.625V332.25Z"/>
<path d="M308.25 387.625H363.625V443L308.25 443V387.625Z"/>
<path d="M363.625 387.625L419 387.625V443H363.625V387.625Z"/>
<path d="M419 221.5H474.375V276.875H419V221.5Z"/>
<path d="M474.375 221.5L529.75 221.5V276.875H474.375V221.5Z"/>
<path d="M419 276.875H474.375V332.25H419V276.875Z"/>
<path d="M474.375 276.875H529.75V332.25L474.375 332.25V276.875Z"/>
<path d="M529.75 221.5L585.125 221.5V276.875H529.75V221.5Z"/>
<path d="M585.125 221.5L640.5 221.5V276.875H585.125V221.5Z"/>
<path d="M529.75 276.875H585.125V332.25L529.75 332.25V276.875Z"/>
<path d="M585.125 276.875H640.5V332.25L585.125 332.25V276.875Z"/>
<path d="M419 332.25H474.375V387.625L419 387.625V332.25Z"/>
<path d="M474.375 332.25L529.75 332.25V387.625L474.375 387.625V332.25Z"/>
<path d="M419 387.625L474.375 387.625V443H419V387.625Z"/>
<path d="M474.375 387.625L529.75 387.625V443H474.375V387.625Z"/>
<path d="M529.75 332.25L585.125 332.25V387.625L529.75 387.625V332.25Z"/>
<path d="M585.125 332.25L640.5 332.25V387.625H585.125V332.25Z"/>
<path d="M529.75 387.625L585.125 387.625V443H529.75V387.625Z"/>
<path d="M585.125 387.625H640.5V443L585.125 443V387.625Z"/>
<path d="M640.5 221.5L695.875 221.5V276.875L640.5 276.875V221.5Z"/>
<path d="M695.875 221.5L751.25 221.5V276.875L695.875 276.875V221.5Z"/>
<path d="M640.5 276.875L695.875 276.875V332.25L640.5 332.25V276.875Z"/>
<path d="M695.875 276.875L751.25 276.875V332.25L695.875 332.25V276.875Z"/>
<path d="M751.25 221.5L806.625 221.5V276.875H751.25V221.5Z"/>
<path d="M806.625 221.5L862 221.5V276.875H806.625V221.5Z"/>
<path d="M751.25 276.875H806.625V332.25L751.25 332.25V276.875Z"/>
<path d="M806.625 276.875H862V332.25L806.625 332.25V276.875Z"/>
<path d="M640.5 332.25L695.875 332.25V387.625H640.5V332.25Z"/>
<path d="M695.875 332.25L751.25 332.25V387.625H695.875V332.25Z"/>
<path d="M640.5 387.625H695.875V443L640.5 443V387.625Z"/>
<path d="M695.875 387.625H751.25V443L695.875 443V387.625Z"/>
<path d="M751.25 332.25L806.625 332.25V387.625H751.25V332.25Z"/>
<path d="M806.625 332.25L862 332.25V387.625L806.625 387.625V332.25Z"/>
<path d="M751.25 387.625H806.625V443L751.25 443V387.625Z"/>
<path d="M806.625 387.625L862 387.625V443H806.625V387.625Z"/>
<path d="M862 221.5H917.375V276.875H862V221.5Z"/>
<path d="M917.375 221.5L972.75 221.5V276.875H917.375V221.5Z"/>
<path d="M862 276.875H917.375V332.25L862 332.25V276.875Z"/>
<path d="M917.375 276.875H972.75V332.25L917.375 332.25V276.875Z"/>
<path d="M972.75 221.5L1028.12 221.5V276.875H972.75V221.5Z"/>
<path d="M1028.12 221.5L1083.5 221.5V276.875H1028.12V221.5Z"/>
<path d="M972.75 276.875H1028.12V332.25L972.75 332.25V276.875Z"/>
<path d="M1028.12 276.875H1083.5V332.25L1028.12 332.25V276.875Z"/>
<path d="M862 332.25L917.375 332.25V387.625L862 387.625V332.25Z"/>
<path d="M917.375 332.25L972.75 332.25V387.625H917.375V332.25Z"/>
<path d="M862 387.625L917.375 387.625V443H862V387.625Z"/>
<path d="M917.375 387.625H972.75V443L917.375 443V387.625Z"/>
<path d="M972.75 332.25L1028.12 332.25V387.625H972.75V332.25Z"/>
<path d="M1028.12 332.25L1083.5 332.25V387.625H1028.12V332.25Z"/>
<path d="M972.75 387.625H1028.12V443H972.75V387.625Z"/>
<path d="M1028.12 387.625H1083.5V443H1028.12V387.625Z"/>
<path d="M1083.5 221.5L1138.88 221.5V276.875H1083.5V221.5Z"/>
<path d="M1138.88 221.5L1194.25 221.5V276.875H1138.88V221.5Z"/>
<path d="M1083.5 276.875H1138.88V332.25L1083.5 332.25V276.875Z"/>
<path d="M1138.88 276.875H1194.25V332.25L1138.88 332.25V276.875Z"/>
<path d="M1194.25 221.5L1249.62 221.5V276.875H1194.25V221.5Z"/>
<path d="M1249.62 221.5L1305 221.5V276.875H1249.62V221.5Z"/>
<path d="M1194.25 276.875H1249.62V332.25L1194.25 332.25V276.875Z"/>
<path d="M1249.62 276.875H1305V332.25L1249.62 332.25V276.875Z"/>
<path d="M1083.5 332.25L1138.88 332.25V387.625H1083.5V332.25Z"/>
<path d="M1138.88 332.25L1194.25 332.25V387.625L1138.88 387.625V332.25Z"/>
<path d="M1083.5 387.625H1138.88V443L1083.5 443V387.625Z"/>
<path d="M1138.88 387.625L1194.25 387.625V443H1138.88V387.625Z"/>
<path d="M1194.25 332.25L1249.62 332.25V387.625L1194.25 387.625V332.25Z"/>
<path d="M1249.62 332.25L1305 332.25V387.625H1249.62V332.25Z"/>
<path d="M1194.25 387.625L1249.62 387.625V443H1194.25V387.625Z"/>
<path d="M1249.62 387.625H1305V443L1249.62 443V387.625Z"/>
</mask>
<path d="M-24 1.10722e-06H31.375V55.375H-24V1.10722e-06Z" fill="white"/>
<path d="M31.375 1.10722e-06L86.75 -6.02047e-05V55.3749L31.375 55.375V1.10722e-06Z" fill="white"/>
<path d="M-24 55.375H31.375V110.75H-24L-24 55.375Z" fill="white"/>
<path d="M31.375 55.375L86.75 55.3749V110.75H31.375V55.375Z" fill="white"/>
<path d="M86.75 -6.02047e-05L142.125 1.10722e-06V55.375L86.75 55.3749V-6.02047e-05Z" fill="white"/>
<path d="M142.125 1.10722e-06L197.5 8.30412e-07V55.375H142.125V1.10722e-06Z" fill="white"/>
<path d="M86.75 55.3749L142.125 55.375V110.75L86.75 110.75V55.3749Z" fill="white"/>
<path d="M142.125 55.375H197.5V110.75L142.125 110.75V55.375Z" fill="white"/>
<path d="M-24 110.75H31.375V166.125H-24V110.75Z" fill="white"/>
<path d="M31.375 110.75H86.75V166.125L31.375 166.125V110.75Z" fill="white"/>
<path d="M-24 166.125H31.375V221.5H-24L-24 166.125Z" fill="white"/>
<path d="M31.375 166.125L86.75 166.125V221.5H31.375V166.125Z" fill="white"/>
<path d="M86.75 110.75L142.125 110.75V166.125L86.75 166.125V110.75Z" fill="white"/>
<path d="M142.125 110.75L197.5 110.75V166.125H142.125V110.75Z" fill="white"/>
<path d="M86.75 166.125L142.125 166.125V221.5H86.75V166.125Z" fill="white"/>
<path d="M142.125 166.125H197.5V221.5L142.125 221.5V166.125Z" fill="white"/>
<path d="M197.5 8.30412e-07L252.875 -6.02047e-05V55.3749L197.5 55.375V8.30412e-07Z" fill="white"/>
<path d="M252.875 -6.02047e-05H308.25V55.3749H252.875V-6.02047e-05Z" fill="white"/>
<path d="M197.5 55.375L252.875 55.3749V110.75L197.5 110.75V55.375Z" fill="white"/>
<path d="M252.875 55.3749H308.25V110.75H252.875V55.3749Z" fill="white"/>
<path d="M308.25 -6.02047e-05L363.625 -6.04815e-05V55.3749H308.25V-6.02047e-05Z" fill="white"/>
<path d="M363.625 -6.04815e-05L419 -6.07584e-05V55.3749H363.625V-6.04815e-05Z" fill="white"/>
<path d="M308.25 55.3749H363.625V110.75L308.25 110.75V55.3749Z" fill="white"/>
<path d="M363.625 55.3749H419V110.75H363.625V55.3749Z" fill="white"/>
<path d="M197.5 110.75L252.875 110.75V166.125L197.5 166.125V110.75Z" fill="white"/>
<path d="M252.875 110.75H308.25V166.125H252.875V110.75Z" fill="white"/>
<path d="M197.5 166.125L252.875 166.125V221.5L197.5 221.5V166.125Z" fill="white"/>
<path d="M252.875 166.125H308.25V221.5L252.875 221.5V166.125Z" fill="white"/>
<path d="M308.25 110.75L363.625 110.75V166.125L308.25 166.125V110.75Z" fill="white"/>
<path d="M363.625 110.75H419V166.125L363.625 166.125V110.75Z" fill="white"/>
<path d="M308.25 166.125L363.625 166.125V221.5L308.25 221.5V166.125Z" fill="white"/>
<path d="M363.625 166.125L419 166.125V221.5H363.625V166.125Z" fill="white"/>
<path d="M419 -6.07584e-05L474.375 1.10722e-06V55.375L419 55.3749V-6.07584e-05Z" fill="white"/>
<path d="M474.375 1.10722e-06H529.75V55.375H474.375V1.10722e-06Z" fill="white"/>
<path d="M419 55.3749L474.375 55.375V110.75L419 110.75V55.3749Z" fill="white"/>
<path d="M474.375 55.375H529.75V110.75L474.375 110.75V55.375Z" fill="white"/>
<path d="M529.75 1.10722e-06H585.125V55.375H529.75V1.10722e-06Z" fill="white"/>
<path d="M585.125 1.10722e-06H640.5V55.375H585.125V1.10722e-06Z" fill="white"/>
<path d="M529.75 55.375H585.125V110.75L529.75 110.75V55.375Z" fill="white"/>
<path d="M585.125 55.375H640.5V110.75L585.125 110.75V55.375Z" fill="white"/>
<path d="M419 110.75L474.375 110.75V166.125L419 166.125V110.75Z" fill="white"/>
<path d="M474.375 110.75L529.75 110.75V166.125L474.375 166.125V110.75Z" fill="white"/>
<path d="M419 166.125L474.375 166.125V221.5H419V166.125Z" fill="white"/>
<path d="M474.375 166.125L529.75 166.125V221.5L474.375 221.5V166.125Z" fill="white"/>
<path d="M529.75 110.75L585.125 110.75V166.125L529.75 166.125V110.75Z" fill="white"/>
<path d="M585.125 110.75L640.5 110.75V166.125H585.125V110.75Z" fill="white"/>
<path d="M529.75 166.125L585.125 166.125V221.5L529.75 221.5V166.125Z" fill="white"/>
<path d="M585.125 166.125H640.5V221.5L585.125 221.5V166.125Z" fill="white"/>
<path d="M640.5 1.10722e-06L695.875 -6.02047e-05V55.3749L640.5 55.375V1.10722e-06Z" fill="white"/>
<path d="M695.875 -6.02047e-05L751.25 -6.04815e-05V55.3749H695.875V-6.02047e-05Z" fill="white"/>
<path d="M640.5 55.375L695.875 55.3749V110.75H640.5V55.375Z" fill="white"/>
<path d="M695.875 55.3749H751.25V110.75L695.875 110.75V55.3749Z" fill="white"/>
<path d="M751.25 -6.04815e-05H806.625V55.3749H751.25V-6.04815e-05Z" fill="white"/>
<path d="M806.625 -6.04815e-05L862 -6.07584e-05V55.3749H806.625V-6.04815e-05Z" fill="white"/>
<path d="M751.25 55.3749H806.625V110.75L751.25 110.75V55.3749Z" fill="white"/>
<path d="M806.625 55.3749H862V110.75L806.625 110.75V55.3749Z" fill="white"/>
<path d="M640.5 110.75H695.875V166.125H640.5V110.75Z" fill="white"/>
<path d="M695.875 110.75L751.25 110.75V166.125H695.875V110.75Z" fill="white"/>
<path d="M640.5 166.125H695.875V221.5L640.5 221.5V166.125Z" fill="white"/>
<path d="M695.875 166.125H751.25V221.5L695.875 221.5V166.125Z" fill="white"/>
<path d="M751.25 110.75L806.625 110.75V166.125L751.25 166.125V110.75Z" fill="white"/>
<path d="M806.625 110.75L862 110.75V166.125L806.625 166.125V110.75Z" fill="white"/>
<path d="M751.25 166.125L806.625 166.125V221.5L751.25 221.5V166.125Z" fill="white"/>
<path d="M806.625 166.125L862 166.125V221.5L806.625 221.5V166.125Z" fill="white"/>
<path d="M862 -6.07584e-05L917.375 -6.04815e-05V55.3749H862V-6.07584e-05Z" fill="white"/>
<path d="M917.375 -6.04815e-05L972.75 -6.07584e-05V55.3749H917.375V-6.04815e-05Z" fill="white"/>
<path d="M862 55.3749H917.375V110.75L862 110.75V55.3749Z" fill="white"/>
<path d="M917.375 55.3749H972.75V110.75L917.375 110.75V55.3749Z" fill="white"/>
<path d="M972.75 -6.07584e-05H1028.12V55.3749H972.75V-6.07584e-05Z" fill="white"/>
<path d="M1028.12 -6.07584e-05L1083.5 -6.10352e-05V55.3749H1028.12V-6.07584e-05Z" fill="white"/>
<path d="M972.75 55.3749H1028.12V110.75L972.75 110.75V55.3749Z" fill="white"/>
<path d="M1028.12 55.3749H1083.5V110.75L1028.12 110.75V55.3749Z" fill="white"/>
<path d="M862 110.75L917.375 110.75V166.125L862 166.125V110.75Z" fill="white"/>
<path d="M917.375 110.75L972.75 110.75V166.125H917.375V110.75Z" fill="white"/>
<path d="M862 166.125L917.375 166.125V221.5H862V166.125Z" fill="white"/>
<path d="M917.375 166.125H972.75V221.5L917.375 221.5V166.125Z" fill="white"/>
<path d="M972.75 110.75L1028.12 110.75V166.125H972.75V110.75Z" fill="white"/>
<path d="M1028.12 110.75L1083.5 110.75V166.125H1028.12V110.75Z" fill="white"/>
<path d="M972.75 166.125H1028.12V221.5L972.75 221.5V166.125Z" fill="white"/>
<path d="M1028.12 166.125H1083.5V221.5L1028.12 221.5V166.125Z" fill="white"/>
<path d="M1083.5 -6.10352e-05L1138.88 -6.04815e-05V55.3749H1083.5V-6.10352e-05Z" fill="white"/>
<path d="M1138.88 -6.04815e-05L1194.25 -6.07584e-05V55.3749H1138.88V-6.04815e-05Z" fill="white"/>
<path d="M1083.5 55.3749H1138.88V110.75L1083.5 110.75V55.3749Z" fill="white"/>
<path d="M1138.88 55.3749H1194.25V110.75L1138.88 110.75V55.3749Z" fill="white"/>
<path d="M1194.25 -6.07584e-05H1249.62V55.3749H1194.25V-6.07584e-05Z" fill="white"/>
<path d="M1249.62 -6.07584e-05L1305 -6.10352e-05V55.3749H1249.62V-6.07584e-05Z" fill="white"/>
<path d="M1194.25 55.3749H1249.62V110.75L1194.25 110.75V55.3749Z" fill="white"/>
<path d="M1249.62 55.3749H1305V110.75L1249.62 110.75V55.3749Z" fill="white"/>
<path d="M1083.5 110.75L1138.88 110.75V166.125H1083.5V110.75Z" fill="white"/>
<path d="M1138.88 110.75L1194.25 110.75V166.125L1138.88 166.125V110.75Z" fill="white"/>
<path d="M1083.5 166.125H1138.88V221.5L1083.5 221.5V166.125Z" fill="white"/>
<path d="M1138.88 166.125L1194.25 166.125V221.5L1138.88 221.5V166.125Z" fill="white"/>
<path d="M1194.25 110.75L1249.62 110.75V166.125H1194.25V110.75Z" fill="white"/>
<path d="M1249.62 110.75L1305 110.75V166.125H1249.62V110.75Z" fill="white"/>
<path d="M1194.25 166.125H1249.62V221.5L1194.25 221.5V166.125Z" fill="white"/>
<path d="M1249.62 166.125H1305V221.5L1249.62 221.5V166.125Z" fill="white"/>
<path d="M-24 221.5H31.375V276.875H-24L-24 221.5Z" fill="white"/>
<path d="M31.375 221.5H86.75V276.875L31.375 276.875V221.5Z" fill="white"/>
<path d="M-24 276.875H31.375V332.25H-24L-24 276.875Z" fill="white"/>
<path d="M31.375 276.875L86.75 276.875V332.25H31.375V276.875Z" fill="white"/>
<path d="M86.75 221.5H142.125V276.875L86.75 276.875V221.5Z" fill="white"/>
<path d="M142.125 221.5L197.5 221.5V276.875H142.125V221.5Z" fill="white"/>
<path d="M86.75 276.875L142.125 276.875V332.25L86.75 332.25V276.875Z" fill="white"/>
<path d="M142.125 276.875H197.5V332.25L142.125 332.25V276.875Z" fill="white"/>
<path d="M-24 332.25H31.375V387.625H-24V332.25Z" fill="white"/>
<path d="M31.375 332.25H86.75V387.625L31.375 387.625V332.25Z" fill="white"/>
<path d="M-24 387.625H31.375V443H-24L-24 387.625Z" fill="white"/>
<path d="M31.375 387.625L86.75 387.625V443H31.375V387.625Z" fill="white"/>
<path d="M86.75 332.25L142.125 332.25V387.625L86.75 387.625V332.25Z" fill="white"/>
<path d="M142.125 332.25L197.5 332.25V387.625H142.125V332.25Z" fill="white"/>
<path d="M86.75 387.625L142.125 387.625V443L86.75 443V387.625Z" fill="white"/>
<path d="M142.125 387.625H197.5V443L142.125 443V387.625Z" fill="white"/>
<path d="M197.5 221.5L252.875 221.5V276.875L197.5 276.875V221.5Z" fill="white"/>
<path d="M252.875 221.5L308.25 221.5V276.875H252.875V221.5Z" fill="white"/>
<path d="M197.5 276.875L252.875 276.875V332.25L197.5 332.25V276.875Z" fill="white"/>
<path d="M252.875 276.875H308.25V332.25H252.875V276.875Z" fill="white"/>
<path d="M308.25 221.5L363.625 221.5V276.875H308.25V221.5Z" fill="white"/>
<path d="M363.625 221.5H419V276.875H363.625V221.5Z" fill="white"/>
<path d="M308.25 276.875H363.625V332.25L308.25 332.25V276.875Z" fill="white"/>
<path d="M363.625 276.875H419V332.25H363.625V276.875Z" fill="white"/>
<path d="M197.5 332.25L252.875 332.25V387.625L197.5 387.625V332.25Z" fill="white"/>
<path d="M252.875 332.25H308.25V387.625H252.875V332.25Z" fill="white"/>
<path d="M197.5 387.625L252.875 387.625V443L197.5 443V387.625Z" fill="white"/>
<path d="M252.875 387.625H308.25V443L252.875 443V387.625Z" fill="white"/>
<path d="M308.25 332.25L363.625 332.25V387.625H308.25V332.25Z" fill="white"/>
<path d="M363.625 332.25H419V387.625L363.625 387.625V332.25Z" fill="white"/>
<path d="M308.25 387.625H363.625V443L308.25 443V387.625Z" fill="white"/>
<path d="M363.625 387.625L419 387.625V443H363.625V387.625Z" fill="white"/>
<path d="M419 221.5H474.375V276.875H419V221.5Z" fill="white"/>
<path d="M474.375 221.5L529.75 221.5V276.875H474.375V221.5Z" fill="white"/>
<path d="M419 276.875H474.375V332.25H419V276.875Z" fill="white"/>
<path d="M474.375 276.875H529.75V332.25L474.375 332.25V276.875Z" fill="white"/>
<path d="M529.75 221.5L585.125 221.5V276.875H529.75V221.5Z" fill="white"/>
<path d="M585.125 221.5L640.5 221.5V276.875H585.125V221.5Z" fill="white"/>
<path d="M529.75 276.875H585.125V332.25L529.75 332.25V276.875Z" fill="white"/>
<path d="M585.125 276.875H640.5V332.25L585.125 332.25V276.875Z" fill="white"/>
<path d="M419 332.25H474.375V387.625L419 387.625V332.25Z" fill="white"/>
<path d="M474.375 332.25L529.75 332.25V387.625L474.375 387.625V332.25Z" fill="white"/>
<path d="M419 387.625L474.375 387.625V443H419V387.625Z" fill="white"/>
<path d="M474.375 387.625L529.75 387.625V443H474.375V387.625Z" fill="white"/>
<path d="M529.75 332.25L585.125 332.25V387.625L529.75 387.625V332.25Z" fill="white"/>
<path d="M585.125 332.25L640.5 332.25V387.625H585.125V332.25Z" fill="white"/>
<path d="M529.75 387.625L585.125 387.625V443H529.75V387.625Z" fill="white"/>
<path d="M585.125 387.625H640.5V443L585.125 443V387.625Z" fill="white"/>
<path d="M640.5 221.5L695.875 221.5V276.875L640.5 276.875V221.5Z" fill="white"/>
<path d="M695.875 221.5L751.25 221.5V276.875L695.875 276.875V221.5Z" fill="white"/>
<path d="M640.5 276.875L695.875 276.875V332.25L640.5 332.25V276.875Z" fill="white"/>
<path d="M695.875 276.875L751.25 276.875V332.25L695.875 332.25V276.875Z" fill="white"/>
<path d="M751.25 221.5L806.625 221.5V276.875H751.25V221.5Z" fill="white"/>
<path d="M806.625 221.5L862 221.5V276.875H806.625V221.5Z" fill="white"/>
<path d="M751.25 276.875H806.625V332.25L751.25 332.25V276.875Z" fill="white"/>
<path d="M806.625 276.875H862V332.25L806.625 332.25V276.875Z" fill="white"/>
<path d="M640.5 332.25L695.875 332.25V387.625H640.5V332.25Z" fill="white"/>
<path d="M695.875 332.25L751.25 332.25V387.625H695.875V332.25Z" fill="white"/>
<path d="M640.5 387.625H695.875V443L640.5 443V387.625Z" fill="white"/>
<path d="M695.875 387.625H751.25V443L695.875 443V387.625Z" fill="white"/>
<path d="M751.25 332.25L806.625 332.25V387.625H751.25V332.25Z" fill="white"/>
<path d="M806.625 332.25L862 332.25V387.625L806.625 387.625V332.25Z" fill="white"/>
<path d="M751.25 387.625H806.625V443L751.25 443V387.625Z" fill="white"/>
<path d="M806.625 387.625L862 387.625V443H806.625V387.625Z" fill="white"/>
<path d="M862 221.5H917.375V276.875H862V221.5Z" fill="white"/>
<path d="M917.375 221.5L972.75 221.5V276.875H917.375V221.5Z" fill="white"/>
<path d="M862 276.875H917.375V332.25L862 332.25V276.875Z" fill="white"/>
<path d="M917.375 276.875H972.75V332.25L917.375 332.25V276.875Z" fill="white"/>
<path d="M972.75 221.5L1028.12 221.5V276.875H972.75V221.5Z" fill="white"/>
<path d="M1028.12 221.5L1083.5 221.5V276.875H1028.12V221.5Z" fill="white"/>
<path d="M972.75 276.875H1028.12V332.25L972.75 332.25V276.875Z" fill="white"/>
<path d="M1028.12 276.875H1083.5V332.25L1028.12 332.25V276.875Z" fill="white"/>
<path d="M862 332.25L917.375 332.25V387.625L862 387.625V332.25Z" fill="white"/>
<path d="M917.375 332.25L972.75 332.25V387.625H917.375V332.25Z" fill="white"/>
<path d="M862 387.625L917.375 387.625V443H862V387.625Z" fill="white"/>
<path d="M917.375 387.625H972.75V443L917.375 443V387.625Z" fill="white"/>
<path d="M972.75 332.25L1028.12 332.25V387.625H972.75V332.25Z" fill="white"/>
<path d="M1028.12 332.25L1083.5 332.25V387.625H1028.12V332.25Z" fill="white"/>
<path d="M972.75 387.625H1028.12V443H972.75V387.625Z" fill="white"/>
<path d="M1028.12 387.625H1083.5V443H1028.12V387.625Z" fill="white"/>
<path d="M1083.5 221.5L1138.88 221.5V276.875H1083.5V221.5Z" fill="white"/>
<path d="M1138.88 221.5L1194.25 221.5V276.875H1138.88V221.5Z" fill="white"/>
<path d="M1083.5 276.875H1138.88V332.25L1083.5 332.25V276.875Z" fill="white"/>
<path d="M1138.88 276.875H1194.25V332.25L1138.88 332.25V276.875Z" fill="white"/>
<path d="M1194.25 221.5L1249.62 221.5V276.875H1194.25V221.5Z" fill="white"/>
<path d="M1249.62 221.5L1305 221.5V276.875H1249.62V221.5Z" fill="white"/>
<path d="M1194.25 276.875H1249.62V332.25L1194.25 332.25V276.875Z" fill="white"/>
<path d="M1249.62 276.875H1305V332.25L1249.62 332.25V276.875Z" fill="white"/>
<path d="M1083.5 332.25L1138.88 332.25V387.625H1083.5V332.25Z" fill="white"/>
<path d="M1138.88 332.25L1194.25 332.25V387.625L1138.88 387.625V332.25Z" fill="white"/>
<path d="M1083.5 387.625H1138.88V443L1083.5 443V387.625Z" fill="white"/>
<path d="M1138.88 387.625L1194.25 387.625V443H1138.88V387.625Z" fill="white"/>
<path d="M1194.25 332.25L1249.62 332.25V387.625L1194.25 387.625V332.25Z" fill="white"/>
<path d="M1249.62 332.25L1305 332.25V387.625H1249.62V332.25Z" fill="white"/>
<path d="M1194.25 387.625L1249.62 387.625V443H1194.25V387.625Z" fill="white"/>
<path d="M1249.62 387.625H1305V443L1249.62 443V387.625Z" fill="white"/>
<path d="M29.375 1.10722e-06V55.375H33.375V1.10722e-06H29.375ZM31.375 53.375H-24V57.375H31.375V53.375ZM84.75 -6.02047e-05V55.3749H88.75V-6.02047e-05H84.75ZM86.75 53.3749L31.375 53.375L31.375 57.375L86.75 57.3749V53.3749ZM29.375 55.375V110.75H33.375V55.375H29.375ZM31.375 108.75H-24V112.75H31.375V108.75ZM84.75 55.3749V110.75H88.75V55.3749H84.75ZM86.75 108.75H31.375V112.75H86.75V108.75ZM140.125 1.10722e-06V55.375H144.125V1.10722e-06H140.125ZM142.125 53.375L86.75 53.3749V57.3749L142.125 57.375V53.375ZM195.5 8.30412e-07V55.375H199.5V8.30412e-07H195.5ZM197.5 53.375H142.125V57.375H197.5V53.375ZM140.125 55.375V110.75H144.125V55.375H140.125ZM142.125 108.75L86.75 108.75V112.75L142.125 112.75V108.75ZM195.5 55.375V110.75H199.5V55.375H195.5ZM197.5 108.75L142.125 108.75V112.75L197.5 112.75V108.75ZM29.375 110.75V166.125H33.375V110.75H29.375ZM31.375 164.125H-24V168.125H31.375V164.125ZM84.75 110.75V166.125H88.75V110.75H84.75ZM86.75 164.125L31.375 164.125L31.375 168.125L86.75 168.125L86.75 164.125ZM29.375 166.125V221.5H33.375V166.125H29.375ZM31.375 219.5H-24V223.5H31.375V219.5ZM84.75 166.125V221.5H88.75V166.125H84.75ZM86.75 219.5H31.375V223.5H86.75V219.5ZM140.125 110.75V166.125H144.125V110.75H140.125ZM142.125 164.125L86.75 164.125L86.75 168.125L142.125 168.125V164.125ZM195.5 110.75V166.125H199.5V110.75H195.5ZM197.5 164.125H142.125V168.125H197.5V164.125ZM140.125 166.125V221.5H144.125V166.125H140.125ZM142.125 219.5H86.75V223.5H142.125V219.5ZM195.5 166.125V221.5H199.5V166.125H195.5ZM197.5 219.5L142.125 219.5V223.5L197.5 223.5V219.5ZM250.875 -6.02047e-05V55.3749H254.875V-6.02047e-05H250.875ZM252.875 53.3749L197.5 53.375V57.375L252.875 57.3749V53.3749ZM306.25 -6.02047e-05V55.3749H310.25V-6.02047e-05H306.25ZM308.25 53.3749H252.875V57.3749H308.25V53.3749ZM250.875 55.3749V110.75H254.875V55.3749H250.875ZM252.875 108.75L197.5 108.75V112.75L252.875 112.75V108.75ZM306.25 55.3749V110.75H310.25V55.3749H306.25ZM308.25 108.75H252.875V112.75H308.25V108.75ZM361.625 -6.04815e-05V55.3749H365.625V-6.04815e-05H361.625ZM363.625 53.3749H308.25V57.3749H363.625V53.3749ZM417 -6.07584e-05V55.3749H421V-6.07584e-05H417ZM419 53.3749H363.625V57.3749H419V53.3749ZM361.625 55.3749V110.75H365.625V55.3749H361.625ZM363.625 108.75L308.25 108.75V112.75L363.625 112.75V108.75ZM417 55.3749V110.75H421V55.3749H417ZM419 108.75H363.625V112.75H419V108.75ZM250.875 110.75V166.125H254.875V110.75H250.875ZM252.875 164.125L197.5 164.125V168.125L252.875 168.125V164.125ZM306.25 110.75V166.125H310.25V110.75H306.25ZM308.25 164.125H252.875V168.125H308.25V164.125ZM250.875 166.125V221.5H254.875V166.125H250.875ZM252.875 219.5L197.5 219.5V223.5L252.875 223.5V219.5ZM306.25 166.125V221.5H310.25V166.125H306.25ZM308.25 219.5L252.875 219.5V223.5L308.25 223.5V219.5ZM361.625 110.75V166.125H365.625V110.75H361.625ZM363.625 164.125L308.25 164.125V168.125L363.625 168.125V164.125ZM417 110.75V166.125H421V110.75H417ZM419 164.125L363.625 164.125V168.125L419 168.125V164.125ZM361.625 166.125V221.5H365.625V166.125H361.625ZM363.625 219.5L308.25 219.5V223.5L363.625 223.5V219.5ZM417 166.125V221.5H421V166.125H417ZM419 219.5H363.625V223.5H419V219.5ZM472.375 1.10722e-06V55.375H476.375V1.10722e-06H472.375ZM474.375 53.375L419 53.3749V57.3749L474.375 57.375V53.375ZM527.75 1.10722e-06V55.375H531.75V1.10722e-06H527.75ZM529.75 53.375H474.375V57.375H529.75V53.375ZM472.375 55.375V110.75H476.375V55.375H472.375ZM474.375 108.75L419 108.75V112.75L474.375 112.75V108.75ZM527.75 55.375V110.75H531.75V55.375H527.75ZM529.75 108.75L474.375 108.75V112.75L529.75 112.75V108.75ZM583.125 1.10722e-06V55.375H587.125V1.10722e-06H583.125ZM585.125 53.375H529.75V57.375H585.125V53.375ZM638.5 1.10722e-06V55.375H642.5V1.10722e-06H638.5ZM640.5 53.375H585.125V57.375H640.5V53.375ZM583.125 55.375V110.75H587.125V55.375H583.125ZM585.125 108.75L529.75 108.75V112.75L585.125 112.75V108.75ZM638.5 55.375V110.75H642.5V55.375H638.5ZM640.5 108.75L585.125 108.75V112.75L640.5 112.75V108.75ZM472.375 110.75V166.125H476.375V110.75H472.375ZM474.375 164.125L419 164.125V168.125L474.375 168.125V164.125ZM527.75 110.75V166.125H531.75V110.75H527.75ZM529.75 164.125L474.375 164.125V168.125L529.75 168.125V164.125ZM472.375 166.125V221.5H476.375V166.125H472.375ZM474.375 219.5H419V223.5H474.375V219.5ZM527.75 166.125V221.5H531.75V166.125H527.75ZM529.75 219.5L474.375 219.5V223.5L529.75 223.5V219.5ZM583.125 110.75V166.125H587.125V110.75H583.125ZM585.125 164.125L529.75 164.125V168.125L585.125 168.125V164.125ZM638.5 110.75V166.125H642.5V110.75H638.5ZM640.5 164.125H585.125V168.125H640.5V164.125ZM583.125 166.125V221.5H587.125V166.125H583.125ZM585.125 219.5L529.75 219.5V223.5L585.125 223.5V219.5ZM638.5 166.125V221.5H642.5V166.125H638.5ZM640.5 219.5L585.125 219.5V223.5L640.5 223.5V219.5ZM693.875 -6.02047e-05V55.3749H697.875V-6.02047e-05H693.875ZM695.875 53.3749L640.5 53.375V57.375L695.875 57.3749V53.3749ZM749.25 -6.04815e-05V55.3749H753.25V-6.04815e-05H749.25ZM751.25 53.3749H695.875V57.3749H751.25V53.3749ZM693.875 55.3749V110.75H697.875V55.3749H693.875ZM695.875 108.75H640.5V112.75H695.875V108.75ZM749.25 55.3749V110.75H753.25V55.3749H749.25ZM751.25 108.75L695.875 108.75V112.75L751.25 112.75V108.75ZM804.625 -6.04815e-05V55.3749H808.625V-6.04815e-05H804.625ZM806.625 53.3749H751.25V57.3749H806.625V53.3749ZM860 -6.07584e-05V55.3749H864V-6.07584e-05H860ZM862 53.3749H806.625V57.3749H862V53.3749ZM804.625 55.3749V110.75H808.625V55.3749H804.625ZM806.625 108.75L751.25 108.75V112.75L806.625 112.75V108.75ZM860 55.3749V110.75H864V55.3749H860ZM862 108.75L806.625 108.75V112.75L862 112.75V108.75ZM693.875 110.75V166.125H697.875V110.75H693.875ZM695.875 164.125H640.5V168.125H695.875V164.125ZM749.25 110.75V166.125H753.25V110.75H749.25ZM751.25 164.125H695.875V168.125H751.25V164.125ZM693.875 166.125V221.5H697.875V166.125H693.875ZM695.875 219.5L640.5 219.5V223.5L695.875 223.5V219.5ZM749.25 166.125V221.5H753.25V166.125H749.25ZM751.25 219.5L695.875 219.5V223.5L751.25 223.5V219.5ZM804.625 110.75V166.125H808.625V110.75H804.625ZM806.625 164.125L751.25 164.125V168.125L806.625 168.125V164.125ZM860 110.75V166.125H864V110.75H860ZM862 164.125L806.625 164.125V168.125L862 168.125V164.125ZM804.625 166.125V221.5H808.625V166.125H804.625ZM806.625 219.5L751.25 219.5V223.5L806.625 223.5V219.5ZM860 166.125V221.5H864V166.125H860ZM862 219.5L806.625 219.5V223.5L862 223.5V219.5ZM915.375 -6.04815e-05V55.3749H919.375V-6.04815e-05H915.375ZM917.375 53.3749H862V57.3749H917.375V53.3749ZM970.75 -6.07584e-05V55.3749H974.75V-6.07584e-05H970.75ZM972.75 53.3749H917.375V57.3749H972.75V53.3749ZM915.375 55.3749V110.75H919.375V55.3749H915.375ZM917.375 108.75L862 108.75V112.75L917.375 112.75V108.75ZM970.75 55.3749V110.75H974.75V55.3749H970.75ZM972.75 108.75L917.375 108.75V112.75L972.75 112.75V108.75ZM1026.12 -6.07584e-05V55.3749H1030.12V-6.07584e-05H1026.12ZM1028.12 53.3749H972.75V57.3749H1028.12V53.3749ZM1081.5 -6.10352e-05V55.3749H1085.5V-6.10352e-05H1081.5ZM1083.5 53.3749H1028.12V57.3749H1083.5V53.3749ZM1026.12 55.3749V110.75H1030.12V55.3749H1026.12ZM1028.12 108.75L972.75 108.75V112.75L1028.12 112.75V108.75ZM1081.5 55.3749V110.75H1085.5V55.3749H1081.5ZM1083.5 108.75L1028.12 108.75V112.75L1083.5 112.75V108.75ZM915.375 110.75V166.125H919.375V110.75H915.375ZM917.375 164.125L862 164.125V168.125L917.375 168.125V164.125ZM970.75 110.75V166.125H974.75V110.75H970.75ZM972.75 164.125H917.375V168.125H972.75V164.125ZM915.375 166.125V221.5H919.375V166.125H915.375ZM917.375 219.5H862V223.5H917.375V219.5ZM970.75 166.125V221.5H974.75V166.125H970.75ZM972.75 219.5L917.375 219.5V223.5L972.75 223.5V219.5ZM1026.12 110.75V166.125H1030.12V110.75H1026.12ZM1028.12 164.125H972.75V168.125H1028.12V164.125ZM1081.5 110.75V166.125H1085.5V110.75H1081.5ZM1083.5 164.125H1028.12V168.125H1083.5V164.125ZM1026.12 166.125V221.5H1030.12V166.125H1026.12ZM1028.12 219.5L972.75 219.5V223.5L1028.12 223.5V219.5ZM1081.5 166.125V221.5H1085.5V166.125H1081.5ZM1083.5 219.5L1028.12 219.5V223.5L1083.5 223.5V219.5ZM1136.88 -6.04815e-05V55.3749H1140.88V-6.04815e-05H1136.88ZM1138.88 53.3749H1083.5V57.3749H1138.88V53.3749ZM1192.25 -6.07584e-05V55.3749H1196.25V-6.07584e-05H1192.25ZM1194.25 53.3749H1138.88V57.3749H1194.25V53.3749ZM1136.88 55.3749V110.75H1140.88V55.3749H1136.88ZM1138.88 108.75L1083.5 108.75V112.75L1138.88 112.75V108.75ZM1192.25 55.3749V110.75H1196.25V55.3749H1192.25ZM1194.25 108.75L1138.88 108.75V112.75L1194.25 112.75V108.75ZM1247.62 -6.07584e-05V55.3749H1251.62V-6.07584e-05H1247.62ZM1249.62 53.3749H1194.25V57.3749H1249.62V53.3749ZM1305 53.3749H1249.62V57.3749H1305V53.3749ZM1247.62 55.3749V110.75H1251.62V55.3749H1247.62ZM1249.62 108.75L1194.25 108.75V112.75L1249.62 112.75V108.75ZM1305 108.75L1249.62 108.75V112.75L1305 112.75V108.75ZM1136.88 110.75V166.125H1140.88V110.75H1136.88ZM1138.88 164.125H1083.5V168.125H1138.88V164.125ZM1192.25 110.75V166.125H1196.25V110.75H1192.25ZM1194.25 164.125L1138.88 164.125V168.125L1194.25 168.125V164.125ZM1136.88 166.125V221.5H1140.88V166.125H1136.88ZM1138.88 219.5L1083.5 219.5V223.5L1138.88 223.5V219.5ZM1192.25 166.125V221.5H1196.25V166.125H1192.25ZM1194.25 219.5L1138.88 219.5V223.5L1194.25 223.5V219.5ZM1247.62 110.75V166.125H1251.62V110.75H1247.62ZM1249.62 164.125H1194.25V168.125H1249.62V164.125ZM1305 164.125H1249.62V168.125H1305V164.125ZM1247.62 166.125V221.5H1251.62V166.125H1247.62ZM1249.62 219.5L1194.25 219.5V223.5L1249.62 223.5V219.5ZM1305 219.5L1249.62 219.5V223.5L1305 223.5V219.5ZM29.375 221.5V276.875H33.375V221.5H29.375ZM31.375 274.875H-24V278.875H31.375V274.875ZM84.75 221.5V276.875H88.75V221.5H84.75ZM86.75 274.875L31.375 274.875L31.375 278.875L86.75 278.875V274.875ZM29.375 276.875V332.25H33.375V276.875H29.375ZM31.375 330.25H-24V334.25H31.375V330.25ZM84.75 276.875V332.25H88.75V276.875H84.75ZM86.75 330.25H31.375V334.25H86.75V330.25ZM140.125 221.5V276.875H144.125V221.5H140.125ZM142.125 274.875L86.75 274.875V278.875L142.125 278.875V274.875ZM195.5 221.5V276.875H199.5V221.5H195.5ZM197.5 274.875H142.125V278.875H197.5V274.875ZM140.125 276.875V332.25H144.125V276.875H140.125ZM142.125 330.25L86.75 330.25V334.25L142.125 334.25V330.25ZM195.5 276.875V332.25H199.5V276.875H195.5ZM197.5 330.25L142.125 330.25V334.25L197.5 334.25V330.25ZM29.375 332.25V387.625H33.375V332.25H29.375ZM31.375 385.625H-24V389.625H31.375V385.625ZM84.75 332.25V387.625H88.75V332.25H84.75ZM86.75 385.625L31.375 385.625L31.375 389.625L86.75 389.625L86.75 385.625ZM29.375 387.625V443H33.375V387.625H29.375ZM84.75 387.625V443H88.75V387.625H84.75ZM140.125 332.25V387.625H144.125V332.25H140.125ZM142.125 385.625L86.75 385.625L86.75 389.625L142.125 389.625V385.625ZM195.5 332.25V387.625H199.5V332.25H195.5ZM197.5 385.625H142.125V389.625H197.5V385.625ZM140.125 387.625V443H144.125V387.625H140.125ZM195.5 387.625V443H199.5V387.625H195.5ZM250.875 221.5V276.875H254.875V221.5H250.875ZM252.875 274.875L197.5 274.875V278.875L252.875 278.875V274.875ZM306.25 221.5V276.875H310.25V221.5H306.25ZM308.25 274.875H252.875V278.875H308.25V274.875ZM250.875 276.875V332.25H254.875V276.875H250.875ZM252.875 330.25L197.5 330.25V334.25L252.875 334.25V330.25ZM306.25 276.875V332.25H310.25V276.875H306.25ZM308.25 330.25H252.875V334.25H308.25V330.25ZM361.625 221.5V276.875H365.625V221.5H361.625ZM363.625 274.875H308.25V278.875H363.625V274.875ZM417 221.5V276.875H421V221.5H417ZM419 274.875H363.625V278.875H419V274.875ZM361.625 276.875V332.25H365.625V276.875H361.625ZM363.625 330.25L308.25 330.25V334.25L363.625 334.25V330.25ZM417 276.875V332.25H421V276.875H417ZM419 330.25H363.625V334.25H419V330.25ZM250.875 332.25V387.625H254.875V332.25H250.875ZM252.875 385.625L197.5 385.625V389.625L252.875 389.625V385.625ZM306.25 332.25V387.625H310.25V332.25H306.25ZM308.25 385.625H252.875V389.625H308.25V385.625ZM250.875 387.625V443H254.875V387.625H250.875ZM306.25 387.625V443H310.25V387.625H306.25ZM361.625 332.25V387.625H365.625V332.25H361.625ZM363.625 385.625H308.25V389.625H363.625V385.625ZM417 332.25V387.625H421V332.25H417ZM419 385.625L363.625 385.625V389.625L419 389.625V385.625ZM361.625 387.625V443H365.625V387.625H361.625ZM417 387.625V443H421V387.625H417ZM472.375 221.5V276.875H476.375V221.5H472.375ZM474.375 274.875H419V278.875H474.375V274.875ZM527.75 221.5V276.875H531.75V221.5H527.75ZM529.75 274.875H474.375V278.875H529.75V274.875ZM472.375 276.875V332.25H476.375V276.875H472.375ZM474.375 330.25H419V334.25H474.375V330.25ZM527.75 276.875V332.25H531.75V276.875H527.75ZM529.75 330.25L474.375 330.25V334.25L529.75 334.25V330.25ZM583.125 221.5V276.875H587.125V221.5H583.125ZM585.125 274.875H529.75V278.875H585.125V274.875ZM638.5 221.5V276.875H642.5V221.5H638.5ZM640.5 274.875H585.125V278.875H640.5V274.875ZM583.125 276.875V332.25H587.125V276.875H583.125ZM585.125 330.25L529.75 330.25V334.25L585.125 334.25V330.25ZM638.5 276.875V332.25H642.5V276.875H638.5ZM640.5 330.25L585.125 330.25V334.25L640.5 334.25V330.25ZM472.375 332.25V387.625H476.375V332.25H472.375ZM474.375 385.625L419 385.625V389.625L474.375 389.625V385.625ZM527.75 332.25V387.625H531.75V332.25H527.75ZM529.75 385.625L474.375 385.625V389.625L529.75 389.625V385.625ZM472.375 387.625V443H476.375V387.625H472.375ZM527.75 387.625V443H531.75V387.625H527.75ZM583.125 332.25V387.625H587.125V332.25H583.125ZM585.125 385.625L529.75 385.625V389.625L585.125 389.625V385.625ZM638.5 332.25V387.625H642.5V332.25H638.5ZM640.5 385.625H585.125V389.625H640.5V385.625ZM583.125 387.625V443H587.125V387.625H583.125ZM638.5 387.625V443H642.5V387.625H638.5ZM693.875 221.5V276.875H697.875V221.5H693.875ZM695.875 274.875L640.5 274.875V278.875L695.875 278.875V274.875ZM749.25 221.5V276.875H753.25V221.5H749.25ZM751.25 274.875L695.875 274.875V278.875L751.25 278.875V274.875ZM693.875 276.875V332.25H697.875V276.875H693.875ZM695.875 330.25L640.5 330.25V334.25L695.875 334.25V330.25ZM749.25 276.875V332.25H753.25V276.875H749.25ZM751.25 330.25L695.875 330.25V334.25L751.25 334.25V330.25ZM804.625 221.5V276.875H808.625V221.5H804.625ZM806.625 274.875H751.25V278.875H806.625V274.875ZM860 221.5V276.875H864V221.5H860ZM862 274.875H806.625V278.875H862V274.875ZM804.625 276.875V332.25H808.625V276.875H804.625ZM806.625 330.25L751.25 330.25V334.25L806.625 334.25V330.25ZM860 276.875V332.25H864V276.875H860ZM862 330.25L806.625 330.25V334.25L862 334.25V330.25ZM693.875 332.25V387.625H697.875V332.25H693.875ZM695.875 385.625H640.5V389.625H695.875V385.625ZM749.25 332.25V387.625H753.25V332.25H749.25ZM751.25 385.625H695.875V389.625H751.25V385.625ZM693.875 387.625V443H697.875V387.625H693.875ZM749.25 387.625V443H753.25V387.625H749.25ZM804.625 332.25V387.625H808.625V332.25H804.625ZM806.625 385.625H751.25V389.625H806.625V385.625ZM860 332.25V387.625H864V332.25H860ZM862 385.625L806.625 385.625V389.625L862 389.625V385.625ZM804.625 387.625V443H808.625V387.625H804.625ZM860 387.625V443H864V387.625H860ZM915.375 221.5V276.875H919.375V221.5H915.375ZM917.375 274.875H862V278.875H917.375V274.875ZM970.75 221.5V276.875H974.75V221.5H970.75ZM972.75 274.875H917.375V278.875H972.75V274.875ZM915.375 276.875V332.25H919.375V276.875H915.375ZM917.375 330.25L862 330.25V334.25L917.375 334.25V330.25ZM970.75 276.875V332.25H974.75V276.875H970.75ZM972.75 330.25L917.375 330.25V334.25L972.75 334.25V330.25ZM1026.12 221.5V276.875H1030.12V221.5H1026.12ZM1028.12 274.875H972.75V278.875H1028.12V274.875ZM1081.5 221.5V276.875H1085.5V221.5H1081.5ZM1083.5 274.875H1028.12V278.875H1083.5V274.875ZM1026.12 276.875V332.25H1030.12V276.875H1026.12ZM1028.12 330.25L972.75 330.25V334.25L1028.12 334.25V330.25ZM1081.5 276.875V332.25H1085.5V276.875H1081.5ZM1083.5 330.25L1028.12 330.25V334.25L1083.5 334.25V330.25ZM915.375 332.25V387.625H919.375V332.25H915.375ZM917.375 385.625L862 385.625V389.625L917.375 389.625V385.625ZM970.75 332.25V387.625H974.75V332.25H970.75ZM972.75 385.625H917.375V389.625H972.75V385.625ZM915.375 387.625V443H919.375V387.625H915.375ZM970.75 387.625V443H974.75V387.625H970.75ZM1026.12 332.25V387.625H1030.12V332.25H1026.12ZM1028.12 385.625H972.75V389.625H1028.12V385.625ZM1081.5 332.25V387.625H1085.5V332.25H1081.5ZM1083.5 385.625H1028.12V389.625H1083.5V385.625ZM1026.12 387.625V443H1030.12V387.625H1026.12ZM1081.5 387.625V443H1085.5V387.625H1081.5ZM1136.88 221.5V276.875H1140.88V221.5H1136.88ZM1138.88 274.875H1083.5V278.875H1138.88V274.875ZM1192.25 221.5V276.875H1196.25V221.5H1192.25ZM1194.25 274.875H1138.88V278.875H1194.25V274.875ZM1136.88 276.875V332.25H1140.88V276.875H1136.88ZM1138.88 330.25L1083.5 330.25V334.25L1138.88 334.25V330.25ZM1192.25 276.875V332.25H1196.25V276.875H1192.25ZM1194.25 330.25L1138.88 330.25V334.25L1194.25 334.25V330.25ZM1247.62 221.5V276.875H1251.62V221.5H1247.62ZM1249.62 274.875H1194.25V278.875H1249.62V274.875ZM1305 274.875H1249.62V278.875H1305V274.875ZM1247.62 276.875V332.25H1251.62V276.875H1247.62ZM1249.62 330.25L1194.25 330.25V334.25L1249.62 334.25V330.25ZM1305 330.25L1249.62 330.25V334.25L1305 334.25V330.25ZM1136.88 332.25V387.625H1140.88V332.25H1136.88ZM1138.88 385.625H1083.5V389.625H1138.88V385.625ZM1192.25 332.25V387.625H1196.25V332.25H1192.25ZM1194.25 385.625L1138.88 385.625V389.625L1194.25 389.625V385.625ZM1136.88 387.625V443H1140.88V387.625H1136.88ZM1192.25 387.625V443H1196.25V387.625H1192.25ZM1247.62 332.25V387.625H1251.62V332.25H1247.62ZM1249.62 385.625L1194.25 385.625V389.625L1249.62 389.625V385.625ZM1305 385.625H1249.62V389.625H1305V385.625ZM1247.62 387.625V443H1251.62V387.625H1247.62ZM-24 1.10722e-06V-4H-28V1.10722e-06H-24ZM31.375 1.10722e-06V4H31.375L31.375 1.10722e-06ZM-24 55.375H-28H-24ZM86.75 -6.02047e-05L86.75 -4.00006H86.75L86.75 -6.02047e-05ZM-24 110.75H-20H-24ZM142.125 1.10722e-06V4V1.10722e-06ZM197.5 8.30412e-07V4V8.30412e-07ZM-24 166.125H-28H-24ZM-24 221.5H-20H-24ZM252.875 -6.02047e-05V-4.00006V-6.02047e-05ZM308.25 -6.02047e-05V3.99994V-6.02047e-05ZM419 -6.07584e-05V-4.00006V-6.07584e-05ZM474.375 1.10722e-06V4V1.10722e-06ZM640.5 1.10722e-06V4V1.10722e-06ZM695.875 -6.02047e-05V-4.00006V-6.02047e-05ZM751.25 -6.04815e-05V-4.00006V-6.04815e-05ZM806.625 -6.04815e-05V3.99994V-6.04815e-05ZM862 -6.07584e-05V-4.00006V-6.07584e-05ZM917.375 -6.04815e-05V3.99994V-6.04815e-05ZM972.75 -6.07584e-05V-4.00006V-6.07584e-05ZM1028.12 -6.07584e-05V3.99994V-6.07584e-05ZM1083.5 -6.10352e-05V-4.00006V-6.10352e-05ZM1138.88 -6.04815e-05V3.99994V-6.04815e-05ZM1194.25 -6.07584e-05V-4.00006V-6.07584e-05ZM1249.62 -6.07584e-05V3.99994V-6.07584e-05ZM1305 -6.10352e-05H1309V-4.00006H1305V-6.10352e-05ZM-24 276.875H-28H-24ZM-24 332.25H-20H-24ZM-24 387.625H-28H-24ZM-24 443H-28L-28 447H-24V443ZM86.75 443L86.75 439H86.75V443ZM197.5 443V447H197.5L197.5 443ZM252.875 443V439V443ZM308.25 443V447V443ZM363.625 443V439V443ZM585.125 443V439V443ZM640.5 443V447V443ZM695.875 443V439V443ZM751.25 443V447V443ZM806.625 443V439V443ZM917.375 443V439V443ZM972.75 443V447V443ZM1083.5 443V447V443ZM1138.88 443V439V443ZM1249.62 443V439V443ZM1305 443V447H1309V443H1305ZM-24 4H31.375V-4H-24V4ZM-20 55.375V1.10722e-06H-28V55.375H-20ZM31.375 4L86.75 3.99994L86.75 -4.00006L31.375 -4L31.375 4ZM-20 110.75L-20 55.375H-28L-28 110.75H-20ZM86.75 3.99994L142.125 4V-4L86.75 -4.00006L86.75 3.99994ZM142.125 4H197.5V-4L142.125 -4V4ZM-20 166.125V110.75H-28V166.125H-20ZM-20 221.5V166.125H-28L-28 221.5H-20ZM197.5 4L252.875 3.99994V-4.00006L197.5 -4V4ZM252.875 3.99994H308.25V-4.00006H252.875V3.99994ZM308.25 3.99994L363.625 3.99994V-4.00006L308.25 -4.00006V3.99994ZM363.625 3.99994H419V-4.00006L363.625 -4.00006V3.99994ZM419 3.99994L474.375 4V-4L419 -4.00006V3.99994ZM474.375 4H529.75V-4H474.375V4ZM529.75 4H585.125V-4H529.75V4ZM585.125 4H640.5V-4H585.125V4ZM640.5 4L695.875 3.99994V-4.00006L640.5 -4V4ZM695.875 3.99994L751.25 3.99994V-4.00006L695.875 -4.00006V3.99994ZM751.25 3.99994H806.625V-4.00006H751.25V3.99994ZM806.625 3.99994H862V-4.00006L806.625 -4.00006V3.99994ZM862 3.99994H917.375V-4.00006L862 -4.00006V3.99994ZM917.375 3.99994H972.75V-4.00006L917.375 -4.00006V3.99994ZM972.75 3.99994H1028.12V-4.00006H972.75V3.99994ZM1028.12 3.99994L1083.5 3.99994V-4.00006L1028.12 -4.00006V3.99994ZM1083.5 3.99994L1138.88 3.99994V-4.00006L1083.5 -4.00006V3.99994ZM1138.88 3.99994H1194.25V-4.00006L1138.88 -4.00006V3.99994ZM1194.25 3.99994H1249.62V-4.00006H1194.25V3.99994ZM1249.62 3.99994L1305 3.99994V-4.00006L1249.62 -4.00006V3.99994ZM1301 -6.10352e-05V55.3749H1309V-6.10352e-05H1301ZM1301 55.3749V110.75H1309V55.3749H1301ZM1301 110.75V166.125H1309V110.75H1301ZM1301 166.125V221.5H1309V166.125H1301ZM-20 276.875V221.5H-28L-28 276.875H-20ZM-20 332.25V276.875H-28L-28 332.25H-20ZM-20 387.625V332.25H-28V387.625H-20ZM31.375 439H-24V447H31.375V439ZM-20 443L-20 387.625H-28L-28 443H-20ZM86.75 439H31.375V447H86.75V439ZM142.125 439L86.75 439L86.75 447L142.125 447V439ZM197.5 439L142.125 439V447L197.5 447V439ZM252.875 439L197.5 439L197.5 447L252.875 447V439ZM308.25 439L252.875 439V447L308.25 447V439ZM363.625 439L308.25 439V447L363.625 447V439ZM419 439H363.625V447H419V439ZM474.375 439H419V447H474.375V439ZM529.75 439H474.375V447H529.75V439ZM585.125 439H529.75V447H585.125V439ZM640.5 439L585.125 439V447L640.5 447V439ZM695.875 439L640.5 439V447L695.875 447V439ZM751.25 439L695.875 439V447L751.25 447V439ZM806.625 439L751.25 439V447L806.625 447V439ZM862 439H806.625V447H862V439ZM917.375 439H862V447H917.375V439ZM972.75 439L917.375 439V447L972.75 447V439ZM1028.12 439H972.75V447H1028.12V439ZM1083.5 439H1028.12V447H1083.5V439ZM1301 221.5V276.875H1309V221.5H1301ZM1301 276.875V332.25H1309V276.875H1301ZM1138.88 439L1083.5 439V447L1138.88 447V439ZM1194.25 439H1138.88V447H1194.25V439ZM1301 332.25V387.625H1309V332.25H1301ZM1249.62 439H1194.25V447H1249.62V439ZM1301 387.625V443H1309V387.625H1301ZM1305 439L1249.62 439V447L1305 447V439Z" fill="#3A6C89" mask="url(#path-1-inside-1_477_651)"/>
</svg>
