<svg width="614" height="738" viewBox="0 0 614 738" fill="none" xmlns="http://www.w3.org/2000/svg">
<rect x="21.2775" y="21.2054" width="571.445" height="695.589" fill="black"/>
<rect x="21.2775" y="21.2054" width="571.445" height="695.589" stroke="#E9D385" stroke-width="41.4451"/>
<path d="M86.6948 187.6H97.4948V214.4H109.445V222H86.6948V187.6ZM121.649 222.4C118.849 222.4 116.666 221.5 115.099 219.7C113.532 217.9 112.749 215.45 112.749 212.35V196.95H123.349V211.9C123.349 212.667 123.549 213.267 123.949 213.7C124.382 214.1 124.932 214.3 125.599 214.3C126.266 214.3 126.949 214.1 127.649 213.7L128.199 220.65C127.466 221.217 126.499 221.65 125.299 221.95C124.132 222.25 122.916 222.4 121.649 222.4ZM118.049 193.2C116.482 193.2 115.149 192.717 114.049 191.75C112.982 190.75 112.449 189.533 112.449 188.1C112.449 186.667 113.016 185.467 114.149 184.5C115.282 183.533 116.582 183.05 118.049 183.05C119.582 183.05 120.899 183.55 121.999 184.55C123.132 185.55 123.699 186.733 123.699 188.1C123.699 189.567 123.132 190.783 121.999 191.75C120.866 192.717 119.549 193.2 118.049 193.2ZM139.911 222.4C137.078 222.4 134.878 221.517 133.311 219.75C131.778 217.95 131.011 215.5 131.011 212.4V189.05L141.561 187.5V211.65C141.561 212.583 141.778 213.267 142.211 213.7C142.678 214.1 143.478 214.3 144.611 214.3C145.444 214.3 146.261 214.1 147.061 213.7L147.411 220.7C145.178 221.833 142.678 222.4 139.911 222.4ZM158.807 222.4C155.974 222.4 153.774 221.517 152.207 219.75C150.674 217.95 149.907 215.5 149.907 212.4V189.05L160.457 187.5V211.65C160.457 212.583 160.674 213.267 161.107 213.7C161.574 214.1 162.374 214.3 163.507 214.3C164.341 214.3 165.157 214.1 165.957 213.7L166.307 220.7C164.074 221.833 161.574 222.4 158.807 222.4ZM181.854 222.4C179.087 222.4 176.62 221.85 174.454 220.75C172.32 219.617 170.654 218.083 169.454 216.15C168.254 214.183 167.654 211.967 167.654 209.5C167.654 206.967 168.27 204.717 169.504 202.75C170.737 200.783 172.404 199.267 174.504 198.2C176.604 197.133 178.937 196.6 181.504 196.6C183.97 196.6 186.07 197.15 187.804 198.25C189.57 199.317 190.887 200.783 191.754 202.65C192.62 204.483 193.054 206.55 193.054 208.85C193.054 209.45 193.02 209.883 192.954 210.15L177.954 212.1C178.354 213.267 179.004 214.117 179.904 214.65C180.804 215.15 181.987 215.4 183.454 215.4C185.72 215.4 188.17 214.817 190.804 213.65L192.054 220.35C188.954 221.717 185.554 222.4 181.854 222.4ZM185.304 205.8C184.77 203.7 183.504 202.65 181.504 202.65C180.304 202.65 179.354 203.1 178.654 204C177.954 204.9 177.587 206.067 177.554 207.5L185.304 205.8Z" fill="white"/>
<path d="M97.3448 292.8C92.6448 292.8 88.6782 291.933 85.4448 290.2L87.9448 282.45C91.3782 283.683 94.4448 284.3 97.1448 284.3C98.6115 284.3 99.6782 284.133 100.345 283.8C101.045 283.433 101.395 282.9 101.395 282.2C101.395 281.733 101.211 281.333 100.845 281C100.478 280.633 99.7448 280.233 98.6448 279.8C97.5448 279.367 95.8948 278.833 93.6948 278.2C90.9948 277.4 88.8948 276.1 87.3948 274.3C85.8948 272.467 85.1448 270.367 85.1448 268C85.1448 264.333 86.3448 261.567 88.7448 259.7C91.1782 257.8 94.4448 256.85 98.5448 256.85C100.678 256.85 102.778 257.083 104.845 257.55C106.911 257.983 108.745 258.633 110.345 259.5L107.645 267.05C105.778 266.417 104.145 265.967 102.745 265.7C101.378 265.4 100.045 265.25 98.7448 265.25C96.5448 265.25 95.4448 265.85 95.4448 267.05C95.4448 267.65 95.7948 268.167 96.4948 268.6C97.2282 269 98.7115 269.517 100.945 270.15C104.445 271.083 107.095 272.517 108.895 274.45C110.695 276.35 111.595 278.633 111.595 281.3C111.595 285 110.395 287.85 107.995 289.85C105.595 291.817 102.045 292.8 97.3448 292.8ZM125.899 292.4C122.965 292.4 120.682 291.567 119.049 289.9C117.415 288.2 116.599 285.867 116.599 282.9V273.15H113.399V266.95H117.349L121.999 257.5H127.049V266.95H132.849V273.15H127.049V281.65C127.049 282.483 127.315 283.133 127.849 283.6C128.382 284.067 129.132 284.3 130.099 284.3C130.999 284.3 131.815 284.1 132.549 283.7L132.949 290.7C132.115 291.2 131.032 291.617 129.699 291.95C128.399 292.25 127.132 292.4 125.899 292.4ZM149.339 292.4C146.539 292.4 144.039 291.85 141.839 290.75C139.672 289.65 137.972 288.133 136.739 286.2C135.539 284.233 134.939 281.983 134.939 279.45C134.939 276.917 135.556 274.683 136.789 272.75C138.022 270.783 139.722 269.267 141.889 268.2C144.089 267.133 146.589 266.6 149.389 266.6C152.222 266.6 154.722 267.15 156.889 268.25C159.089 269.317 160.789 270.817 161.989 272.75C163.189 274.683 163.789 276.917 163.789 279.45C163.789 282.017 163.172 284.283 161.939 286.25C160.739 288.183 159.039 289.7 156.839 290.8C154.672 291.867 152.172 292.4 149.339 292.4ZM149.439 284.9C150.806 284.9 151.922 284.4 152.789 283.4C153.689 282.367 154.139 281.05 154.139 279.45C154.139 277.85 153.689 276.55 152.789 275.55C151.922 274.517 150.806 274 149.439 274C148.072 274 146.939 274.517 146.039 275.55C145.172 276.55 144.739 277.85 144.739 279.45C144.739 281.05 145.172 282.367 146.039 283.4C146.939 284.4 148.072 284.9 149.439 284.9ZM167.537 267.3H178.087V272.4C178.853 270.433 179.887 268.983 181.187 268.05C182.52 267.083 184.07 266.6 185.837 266.6L187.287 274.75C184.12 274.75 181.787 275.1 180.287 275.8C178.82 276.467 178.087 277.533 178.087 279V292H167.537V267.3Z" fill="white"/>
<path d="M86.6948 327.6H110.395V335.2H97.4448V342.15H109.445V348.45H97.4448V362H86.6948V327.6ZM123.26 362.4C120.427 362.4 118.227 361.517 116.66 359.75C115.127 357.95 114.36 355.5 114.36 352.4V329.05L124.91 327.5V351.65C124.91 352.583 125.127 353.267 125.56 353.7C126.027 354.1 126.827 354.3 127.96 354.3C128.794 354.3 129.61 354.1 130.41 353.7L130.76 360.7C128.527 361.833 126.027 362.4 123.26 362.4ZM144.407 362.4C142.24 362.4 140.207 361.833 138.307 360.7C136.44 359.533 134.94 357.967 133.807 356C132.674 354 132.107 351.783 132.107 349.35C132.107 346.95 132.674 344.783 133.807 342.85C134.94 340.883 136.457 339.35 138.357 338.25C140.257 337.15 142.274 336.6 144.407 336.6C146.14 336.6 147.74 337.083 149.207 338.05C150.707 339.017 151.84 340.467 152.607 342.4V336.6H163.107V362H152.607V357.35C150.94 360.717 148.207 362.4 144.407 362.4ZM147.657 354.5C148.99 354.5 150.124 354.033 151.057 353.1C152.024 352.133 152.54 351 152.607 349.7V349.3C152.54 347.967 152.007 346.833 151.007 345.9C150.04 344.967 148.924 344.5 147.657 344.5C146.257 344.5 145.057 345 144.057 346C143.09 346.967 142.607 348.133 142.607 349.5C142.607 350.9 143.107 352.083 144.107 353.05C145.107 354.017 146.29 354.5 147.657 354.5ZM176.821 362.4C173.321 362.4 170.255 361.883 167.621 360.85L168.771 354.9C171.171 355.767 173.505 356.2 175.771 356.2C177.438 356.2 178.271 355.733 178.271 354.8C178.271 354.333 178.021 353.95 177.521 353.65C177.055 353.35 176.155 353.083 174.821 352.85C172.055 352.317 170.055 351.417 168.821 350.15C167.621 348.883 167.021 347.083 167.021 344.75C167.155 342.117 168.205 340.1 170.171 338.7C172.138 337.3 174.821 336.6 178.221 336.6C179.955 336.6 181.438 336.717 182.671 336.95C183.938 337.15 185.088 337.5 186.121 338L185.071 343.95C184.105 343.583 183.038 343.3 181.871 343.1C180.738 342.9 179.788 342.8 179.021 342.8C177.888 342.8 177.105 342.917 176.671 343.15C176.238 343.383 176.021 343.7 176.021 344.1C176.021 344.833 176.855 345.35 178.521 345.65C181.555 346.183 183.821 347.117 185.321 348.45C186.821 349.783 187.571 351.6 187.571 353.9C187.571 356.533 186.638 358.617 184.771 360.15C182.938 361.65 180.288 362.4 176.821 362.4ZM215.917 362.4C213.684 362.4 211.884 362.117 210.517 361.55C209.184 360.95 208.084 359.967 207.217 358.6C206.35 357.233 205.584 355.283 204.917 352.75L201.967 355.1V362H191.367L191.417 329.05L202.017 327.5L201.967 344.6L214.817 334.1L220.567 341.95L212.517 347.55C212.917 350.083 213.484 351.85 214.217 352.85C214.984 353.85 216.1 354.35 217.567 354.35C218.167 354.35 218.884 354.25 219.717 354.05L218.717 362.25C217.717 362.35 216.784 362.4 215.917 362.4ZM236.297 362.4C233.531 362.4 231.064 361.85 228.897 360.75C226.764 359.617 225.097 358.083 223.897 356.15C222.697 354.183 222.097 351.967 222.097 349.5C222.097 346.967 222.714 344.717 223.947 342.75C225.181 340.783 226.847 339.267 228.947 338.2C231.047 337.133 233.381 336.6 235.947 336.6C238.414 336.6 240.514 337.15 242.247 338.25C244.014 339.317 245.331 340.783 246.197 342.65C247.064 344.483 247.497 346.55 247.497 348.85C247.497 349.45 247.464 349.883 247.397 350.15L232.397 352.1C232.797 353.267 233.447 354.117 234.347 354.65C235.247 355.15 236.431 355.4 237.897 355.4C240.164 355.4 242.614 354.817 245.247 353.65L246.497 360.35C243.397 361.717 239.997 362.4 236.297 362.4ZM239.747 345.8C239.214 343.7 237.947 342.65 235.947 342.65C234.747 342.65 233.797 343.1 233.097 344C232.397 344.9 232.031 346.067 231.997 347.5L239.747 345.8ZM258.68 361.55C255.947 360.65 253.797 359.133 252.23 357C250.664 354.867 249.88 352.35 249.88 349.45C249.88 346.917 250.497 344.683 251.73 342.75C252.964 340.783 254.664 339.267 256.83 338.2C259.03 337.133 261.53 336.6 264.33 336.6C265.13 336.6 265.914 336.65 266.68 336.75L267.98 332.65H271.48L269.93 337.45C272.664 338.317 274.814 339.817 276.38 341.95C277.947 344.05 278.73 346.55 278.73 349.45C278.73 352.017 278.114 354.283 276.88 356.25C275.68 358.183 273.98 359.7 271.78 360.8C269.614 361.867 267.114 362.4 264.28 362.4C263.48 362.4 262.697 362.35 261.93 362.25L260.63 366.35H257.13L258.68 361.55ZM264.38 343.9H264.33C262.83 343.9 261.63 344.417 260.73 345.45C259.83 346.45 259.38 347.783 259.38 349.45C259.38 351.35 259.964 352.833 261.13 353.9L264.38 343.9ZM264.33 355C265.83 355 267.03 354.5 267.93 353.5C268.83 352.467 269.28 351.117 269.28 349.45C269.28 347.517 268.68 346.033 267.48 345L264.28 355H264.33ZM291.278 362.4C288.445 362.4 286.245 361.517 284.678 359.75C283.145 357.95 282.378 355.5 282.378 352.4V329.05L292.928 327.5V351.65C292.928 352.583 293.145 353.267 293.578 353.7C294.045 354.1 294.845 354.3 295.978 354.3C296.811 354.3 297.628 354.1 298.428 353.7L298.778 360.7C296.545 361.833 294.045 362.4 291.278 362.4Z" fill="white"/>
<path d="M97.3448 432.8C92.6448 432.8 88.6782 431.933 85.4448 430.2L87.9448 422.45C91.3782 423.683 94.4448 424.3 97.1448 424.3C98.6115 424.3 99.6782 424.133 100.345 423.8C101.045 423.433 101.395 422.9 101.395 422.2C101.395 421.733 101.211 421.333 100.845 421C100.478 420.633 99.7448 420.233 98.6448 419.8C97.5448 419.367 95.8948 418.833 93.6948 418.2C90.9948 417.4 88.8948 416.1 87.3948 414.3C85.8948 412.467 85.1448 410.367 85.1448 408C85.1448 404.333 86.3448 401.567 88.7448 399.7C91.1782 397.8 94.4448 396.85 98.5448 396.85C100.678 396.85 102.778 397.083 104.845 397.55C106.911 397.983 108.745 398.633 110.345 399.5L107.645 407.05C105.778 406.417 104.145 405.967 102.745 405.7C101.378 405.4 100.045 405.25 98.7448 405.25C96.5448 405.25 95.4448 405.85 95.4448 407.05C95.4448 407.65 95.7948 408.167 96.4948 408.6C97.2282 409 98.7115 409.517 100.945 410.15C104.445 411.083 107.095 412.517 108.895 414.45C110.695 416.35 111.595 418.633 111.595 421.3C111.595 425 110.395 427.85 107.995 429.85C105.595 431.817 102.045 432.8 97.3448 432.8ZM128.685 432.4C125.885 432.4 123.385 431.85 121.185 430.75C119.018 429.65 117.318 428.133 116.085 426.2C114.885 424.233 114.285 421.983 114.285 419.45C114.285 416.917 114.901 414.683 116.135 412.75C117.368 410.783 119.068 409.267 121.235 408.2C123.435 407.133 125.935 406.6 128.735 406.6C131.568 406.6 134.068 407.15 136.235 408.25C138.435 409.317 140.135 410.817 141.335 412.75C142.535 414.683 143.135 416.917 143.135 419.45C143.135 422.017 142.518 424.283 141.285 426.25C140.085 428.183 138.385 429.7 136.185 430.8C134.018 431.867 131.518 432.4 128.685 432.4ZM128.785 424.9C130.151 424.9 131.268 424.4 132.135 423.4C133.035 422.367 133.485 421.05 133.485 419.45C133.485 417.85 133.035 416.55 132.135 415.55C131.268 414.517 130.151 414 128.785 414C127.418 414 126.285 414.517 125.385 415.55C124.518 416.55 124.085 417.85 124.085 419.45C124.085 421.05 124.518 422.367 125.385 423.4C126.285 424.4 127.418 424.9 128.785 424.9ZM157.832 432.4C155.566 432.4 153.499 431.8 151.632 430.6C149.799 429.4 148.349 427.817 147.282 425.85C146.216 423.85 145.682 421.733 145.682 419.5C145.682 417.133 146.232 414.967 147.332 413C148.466 411 149.966 409.433 151.832 408.3C153.732 407.167 155.749 406.6 157.882 406.6C159.816 406.6 161.449 407 162.782 407.8C164.149 408.6 165.249 409.883 166.082 411.65V399.05L176.632 397.5V432H166.082V427.35C164.516 430.717 161.766 432.4 157.832 432.4ZM161.132 424.5C162.532 424.5 163.699 424 164.632 423C165.599 422 166.082 420.833 166.082 419.5V419.3C166.082 418 165.582 416.883 164.582 415.95C163.582 414.983 162.432 414.5 161.132 414.5C159.732 414.5 158.549 415 157.582 416C156.649 416.967 156.182 418.133 156.182 419.5C156.182 420.9 156.666 422.083 157.632 423.05C158.632 424.017 159.799 424.5 161.132 424.5ZM192.796 432.4C190.629 432.4 188.596 431.833 186.696 430.7C184.829 429.533 183.329 427.967 182.196 426C181.062 424 180.496 421.783 180.496 419.35C180.496 416.95 181.062 414.783 182.196 412.85C183.329 410.883 184.846 409.35 186.746 408.25C188.646 407.15 190.662 406.6 192.796 406.6C194.529 406.6 196.129 407.083 197.596 408.05C199.096 409.017 200.229 410.467 200.996 412.4V406.6H211.496V432H200.996V427.35C199.329 430.717 196.596 432.4 192.796 432.4ZM196.046 424.5C197.379 424.5 198.512 424.033 199.446 423.1C200.412 422.133 200.929 421 200.996 419.7V419.3C200.929 417.967 200.396 416.833 199.396 415.9C198.429 414.967 197.312 414.5 196.046 414.5C194.646 414.5 193.446 415 192.446 416C191.479 416.967 190.996 418.133 190.996 419.5C190.996 420.9 191.496 422.083 192.496 423.05C193.496 424.017 194.679 424.5 196.046 424.5ZM214.11 406.95H225.71L229.56 421.95L233.31 406.95H242.46L234.51 432H222.36L214.11 406.95ZM255.833 432.4C253.666 432.4 251.633 431.833 249.733 430.7C247.866 429.533 246.366 427.967 245.233 426C244.099 424 243.533 421.783 243.533 419.35C243.533 416.95 244.099 414.783 245.233 412.85C246.366 410.883 247.883 409.35 249.783 408.25C251.683 407.15 253.699 406.6 255.833 406.6C257.566 406.6 259.166 407.083 260.633 408.05C262.133 409.017 263.266 410.467 264.033 412.4V406.6H274.533V432H264.033V427.35C262.366 430.717 259.633 432.4 255.833 432.4ZM259.083 424.5C260.416 424.5 261.549 424.033 262.483 423.1C263.449 422.133 263.966 421 264.033 419.7V419.3C263.966 417.967 263.433 416.833 262.433 415.9C261.466 414.967 260.349 414.5 259.083 414.5C257.683 414.5 256.483 415 255.483 416C254.516 416.967 254.033 418.133 254.033 419.5C254.033 420.9 254.533 422.083 255.533 423.05C256.533 424.017 257.716 424.5 259.083 424.5ZM279.597 407.3H289.647V412.4C291.581 408.533 294.647 406.6 298.847 406.6C302.047 406.6 304.547 407.75 306.347 410.05C308.181 412.317 309.097 415.467 309.097 419.5V432H298.597V418.45C298.597 417.017 298.281 415.917 297.647 415.15C297.047 414.383 296.197 414 295.097 414C294.297 414 293.514 414.267 292.747 414.8C291.981 415.3 291.347 416.033 290.847 417C290.381 417.967 290.147 419.067 290.147 420.3V432H279.597V407.3ZM324.873 432.4C322.607 432.4 320.54 431.8 318.673 430.6C316.84 429.4 315.39 427.817 314.323 425.85C313.257 423.85 312.723 421.733 312.723 419.5C312.723 417.133 313.273 414.967 314.373 413C315.507 411 317.007 409.433 318.873 408.3C320.773 407.167 322.79 406.6 324.923 406.6C326.857 406.6 328.49 407 329.823 407.8C331.19 408.6 332.29 409.883 333.123 411.65V399.05L343.673 397.5V432H333.123V427.35C331.557 430.717 328.807 432.4 324.873 432.4ZM328.173 424.5C329.573 424.5 330.74 424 331.673 423C332.64 422 333.123 420.833 333.123 419.5V419.3C333.123 418 332.623 416.883 331.623 415.95C330.623 414.983 329.473 414.5 328.173 414.5C326.773 414.5 325.59 415 324.623 416C323.69 416.967 323.223 418.133 323.223 419.5C323.223 420.9 323.707 422.083 324.673 423.05C325.673 424.017 326.84 424.5 328.173 424.5Z" fill="white"/>
<path d="M83.5448 467.6H94.8448L100.145 489.05L105.445 467.6H117.245L106.495 502H93.7448L83.5448 467.6ZM128.294 502.4C126.127 502.4 124.094 501.833 122.194 500.7C120.327 499.533 118.827 497.967 117.694 496C116.56 494 115.994 491.783 115.994 489.35C115.994 486.95 116.56 484.783 117.694 482.85C118.827 480.883 120.344 479.35 122.244 478.25C124.144 477.15 126.16 476.6 128.294 476.6C130.027 476.6 131.627 477.083 133.094 478.05C134.594 479.017 135.727 480.467 136.494 482.4V476.6H146.994V502H136.494V497.35C134.827 500.717 132.094 502.4 128.294 502.4ZM131.544 494.5C132.877 494.5 134.01 494.033 134.944 493.1C135.91 492.133 136.427 491 136.494 489.7V489.3C136.427 487.967 135.894 486.833 134.894 485.9C133.927 484.967 132.81 484.5 131.544 484.5C130.144 484.5 128.944 485 127.944 486C126.977 486.967 126.494 488.133 126.494 489.5C126.494 490.9 126.994 492.083 127.994 493.05C128.994 494.017 130.177 494.5 131.544 494.5ZM152.058 477.3H162.108V482.4C164.041 478.533 167.108 476.6 171.308 476.6C174.508 476.6 177.008 477.75 178.808 480.05C180.641 482.317 181.558 485.467 181.558 489.5V502H171.058V488.45C171.058 487.017 170.741 485.917 170.108 485.15C169.508 484.383 168.658 484 167.558 484C166.758 484 165.975 484.267 165.208 484.8C164.441 485.3 163.808 486.033 163.308 487C162.841 487.967 162.608 489.067 162.608 490.3V502H152.058V477.3ZM197.334 502.4C195.068 502.4 193.001 501.8 191.134 500.6C189.301 499.4 187.851 497.817 186.784 495.85C185.718 493.85 185.184 491.733 185.184 489.5C185.184 487.133 185.734 484.967 186.834 483C187.968 481 189.468 479.433 191.334 478.3C193.234 477.167 195.251 476.6 197.384 476.6C199.318 476.6 200.951 477 202.284 477.8C203.651 478.6 204.751 479.883 205.584 481.65V469.05L216.134 467.5V502H205.584V497.35C204.018 500.717 201.268 502.4 197.334 502.4ZM200.634 494.5C202.034 494.5 203.201 494 204.134 493C205.101 492 205.584 490.833 205.584 489.5V489.3C205.584 488 205.084 486.883 204.084 485.95C203.084 484.983 201.934 484.5 200.634 484.5C199.234 484.5 198.051 485 197.084 486C196.151 486.967 195.684 488.133 195.684 489.5C195.684 490.9 196.168 492.083 197.134 493.05C198.134 494.017 199.301 494.5 200.634 494.5Z" fill="white"/>
<path d="M442.995 222.55C439.361 222.55 436.011 221.9 432.945 220.6L434.595 213.25C437.228 214.317 439.678 214.85 441.945 214.85C444.678 214.85 446.045 213.833 446.045 211.8C446.045 210.367 445.345 209.35 443.945 208.75C442.545 208.15 440.211 207.85 436.945 207.85V201.65C439.911 201.65 442.128 201.35 443.595 200.75C445.095 200.15 445.845 199.3 445.845 198.2C445.845 196.7 444.561 195.95 441.995 195.95C439.561 195.95 437.045 196.517 434.445 197.65L432.495 190.85C436.161 189.05 440.011 188.15 444.045 188.15C447.111 188.15 449.595 188.883 451.495 190.35C453.428 191.817 454.395 193.817 454.395 196.35C454.395 197.983 453.961 199.467 453.095 200.8C452.261 202.133 451.128 203.2 449.695 204C451.595 204.867 453.095 206.05 454.195 207.55C455.328 209.05 455.895 210.717 455.895 212.55C455.895 214.583 455.345 216.35 454.245 217.85C453.178 219.35 451.661 220.517 449.695 221.35C447.761 222.15 445.528 222.55 442.995 222.55ZM474.967 222.4C471.967 222.4 469.267 221.667 466.867 220.2C464.5 218.7 462.633 216.65 461.267 214.05C459.933 211.417 459.267 208.433 459.267 205.1C459.267 201.8 459.933 198.85 461.267 196.25C462.633 193.617 464.5 191.567 466.867 190.1C469.267 188.6 471.967 187.85 474.967 187.85C477.933 187.85 480.6 188.6 482.967 190.1C485.367 191.567 487.233 193.617 488.567 196.25C489.933 198.883 490.617 201.833 490.617 205.1C490.617 208.4 489.95 211.367 488.617 214C487.283 216.633 485.417 218.7 483.017 220.2C480.65 221.667 477.967 222.4 474.967 222.4ZM474.967 214.1C475.967 214.1 476.867 213.717 477.667 212.95C478.5 212.15 479.15 211.067 479.617 209.7C480.083 208.333 480.317 206.8 480.317 205.1C480.317 202.467 479.817 200.317 478.817 198.65C477.817 196.983 476.533 196.15 474.967 196.15C473.333 196.15 472.017 196.983 471.017 198.65C470.05 200.283 469.567 202.433 469.567 205.1C469.567 207.733 470.067 209.9 471.067 211.6C472.1 213.267 473.4 214.1 474.967 214.1Z" fill="white"/>
<path d="M443.195 283.85H429.345V276.85L442.645 258.55H453.845V276.95H458.645V283.9H453.845V292H443.195V283.85ZM443.195 276.95V267.05L436.695 276.95H443.195ZM477.533 292.4C474.533 292.4 471.833 291.667 469.433 290.2C467.066 288.7 465.2 286.65 463.833 284.05C462.5 281.417 461.833 278.433 461.833 275.1C461.833 271.8 462.5 268.85 463.833 266.25C465.2 263.617 467.066 261.567 469.433 260.1C471.833 258.6 474.533 257.85 477.533 257.85C480.5 257.85 483.166 258.6 485.533 260.1C487.933 261.567 489.8 263.617 491.133 266.25C492.5 268.883 493.183 271.833 493.183 275.1C493.183 278.4 492.516 281.367 491.183 284C489.85 286.633 487.983 288.7 485.583 290.2C483.216 291.667 480.533 292.4 477.533 292.4ZM477.533 284.1C478.533 284.1 479.433 283.717 480.233 282.95C481.066 282.15 481.716 281.067 482.183 279.7C482.65 278.333 482.883 276.8 482.883 275.1C482.883 272.467 482.383 270.317 481.383 268.65C480.383 266.983 479.1 266.15 477.533 266.15C475.9 266.15 474.583 266.983 473.583 268.65C472.616 270.283 472.133 272.433 472.133 275.1C472.133 277.733 472.633 279.9 473.633 281.6C474.666 283.267 475.966 284.1 477.533 284.1Z" fill="white"/>
<path d="M437.345 354.95C441.278 351.417 444.245 348.417 446.245 345.95C448.245 343.483 449.245 341.433 449.245 339.8C449.245 338.733 448.911 337.917 448.245 337.35C447.611 336.783 446.745 336.5 445.645 336.5C443.578 336.5 441.428 337.15 439.195 338.45L436.745 331C438.578 330.067 440.378 329.367 442.145 328.9C443.945 328.433 445.828 328.2 447.795 328.2C450.128 328.2 452.161 328.667 453.895 329.6C455.661 330.5 457.011 331.75 457.945 333.35C458.878 334.917 459.345 336.717 459.345 338.75C459.345 341.783 458.328 344.617 456.295 347.25C454.261 349.85 451.195 352.333 447.095 354.7H459.145V362H437.345V354.95ZM473.174 362.65C470.107 362.65 466.94 361.933 463.674 360.5L464.324 353.45C465.657 353.95 467.007 354.333 468.374 354.6C469.74 354.867 470.957 355 472.024 355C473.59 355 474.79 354.633 475.624 353.9C476.457 353.167 476.874 352.183 476.874 350.95C476.874 349.85 476.574 348.967 475.974 348.3C475.374 347.6 474.59 347.25 473.624 347.25C472.257 347.25 470.607 347.917 468.674 349.25L463.474 347L464.774 328.55H484.074L483.324 335.7H471.524L470.874 341.25C471.774 340.683 472.657 340.283 473.524 340.05C474.39 339.817 475.39 339.7 476.524 339.7C478.457 339.7 480.19 340.183 481.724 341.15C483.29 342.117 484.507 343.467 485.374 345.2C486.274 346.9 486.724 348.817 486.724 350.95C486.724 353.183 486.14 355.2 484.974 357C483.807 358.767 482.19 360.15 480.124 361.15C478.09 362.15 475.774 362.65 473.174 362.65Z" fill="white"/>
<path d="M437.095 424.65H441.295V408L437.095 408.3V401.8C438.561 401.8 440.145 401.533 441.845 401C443.545 400.433 445.195 399.617 446.795 398.55H452.045V424.65H456.245V432H437.095V424.65ZM473.252 432.65C470.386 432.65 467.886 432.25 465.752 431.45C463.619 430.65 461.969 429.517 460.802 428.05C459.636 426.583 459.052 424.867 459.052 422.9C459.052 419.2 461.152 416.533 465.352 414.9C463.986 413.767 463.002 412.617 462.402 411.45C461.836 410.283 461.552 408.9 461.552 407.3C461.552 405.5 462.052 403.9 463.052 402.5C464.086 401.1 465.519 400.017 467.352 399.25C469.219 398.483 471.336 398.1 473.702 398.1C475.836 398.1 477.736 398.433 479.402 399.1C481.102 399.733 482.419 400.65 483.352 401.85C484.319 403.017 484.802 404.35 484.802 405.85C484.802 407.417 484.469 408.733 483.802 409.8C483.136 410.867 482.086 411.767 480.652 412.5C482.952 413.7 484.636 415.067 485.702 416.6C486.802 418.133 487.352 419.967 487.352 422.1C487.352 425.4 486.102 427.983 483.602 429.85C481.102 431.717 477.652 432.65 473.252 432.65ZM475.402 410.7C476.436 409.7 476.952 408.5 476.952 407.1C476.952 405.933 476.636 405.05 476.002 404.45C475.369 403.817 474.452 403.5 473.252 403.5C471.986 403.5 471.019 403.733 470.352 404.2C469.719 404.633 469.402 405.267 469.402 406.1C469.402 406.933 469.719 407.65 470.352 408.25C471.019 408.85 472.136 409.45 473.702 410.05L475.402 410.7ZM473.302 425.75C474.569 425.75 475.586 425.517 476.352 425.05C477.152 424.55 477.552 423.9 477.552 423.1C477.552 422.233 477.186 421.483 476.452 420.85C475.752 420.183 474.586 419.533 472.952 418.9L470.652 418C469.586 419.1 469.052 420.467 469.052 422.1C469.052 423.2 469.436 424.083 470.202 424.75C471.002 425.417 472.036 425.75 473.302 425.75Z" fill="white"/>
<path d="M461.795 502.4C458.795 502.4 456.095 501.667 453.695 500.2C451.328 498.7 449.461 496.65 448.095 494.05C446.761 491.417 446.095 488.433 446.095 485.1C446.095 481.8 446.761 478.85 448.095 476.25C449.461 473.617 451.328 471.567 453.695 470.1C456.095 468.6 458.795 467.85 461.795 467.85C464.761 467.85 467.428 468.6 469.795 470.1C472.195 471.567 474.061 473.617 475.395 476.25C476.761 478.883 477.445 481.833 477.445 485.1C477.445 488.4 476.778 491.367 475.445 494C474.111 496.633 472.245 498.7 469.845 500.2C467.478 501.667 464.795 502.4 461.795 502.4ZM461.795 494.1C462.795 494.1 463.695 493.717 464.495 492.95C465.328 492.15 465.978 491.067 466.445 489.7C466.911 488.333 467.145 486.8 467.145 485.1C467.145 482.467 466.645 480.317 465.645 478.65C464.645 476.983 463.361 476.15 461.795 476.15C460.161 476.15 458.845 476.983 457.845 478.65C456.878 480.283 456.395 482.433 456.395 485.1C456.395 487.733 456.895 489.9 457.895 491.6C458.928 493.267 460.228 494.1 461.795 494.1Z" fill="white"/>
<path d="M84.575 98.5179H110.645V106.878H96.4V114.523H109.6V121.453H96.4V136.358H84.575V98.5179ZM126.359 136.798C123.976 136.798 121.739 136.175 119.649 134.928C117.596 133.645 115.946 131.921 114.699 129.758C113.452 127.558 112.829 125.12 112.829 122.443C112.829 119.803 113.452 117.42 114.699 115.293C115.946 113.13 117.614 111.443 119.704 110.233C121.794 109.023 124.012 108.418 126.359 108.418C128.266 108.418 130.026 108.95 131.639 110.013C133.289 111.076 134.536 112.671 135.379 114.798V108.418H146.929V136.358H135.379V131.243C133.546 134.946 130.539 136.798 126.359 136.798ZM129.934 128.108C131.401 128.108 132.647 127.595 133.674 126.568C134.737 125.505 135.306 124.258 135.379 122.828V122.388C135.306 120.921 134.719 119.675 133.619 118.648C132.556 117.621 131.327 117.108 129.934 117.108C128.394 117.108 127.074 117.658 125.974 118.758C124.911 119.821 124.379 121.105 124.379 122.608C124.379 124.148 124.929 125.45 126.029 126.513C127.129 127.576 128.431 128.108 129.934 128.108ZM164.545 136.798C162.052 136.798 159.778 136.138 157.725 134.818C155.708 133.498 154.113 131.756 152.94 129.593C151.767 127.393 151.18 125.065 151.18 122.608C151.18 120.005 151.785 117.621 152.995 115.458C154.242 113.258 155.892 111.535 157.945 110.288C160.035 109.041 162.253 108.418 164.6 108.418C166.727 108.418 168.523 108.858 169.99 109.738C171.493 110.618 172.703 112.03 173.62 113.973V100.113L185.225 98.4079V136.358H173.62V131.243C171.897 134.946 168.872 136.798 164.545 136.798ZM168.175 128.108C169.715 128.108 170.998 127.558 172.025 126.458C173.088 125.358 173.62 124.075 173.62 122.608V122.388C173.62 120.958 173.07 119.73 171.97 118.703C170.87 117.64 169.605 117.108 168.175 117.108C166.635 117.108 165.333 117.658 164.27 118.758C163.243 119.821 162.73 121.105 162.73 122.608C162.73 124.148 163.262 125.45 164.325 126.513C165.425 127.576 166.708 128.108 168.175 128.108ZM199.155 135.863C196.148 134.873 193.783 133.205 192.06 130.858C190.336 128.511 189.475 125.743 189.475 122.553C189.475 119.766 190.153 117.31 191.51 115.183C192.866 113.02 194.736 111.351 197.12 110.178C199.54 109.005 202.29 108.418 205.37 108.418C206.25 108.418 207.111 108.473 207.955 108.583L209.385 104.073H213.235L211.53 109.353C214.536 110.306 216.901 111.956 218.625 114.303C220.348 116.613 221.21 119.363 221.21 122.553C221.21 125.376 220.531 127.87 219.175 130.033C217.855 132.16 215.985 133.828 213.565 135.038C211.181 136.211 208.431 136.798 205.315 136.798C204.435 136.798 203.573 136.743 202.73 136.633L201.3 141.143H197.45L199.155 135.863ZM205.425 116.448H205.37C203.72 116.448 202.4 117.016 201.41 118.153C200.42 119.253 199.925 120.72 199.925 122.553C199.925 124.643 200.566 126.275 201.85 127.448L205.425 116.448ZM205.37 128.658C207.02 128.658 208.34 128.108 209.33 127.008C210.32 125.871 210.815 124.386 210.815 122.553C210.815 120.426 210.155 118.795 208.835 117.658L205.315 128.658H205.37ZM235.012 136.798C231.895 136.798 229.475 135.826 227.752 133.883C226.065 131.903 225.222 129.208 225.222 125.798V100.113L236.827 98.4079V124.973C236.827 126 237.065 126.751 237.542 127.228C238.055 127.668 238.935 127.888 240.182 127.888C241.099 127.888 241.997 127.668 242.877 127.228L243.262 134.928C240.805 136.175 238.055 136.798 235.012 136.798Z" fill="white"/>
</svg>
