<svg width="251" height="257" viewBox="0 0 251 257" fill="none" xmlns="http://www.w3.org/2000/svg">
<g filter="url(#filter0_i_1267_39)">
<path d="M0.49214 256.014L0.492281 148.263H247.906V256.014H0.49214Z" fill="#8A8475"/>
</g>
<path d="M38.9894 104.982L0.416016 148.344H250.538L237.731 104.982H38.9894Z" fill="#F7ECD0"/>
<path d="M212.521 134.811H201.889C201.469 134.811 201.129 135.151 201.129 135.571C201.129 135.99 201.469 136.33 201.889 136.33H212.521C212.941 136.33 213.281 135.99 213.281 135.571C213.281 135.151 212.941 134.811 212.521 134.811Z" fill="black"/>
<path d="M61.2278 135.049H50.5954C50.176 135.049 49.8359 135.389 49.8359 135.808C49.8359 136.228 50.176 136.568 50.5954 136.568H61.2278C61.6472 136.568 61.9872 136.228 61.9872 135.808C61.9872 135.389 61.6472 135.049 61.2278 135.049Z" fill="black"/>
<g filter="url(#filter1_d_1267_39)">
<path d="M226.444 135.331L227.593 109.202H35.7456L37.0278 135.808L226.444 135.331Z" fill="#E7E7E7"/>
</g>
<g filter="url(#filter2_i_1267_39)">
<rect x="72.6138" y="119.352" width="45.7196" height="6.5107" rx="3.25535" fill="#F4F4F4"/>
</g>
<path d="M74.3071 120.995V124.015H76.8238V122.505M94.188 122.589L94.7752 122.123V120.995H92.5103V122.589M94.188 122.589L94.7752 124.015H97.2079M94.188 122.589H92.5103M97.2079 124.015L99.5567 120.995H97.2079M97.2079 124.015H101.989M101.989 124.015V120.995H103.835M101.989 124.015H103.835V120.995M103.835 120.995H106.142M108.449 120.995H106.142M106.142 120.995V124.015H110.63M110.63 124.015V120.995H112.643M110.63 124.015H114.74M114.74 124.015H116.753V120.995H114.74V124.015ZM92.5103 122.589V124.015H90.1615V122.505M88.2322 122.505V124.015H85.9673V120.995H85.2123L84.2167 124.015L83.2829 120.995H82.528V124.015H78.6692V122.505M88.2322 122.505V120.995H90.1615V122.505M88.2322 122.505H90.1615M76.8238 122.505V120.995H78.6692V122.505M76.8238 122.505H78.6692" stroke="#F51414" stroke-linecap="square" stroke-linejoin="round"/>
<path d="M36.9337 52.2528H34.3984L40.6407 96.0904H44.3237V89.1927L36.9337 52.2528Z" fill="#262626"/>
<path d="M45.2252 2.46783L28.4111 18.7137H234.973L211.689 2.46783H45.2252Z" fill="#B8B8B8"/>
<path d="M39.732 0.432983L20.624 18.71H28.4154L45.2474 2.50904H211.655L234.37 18.7155H242.172L216.911 0.432983H39.732Z" fill="#D9D9D9"/>
<path d="M219.633 96.059L226.2 52.3606H223.982L215.964 90.997V96.084L219.633 96.059Z" fill="#262626"/>
<g filter="url(#filter3_i_1267_39)">
<path d="M44.3167 89.3691V96.0732H215.991V90.994L223.986 52.3594L36.9229 52.2363L44.3167 89.3691Z" fill="#CDCDCD"/>
</g>
<path d="M44.3132 96.0561L39.9302 107.891L223.274 107.865L215.991 96.0561H44.3132Z" fill="#8D8A8A"/>
<path d="M76.8843 62.8606H86.5745C86.5745 62.8606 87.0438 65.4336 86.8674 66.1478C86.691 66.862 85.9474 67.5821 85.9474 67.5821L86.2102 70.6928C87.0152 74.661 85.8139 81.3619 84.7644 83.3109C83.715 85.2599 78.9333 88.0186 76.8843 83.3109C74.8353 78.6032 76.8843 70.2985 76.8843 70.2985L77.6204 67.1065C77.6204 67.1065 77.1271 66.6614 76.8843 66.1478C76.6415 65.6342 76.8843 62.8606 76.8843 62.8606Z" fill="#383838"/>
<path d="M92.2915 61.2028V57.6879H72.1694V61.2028C72.1694 61.2028 71.5832 63.0619 77.0132 63.0619H86.556C92.0688 63.0619 92.2915 61.2028 92.2915 61.2028Z" fill="#D9D9D9"/>
<g filter="url(#filter4_d_1267_39)">
<path d="M96.2623 56.5127V54.933H68.0635V56.5127C68.0635 56.5127 68.527 58.619 82.0699 58.619C95.6129 58.619 96.2623 56.5127 96.2623 56.5127Z" fill="#C6C5C5"/>
</g>
<g filter="url(#filter5_d_1267_39)">
<path d="M65.9453 54.4789V51.2223H98.5113V54.4789C98.5113 54.4789 90.9352 56.7751 81.7631 56.7585C72.591 56.7419 65.9453 54.4789 65.9453 54.4789Z" fill="#D9D9D9"/>
</g>
<path d="M188.74 62.8605H179.05C179.05 62.8605 178.581 65.4335 178.757 66.1477C178.933 66.8619 179.677 67.5821 179.677 67.5821L179.414 70.6928C178.609 74.6609 179.811 81.3618 180.86 83.3108C181.91 85.2598 186.691 88.0185 188.74 83.3108C190.789 78.6031 188.74 70.2985 188.74 70.2985L188.004 67.1065C188.004 67.1065 188.497 66.6613 188.74 66.1477C188.983 65.6341 188.74 62.8605 188.74 62.8605Z" fill="#383838"/>
<path d="M173.334 61.2028V57.6878H193.456V61.2028C193.456 61.2028 194.042 63.0619 188.612 63.0619H179.069C173.556 63.0619 173.334 61.2028 173.334 61.2028Z" fill="#D9D9D9"/>
<g filter="url(#filter6_d_1267_39)">
<path d="M169.363 56.5126V54.9329H197.562V56.5126C197.562 56.5126 197.098 58.6189 183.555 58.6189C170.012 58.6189 169.363 56.5126 169.363 56.5126Z" fill="#C6C5C5"/>
</g>
<g filter="url(#filter7_d_1267_39)">
<path d="M199.68 54.4788V51.2222H167.114V54.4788C167.114 54.4788 174.69 56.775 183.862 56.7584C193.034 56.7418 199.68 54.4788 199.68 54.4788Z" fill="#D9D9D9"/>
</g>
<path d="M39.8992 51.9797H36.7044C36.7044 51.9797 37.7458 57.3855 34.3428 60.1755C30.9397 62.9654 28.3002 65.3846 28.3002 65.3846C28.3002 65.3846 25.9929 64.879 25.1746 73.5109C24.3564 82.1428 24.6885 97.2646 24.6885 97.2646C24.6885 97.2646 23.6828 100.383 24.3412 102.543C24.9996 104.703 27.7216 104.409 28.3002 102.543C28.8788 100.677 27.8834 97.2646 27.8834 97.2646C27.8834 97.2646 27.7594 71.4932 29.8283 68.8574C31.8971 66.2216 33.9709 65.3897 37.23 62.0076C40.4892 58.6255 39.8992 51.9797 39.8992 51.9797Z" fill="#D9D9D9"/>
<path d="M30.9101 67.9107C30.2131 67.8004 28.3659 65.6735 28.4252 64.8858C28.4845 64.0981 33.3996 59.9934 34.295 60.1325C35.1904 60.2716 36.9847 62.5394 36.9597 63.1213C36.9348 63.7033 31.607 68.021 30.9101 67.9107Z" fill="#363636"/>
<g filter="url(#filter8_d_1267_39)">
<path d="M234.376 18.7126H28.4082L29.4763 52.2745L232.967 52.3726L234.376 18.7126Z" fill="#E6E5E5"/>
</g>
<path d="M219.635 96.0535H215.989L223.281 107.875H39.9526L44.3278 96.0597H40.636V98.535L35.7417 109.206H227.599L219.635 97.0041V96.0535Z" fill="#BABABA"/>
<path d="M28.4189 18.7068H20.623L21.7837 52.5306H29.7068L28.4189 18.7068Z" fill="#262626"/>
<path d="M234.368 18.7126H242.174L240.489 52.5245H232.94L234.368 18.7126Z" fill="#262626"/>
<circle cx="82.228" cy="35.6188" r="5.54151" fill="#A6A6A6"/>
<circle cx="70.0767" cy="35.6188" r="5.54151" fill="#A6A6A6"/>
<circle cx="94.6831" cy="35.6188" r="5.54151" fill="#A6A6A6"/>
<circle cx="94.6832" cy="35.6188" r="4.90541" fill="#C6C6C6"/>
<circle cx="82.2277" cy="35.5426" r="4.90541" fill="#C6C6C6"/>
<circle cx="70.0763" cy="35.6188" r="4.90541" fill="#C6C6C6"/>
<circle cx="183.244" cy="36.2548" r="5.54151" fill="#A6A6A6"/>
<circle cx="171.093" cy="36.2548" r="5.54151" fill="#A6A6A6"/>
<circle cx="195.699" cy="36.2548" r="5.54151" fill="#A6A6A6"/>
<circle cx="195.699" cy="36.2548" r="4.90541" fill="#C6C6C6"/>
<circle cx="183.244" cy="36.1787" r="4.90541" fill="#C6C6C6"/>
<circle cx="171.092" cy="36.2548" r="4.90541" fill="#C6C6C6"/>
<defs>
<filter id="filter0_i_1267_39" x="0.492188" y="148.263" width="247.414" height="109.752" filterUnits="userSpaceOnUse" color-interpolation-filters="sRGB">
<feFlood flood-opacity="0" result="BackgroundImageFix"/>
<feBlend mode="normal" in="SourceGraphic" in2="BackgroundImageFix" result="shape"/>
<feColorMatrix in="SourceAlpha" type="matrix" values="0 0 0 0 0 0 0 0 0 0 0 0 0 0 0 0 0 0 127 0" result="hardAlpha"/>
<feOffset dy="4"/>
<feGaussianBlur stdDeviation="1"/>
<feComposite in2="hardAlpha" operator="arithmetic" k2="-1" k3="1"/>
<feColorMatrix type="matrix" values="0 0 0 0 0 0 0 0 0 0 0 0 0 0 0 0 0 0 0.25 0"/>
<feBlend mode="normal" in2="shape" result="effect1_innerShadow_1267_39"/>
</filter>
<filter id="filter1_d_1267_39" x="31.7456" y="109.202" width="199.847" height="34.606" filterUnits="userSpaceOnUse" color-interpolation-filters="sRGB">
<feFlood flood-opacity="0" result="BackgroundImageFix"/>
<feColorMatrix in="SourceAlpha" type="matrix" values="0 0 0 0 0 0 0 0 0 0 0 0 0 0 0 0 0 0 127 0" result="hardAlpha"/>
<feOffset dy="4"/>
<feGaussianBlur stdDeviation="2"/>
<feComposite in2="hardAlpha" operator="out"/>
<feColorMatrix type="matrix" values="0 0 0 0 0 0 0 0 0 0 0 0 0 0 0 0 0 0 0.25 0"/>
<feBlend mode="normal" in2="BackgroundImageFix" result="effect1_dropShadow_1267_39"/>
<feBlend mode="normal" in="SourceGraphic" in2="effect1_dropShadow_1267_39" result="shape"/>
</filter>
<filter id="filter2_i_1267_39" x="72.6138" y="119.352" width="45.7197" height="10.5107" filterUnits="userSpaceOnUse" color-interpolation-filters="sRGB">
<feFlood flood-opacity="0" result="BackgroundImageFix"/>
<feBlend mode="normal" in="SourceGraphic" in2="BackgroundImageFix" result="shape"/>
<feColorMatrix in="SourceAlpha" type="matrix" values="0 0 0 0 0 0 0 0 0 0 0 0 0 0 0 0 0 0 127 0" result="hardAlpha"/>
<feOffset dy="4"/>
<feGaussianBlur stdDeviation="2"/>
<feComposite in2="hardAlpha" operator="arithmetic" k2="-1" k3="1"/>
<feColorMatrix type="matrix" values="0 0 0 0 0 0 0 0 0 0 0 0 0 0 0 0 0 0 0.25 0"/>
<feBlend mode="normal" in2="shape" result="effect1_innerShadow_1267_39"/>
</filter>
<filter id="filter3_i_1267_39" x="36.9229" y="52.2363" width="187.063" height="47.8369" filterUnits="userSpaceOnUse" color-interpolation-filters="sRGB">
<feFlood flood-opacity="0" result="BackgroundImageFix"/>
<feBlend mode="normal" in="SourceGraphic" in2="BackgroundImageFix" result="shape"/>
<feColorMatrix in="SourceAlpha" type="matrix" values="0 0 0 0 0 0 0 0 0 0 0 0 0 0 0 0 0 0 127 0" result="hardAlpha"/>
<feOffset dy="4"/>
<feGaussianBlur stdDeviation="25"/>
<feComposite in2="hardAlpha" operator="arithmetic" k2="-1" k3="1"/>
<feColorMatrix type="matrix" values="0 0 0 0 0 0 0 0 0 0 0 0 0 0 0 0 0 0 0.25 0"/>
<feBlend mode="normal" in2="shape" result="effect1_innerShadow_1267_39"/>
</filter>
<filter id="filter4_d_1267_39" x="66.0635" y="54.933" width="32.1987" height="7.68597" filterUnits="userSpaceOnUse" color-interpolation-filters="sRGB">
<feFlood flood-opacity="0" result="BackgroundImageFix"/>
<feColorMatrix in="SourceAlpha" type="matrix" values="0 0 0 0 0 0 0 0 0 0 0 0 0 0 0 0 0 0 127 0" result="hardAlpha"/>
<feOffset dy="2"/>
<feGaussianBlur stdDeviation="1"/>
<feComposite in2="hardAlpha" operator="out"/>
<feColorMatrix type="matrix" values="0 0 0 0 0 0 0 0 0 0 0 0 0 0 0 0 0 0 0.25 0"/>
<feBlend mode="normal" in2="BackgroundImageFix" result="effect1_dropShadow_1267_39"/>
<feBlend mode="normal" in="SourceGraphic" in2="effect1_dropShadow_1267_39" result="shape"/>
</filter>
<filter id="filter5_d_1267_39" x="63.9453" y="51.2223" width="36.5659" height="9.53632" filterUnits="userSpaceOnUse" color-interpolation-filters="sRGB">
<feFlood flood-opacity="0" result="BackgroundImageFix"/>
<feColorMatrix in="SourceAlpha" type="matrix" values="0 0 0 0 0 0 0 0 0 0 0 0 0 0 0 0 0 0 127 0" result="hardAlpha"/>
<feOffset dy="2"/>
<feGaussianBlur stdDeviation="1"/>
<feComposite in2="hardAlpha" operator="out"/>
<feColorMatrix type="matrix" values="0 0 0 0 0 0 0 0 0 0 0 0 0 0 0 0 0 0 0.25 0"/>
<feBlend mode="normal" in2="BackgroundImageFix" result="effect1_dropShadow_1267_39"/>
<feBlend mode="normal" in="SourceGraphic" in2="effect1_dropShadow_1267_39" result="shape"/>
</filter>
<filter id="filter6_d_1267_39" x="167.363" y="54.9329" width="32.1987" height="7.68597" filterUnits="userSpaceOnUse" color-interpolation-filters="sRGB">
<feFlood flood-opacity="0" result="BackgroundImageFix"/>
<feColorMatrix in="SourceAlpha" type="matrix" values="0 0 0 0 0 0 0 0 0 0 0 0 0 0 0 0 0 0 127 0" result="hardAlpha"/>
<feOffset dy="2"/>
<feGaussianBlur stdDeviation="1"/>
<feComposite in2="hardAlpha" operator="out"/>
<feColorMatrix type="matrix" values="0 0 0 0 0 0 0 0 0 0 0 0 0 0 0 0 0 0 0.25 0"/>
<feBlend mode="normal" in2="BackgroundImageFix" result="effect1_dropShadow_1267_39"/>
<feBlend mode="normal" in="SourceGraphic" in2="effect1_dropShadow_1267_39" result="shape"/>
</filter>
<filter id="filter7_d_1267_39" x="165.114" y="51.2222" width="36.5659" height="9.53632" filterUnits="userSpaceOnUse" color-interpolation-filters="sRGB">
<feFlood flood-opacity="0" result="BackgroundImageFix"/>
<feColorMatrix in="SourceAlpha" type="matrix" values="0 0 0 0 0 0 0 0 0 0 0 0 0 0 0 0 0 0 127 0" result="hardAlpha"/>
<feOffset dy="2"/>
<feGaussianBlur stdDeviation="1"/>
<feComposite in2="hardAlpha" operator="out"/>
<feColorMatrix type="matrix" values="0 0 0 0 0 0 0 0 0 0 0 0 0 0 0 0 0 0 0.25 0"/>
<feBlend mode="normal" in2="BackgroundImageFix" result="effect1_dropShadow_1267_39"/>
<feBlend mode="normal" in="SourceGraphic" in2="effect1_dropShadow_1267_39" result="shape"/>
</filter>
<filter id="filter8_d_1267_39" x="26.4082" y="18.7126" width="209.967" height="37.66" filterUnits="userSpaceOnUse" color-interpolation-filters="sRGB">
<feFlood flood-opacity="0" result="BackgroundImageFix"/>
<feColorMatrix in="SourceAlpha" type="matrix" values="0 0 0 0 0 0 0 0 0 0 0 0 0 0 0 0 0 0 127 0" result="hardAlpha"/>
<feOffset dy="2"/>
<feGaussianBlur stdDeviation="1"/>
<feComposite in2="hardAlpha" operator="out"/>
<feColorMatrix type="matrix" values="0 0 0 0 0 0 0 0 0 0 0 0 0 0 0 0 0 0 0.25 0"/>
<feBlend mode="normal" in2="BackgroundImageFix" result="effect1_dropShadow_1267_39"/>
<feBlend mode="normal" in="SourceGraphic" in2="effect1_dropShadow_1267_39" result="shape"/>
</filter>
</defs>
</svg>
