<svg width="258" height="312" viewBox="0 0 258 312" fill="none" xmlns="http://www.w3.org/2000/svg">
<rect x="9.32" y="9.32" width="239.36" height="293.36" fill="black"/>
<rect x="9.32" y="9.32" width="239.36" height="293.36" stroke="#E9D385" stroke-width="17.36"/>
<path d="M43.0323 47.4997H53.0942V50.6661H48.0945V53.2701H52.6567V55.895H48.0945V58.6656H53.0942V61.8321H43.0323V47.4997ZM58.7131 61.9987C57.2549 61.9987 55.9772 61.7835 54.88 61.353L55.3592 58.8739C56.3591 59.235 57.3313 59.4156 58.2756 59.4156C58.97 59.4156 59.3172 59.2211 59.3172 58.8323C59.3172 58.6379 59.2131 58.4781 59.0048 58.3531C58.8103 58.2282 58.4353 58.1171 57.8798 58.0198C56.7271 57.7976 55.8938 57.4227 55.38 56.8949C54.88 56.3672 54.63 55.6172 54.63 54.645C54.6856 53.5479 55.1231 52.7077 55.9425 52.1244C56.7618 51.5411 57.8798 51.2494 59.2964 51.2494C60.0186 51.2494 60.6366 51.298 61.1505 51.3953C61.6782 51.4786 62.1573 51.6244 62.5879 51.8327L62.1504 54.3117C61.7476 54.159 61.3032 54.0409 60.8171 53.9576C60.3449 53.8743 59.9491 53.8326 59.6297 53.8326C59.1575 53.8326 58.8312 53.8812 58.6506 53.9784C58.4701 54.0756 58.3798 54.2076 58.3798 54.3742C58.3798 54.6798 58.727 54.895 59.4214 55.02C60.6852 55.2422 61.6296 55.6311 62.2545 56.1866C62.8795 56.7421 63.192 57.499 63.192 58.4573C63.192 59.5545 62.8031 60.4225 62.0254 61.0613C61.2616 61.6863 60.1575 61.9987 58.7131 61.9987ZM64.7318 51.5411H69.1273V53.3535C69.7939 51.9508 70.9258 51.2494 72.5229 51.2494C73.4534 51.2494 74.3075 51.4855 75.0853 51.9577C75.8769 52.416 76.4949 53.0549 76.9393 53.8743C77.3976 54.6937 77.6268 55.6103 77.6268 56.6241C77.6268 57.6379 77.3907 58.5545 76.9185 59.3739C76.4602 60.1933 75.8352 60.8391 75.0436 61.3113C74.2659 61.7696 73.4326 61.9987 72.5438 61.9987C70.9605 61.9987 69.8217 61.2974 69.1273 59.8947V64.5403L64.7318 65.3735V51.5411ZM71.2105 58.7073C71.7799 58.7073 72.266 58.499 72.6688 58.0823C73.0715 57.6657 73.2729 57.1796 73.2729 56.6241C73.2729 56.0408 73.0646 55.5478 72.6479 55.145C72.2452 54.7423 71.766 54.5409 71.2105 54.5409C70.6411 54.5409 70.155 54.7423 69.7523 55.145C69.3495 55.5339 69.1482 55.9991 69.1482 56.5408V56.6241C69.1482 57.2074 69.3495 57.7004 69.7523 58.1032C70.1689 58.5059 70.655 58.7073 71.2105 58.7073ZM79.2165 51.5411H83.6121V53.6659C83.9315 52.8466 84.362 52.2424 84.9037 51.8536C85.4592 51.4508 86.105 51.2494 86.841 51.2494L87.4452 54.645C86.1258 54.645 85.1536 54.7909 84.5287 55.0825C83.9176 55.3603 83.6121 55.8047 83.6121 56.4158V61.8321H79.2165V51.5411ZM93.9091 61.9987C92.7564 61.9987 91.7287 61.7696 90.826 61.3113C89.9371 60.8391 89.2427 60.2003 88.7428 59.3947C88.2428 58.5754 87.9928 57.6518 87.9928 56.6241C87.9928 55.5686 88.2497 54.6312 88.7636 53.8118C89.2775 52.9924 89.9719 52.3605 90.8468 51.9161C91.7217 51.4716 92.6939 51.2494 93.7633 51.2494C94.791 51.2494 95.6659 51.4786 96.3881 51.9369C97.1242 52.3813 97.6728 52.9924 98.0338 53.7701C98.3949 54.5339 98.5755 55.395 98.5755 56.3533C98.5755 56.6033 98.5616 56.7838 98.5338 56.8949L92.2842 57.7074C92.4509 58.1934 92.7217 58.5476 93.0967 58.7698C93.4716 58.9781 93.9647 59.0823 94.5757 59.0823C95.5201 59.0823 96.5409 58.8392 97.638 58.3531L98.1588 61.1446C96.8673 61.714 95.4507 61.9987 93.9091 61.9987ZM95.3465 55.0825C95.1243 54.2076 94.5966 53.7701 93.7633 53.7701C93.2633 53.7701 92.8675 53.9576 92.5759 54.3326C92.2842 54.7075 92.1314 55.1936 92.1176 55.7908L95.3465 55.0825ZM103.693 61.9987C102.235 61.9987 100.957 61.7835 99.8601 61.353L100.339 58.8739C101.339 59.235 102.311 59.4156 103.256 59.4156C103.95 59.4156 104.297 59.2211 104.297 58.8323C104.297 58.6379 104.193 58.4781 103.985 58.3531C103.79 58.2282 103.415 58.1171 102.86 58.0198C101.707 57.7976 100.874 57.4227 100.36 56.8949C99.8601 56.3672 99.6101 55.6172 99.6101 54.645C99.6656 53.5479 100.103 52.7077 100.922 52.1244C101.742 51.5411 102.86 51.2494 104.276 51.2494C104.999 51.2494 105.617 51.298 106.13 51.3953C106.658 51.4786 107.137 51.6244 107.568 51.8327L107.13 54.3117C106.728 54.159 106.283 54.0409 105.797 53.9576C105.325 53.8743 104.929 53.8326 104.61 53.8326C104.138 53.8326 103.811 53.8812 103.631 53.9784C103.45 54.0756 103.36 54.2076 103.36 54.3742C103.36 54.6798 103.707 54.895 104.401 55.02C105.665 55.2422 106.61 55.6311 107.235 56.1866C107.86 56.7421 108.172 57.499 108.172 58.4573C108.172 59.5545 107.783 60.4225 107.005 61.0613C106.242 61.6863 105.138 61.9987 103.693 61.9987ZM113.316 61.9987C111.858 61.9987 110.58 61.7835 109.483 61.353L109.962 58.8739C110.962 59.235 111.934 59.4156 112.878 59.4156C113.573 59.4156 113.92 59.2211 113.92 58.8323C113.92 58.6379 113.816 58.4781 113.607 58.3531C113.413 58.2282 113.038 58.1171 112.482 58.0198C111.33 57.7976 110.496 57.4227 109.983 56.8949C109.483 56.3672 109.233 55.6172 109.233 54.645C109.288 53.5479 109.726 52.7077 110.545 52.1244C111.364 51.5411 112.482 51.2494 113.899 51.2494C114.621 51.2494 115.239 51.298 115.753 51.3953C116.281 51.4786 116.76 51.6244 117.191 51.8327L116.753 54.3117C116.35 54.159 115.906 54.0409 115.42 53.9576C114.948 53.8743 114.552 53.8326 114.232 53.8326C113.76 53.8326 113.434 53.8812 113.253 53.9784C113.073 54.0756 112.982 54.2076 112.982 54.3742C112.982 54.6798 113.33 54.895 114.024 55.02C115.288 55.2422 116.232 55.6311 116.857 56.1866C117.482 56.7421 117.795 57.499 117.795 58.4573C117.795 59.5545 117.406 60.4225 116.628 61.0613C115.864 61.6863 114.76 61.9987 113.316 61.9987ZM124.813 61.9987C123.647 61.9987 122.605 61.7696 121.688 61.3113C120.786 60.853 120.077 60.2211 119.564 59.4156C119.064 58.5962 118.814 57.6587 118.814 56.6033C118.814 55.5478 119.071 54.6173 119.584 53.8118C120.098 52.9924 120.807 52.3605 121.709 51.9161C122.626 51.4716 123.667 51.2494 124.834 51.2494C126.015 51.2494 127.056 51.4786 127.959 51.9369C128.875 52.3813 129.584 53.0063 130.084 53.8118C130.584 54.6173 130.834 55.5478 130.834 56.6033C130.834 57.6726 130.577 58.617 130.063 59.4364C129.563 60.2419 128.855 60.8738 127.938 61.3321C127.035 61.7765 125.994 61.9987 124.813 61.9987ZM124.855 58.8739C125.424 58.8739 125.89 58.6656 126.251 58.249C126.626 57.8185 126.813 57.2699 126.813 56.6033C126.813 55.9366 126.626 55.395 126.251 54.9784C125.89 54.5478 125.424 54.3326 124.855 54.3326C124.285 54.3326 123.813 54.5478 123.438 54.9784C123.077 55.395 122.897 55.9366 122.897 56.6033C122.897 57.2699 123.077 57.8185 123.438 58.249C123.813 58.6656 124.285 58.8739 124.855 58.8739Z" fill="white"/>
<path d="M45.7405 76.4997H52.0734L56.219 90.8321H51.3234L50.7818 88.0823H47.0737L46.4696 90.8321H41.7824L45.7405 76.4997ZM50.2818 85.5199L48.9278 79.2495L47.5112 85.5199H50.2818ZM57.286 80.5411H61.4732V82.6659C61.9454 81.8466 62.4801 81.2424 63.0773 80.8536C63.6883 80.4508 64.4105 80.2494 65.2438 80.2494C66.0632 80.2494 66.7715 80.4578 67.3686 80.8744C67.9797 81.2771 68.438 81.8257 68.7436 82.5201C69.6324 81.0063 70.924 80.2494 72.6183 80.2494C73.4238 80.2494 74.1252 80.4647 74.7223 80.8952C75.3334 81.3258 75.8056 81.9507 76.1389 82.7701C76.4722 83.5756 76.6389 84.5269 76.6389 85.6241V90.8321H72.2433V85.6241C72.2433 84.9158 72.1183 84.3811 71.8684 84.02C71.6323 83.6589 71.2989 83.4784 70.8684 83.4784C70.3962 83.4784 69.9865 83.6798 69.6393 84.0825C69.306 84.4853 69.1394 84.9714 69.1394 85.5408V90.8321H64.7855V85.6241C64.7855 84.9158 64.6605 84.3811 64.4105 84.02C64.1744 83.6589 63.8341 83.4784 63.3897 83.4784C62.9175 83.4784 62.5148 83.6798 62.1815 84.0825C61.8482 84.4853 61.6815 84.9714 61.6815 85.5408V90.8321H57.286V80.5411ZM84.0627 90.9987C82.91 90.9987 81.8823 90.7696 80.9796 90.3113C80.0908 89.8391 79.3964 89.2003 78.8964 88.3947C78.3964 87.5754 78.1464 86.6518 78.1464 85.6241C78.1464 84.5686 78.4034 83.6312 78.9172 82.8118C79.4311 81.9924 80.1255 81.3605 81.0004 80.9161C81.8754 80.4716 82.8475 80.2494 83.9169 80.2494C84.9446 80.2494 85.8196 80.4786 86.5417 80.9369C87.2778 81.3813 87.8264 81.9924 88.1875 82.7701C88.5486 83.5339 88.7291 84.395 88.7291 85.3533C88.7291 85.6033 88.7152 85.7838 88.6874 85.8949L82.4378 86.7074C82.6045 87.1934 82.8753 87.5476 83.2503 87.7698C83.6253 87.9781 84.1183 88.0823 84.7294 88.0823C85.6737 88.0823 86.6945 87.8392 87.7917 87.3531L88.3125 90.1446C87.0209 90.714 85.6043 90.9987 84.0627 90.9987ZM85.5001 84.0825C85.2779 83.2076 84.7502 82.7701 83.9169 82.7701C83.4169 82.7701 83.0211 82.9576 82.7295 83.3326C82.4378 83.7075 82.2851 84.1936 82.2712 84.7908L85.5001 84.0825ZM90.2428 80.5411H94.6384V82.6659C94.9578 81.8466 95.3883 81.2424 95.93 80.8536C96.4855 80.4508 97.1313 80.2494 97.8674 80.2494L98.4715 83.645C97.1521 83.645 96.18 83.7909 95.555 84.0825C94.9439 84.3603 94.6384 84.8047 94.6384 85.4158V90.8321H90.2428V80.5411ZM103.206 90.9987C102.04 90.9987 101.13 90.6238 100.477 89.8738C99.8246 89.1239 99.4983 88.1031 99.4983 86.8115V80.3953H103.915V86.624C103.915 86.9435 103.998 87.1934 104.165 87.374C104.345 87.5406 104.574 87.624 104.852 87.624C105.13 87.624 105.415 87.5406 105.706 87.374L105.935 90.2696C105.63 90.5057 105.227 90.6863 104.727 90.8113C104.241 90.9363 103.734 90.9987 103.206 90.9987ZM101.706 78.8329C101.054 78.8329 100.498 78.6315 100.04 78.2287C99.5955 77.8121 99.3733 77.3052 99.3733 76.708C99.3733 76.1108 99.6094 75.6108 100.082 75.2081C100.554 74.8053 101.095 74.604 101.706 74.604C102.345 74.604 102.894 74.8123 103.352 75.2289C103.824 75.6456 104.06 76.1386 104.06 76.708C104.06 77.3191 103.824 77.826 103.352 78.2287C102.88 78.6315 102.331 78.8329 101.706 78.8329ZM112.294 90.9987C111.183 90.9987 110.197 90.7765 109.336 90.3321C108.489 89.8738 107.822 89.235 107.336 88.4156C106.864 87.5962 106.628 86.6657 106.628 85.6241C106.628 84.6242 106.878 83.7145 107.378 82.8951C107.878 82.0757 108.558 81.4299 109.419 80.9577C110.28 80.4855 111.239 80.2494 112.294 80.2494C113.641 80.2494 114.704 80.5272 115.481 81.0827L115.085 83.8534C114.294 83.6173 113.641 83.4992 113.127 83.4992C112.461 83.4992 111.933 83.6937 111.544 84.0825C111.155 84.4575 110.961 84.9714 110.961 85.6241C110.961 86.2768 111.155 86.7976 111.544 87.1865C111.933 87.5754 112.447 87.7698 113.086 87.7698C113.641 87.7698 114.294 87.6517 115.044 87.4156L115.44 90.3321C114.967 90.5682 114.488 90.7349 114.002 90.8321C113.516 90.9432 112.947 90.9987 112.294 90.9987ZM121.456 90.9987C120.554 90.9987 119.706 90.7627 118.915 90.2905C118.137 89.8044 117.512 89.1516 117.04 88.3323C116.568 87.499 116.332 86.5754 116.332 85.5616C116.332 84.5617 116.568 83.6589 117.04 82.8534C117.512 82.034 118.144 81.3952 118.936 80.9369C119.727 80.4786 120.568 80.2494 121.456 80.2494C122.179 80.2494 122.845 80.4508 123.456 80.8536C124.081 81.2563 124.553 81.8604 124.873 82.6659V80.2494H129.248V90.8321H124.873V88.8947C124.178 90.2974 123.04 90.9987 121.456 90.9987ZM122.81 87.7073C123.366 87.7073 123.838 87.5129 124.227 87.124C124.63 86.7212 124.845 86.2491 124.873 85.7074V85.5408C124.845 84.9852 124.623 84.5131 124.206 84.1242C123.803 83.7353 123.338 83.5409 122.81 83.5409C122.227 83.5409 121.727 83.7492 121.311 84.1658C120.908 84.5686 120.706 85.0547 120.706 85.6241C120.706 86.2074 120.915 86.7004 121.331 87.1032C121.748 87.5059 122.241 87.7073 122.81 87.7073ZM131.358 80.5411H135.545V82.6659C136.35 81.0549 137.628 80.2494 139.378 80.2494C140.711 80.2494 141.753 80.7286 142.503 81.6868C143.267 82.6312 143.648 83.9436 143.648 85.6241V90.8321H139.274V85.1866C139.274 84.5894 139.142 84.1311 138.878 83.8117C138.628 83.4923 138.274 83.3326 137.815 83.3326C137.482 83.3326 137.156 83.4437 136.836 83.6659C136.517 83.8742 136.253 84.1797 136.045 84.5825C135.85 84.9852 135.753 85.4435 135.753 85.9574V90.8321H131.358V80.5411ZM151.138 90.9987C149.971 90.9987 148.93 90.7696 148.013 90.3113C147.111 89.853 146.402 89.2211 145.888 88.4156C145.388 87.5962 145.138 86.6587 145.138 85.6033C145.138 84.5478 145.395 83.6173 145.909 82.8118C146.423 81.9924 147.131 81.3605 148.034 80.9161C148.951 80.4716 149.992 80.2494 151.159 80.2494C152.339 80.2494 153.381 80.4786 154.284 80.9369C155.2 81.3813 155.909 82.0063 156.409 82.8118C156.909 83.6173 157.158 84.5478 157.158 85.6033C157.158 86.6726 156.902 87.617 156.388 88.4364C155.888 89.2419 155.179 89.8738 154.263 90.3321C153.36 90.7765 152.319 90.9987 151.138 90.9987ZM151.18 87.8739C151.749 87.8739 152.214 87.6656 152.575 87.249C152.95 86.8185 153.138 86.2699 153.138 85.6033C153.138 84.9366 152.95 84.395 152.575 83.9784C152.214 83.5478 151.749 83.3326 151.18 83.3326C150.61 83.3326 150.138 83.5478 149.763 83.9784C149.402 84.395 149.222 84.9366 149.222 85.6033C149.222 86.2699 149.402 86.8185 149.763 87.249C150.138 87.6656 150.61 87.8739 151.18 87.8739Z" fill="white"/>
<path d="M49.7819 120.165C48.3931 120.165 47.1293 119.839 45.9904 119.186C44.8655 118.52 43.9697 117.617 43.3031 116.478C42.6504 115.325 42.324 114.055 42.324 112.666C42.324 111.249 42.6434 109.972 43.2823 108.833C43.9211 107.694 44.7961 106.805 45.9071 106.166C47.0182 105.514 48.2681 105.187 49.6569 105.187C50.4068 105.187 51.1429 105.277 51.8651 105.458C52.5873 105.639 53.2053 105.895 53.7191 106.229L53.1567 109.458C52.1567 109.083 51.254 108.895 50.4485 108.895C49.3375 108.895 48.4833 109.222 47.8862 109.874C47.289 110.513 46.9904 111.437 46.9904 112.645C46.9904 113.826 47.3029 114.749 47.9278 115.416C48.5667 116.068 49.4486 116.395 50.5735 116.395C51.004 116.395 51.4068 116.353 51.7817 116.27C52.1567 116.186 52.615 116.034 53.1567 115.812L53.74 119.103C52.5317 119.811 51.2123 120.165 49.7819 120.165ZM60.588 119.999C59.4214 119.999 58.3798 119.77 57.4632 119.311C56.5605 118.853 55.8522 118.221 55.3383 117.416C54.8384 116.596 54.5884 115.659 54.5884 114.603C54.5884 113.548 54.8453 112.617 55.3592 111.812C55.873 110.992 56.5813 110.36 57.484 109.916C58.4006 109.472 59.4422 109.249 60.6088 109.249C61.7893 109.249 62.8309 109.479 63.7336 109.937C64.6502 110.381 65.3585 111.006 65.8585 111.812C66.3585 112.617 66.6084 113.548 66.6084 114.603C66.6084 115.673 66.3515 116.617 65.8377 117.436C65.3377 118.242 64.6294 118.874 63.7128 119.332C62.8101 119.777 61.7685 119.999 60.588 119.999ZM60.6297 116.874C61.1991 116.874 61.6643 116.666 62.0254 116.249C62.4004 115.818 62.5879 115.27 62.5879 114.603C62.5879 113.937 62.4004 113.395 62.0254 112.978C61.6643 112.548 61.1991 112.333 60.6297 112.333C60.0602 112.333 59.5881 112.548 59.2131 112.978C58.852 113.395 58.6714 113.937 58.6714 114.603C58.6714 115.27 58.852 115.818 59.2131 116.249C59.5881 116.666 60.0602 116.874 60.6297 116.874ZM68.1699 109.541H72.5654V111.666C72.8848 110.847 73.3154 110.242 73.857 109.854C74.4125 109.451 75.0583 109.249 75.7944 109.249L76.3985 112.645C75.0791 112.645 74.107 112.791 73.482 113.083C72.871 113.36 72.5654 113.805 72.5654 114.416V119.832H68.1699V109.541ZM82.0292 119.999C80.807 119.999 79.8557 119.652 79.1752 118.957C78.4947 118.249 78.1544 117.277 78.1544 116.041V111.978H76.8212V109.395H78.4669L80.4043 105.458H82.5083V109.395H84.9248V111.978H82.5083V115.52C82.5083 115.867 82.6194 116.138 82.8416 116.332C83.0638 116.527 83.3763 116.624 83.7791 116.624C84.154 116.624 84.4943 116.541 84.7998 116.374L84.9665 119.29C84.6193 119.499 84.1679 119.672 83.6124 119.811C83.0708 119.936 82.543 119.999 82.0292 119.999ZM90.9204 119.999C90.0176 119.999 89.1705 119.763 88.3789 119.29C87.6011 118.804 86.9762 118.152 86.504 117.332C86.0318 116.499 85.7957 115.575 85.7957 114.562C85.7957 113.562 86.0318 112.659 86.504 111.853C86.9762 111.034 87.6081 110.395 88.3997 109.937C89.1913 109.479 90.0315 109.249 90.9204 109.249C91.6425 109.249 92.3092 109.451 92.9202 109.854C93.5452 110.256 94.0174 110.86 94.3368 111.666V109.249H98.7115V119.832H94.3368V117.895C93.6424 119.297 92.5036 119.999 90.9204 119.999ZM92.2744 116.707C92.83 116.707 93.3022 116.513 93.691 116.124C94.0938 115.721 94.309 115.249 94.3368 114.707V114.541C94.309 113.985 94.0868 113.513 93.6702 113.124C93.2674 112.735 92.8022 112.541 92.2744 112.541C91.6912 112.541 91.1912 112.749 90.7745 113.166C90.3718 113.569 90.1704 114.055 90.1704 114.624C90.1704 115.207 90.3787 115.7 90.7954 116.103C91.212 116.506 91.705 116.707 92.2744 116.707ZM105.384 119.999C104.439 119.999 103.578 119.749 102.801 119.249C102.037 118.749 101.433 118.089 100.988 117.27C100.544 116.436 100.322 115.555 100.322 114.624C100.322 113.638 100.551 112.735 101.009 111.916C101.481 111.083 102.106 110.43 102.884 109.958C103.676 109.486 104.516 109.249 105.405 109.249C106.21 109.249 106.891 109.416 107.446 109.749C108.016 110.083 108.474 110.617 108.821 111.353V106.104L113.217 105.458V119.832H108.821V117.895C108.168 119.297 107.023 119.999 105.384 119.999ZM106.759 116.707C107.342 116.707 107.828 116.499 108.217 116.082C108.62 115.666 108.821 115.18 108.821 114.624V114.541C108.821 113.999 108.613 113.534 108.196 113.145C107.779 112.742 107.3 112.541 106.759 112.541C106.175 112.541 105.682 112.749 105.28 113.166C104.891 113.569 104.696 114.055 104.696 114.624C104.696 115.207 104.898 115.7 105.3 116.103C105.717 116.506 106.203 116.707 106.759 116.707ZM120.826 119.999C119.659 119.999 118.618 119.77 117.701 119.311C116.798 118.853 116.09 118.221 115.576 117.416C115.076 116.596 114.826 115.659 114.826 114.603C114.826 113.548 115.083 112.617 115.597 111.812C116.111 110.992 116.819 110.36 117.722 109.916C118.638 109.472 119.68 109.249 120.847 109.249C122.027 109.249 123.069 109.479 123.971 109.937C124.888 110.381 125.596 111.006 126.096 111.812C126.596 112.617 126.846 113.548 126.846 114.603C126.846 115.673 126.589 116.617 126.076 117.436C125.576 118.242 124.867 118.874 123.951 119.332C123.048 119.777 122.006 119.999 120.826 119.999ZM120.868 116.874C121.437 116.874 121.902 116.666 122.263 116.249C122.638 115.818 122.826 115.27 122.826 114.603C122.826 113.937 122.638 113.395 122.263 112.978C121.902 112.548 121.437 112.333 120.868 112.333C120.298 112.333 119.826 112.548 119.451 112.978C119.09 113.395 118.909 113.937 118.909 114.603C118.909 115.27 119.09 115.818 119.451 116.249C119.826 116.666 120.298 116.874 120.868 116.874Z" fill="white"/>
<path d="M194.19 58.8948C195.829 57.4227 197.065 56.1727 197.898 55.145C198.731 54.1173 199.148 53.2632 199.148 52.5827C199.148 52.1383 199.009 51.798 198.731 51.5619C198.468 51.3258 198.106 51.2078 197.648 51.2078C196.787 51.2078 195.891 51.4786 194.961 52.0202L193.94 48.9162C194.704 48.5274 195.454 48.2357 196.19 48.0413C196.94 47.8469 197.725 47.7497 198.544 47.7497C199.516 47.7497 200.363 47.9441 201.085 48.333C201.822 48.7079 202.384 49.2287 202.773 49.8954C203.162 50.5481 203.356 51.298 203.356 52.1452C203.356 53.409 202.933 54.5895 202.085 55.6867C201.238 56.7699 199.961 57.8046 198.252 58.7906H203.273V61.8321H194.19V58.8948ZM209.805 61.9779C208.25 61.9779 206.764 61.5127 205.347 60.5822L206.326 57.8532C206.868 58.1587 207.375 58.3879 207.847 58.5406C208.333 58.6795 208.826 58.749 209.326 58.749C210.229 58.749 210.916 58.4573 211.389 57.874C211.875 57.2907 212.173 56.3672 212.284 55.1034C211.507 56.0755 210.437 56.5616 209.076 56.5616C207.729 56.5616 206.68 56.1797 205.931 55.4158C205.181 54.652 204.806 53.6243 204.806 52.3327C204.806 51.4855 205.042 50.7078 205.514 49.9995C205.986 49.2912 206.632 48.7288 207.451 48.3121C208.271 47.8955 209.18 47.6872 210.18 47.6872C211.43 47.6872 212.52 47.9649 213.451 48.5204C214.395 49.0621 215.124 49.8398 215.638 50.8536C216.152 51.8674 216.409 53.0549 216.409 54.4159C216.409 55.8603 216.124 57.1588 215.555 58.3115C214.999 59.4503 214.222 60.3461 213.222 60.9988C212.222 61.6515 211.083 61.9779 209.805 61.9779ZM210.451 53.9576C211.02 53.9576 211.604 53.8326 212.201 53.5826C212.173 52.6243 211.986 51.9022 211.638 51.4161C211.305 50.9161 210.826 50.6661 210.201 50.6661C209.715 50.6661 209.319 50.8258 209.014 51.1453C208.708 51.4508 208.555 51.8605 208.555 52.3744C208.555 52.8743 208.722 53.2632 209.055 53.541C209.389 53.8187 209.854 53.9576 210.451 53.9576Z" fill="white"/>
<path d="M194.19 87.8948C195.829 86.4227 197.065 85.1727 197.898 84.145C198.731 83.1173 199.148 82.2632 199.148 81.5827C199.148 81.1383 199.009 80.798 198.731 80.5619C198.468 80.3258 198.106 80.2078 197.648 80.2078C196.787 80.2078 195.891 80.4786 194.961 81.0202L193.94 77.9162C194.704 77.5274 195.454 77.2357 196.19 77.0413C196.94 76.8469 197.725 76.7497 198.544 76.7497C199.516 76.7497 200.363 76.9441 201.085 77.333C201.822 77.7079 202.384 78.2287 202.773 78.8954C203.162 79.5481 203.356 80.298 203.356 81.1452C203.356 82.409 202.933 83.5895 202.085 84.6867C201.238 85.7699 199.961 86.8046 198.252 87.7906H203.273V90.8321H194.19V87.8948ZM209.805 90.9779C208.25 90.9779 206.764 90.5127 205.347 89.5822L206.326 86.8532C206.868 87.1587 207.375 87.3879 207.847 87.5406C208.333 87.6795 208.826 87.749 209.326 87.749C210.229 87.749 210.916 87.4573 211.389 86.874C211.875 86.2907 212.173 85.3672 212.284 84.1034C211.507 85.0755 210.437 85.5616 209.076 85.5616C207.729 85.5616 206.68 85.1797 205.931 84.4158C205.181 83.652 204.806 82.6243 204.806 81.3327C204.806 80.4855 205.042 79.7078 205.514 78.9995C205.986 78.2912 206.632 77.7288 207.451 77.3121C208.271 76.8955 209.18 76.6872 210.18 76.6872C211.43 76.6872 212.52 76.9649 213.451 77.5204C214.395 78.0621 215.124 78.8398 215.638 79.8536C216.152 80.8674 216.409 82.0549 216.409 83.4159C216.409 84.8603 216.124 86.1588 215.555 87.3115C214.999 88.4503 214.222 89.3461 213.222 89.9988C212.222 90.6515 211.083 90.9779 209.805 90.9779ZM210.451 82.9576C211.02 82.9576 211.604 82.8326 212.201 82.5826C212.173 81.6243 211.986 80.9022 211.638 80.4161C211.305 79.9161 210.826 79.6661 210.201 79.6661C209.715 79.6661 209.319 79.8258 209.014 80.1453C208.708 80.4508 208.555 80.8605 208.555 81.3744C208.555 81.8743 208.722 82.2632 209.055 82.541C209.389 82.8187 209.854 82.9576 210.451 82.9576Z" fill="white"/>
<path d="M195.19 116.895C196.829 115.423 198.065 114.173 198.898 113.145C199.731 112.117 200.148 111.263 200.148 110.583C200.148 110.138 200.009 109.798 199.731 109.562C199.468 109.326 199.106 109.208 198.648 109.208C197.787 109.208 196.891 109.479 195.961 110.02L194.94 106.916C195.704 106.527 196.454 106.236 197.19 106.041C197.94 105.847 198.725 105.75 199.544 105.75C200.516 105.75 201.363 105.944 202.085 106.333C202.822 106.708 203.384 107.229 203.773 107.895C204.162 108.548 204.356 109.298 204.356 110.145C204.356 111.409 203.933 112.589 203.085 113.687C202.238 114.77 200.961 115.805 199.252 116.791H204.273V119.832H195.19V116.895ZM210.118 120.103C208.84 120.103 207.521 119.804 206.16 119.207L206.431 116.27C206.986 116.478 207.549 116.638 208.118 116.749C208.687 116.86 209.194 116.916 209.639 116.916C210.291 116.916 210.791 116.763 211.139 116.457C211.486 116.152 211.659 115.742 211.659 115.228C211.659 114.77 211.534 114.402 211.284 114.124C211.034 113.832 210.708 113.687 210.305 113.687C209.736 113.687 209.048 113.964 208.243 114.52L206.076 113.582L206.618 105.895H214.659L214.347 108.874H209.43L209.16 111.187C209.535 110.951 209.903 110.784 210.264 110.687C210.625 110.59 211.041 110.541 211.514 110.541C212.319 110.541 213.041 110.742 213.68 111.145C214.333 111.548 214.84 112.11 215.201 112.833C215.576 113.541 215.763 114.339 215.763 115.228C215.763 116.159 215.52 116.999 215.034 117.749C214.548 118.485 213.875 119.061 213.013 119.478C212.166 119.895 211.201 120.103 210.118 120.103Z" fill="white"/>
<path d="M46.0622 194.668H52.3952L56.5407 209H51.6452L51.1036 206.25H47.3955L46.7914 209H42.1042L46.0622 194.668ZM50.6036 203.688L49.2495 197.417L47.833 203.688H50.6036ZM62.2116 209.167C61.3089 209.167 60.4617 208.931 59.6701 208.458C58.8924 207.972 58.2674 207.32 57.7952 206.5C57.323 205.667 57.0869 204.743 57.0869 203.73C57.0869 202.73 57.323 201.827 57.7952 201.021C58.2674 200.202 58.8993 199.563 59.6909 199.105C60.4825 198.646 61.3228 198.417 62.2116 198.417C62.9338 198.417 63.6004 198.619 64.2115 199.021C64.8364 199.424 65.3086 200.028 65.6281 200.834V198.417H70.0028V209H65.6281V207.063C64.9337 208.465 63.7948 209.167 62.2116 209.167ZM63.5657 205.875C64.1212 205.875 64.5934 205.681 64.9823 205.292C65.385 204.889 65.6003 204.417 65.6281 203.875V203.709C65.6003 203.153 65.3781 202.681 64.9614 202.292C64.5587 201.903 64.0934 201.709 63.5657 201.709C62.9824 201.709 62.4824 201.917 62.0658 202.334C61.663 202.737 61.4617 203.223 61.4617 203.792C61.4617 204.375 61.67 204.868 62.0866 205.271C62.5033 205.674 62.9963 205.875 63.5657 205.875ZM72.1128 198.709H76.5084V200.834C76.8278 200.014 77.2583 199.41 77.8 199.021C78.3555 198.619 79.0013 198.417 79.7373 198.417L80.3415 201.813C79.0221 201.813 78.05 201.959 77.425 202.25C76.8139 202.528 76.5084 202.973 76.5084 203.584V209H72.1128V198.709ZM81.6947 195.272L86.0903 194.626V200.709C86.3958 199.973 86.8541 199.41 87.4652 199.021C88.0902 198.619 88.8401 198.417 89.7151 198.417C91.0483 198.417 92.0899 198.896 92.8399 199.855C93.6037 200.799 93.9856 202.112 93.9856 203.792V209H89.6109V203.355C89.6109 202.757 89.479 202.299 89.2151 201.98C88.9651 201.66 88.611 201.5 88.1527 201.5C87.8193 201.5 87.493 201.612 87.1736 201.834C86.8541 202.042 86.5903 202.348 86.3819 202.75C86.1875 203.153 86.0903 203.611 86.0903 204.125V209H81.6947V195.272ZM101.456 209.167C100.359 209.167 99.3801 208.972 98.519 208.583C97.6719 208.194 97.0122 207.646 96.54 206.938C96.0678 206.229 95.8317 205.424 95.8317 204.521V198.563H100.123V204.459C100.123 204.917 100.248 205.278 100.498 205.542C100.762 205.792 101.088 205.917 101.477 205.917C101.852 205.917 102.158 205.792 102.394 205.542C102.644 205.278 102.769 204.917 102.769 204.459V198.563H106.977V204.521C106.977 205.438 106.741 206.25 106.269 206.958C105.81 207.653 105.164 208.194 104.331 208.583C103.498 208.972 102.54 209.167 101.456 209.167ZM112.6 209.167C111.142 209.167 109.864 208.951 108.767 208.521L109.246 206.042C110.246 206.403 111.218 206.583 112.163 206.583C112.857 206.583 113.204 206.389 113.204 206C113.204 205.806 113.1 205.646 112.892 205.521C112.697 205.396 112.322 205.285 111.767 205.188C110.614 204.966 109.781 204.591 109.267 204.063C108.767 203.535 108.517 202.785 108.517 201.813C108.572 200.716 109.01 199.876 109.829 199.292C110.649 198.709 111.767 198.417 113.183 198.417C113.905 198.417 114.523 198.466 115.037 198.563C115.565 198.646 116.044 198.792 116.475 199.001L116.037 201.48C115.635 201.327 115.19 201.209 114.704 201.126C114.232 201.042 113.836 201.001 113.517 201.001C113.044 201.001 112.718 201.049 112.538 201.146C112.357 201.244 112.267 201.375 112.267 201.542C112.267 201.848 112.614 202.063 113.308 202.188C114.572 202.41 115.516 202.799 116.141 203.355C116.766 203.91 117.079 204.667 117.079 205.625C117.079 206.722 116.69 207.59 115.912 208.229C115.148 208.854 114.044 209.167 112.6 209.167ZM130.358 209.167C128.761 209.167 127.629 208.465 126.962 207.063V209H122.546V195.272L126.962 194.626V200.521C127.31 199.785 127.761 199.251 128.316 198.917C128.872 198.584 129.546 198.417 130.337 198.417C131.268 198.417 132.122 198.653 132.899 199.126C133.691 199.584 134.309 200.223 134.754 201.042C135.212 201.862 135.441 202.778 135.441 203.792C135.441 204.792 135.205 205.702 134.733 206.521C134.274 207.34 133.649 207.986 132.858 208.458C132.08 208.931 131.247 209.167 130.358 209.167ZM129.025 205.875C129.594 205.875 130.08 205.667 130.483 205.25C130.886 204.834 131.087 204.348 131.087 203.792C131.087 203.209 130.879 202.716 130.462 202.313C130.059 201.91 129.58 201.709 129.025 201.709C128.455 201.709 127.969 201.91 127.566 202.313C127.164 202.702 126.962 203.167 126.962 203.709V203.792C126.962 204.375 127.164 204.868 127.566 205.271C127.983 205.674 128.469 205.875 129.025 205.875ZM142.425 209.167C141.273 209.167 140.245 208.938 139.342 208.479C138.453 208.007 137.759 207.368 137.259 206.563C136.759 205.743 136.509 204.82 136.509 203.792C136.509 202.737 136.766 201.799 137.28 200.98C137.794 200.16 138.488 199.528 139.363 199.084C140.238 198.64 141.21 198.417 142.279 198.417C143.307 198.417 144.182 198.646 144.904 199.105C145.64 199.549 146.189 200.16 146.55 200.938C146.911 201.702 147.092 202.563 147.092 203.521C147.092 203.771 147.078 203.952 147.05 204.063L140.8 204.875C140.967 205.361 141.238 205.715 141.613 205.938C141.988 206.146 142.481 206.25 143.092 206.25C144.036 206.25 145.057 206.007 146.154 205.521L146.675 208.313C145.383 208.882 143.967 209.167 142.425 209.167ZM143.863 202.25C143.64 201.375 143.113 200.938 142.279 200.938C141.779 200.938 141.384 201.126 141.092 201.5C140.8 201.875 140.648 202.362 140.634 202.959L143.863 202.25ZM153.168 209.167C152.223 209.167 151.362 208.917 150.584 208.417C149.821 207.917 149.216 207.257 148.772 206.438C148.328 205.604 148.105 204.722 148.105 203.792C148.105 202.806 148.335 201.903 148.793 201.084C149.265 200.251 149.89 199.598 150.668 199.126C151.459 198.653 152.3 198.417 153.188 198.417C153.994 198.417 154.674 198.584 155.23 198.917C155.799 199.251 156.258 199.785 156.605 200.521V195.272L161 194.626V209H156.605V207.063C155.952 208.465 154.806 209.167 153.168 209.167ZM154.542 205.875C155.126 205.875 155.612 205.667 156.001 205.25C156.403 204.834 156.605 204.348 156.605 203.792V203.709C156.605 203.167 156.397 202.702 155.98 202.313C155.563 201.91 155.084 201.709 154.542 201.709C153.959 201.709 153.466 201.917 153.063 202.334C152.675 202.737 152.48 203.223 152.48 203.792C152.48 204.375 152.681 204.868 153.084 205.271C153.501 205.674 153.987 205.875 154.542 205.875ZM166.735 209.167C165.276 209.167 163.999 208.951 162.902 208.521L163.381 206.042C164.381 206.403 165.353 206.583 166.297 206.583C166.992 206.583 167.339 206.389 167.339 206C167.339 205.806 167.235 205.646 167.026 205.521C166.832 205.396 166.457 205.285 165.901 205.188C164.749 204.966 163.915 204.591 163.402 204.063C162.902 203.535 162.652 202.785 162.652 201.813C162.707 200.716 163.145 199.876 163.964 199.292C164.783 198.709 165.901 198.417 167.318 198.417C168.04 198.417 168.658 198.466 169.172 198.563C169.7 198.646 170.179 198.792 170.609 199.001L170.172 201.48C169.769 201.327 169.325 201.209 168.839 201.126C168.367 201.042 167.971 201.001 167.651 201.001C167.179 201.001 166.853 201.049 166.672 201.146C166.492 201.244 166.401 201.375 166.401 201.542C166.401 201.848 166.749 202.063 167.443 202.188C168.707 202.41 169.651 202.799 170.276 203.355C170.901 203.91 171.214 204.667 171.214 205.625C171.214 206.722 170.825 207.59 170.047 208.229C169.283 208.854 168.179 209.167 166.735 209.167ZM177.316 209.167C176.093 209.167 175.142 208.819 174.462 208.125C173.781 207.417 173.441 206.445 173.441 205.209V201.146H172.108V198.563H173.753L175.691 194.626H177.795V198.563H180.211V201.146H177.795V204.688C177.795 205.035 177.906 205.306 178.128 205.5C178.35 205.695 178.663 205.792 179.065 205.792C179.44 205.792 179.781 205.709 180.086 205.542L180.253 208.458C179.906 208.667 179.454 208.84 178.899 208.979C178.357 209.104 177.829 209.167 177.316 209.167ZM186.998 209.167C185.846 209.167 184.818 208.938 183.915 208.479C183.026 208.007 182.332 207.368 181.832 206.563C181.332 205.743 181.082 204.82 181.082 203.792C181.082 202.737 181.339 201.799 181.853 200.98C182.367 200.16 183.061 199.528 183.936 199.084C184.811 198.64 185.783 198.417 186.853 198.417C187.88 198.417 188.755 198.646 189.477 199.105C190.213 199.549 190.762 200.16 191.123 200.938C191.484 201.702 191.665 202.563 191.665 203.521C191.665 203.771 191.651 203.952 191.623 204.063L185.374 204.875C185.54 205.361 185.811 205.715 186.186 205.938C186.561 206.146 187.054 206.25 187.665 206.25C188.609 206.25 189.63 206.007 190.727 205.521L191.248 208.313C189.957 208.882 188.54 209.167 186.998 209.167ZM188.436 202.25C188.214 201.375 187.686 200.938 186.853 200.938C186.353 200.938 185.957 201.126 185.665 201.5C185.374 201.875 185.221 202.362 185.207 202.959L188.436 202.25ZM43.3541 223.668H48.1871V229.521H49.687L52.4577 223.668H57.2699V224.605L53.9784 230.771L57.749 237.063V238H52.6868L49.6037 232.313H48.1871V238H43.3541V223.668ZM63.2898 238.167C62.3871 238.167 61.5399 237.931 60.7483 237.458C59.9706 236.972 59.3456 236.32 58.8734 235.5C58.4012 234.667 58.1651 233.743 58.1651 232.73C58.1651 231.73 58.4012 230.827 58.8734 230.021C59.3456 229.202 59.9775 228.563 60.7691 228.105C61.5608 227.646 62.401 227.417 63.2898 227.417C64.012 227.417 64.6786 227.619 65.2897 228.021C65.9147 228.424 66.3868 229.028 66.7063 229.834V227.417H71.081V238H66.7063V236.063C66.0119 237.465 64.8731 238.167 63.2898 238.167ZM64.6439 234.875C65.1994 234.875 65.6716 234.681 66.0605 234.292C66.4632 233.889 66.6785 233.417 66.7063 232.875V232.709C66.6785 232.153 66.4563 231.681 66.0396 231.292C65.6369 230.903 65.1716 230.709 64.6439 230.709C64.0606 230.709 63.5606 230.917 63.144 231.334C62.7412 231.737 62.5399 232.223 62.5399 232.792C62.5399 233.375 62.7482 233.868 63.1648 234.271C63.5815 234.674 64.0745 234.875 64.6439 234.875ZM73.9827 230.146H72.6702V227.563H73.9827V226.688C73.9827 225.147 74.3507 223.98 75.0868 223.188C75.8367 222.397 76.8783 222.001 78.2116 222.001C79.2809 222.001 80.2739 222.272 81.1905 222.813L81.0447 225.626C80.2392 225.306 79.5656 225.147 79.024 225.147C78.6074 225.147 78.2879 225.251 78.0657 225.459C77.8435 225.654 77.7324 225.938 77.7324 226.313C77.7324 226.674 77.8505 227.091 78.0866 227.563H81.003V230.146H78.3782V238H73.9827V230.146ZM83.0356 230.146H81.7232V227.563H83.0356V226.688C83.0356 225.147 83.4037 223.98 84.1397 223.188C84.8897 222.397 85.9313 222.001 87.2645 222.001C88.3339 222.001 89.3269 222.272 90.2435 222.813L90.0977 225.626C89.2922 225.306 88.6186 225.147 88.077 225.147C87.6603 225.147 87.3409 225.251 87.1187 225.459C86.8965 225.654 86.7854 225.938 86.7854 226.313C86.7854 226.674 86.9034 227.091 87.1395 227.563H90.056V230.146H87.4312V238H83.0356V230.146ZM96.4484 238.167C95.2957 238.167 94.2679 237.938 93.3652 237.479C92.4764 237.007 91.782 236.368 91.282 235.563C90.782 234.743 90.5321 233.82 90.5321 232.792C90.5321 231.737 90.789 230.799 91.3028 229.98C91.8167 229.16 92.5111 228.528 93.386 228.084C94.261 227.64 95.2332 227.417 96.3025 227.417C97.3302 227.417 98.2052 227.646 98.9274 228.105C99.6634 228.549 100.212 229.16 100.573 229.938C100.934 230.702 101.115 231.563 101.115 232.521C101.115 232.771 101.101 232.952 101.073 233.063L94.8235 233.875C94.9901 234.361 95.2609 234.715 95.6359 234.938C96.0109 235.146 96.5039 235.25 97.115 235.25C98.0594 235.25 99.0801 235.007 100.177 234.521L100.698 237.313C99.4065 237.882 97.9899 238.167 96.4484 238.167ZM97.8858 231.25C97.6636 230.375 97.1358 229.938 96.3025 229.938C95.8026 229.938 95.4068 230.126 95.1151 230.5C94.8235 230.875 94.6707 231.362 94.6568 231.959L97.8858 231.25Z" fill="white"/>
</svg>
