<svg width="258" height="310" viewBox="0 0 258 310" fill="none" xmlns="http://www.w3.org/2000/svg">
<rect x="9.32" y="9.32" width="239.36" height="291.36" fill="black"/>
<rect x="9.32" y="9.32" width="239.36" height="291.36" stroke="#E9D385" stroke-width="17.36"/>
<path d="M42.7613 70.3345H39.7824V67.168H50.5942V70.3345H47.6152V81.5004H42.7613V70.3345ZM52.243 67.7721L56.6385 67.1263V73.2093C56.9441 72.4732 57.4024 71.9108 58.0134 71.5219C58.6384 71.1191 59.3884 70.9178 60.2633 70.9178C61.5966 70.9178 62.6382 71.3969 63.3881 72.3552C64.1519 73.2996 64.5339 74.612 64.5339 76.2924V81.5004H60.1591V75.855C60.1591 75.2578 60.0272 74.7995 59.7633 74.48C59.5134 74.1606 59.1592 74.0009 58.7009 74.0009C58.3676 74.0009 58.0412 74.112 57.7218 74.3342C57.4024 74.5425 57.1385 74.8481 56.9302 75.2508C56.7358 75.6536 56.6385 76.1119 56.6385 76.6257V81.5004H52.243V67.7721ZM72.0046 86.271C71.2407 86.271 70.5116 86.1946 69.8172 86.0418L70.1505 82.9587C70.6922 83.042 71.1921 83.0837 71.6504 83.0837C72.4698 83.0837 73.0948 82.8337 73.5253 82.3337C73.9558 81.8476 74.1781 80.9241 74.1919 79.5631C73.4698 80.9519 72.3101 81.6463 70.713 81.6463C69.3659 81.6463 68.3104 81.1741 67.5465 80.2297C66.7966 79.2714 66.4216 77.952 66.4216 76.2716V71.0636H70.7963V76.9174C70.7963 77.3896 70.9283 77.7854 71.1921 78.1048C71.456 78.4103 71.8171 78.5631 72.2754 78.5631C72.7476 78.5631 73.1295 78.3617 73.4212 77.959C73.7267 77.5562 73.8795 77.0285 73.8795 76.3758V71.0636H78.275V78.8548C78.275 81.2713 77.7334 83.1114 76.6501 84.3752C75.5669 85.6391 74.0183 86.271 72.0046 86.271ZM84.2641 71.2094H88.6596V73.0218C89.3262 71.6191 90.4581 70.9178 92.0552 70.9178C92.9857 70.9178 93.8398 71.1539 94.6176 71.6261C95.4092 72.0844 96.0272 72.7232 96.4716 73.5426C96.9299 74.362 97.1591 75.2786 97.1591 76.2924C97.1591 77.3062 96.923 78.2229 96.4508 79.0423C95.9925 79.8616 95.3675 80.5074 94.5759 80.9796C93.7982 81.4379 92.9649 81.6671 92.0761 81.6671C90.4928 81.6671 89.354 80.9657 88.6596 79.5631V84.2086L84.2641 85.0419V71.2094ZM90.7428 78.3756C91.3122 78.3756 91.7983 78.1673 92.201 77.7507C92.6038 77.334 92.8052 76.8479 92.8052 76.2924C92.8052 75.7091 92.5969 75.2161 92.1802 74.8134C91.7775 74.4106 91.2983 74.2092 90.7428 74.2092C90.1734 74.2092 89.6873 74.4106 89.2846 74.8134C88.8818 75.2022 88.6804 75.6675 88.6804 76.2091V76.2924C88.6804 76.8757 88.8818 77.3687 89.2846 77.7715C89.7012 78.1743 90.1873 78.3756 90.7428 78.3756ZM102.415 81.6671C101.249 81.6671 100.339 81.2921 99.6863 80.5422C99.0335 79.7922 98.7071 78.7714 98.7071 77.4798V71.0636H103.124V77.2924C103.124 77.6118 103.207 77.8618 103.374 78.0423C103.554 78.209 103.783 78.2923 104.061 78.2923C104.339 78.2923 104.623 78.209 104.915 78.0423L105.144 80.938C104.839 81.1741 104.436 81.3546 103.936 81.4796C103.45 81.6046 102.943 81.6671 102.415 81.6671ZM100.915 69.5012C100.263 69.5012 99.7071 69.2998 99.2488 68.8971C98.8044 68.4804 98.5822 67.9735 98.5822 67.3763C98.5822 66.7791 98.8183 66.2792 99.2904 65.8764C99.7626 65.4737 100.304 65.2723 100.915 65.2723C101.554 65.2723 102.103 65.4806 102.561 65.8973C103.033 66.3139 103.269 66.8069 103.269 67.3763C103.269 67.9874 103.033 68.4943 102.561 68.8971C102.089 69.2998 101.54 69.5012 100.915 69.5012ZM110.024 81.6671C108.843 81.6671 107.927 81.2991 107.274 80.563C106.635 79.813 106.316 78.7923 106.316 77.5007V67.7721L110.711 67.1263V77.1882C110.711 77.5771 110.802 77.8618 110.982 78.0423C111.177 78.209 111.51 78.2923 111.982 78.2923C112.329 78.2923 112.669 78.209 113.003 78.0423L113.149 80.9588C112.218 81.431 111.177 81.6671 110.024 81.6671ZM117.834 81.6671C116.376 81.6671 115.098 81.4518 114.001 81.0213L114.48 78.5423C115.48 78.9034 116.452 79.0839 117.397 79.0839C118.091 79.0839 118.438 78.8895 118.438 78.5006C118.438 78.3062 118.334 78.1465 118.126 78.0215C117.932 77.8965 117.557 77.7854 117.001 77.6882C115.848 77.466 115.015 77.091 114.501 76.5632C114.001 76.0355 113.751 75.2855 113.751 74.3134C113.807 73.2162 114.244 72.376 115.064 71.7927C115.883 71.2094 117.001 70.9178 118.418 70.9178C119.14 70.9178 119.758 70.9664 120.272 71.0636C120.799 71.1469 121.279 71.2927 121.709 71.5011L121.272 73.9801C120.869 73.8273 120.424 73.7093 119.938 73.6259C119.466 73.5426 119.07 73.5009 118.751 73.5009C118.279 73.5009 117.952 73.5495 117.772 73.6468C117.591 73.744 117.501 73.8759 117.501 74.0426C117.501 74.3481 117.848 74.5634 118.543 74.6884C119.806 74.9106 120.751 75.2994 121.376 75.855C122.001 76.4105 122.313 77.1674 122.313 78.1256C122.313 79.2228 121.924 80.0908 121.147 80.7296C120.383 81.3546 119.279 81.6671 117.834 81.6671ZM123.853 71.2094H128.04V73.3343C128.846 71.7233 130.123 70.9178 131.873 70.9178C133.207 70.9178 134.248 71.3969 134.998 72.3552C135.762 73.2996 136.144 74.612 136.144 76.2924V81.5004H131.769V75.855C131.769 75.2578 131.637 74.7995 131.373 74.48C131.123 74.1606 130.769 74.0009 130.311 74.0009C129.978 74.0009 129.651 74.112 129.332 74.3342C129.012 74.5425 128.749 74.8481 128.54 75.2508C128.346 75.6536 128.249 76.1119 128.249 76.6257V81.5004H123.853V71.2094ZM143.55 81.6671C142.397 81.6671 141.37 81.4379 140.467 80.9796C139.578 80.5074 138.884 79.8686 138.384 79.0631C137.884 78.2437 137.634 77.3201 137.634 76.2924C137.634 75.2369 137.891 74.2995 138.405 73.4801C138.919 72.6607 139.613 72.0288 140.488 71.5844C141.363 71.14 142.335 70.9178 143.404 70.9178C144.432 70.9178 145.307 71.1469 146.029 71.6052C146.765 72.0496 147.314 72.6607 147.675 73.4384C148.036 74.2023 148.217 75.0633 148.217 76.0216C148.217 76.2716 148.203 76.4521 148.175 76.5632L141.925 77.3757C142.092 77.8618 142.363 78.2159 142.738 78.4381C143.113 78.6464 143.606 78.7506 144.217 78.7506C145.161 78.7506 146.182 78.5076 147.279 78.0215L147.8 80.813C146.508 81.3824 145.092 81.6671 143.55 81.6671ZM144.988 74.7509C144.765 73.8759 144.238 73.4384 143.404 73.4384C142.904 73.4384 142.509 73.6259 142.217 74.0009C141.925 74.3759 141.772 74.862 141.759 75.4591L144.988 74.7509ZM149.73 71.2094H154.126V73.3343C154.445 72.5149 154.876 71.9108 155.417 71.5219C155.973 71.1191 156.619 70.9178 157.355 70.9178L157.959 74.3134C156.64 74.3134 155.667 74.4592 155.042 74.7509C154.431 75.0286 154.126 75.473 154.126 76.0841V81.5004H149.73V71.2094Z" fill="white"/>
<path d="M42.7613 99.3345H39.7824V96.168H50.5942V99.3345H47.6152V110.5H42.7613V99.3345ZM52.243 96.7721L56.6385 96.1263V102.209C56.9441 101.473 57.4024 100.911 58.0134 100.522C58.6384 100.119 59.3884 99.9178 60.2633 99.9178C61.5966 99.9178 62.6382 100.397 63.3881 101.355C64.1519 102.3 64.5339 103.612 64.5339 105.292V110.5H60.1591V104.855C60.1591 104.258 60.0272 103.799 59.7633 103.48C59.5134 103.161 59.1592 103.001 58.7009 103.001C58.3676 103.001 58.0412 103.112 57.7218 103.334C57.4024 103.543 57.1385 103.848 56.9302 104.251C56.7358 104.654 56.6385 105.112 56.6385 105.626V110.5H52.243V96.7721ZM72.0046 115.271C71.2407 115.271 70.5116 115.195 69.8172 115.042L70.1505 111.959C70.6922 112.042 71.1921 112.084 71.6504 112.084C72.4698 112.084 73.0948 111.834 73.5253 111.334C73.9558 110.848 74.1781 109.924 74.1919 108.563C73.4698 109.952 72.3101 110.646 70.713 110.646C69.3659 110.646 68.3104 110.174 67.5465 109.23C66.7966 108.271 66.4216 106.952 66.4216 105.272V100.064H70.7963V105.917C70.7963 106.39 70.9283 106.785 71.1921 107.105C71.456 107.41 71.8171 107.563 72.2754 107.563C72.7476 107.563 73.1295 107.362 73.4212 106.959C73.7267 106.556 73.8795 106.028 73.8795 105.376V100.064H78.275V107.855C78.275 110.271 77.7334 112.111 76.6501 113.375C75.5669 114.639 74.0183 115.271 72.0046 115.271ZM89.4096 110.667C88.2985 110.667 87.3125 110.445 86.4514 110C85.6042 109.542 84.9376 108.903 84.4515 108.084C83.9794 107.265 83.7433 106.334 83.7433 105.292C83.7433 104.292 83.9932 103.383 84.4932 102.563C84.9932 101.744 85.6737 101.098 86.5347 100.626C87.3958 100.154 88.3541 99.9178 89.4096 99.9178C90.7567 99.9178 91.8191 100.196 92.5969 100.751L92.201 103.522C91.4094 103.286 90.7567 103.168 90.2428 103.168C89.5762 103.168 89.0485 103.362 88.6596 103.751C88.2707 104.126 88.0763 104.64 88.0763 105.292C88.0763 105.945 88.2707 106.466 88.6596 106.855C89.0485 107.244 89.5623 107.438 90.2012 107.438C90.7567 107.438 91.4094 107.32 92.1594 107.084L92.5552 110C92.083 110.237 91.6039 110.403 91.1178 110.5C90.6317 110.612 90.0623 110.667 89.4096 110.667ZM97.7565 110.667C96.576 110.667 95.6594 110.299 95.0067 109.563C94.3678 108.813 94.0484 107.792 94.0484 106.501V96.7721L98.444 96.1263V106.188C98.444 106.577 98.5343 106.862 98.7148 107.042C98.9092 107.209 99.2425 107.292 99.7147 107.292C100.062 107.292 100.402 107.209 100.735 107.042L100.881 109.959C99.9508 110.431 98.9092 110.667 97.7565 110.667ZM106.567 110.667C105.664 110.667 104.817 110.431 104.025 109.959C103.248 109.473 102.623 108.82 102.151 108.001C101.678 107.167 101.442 106.244 101.442 105.23C101.442 104.23 101.678 103.327 102.151 102.522C102.623 101.702 103.255 101.064 104.046 100.605C104.838 100.147 105.678 99.9178 106.567 99.9178C107.289 99.9178 107.956 100.119 108.567 100.522C109.192 100.925 109.664 101.529 109.983 102.334V99.9178H114.358V110.5H109.983V108.563C109.289 109.966 108.15 110.667 106.567 110.667ZM107.921 107.376C108.477 107.376 108.949 107.181 109.338 106.792C109.74 106.39 109.956 105.917 109.983 105.376V105.209C109.956 104.654 109.733 104.181 109.317 103.793C108.914 103.404 108.449 103.209 107.921 103.209C107.338 103.209 106.838 103.418 106.421 103.834C106.018 104.237 105.817 104.723 105.817 105.292C105.817 105.876 106.025 106.369 106.442 106.771C106.859 107.174 107.352 107.376 107.921 107.376ZM120.072 110.667C118.614 110.667 117.336 110.452 116.239 110.021L116.718 107.542C117.718 107.903 118.69 108.084 119.635 108.084C120.329 108.084 120.676 107.889 120.676 107.501C120.676 107.306 120.572 107.146 120.364 107.021C120.169 106.896 119.794 106.785 119.239 106.688C118.086 106.466 117.253 106.091 116.739 105.563C116.239 105.035 115.989 104.286 115.989 103.313C116.045 102.216 116.482 101.376 117.302 100.793C118.121 100.209 119.239 99.9178 120.655 99.9178C121.378 99.9178 121.996 99.9664 122.51 100.064C123.037 100.147 123.516 100.293 123.947 100.501L123.509 102.98C123.107 102.827 122.662 102.709 122.176 102.626C121.704 102.543 121.308 102.501 120.989 102.501C120.517 102.501 120.19 102.55 120.01 102.647C119.829 102.744 119.739 102.876 119.739 103.043C119.739 103.348 120.086 103.563 120.78 103.688C122.044 103.911 122.989 104.299 123.614 104.855C124.239 105.41 124.551 106.167 124.551 107.126C124.551 108.223 124.162 109.091 123.384 109.73C122.621 110.355 121.517 110.667 120.072 110.667ZM129.695 110.667C128.237 110.667 126.959 110.452 125.862 110.021L126.341 107.542C127.341 107.903 128.313 108.084 129.257 108.084C129.952 108.084 130.299 107.889 130.299 107.501C130.299 107.306 130.195 107.146 129.986 107.021C129.792 106.896 129.417 106.785 128.861 106.688C127.709 106.466 126.875 106.091 126.362 105.563C125.862 105.035 125.612 104.286 125.612 103.313C125.667 102.216 126.105 101.376 126.924 100.793C127.743 100.209 128.861 99.9178 130.278 99.9178C131 99.9178 131.618 99.9664 132.132 100.064C132.66 100.147 133.139 100.293 133.57 100.501L133.132 102.98C132.729 102.827 132.285 102.709 131.799 102.626C131.327 102.543 130.931 102.501 130.611 102.501C130.139 102.501 129.813 102.55 129.632 102.647C129.452 102.744 129.361 102.876 129.361 103.043C129.361 103.348 129.709 103.563 130.403 103.688C131.667 103.911 132.611 104.299 133.236 104.855C133.861 105.41 134.174 106.167 134.174 107.126C134.174 108.223 133.785 109.091 133.007 109.73C132.243 110.355 131.139 110.667 129.695 110.667ZM139.38 110.667C138.213 110.667 137.304 110.292 136.651 109.542C135.998 108.792 135.672 107.771 135.672 106.48V100.064H140.088V106.292C140.088 106.612 140.171 106.862 140.338 107.042C140.519 107.209 140.748 107.292 141.026 107.292C141.303 107.292 141.588 107.209 141.88 107.042L142.109 109.938C141.803 110.174 141.401 110.355 140.901 110.48C140.415 110.605 139.908 110.667 139.38 110.667ZM137.88 98.5012C137.227 98.5012 136.672 98.2998 136.213 97.8971C135.769 97.4804 135.547 96.9735 135.547 96.3763C135.547 95.7791 135.783 95.2792 136.255 94.8764C136.727 94.4737 137.269 94.2723 137.88 94.2723C138.519 94.2723 139.067 94.4806 139.526 94.8973C139.998 95.3139 140.234 95.8069 140.234 96.3763C140.234 96.9874 139.998 97.4943 139.526 97.8971C139.053 98.2998 138.505 98.5012 137.88 98.5012ZM148.467 110.667C147.356 110.667 146.37 110.445 145.509 110C144.662 109.542 143.996 108.903 143.509 108.084C143.037 107.265 142.801 106.334 142.801 105.292C142.801 104.292 143.051 103.383 143.551 102.563C144.051 101.744 144.732 101.098 145.593 100.626C146.454 100.154 147.412 99.9178 148.467 99.9178C149.815 99.9178 150.877 100.196 151.655 100.751L151.259 103.522C150.467 103.286 149.815 103.168 149.301 103.168C148.634 103.168 148.106 103.362 147.718 103.751C147.329 104.126 147.134 104.64 147.134 105.292C147.134 105.945 147.329 106.466 147.718 106.855C148.106 107.244 148.62 107.438 149.259 107.438C149.815 107.438 150.467 107.32 151.217 107.084L151.613 110C151.141 110.237 150.662 110.403 150.176 110.5C149.69 110.612 149.12 110.667 148.467 110.667Z" fill="white"/>
<path d="M199.044 78.1048H193.273V75.1883L198.815 67.5638H203.481V75.23H205.481V78.1256H203.481V81.5004H199.044V78.1048ZM199.044 75.23V71.1053L196.336 75.23H199.044ZM212.663 81.7712C211.469 81.7712 210.427 81.6046 209.538 81.2713C208.649 80.938 207.962 80.4658 207.476 79.8547C206.99 79.2436 206.747 78.5284 206.747 77.709C206.747 76.1674 207.622 75.0564 209.372 74.3759C208.802 73.9037 208.393 73.4246 208.143 72.9385C207.906 72.4524 207.788 71.876 207.788 71.2094C207.788 70.4595 207.997 69.7928 208.413 69.2095C208.844 68.6262 209.441 68.1749 210.205 67.8555C210.983 67.536 211.865 67.3763 212.851 67.3763C213.739 67.3763 214.531 67.5152 215.225 67.793C215.934 68.0568 216.482 68.4388 216.871 68.9387C217.274 69.4248 217.475 69.9803 217.475 70.6053C217.475 71.258 217.336 71.8066 217.059 72.251C216.781 72.6954 216.343 73.0704 215.746 73.3759C216.705 73.8759 217.406 74.4453 217.85 75.0842C218.309 75.723 218.538 76.4869 218.538 77.3757C218.538 78.7506 218.017 79.8269 216.975 80.6047C215.934 81.3824 214.496 81.7712 212.663 81.7712ZM213.559 72.626C213.989 72.2094 214.205 71.7094 214.205 71.1261C214.205 70.64 214.073 70.272 213.809 70.022C213.545 69.7581 213.163 69.6262 212.663 69.6262C212.135 69.6262 211.733 69.7234 211.455 69.9178C211.191 70.0984 211.059 70.3622 211.059 70.7094C211.059 71.0566 211.191 71.3552 211.455 71.6052C211.733 71.8552 212.198 72.1052 212.851 72.3552L213.559 72.626ZM212.684 78.8964C213.212 78.8964 213.635 78.7992 213.955 78.6048C214.288 78.3965 214.455 78.1256 214.455 77.7923C214.455 77.4312 214.302 77.1188 213.996 76.8549C213.705 76.5771 213.219 76.3063 212.538 76.0424L211.58 75.6675C211.135 76.1258 210.913 76.6952 210.913 77.3757C210.913 77.834 211.073 78.202 211.392 78.4798C211.726 78.7575 212.156 78.8964 212.684 78.8964Z" fill="white"/>
<path d="M200.336 110.771C199.058 110.771 197.739 110.473 196.378 109.875L196.648 106.938C197.204 107.146 197.766 107.306 198.336 107.417C198.905 107.528 199.412 107.584 199.856 107.584C200.509 107.584 201.009 107.431 201.356 107.126C201.704 106.82 201.877 106.41 201.877 105.897C201.877 105.438 201.752 105.07 201.502 104.792C201.252 104.501 200.926 104.355 200.523 104.355C199.954 104.355 199.266 104.633 198.461 105.188L196.294 104.251L196.836 96.5638H204.877L204.565 99.5428H199.648L199.377 101.855C199.752 101.619 200.12 101.452 200.481 101.355C200.843 101.258 201.259 101.209 201.731 101.209C202.537 101.209 203.259 101.411 203.898 101.813C204.551 102.216 205.058 102.779 205.419 103.501C205.794 104.209 205.981 105.008 205.981 105.897C205.981 106.827 205.738 107.667 205.252 108.417C204.766 109.153 204.092 109.73 203.231 110.146C202.384 110.563 201.419 110.771 200.336 110.771ZM207.338 107.563C208.977 106.091 210.213 104.841 211.047 103.813C211.88 102.786 212.296 101.932 212.296 101.251C212.296 100.807 212.158 100.466 211.88 100.23C211.616 99.9942 211.255 99.8761 210.797 99.8761C209.935 99.8761 209.04 100.147 208.109 100.689L207.088 97.5846C207.852 97.1957 208.602 96.9041 209.338 96.7096C210.088 96.5152 210.873 96.418 211.692 96.418C212.664 96.418 213.512 96.6124 214.234 97.0013C214.97 97.3763 215.532 97.8971 215.921 98.5637C216.31 99.2164 216.505 99.9664 216.505 100.814C216.505 102.077 216.081 103.258 215.234 104.355C214.387 105.438 213.109 106.473 211.401 107.459H216.421V110.5H207.338V107.563Z" fill="white"/>
<path d="M42.6568 37.5714H52.5312V40.7379H47.1357V43.6336H52.1354V46.2584H47.1357V51.9039H42.6568V37.5714ZM58.4831 52.0705C57.5804 52.0705 56.7332 51.8344 55.9416 51.3622C55.1639 50.8762 54.5389 50.2234 54.0667 49.404C53.5945 48.5707 53.3584 47.6472 53.3584 46.6334C53.3584 45.6334 53.5945 44.7307 54.0667 43.9252C54.5389 43.1058 55.1708 42.467 55.9624 42.0087C56.7541 41.5504 57.5943 41.3212 58.4831 41.3212C59.2053 41.3212 59.8719 41.5226 60.483 41.9253C61.108 42.3281 61.5801 42.9322 61.8996 43.7377V41.3212H66.2743V51.9039H61.8996V49.9665C61.2052 51.3692 60.0664 52.0705 58.4831 52.0705ZM59.8372 48.7791C60.3927 48.7791 60.8649 48.5846 61.2538 48.1958C61.6565 47.793 61.8718 47.3208 61.8996 46.7792V46.6125C61.8718 46.057 61.6496 45.5848 61.2329 45.196C60.8302 44.8071 60.3649 44.6127 59.8372 44.6127C59.2539 44.6127 58.7539 44.821 58.3373 45.2376C57.9345 45.6404 57.7332 46.1265 57.7332 46.6959C57.7332 47.2792 57.9415 47.7722 58.3581 48.1749C58.7748 48.5777 59.2678 48.7791 59.8372 48.7791ZM72.9466 52.0705C72.0022 52.0705 71.1411 51.8205 70.3634 51.3206C69.5995 50.8206 68.9954 50.1609 68.551 49.3415C68.1066 48.5083 67.8844 47.6264 67.8844 46.6959C67.8844 45.7098 68.1135 44.8071 68.5718 43.9877C69.044 43.1544 69.669 42.5017 70.4467 42.0295C71.2383 41.5573 72.0786 41.3212 72.9674 41.3212C73.7729 41.3212 74.4534 41.4879 75.0089 41.8212C75.5783 42.1545 76.0366 42.6892 76.3838 43.4252V38.1756L80.7794 37.5298V51.9039H76.3838V49.9665C75.7311 51.3692 74.5853 52.0705 72.9466 52.0705ZM74.3215 48.7791C74.9048 48.7791 75.3908 48.5707 75.7797 48.1541C76.1825 47.7375 76.3838 47.2514 76.3838 46.6959V46.6125C76.3838 46.0709 76.1755 45.6057 75.7589 45.2168C75.3422 44.814 74.8631 44.6127 74.3215 44.6127C73.7382 44.6127 73.2451 44.821 72.8424 45.2376C72.4535 45.6404 72.2591 46.1265 72.2591 46.6959C72.2591 47.2792 72.4605 47.7722 72.8632 48.1749C73.2799 48.5777 73.7659 48.7791 74.3215 48.7791ZM86.0554 51.7164C84.9166 51.3414 84.0208 50.7095 83.3681 49.8207C82.7154 48.9318 82.389 47.8833 82.389 46.675C82.389 45.6195 82.6459 44.6891 83.1598 43.8835C83.6736 43.0642 84.3819 42.4323 85.2846 41.9878C86.2012 41.5434 87.2428 41.3212 88.4094 41.3212C88.7427 41.3212 89.0691 41.342 89.3885 41.3837L89.9302 39.6755H91.3884L90.7426 41.6754C91.8814 42.0364 92.7772 42.6614 93.43 43.5502C94.0827 44.4252 94.4091 45.4668 94.4091 46.675C94.4091 47.7444 94.1521 48.6888 93.6383 49.5082C93.1383 50.3137 92.43 50.9456 91.5134 51.4039C90.6107 51.8483 89.5691 52.0705 88.3886 52.0705C88.0553 52.0705 87.7289 52.0497 87.4095 52.008L86.8679 53.7163H85.4096L86.0554 51.7164ZM88.4303 44.3627H88.4094C87.7845 44.3627 87.2845 44.5779 86.9095 45.0085C86.5346 45.4251 86.3471 45.9806 86.3471 46.675C86.3471 47.4667 86.5901 48.0847 87.0762 48.5291L88.4303 44.3627ZM88.4094 48.9874C89.0344 48.9874 89.5344 48.7791 89.9093 48.3624C90.2843 47.9319 90.4718 47.3694 90.4718 46.675C90.4718 45.8695 90.2218 45.2515 89.7219 44.821L88.3886 48.9874H88.4094ZM99.6369 52.0705C98.4564 52.0705 97.5398 51.7025 96.8871 50.9664C96.2482 50.2165 95.9288 49.1957 95.9288 47.9041V38.1756L100.324 37.5298V47.5916C100.324 47.9805 100.415 48.2652 100.595 48.4458C100.79 48.6124 101.123 48.6957 101.595 48.6957C101.942 48.6957 102.283 48.6124 102.616 48.4458L102.762 51.3622C101.831 51.8344 100.79 52.0705 99.6369 52.0705Z" fill="white"/>
</svg>
