<svg width="624" height="754" viewBox="0 0 624 754" fill="none" xmlns="http://www.w3.org/2000/svg">
<rect x="21.9647" y="21.5322" width="580.071" height="710.935" fill="black"/>
<rect x="21.9647" y="21.5322" width="580.071" height="710.935" stroke="#E9D385" stroke-width="42.0706"/>
<path d="M84.75 188.6H108.9V196.2H96.9V202.45H107.85V208.75H96.9V215.4H108.9V223H84.75V188.6ZM122.386 223.4C118.886 223.4 115.82 222.883 113.186 221.85L114.336 215.9C116.736 216.767 119.07 217.2 121.336 217.2C123.003 217.2 123.836 216.733 123.836 215.8C123.836 215.333 123.586 214.95 123.086 214.65C122.62 214.35 121.72 214.083 120.386 213.85C117.62 213.317 115.62 212.417 114.386 211.15C113.186 209.883 112.586 208.083 112.586 205.75C112.72 203.117 113.77 201.1 115.736 199.7C117.703 198.3 120.386 197.6 123.786 197.6C125.52 197.6 127.003 197.717 128.236 197.95C129.503 198.15 130.653 198.5 131.686 199L130.636 204.95C129.67 204.583 128.603 204.3 127.436 204.1C126.303 203.9 125.353 203.8 124.586 203.8C123.453 203.8 122.67 203.917 122.236 204.15C121.803 204.383 121.586 204.7 121.586 205.1C121.586 205.833 122.42 206.35 124.086 206.65C127.12 207.183 129.386 208.117 130.886 209.45C132.386 210.783 133.136 212.6 133.136 214.9C133.136 217.533 132.203 219.617 130.336 221.15C128.503 222.65 125.853 223.4 122.386 223.4ZM136.832 198.3H147.382V202.65C148.982 199.283 151.699 197.6 155.532 197.6C157.765 197.6 159.815 198.167 161.682 199.3C163.582 200.4 165.065 201.933 166.132 203.9C167.232 205.867 167.782 208.067 167.782 210.5C167.782 212.933 167.215 215.133 166.082 217.1C164.982 219.067 163.482 220.617 161.582 221.75C159.715 222.85 157.715 223.4 155.582 223.4C151.782 223.4 149.049 221.717 147.382 218.35V229.5L136.832 231.5V198.3ZM152.382 215.5C153.749 215.5 154.915 215 155.882 214C156.849 213 157.332 211.833 157.332 210.5C157.332 209.1 156.832 207.917 155.832 206.95C154.865 205.983 153.715 205.5 152.382 205.5C151.015 205.5 149.849 205.983 148.882 206.95C147.915 207.883 147.432 209 147.432 210.3V210.5C147.432 211.9 147.915 213.083 148.882 214.05C149.882 215.017 151.049 215.5 152.382 215.5ZM171.598 198.3H182.148V203.4C182.914 201.433 183.948 199.983 185.248 199.05C186.581 198.083 188.131 197.6 189.898 197.6L191.348 205.75C188.181 205.75 185.848 206.1 184.348 206.8C182.881 207.467 182.148 208.533 182.148 210V223H171.598V198.3ZM206.862 223.4C204.095 223.4 201.629 222.85 199.462 221.75C197.329 220.617 195.662 219.083 194.462 217.15C193.262 215.183 192.662 212.967 192.662 210.5C192.662 207.967 193.279 205.717 194.512 203.75C195.745 201.783 197.412 200.267 199.512 199.2C201.612 198.133 203.945 197.6 206.512 197.6C208.979 197.6 211.079 198.15 212.812 199.25C214.579 200.317 215.895 201.783 216.762 203.65C217.629 205.483 218.062 207.55 218.062 209.85C218.062 210.45 218.029 210.883 217.962 211.15L202.962 213.1C203.362 214.267 204.012 215.117 204.912 215.65C205.812 216.15 206.995 216.4 208.462 216.4C210.729 216.4 213.179 215.817 215.812 214.65L217.062 221.35C213.962 222.717 210.562 223.4 206.862 223.4ZM210.312 206.8C209.779 204.7 208.512 203.65 206.512 203.65C205.312 203.65 204.362 204.1 203.662 205C202.962 205.9 202.595 207.067 202.562 208.5L210.312 206.8ZM230.345 223.4C226.845 223.4 223.779 222.883 221.145 221.85L222.295 215.9C224.695 216.767 227.029 217.2 229.295 217.2C230.962 217.2 231.795 216.733 231.795 215.8C231.795 215.333 231.545 214.95 231.045 214.65C230.579 214.35 229.679 214.083 228.345 213.85C225.579 213.317 223.579 212.417 222.345 211.15C221.145 209.883 220.545 208.083 220.545 205.75C220.679 203.117 221.729 201.1 223.695 199.7C225.662 198.3 228.345 197.6 231.745 197.6C233.479 197.6 234.962 197.717 236.195 197.95C237.462 198.15 238.612 198.5 239.645 199L238.595 204.95C237.629 204.583 236.562 204.3 235.395 204.1C234.262 203.9 233.312 203.8 232.545 203.8C231.412 203.8 230.629 203.917 230.195 204.15C229.762 204.383 229.545 204.7 229.545 205.1C229.545 205.833 230.379 206.35 232.045 206.65C235.079 207.183 237.345 208.117 238.845 209.45C240.345 210.783 241.095 212.6 241.095 214.9C241.095 217.533 240.162 219.617 238.295 221.15C236.462 222.65 233.812 223.4 230.345 223.4ZM253.441 223.4C249.941 223.4 246.874 222.883 244.241 221.85L245.391 215.9C247.791 216.767 250.124 217.2 252.391 217.2C254.058 217.2 254.891 216.733 254.891 215.8C254.891 215.333 254.641 214.95 254.141 214.65C253.674 214.35 252.774 214.083 251.441 213.85C248.674 213.317 246.674 212.417 245.441 211.15C244.241 209.883 243.641 208.083 243.641 205.75C243.774 203.117 244.824 201.1 246.791 199.7C248.758 198.3 251.441 197.6 254.841 197.6C256.574 197.6 258.058 197.717 259.291 197.95C260.558 198.15 261.708 198.5 262.741 199L261.691 204.95C260.724 204.583 259.658 204.3 258.491 204.1C257.358 203.9 256.408 203.8 255.641 203.8C254.508 203.8 253.724 203.917 253.291 204.15C252.858 204.383 252.641 204.7 252.641 205.1C252.641 205.833 253.474 206.35 255.141 206.65C258.174 207.183 260.441 208.117 261.941 209.45C263.441 210.783 264.191 212.6 264.191 214.9C264.191 217.533 263.258 219.617 261.391 221.15C259.558 222.65 256.908 223.4 253.441 223.4ZM281.037 223.4C278.237 223.4 275.737 222.85 273.537 221.75C271.37 220.65 269.67 219.133 268.437 217.2C267.237 215.233 266.637 212.983 266.637 210.45C266.637 207.917 267.253 205.683 268.487 203.75C269.72 201.783 271.42 200.267 273.587 199.2C275.787 198.133 278.287 197.6 281.087 197.6C283.92 197.6 286.42 198.15 288.587 199.25C290.787 200.317 292.487 201.817 293.687 203.75C294.887 205.683 295.487 207.917 295.487 210.45C295.487 213.017 294.87 215.283 293.637 217.25C292.437 219.183 290.737 220.7 288.537 221.8C286.37 222.867 283.87 223.4 281.037 223.4ZM281.137 215.9C282.503 215.9 283.62 215.4 284.487 214.4C285.387 213.367 285.837 212.05 285.837 210.45C285.837 208.85 285.387 207.55 284.487 206.55C283.62 205.517 282.503 205 281.137 205C279.77 205 278.637 205.517 277.737 206.55C276.87 207.55 276.437 208.85 276.437 210.45C276.437 212.05 276.87 213.367 277.737 214.4C278.637 215.4 279.77 215.9 281.137 215.9Z" fill="white"/>
<path d="M91.25 258.6H106.45L116.4 293H104.65L103.35 286.4H94.45L93 293H81.75L91.25 258.6ZM102.15 280.25L98.9 265.2L95.5 280.25H102.15ZM118.961 268.3H129.011V273.4C130.144 271.433 131.428 269.983 132.861 269.05C134.328 268.083 136.061 267.6 138.061 267.6C140.028 267.6 141.728 268.1 143.161 269.1C144.628 270.067 145.728 271.383 146.461 273.05C148.594 269.417 151.694 267.6 155.761 267.6C157.694 267.6 159.378 268.117 160.811 269.15C162.278 270.183 163.411 271.683 164.211 273.65C165.011 275.583 165.411 277.867 165.411 280.5V293H154.861V280.5C154.861 278.8 154.561 277.517 153.961 276.65C153.394 275.783 152.594 275.35 151.561 275.35C150.428 275.35 149.444 275.833 148.611 276.8C147.811 277.767 147.411 278.933 147.411 280.3V293H136.961V280.5C136.961 278.8 136.661 277.517 136.061 276.65C135.494 275.783 134.678 275.35 133.611 275.35C132.478 275.35 131.511 275.833 130.711 276.8C129.911 277.767 129.511 278.933 129.511 280.3V293H118.961V268.3ZM183.229 293.4C180.463 293.4 177.996 292.85 175.829 291.75C173.696 290.617 172.029 289.083 170.829 287.15C169.629 285.183 169.029 282.967 169.029 280.5C169.029 277.967 169.646 275.717 170.879 273.75C172.113 271.783 173.779 270.267 175.879 269.2C177.979 268.133 180.313 267.6 182.879 267.6C185.346 267.6 187.446 268.15 189.179 269.25C190.946 270.317 192.263 271.783 193.129 273.65C193.996 275.483 194.429 277.55 194.429 279.85C194.429 280.45 194.396 280.883 194.329 281.15L179.329 283.1C179.729 284.267 180.379 285.117 181.279 285.65C182.179 286.15 183.363 286.4 184.829 286.4C187.096 286.4 189.546 285.817 192.179 284.65L193.429 291.35C190.329 292.717 186.929 293.4 183.229 293.4ZM186.679 276.8C186.146 274.7 184.879 273.65 182.879 273.65C181.679 273.65 180.729 274.1 180.029 275C179.329 275.9 178.963 277.067 178.929 278.5L186.679 276.8ZM198.063 268.3H208.613V273.4C209.379 271.433 210.413 269.983 211.713 269.05C213.046 268.083 214.596 267.6 216.363 267.6L217.813 275.75C214.646 275.75 212.313 276.1 210.813 276.8C209.346 277.467 208.613 278.533 208.613 280V293H198.063V268.3ZM229.177 293.4C226.377 293.4 224.194 292.5 222.627 290.7C221.06 288.9 220.277 286.45 220.277 283.35V267.95H230.877V282.9C230.877 283.667 231.077 284.267 231.477 284.7C231.91 285.1 232.46 285.3 233.127 285.3C233.794 285.3 234.477 285.1 235.177 284.7L235.727 291.65C234.994 292.217 234.027 292.65 232.827 292.95C231.66 293.25 230.444 293.4 229.177 293.4ZM225.577 264.2C224.01 264.2 222.677 263.717 221.577 262.75C220.51 261.75 219.977 260.533 219.977 259.1C219.977 257.667 220.544 256.467 221.677 255.5C222.81 254.533 224.11 254.05 225.577 254.05C227.11 254.05 228.427 254.55 229.527 255.55C230.66 256.55 231.227 257.733 231.227 259.1C231.227 260.567 230.66 261.783 229.527 262.75C228.394 263.717 227.077 264.2 225.577 264.2ZM250.989 293.4C248.322 293.4 245.955 292.867 243.889 291.8C241.855 290.7 240.255 289.167 239.089 287.2C237.955 285.233 237.389 283 237.389 280.5C237.389 278.1 237.989 275.917 239.189 273.95C240.389 271.983 242.022 270.433 244.089 269.3C246.155 268.167 248.455 267.6 250.989 267.6C254.222 267.6 256.772 268.267 258.639 269.6L257.689 276.25C255.789 275.683 254.222 275.4 252.989 275.4C251.389 275.4 250.122 275.867 249.189 276.8C248.255 277.7 247.789 278.933 247.789 280.5C247.789 282.067 248.255 283.317 249.189 284.25C250.122 285.183 251.355 285.65 252.889 285.65C254.222 285.65 255.789 285.367 257.589 284.8L258.539 291.8C257.405 292.367 256.255 292.767 255.089 293C253.922 293.267 252.555 293.4 250.989 293.4ZM272.98 293.4C270.813 293.4 268.78 292.833 266.88 291.7C265.013 290.533 263.513 288.967 262.38 287C261.246 285 260.68 282.783 260.68 280.35C260.68 277.95 261.246 275.783 262.38 273.85C263.513 271.883 265.03 270.35 266.93 269.25C268.83 268.15 270.846 267.6 272.98 267.6C274.713 267.6 276.313 268.083 277.78 269.05C279.28 270.017 280.413 271.467 281.18 273.4V267.6H291.68V293H281.18V288.35C279.513 291.717 276.78 293.4 272.98 293.4ZM276.23 285.5C277.563 285.5 278.696 285.033 279.63 284.1C280.596 283.133 281.113 282 281.18 280.7V280.3C281.113 278.967 280.58 277.833 279.58 276.9C278.613 275.967 277.496 275.5 276.23 275.5C274.83 275.5 273.63 276 272.63 277C271.663 277.967 271.18 279.133 271.18 280.5C271.18 281.9 271.68 283.083 272.68 284.05C273.68 285.017 274.863 285.5 276.23 285.5ZM296.744 268.3H306.794V273.4C308.727 269.533 311.794 267.6 315.994 267.6C319.194 267.6 321.694 268.75 323.494 271.05C325.327 273.317 326.244 276.467 326.244 280.5V293H315.744V279.45C315.744 278.017 315.427 276.917 314.794 276.15C314.194 275.383 313.344 275 312.244 275C311.444 275 310.661 275.267 309.894 275.8C309.127 276.3 308.494 277.033 307.994 278C307.527 278.967 307.294 280.067 307.294 281.3V293H296.744V268.3ZM344.22 293.4C341.42 293.4 338.92 292.85 336.72 291.75C334.554 290.65 332.854 289.133 331.62 287.2C330.42 285.233 329.82 282.983 329.82 280.45C329.82 277.917 330.437 275.683 331.67 273.75C332.904 271.783 334.604 270.267 336.77 269.2C338.97 268.133 341.47 267.6 344.27 267.6C347.104 267.6 349.604 268.15 351.77 269.25C353.97 270.317 355.67 271.817 356.87 273.75C358.07 275.683 358.67 277.917 358.67 280.45C358.67 283.017 358.054 285.283 356.82 287.25C355.62 289.183 353.92 290.7 351.72 291.8C349.554 292.867 347.054 293.4 344.22 293.4ZM344.32 285.9C345.687 285.9 346.804 285.4 347.67 284.4C348.57 283.367 349.02 282.05 349.02 280.45C349.02 278.85 348.57 277.55 347.67 276.55C346.804 275.517 345.687 275 344.32 275C342.954 275 341.82 275.517 340.92 276.55C340.054 277.55 339.62 278.85 339.62 280.45C339.62 282.05 340.054 283.367 340.92 284.4C341.82 285.4 342.954 285.9 344.32 285.9Z" fill="white"/>
<path d="M100.95 363.8C97.6167 363.8 94.5833 363.017 91.85 361.45C89.15 359.85 87 357.683 85.4 354.95C83.8333 352.183 83.05 349.133 83.05 345.8C83.05 342.4 83.8167 339.333 85.35 336.6C86.8833 333.867 88.9833 331.733 91.65 330.2C94.3167 328.633 97.3167 327.85 100.65 327.85C102.45 327.85 104.217 328.067 105.95 328.5C107.683 328.933 109.167 329.55 110.4 330.35L109.05 338.1C106.65 337.2 104.483 336.75 102.55 336.75C99.8833 336.75 97.8333 337.533 96.4 339.1C94.9667 340.633 94.25 342.85 94.25 345.75C94.25 348.583 95 350.8 96.5 352.4C98.0333 353.967 100.15 354.75 102.85 354.75C103.883 354.75 104.85 354.65 105.75 354.45C106.65 354.25 107.75 353.883 109.05 353.35L110.45 361.25C107.55 362.95 104.383 363.8 100.95 363.8ZM126.886 363.4C124.086 363.4 121.586 362.85 119.386 361.75C117.22 360.65 115.52 359.133 114.286 357.2C113.086 355.233 112.486 352.983 112.486 350.45C112.486 347.917 113.103 345.683 114.336 343.75C115.57 341.783 117.27 340.267 119.436 339.2C121.636 338.133 124.136 337.6 126.936 337.6C129.77 337.6 132.27 338.15 134.436 339.25C136.636 340.317 138.336 341.817 139.536 343.75C140.736 345.683 141.336 347.917 141.336 350.45C141.336 353.017 140.72 355.283 139.486 357.25C138.286 359.183 136.586 360.7 134.386 361.8C132.22 362.867 129.72 363.4 126.886 363.4ZM126.986 355.9C128.353 355.9 129.47 355.4 130.336 354.4C131.236 353.367 131.686 352.05 131.686 350.45C131.686 348.85 131.236 347.55 130.336 346.55C129.47 345.517 128.353 345 126.986 345C125.62 345 124.486 345.517 123.586 346.55C122.72 347.55 122.286 348.85 122.286 350.45C122.286 352.05 122.72 353.367 123.586 354.4C124.486 355.4 125.62 355.9 126.986 355.9ZM145.084 338.3H155.634V343.4C156.401 341.433 157.434 339.983 158.734 339.05C160.067 338.083 161.617 337.6 163.384 337.6L164.834 345.75C161.667 345.75 159.334 346.1 157.834 346.8C156.367 347.467 155.634 348.533 155.634 350V363H145.084V338.3ZM178.348 363.4C175.415 363.4 173.132 362.567 171.498 360.9C169.865 359.2 169.048 356.867 169.048 353.9V344.15H165.848V337.95H169.798L174.448 328.5H179.498V337.95H185.298V344.15H179.498V352.65C179.498 353.483 179.765 354.133 180.298 354.6C180.832 355.067 181.582 355.3 182.548 355.3C183.448 355.3 184.265 355.1 184.998 354.7L185.398 361.7C184.565 362.2 183.482 362.617 182.148 362.95C180.848 363.25 179.582 363.4 178.348 363.4ZM199.689 363.4C197.522 363.4 195.489 362.833 193.589 361.7C191.722 360.533 190.222 358.967 189.089 357C187.955 355 187.389 352.783 187.389 350.35C187.389 347.95 187.955 345.783 189.089 343.85C190.222 341.883 191.739 340.35 193.639 339.25C195.539 338.15 197.555 337.6 199.689 337.6C201.422 337.6 203.022 338.083 204.489 339.05C205.989 340.017 207.122 341.467 207.889 343.4V337.6H218.389V363H207.889V358.35C206.222 361.717 203.489 363.4 199.689 363.4ZM202.939 355.5C204.272 355.5 205.405 355.033 206.339 354.1C207.305 353.133 207.822 352 207.889 350.7V350.3C207.822 348.967 207.289 347.833 206.289 346.9C205.322 345.967 204.205 345.5 202.939 345.5C201.539 345.5 200.339 346 199.339 347C198.372 347.967 197.889 349.133 197.889 350.5C197.889 351.9 198.389 353.083 199.389 354.05C200.389 355.017 201.572 355.5 202.939 355.5ZM234.403 363.4C232.136 363.4 230.07 362.8 228.203 361.6C226.37 360.4 224.92 358.817 223.853 356.85C222.786 354.85 222.253 352.733 222.253 350.5C222.253 348.133 222.803 345.967 223.903 344C225.036 342 226.536 340.433 228.403 339.3C230.303 338.167 232.32 337.6 234.453 337.6C236.386 337.6 238.02 338 239.353 338.8C240.72 339.6 241.82 340.883 242.653 342.65V330.05L253.203 328.5V363H242.653V358.35C241.086 361.717 238.336 363.4 234.403 363.4ZM237.703 355.5C239.103 355.5 240.27 355 241.203 354C242.17 353 242.653 351.833 242.653 350.5V350.3C242.653 349 242.153 347.883 241.153 346.95C240.153 345.983 239.003 345.5 237.703 345.5C236.303 345.5 235.12 346 234.153 347C233.22 347.967 232.753 349.133 232.753 350.5C232.753 351.9 233.236 353.083 234.203 354.05C235.203 355.017 236.37 355.5 237.703 355.5ZM271.466 363.4C268.666 363.4 266.166 362.85 263.966 361.75C261.8 360.65 260.1 359.133 258.866 357.2C257.666 355.233 257.066 352.983 257.066 350.45C257.066 347.917 257.683 345.683 258.916 343.75C260.15 341.783 261.85 340.267 264.016 339.2C266.216 338.133 268.716 337.6 271.516 337.6C274.35 337.6 276.85 338.15 279.016 339.25C281.216 340.317 282.916 341.817 284.116 343.75C285.316 345.683 285.916 347.917 285.916 350.45C285.916 353.017 285.3 355.283 284.066 357.25C282.866 359.183 281.166 360.7 278.966 361.8C276.8 362.867 274.3 363.4 271.466 363.4ZM271.566 355.9C272.933 355.9 274.05 355.4 274.916 354.4C275.816 353.367 276.266 352.05 276.266 350.45C276.266 348.85 275.816 347.55 274.916 346.55C274.05 345.517 272.933 345 271.566 345C270.2 345 269.066 345.517 268.166 346.55C267.3 347.55 266.866 348.85 266.866 350.45C266.866 352.05 267.3 353.367 268.166 354.4C269.066 355.4 270.2 355.9 271.566 355.9Z" fill="white"/>
<path d="M100.95 433.8C97.6167 433.8 94.5833 433.017 91.85 431.45C89.15 429.85 87 427.683 85.4 424.95C83.8333 422.183 83.05 419.133 83.05 415.8C83.05 412.4 83.8167 409.333 85.35 406.6C86.8833 403.867 88.9833 401.733 91.65 400.2C94.3167 398.633 97.3167 397.85 100.65 397.85C102.45 397.85 104.217 398.067 105.95 398.5C107.683 398.933 109.167 399.55 110.4 400.35L109.05 408.1C106.65 407.2 104.483 406.75 102.55 406.75C99.8833 406.75 97.8333 407.533 96.4 409.1C94.9667 410.633 94.25 412.85 94.25 415.75C94.25 418.583 95 420.8 96.5 422.4C98.0333 423.967 100.15 424.75 102.85 424.75C103.883 424.75 104.85 424.65 105.75 424.45C106.65 424.25 107.75 423.883 109.05 423.35L110.45 431.25C107.55 432.95 104.383 433.8 100.95 433.8ZM124.786 433.4C122.62 433.4 120.586 432.833 118.686 431.7C116.82 430.533 115.32 428.967 114.186 427C113.053 425 112.486 422.783 112.486 420.35C112.486 417.95 113.053 415.783 114.186 413.85C115.32 411.883 116.836 410.35 118.736 409.25C120.636 408.15 122.653 407.6 124.786 407.6C126.52 407.6 128.12 408.083 129.586 409.05C131.086 410.017 132.22 411.467 132.986 413.4V407.6H143.486V433H132.986V428.35C131.32 431.717 128.586 433.4 124.786 433.4ZM128.036 425.5C129.37 425.5 130.503 425.033 131.436 424.1C132.403 423.133 132.92 422 132.986 420.7V420.3C132.92 418.967 132.386 417.833 131.386 416.9C130.42 415.967 129.303 415.5 128.036 415.5C126.636 415.5 125.436 416 124.436 417C123.47 417.967 122.986 419.133 122.986 420.5C122.986 421.9 123.486 423.083 124.486 424.05C125.486 425.017 126.67 425.5 128.036 425.5ZM148.551 408.3H159.101V412.65C160.701 409.283 163.417 407.6 167.251 407.6C169.484 407.6 171.534 408.167 173.401 409.3C175.301 410.4 176.784 411.933 177.851 413.9C178.951 415.867 179.501 418.067 179.501 420.5C179.501 422.933 178.934 425.133 177.801 427.1C176.701 429.067 175.201 430.617 173.301 431.75C171.434 432.85 169.434 433.4 167.301 433.4C163.501 433.4 160.767 431.717 159.101 428.35V439.5L148.551 441.5V408.3ZM164.101 425.5C165.467 425.5 166.634 425 167.601 424C168.567 423 169.051 421.833 169.051 420.5C169.051 419.1 168.551 417.917 167.551 416.95C166.584 415.983 165.434 415.5 164.101 415.5C162.734 415.5 161.567 415.983 160.601 416.95C159.634 417.883 159.151 419 159.151 420.3V420.5C159.151 421.9 159.634 423.083 160.601 424.05C161.601 425.017 162.767 425.5 164.101 425.5ZM183.316 408.3H193.866V412.65C195.466 409.283 198.183 407.6 202.016 407.6C204.25 407.6 206.3 408.167 208.166 409.3C210.066 410.4 211.55 411.933 212.616 413.9C213.716 415.867 214.266 418.067 214.266 420.5C214.266 422.933 213.7 425.133 212.566 427.1C211.466 429.067 209.966 430.617 208.066 431.75C206.2 432.85 204.2 433.4 202.066 433.4C198.266 433.4 195.533 431.717 193.866 428.35V439.5L183.316 441.5V408.3ZM198.866 425.5C200.233 425.5 201.4 425 202.366 424C203.333 423 203.816 421.833 203.816 420.5C203.816 419.1 203.316 417.917 202.316 416.95C201.35 415.983 200.2 415.5 198.866 415.5C197.5 415.5 196.333 415.983 195.366 416.95C194.4 417.883 193.916 419 193.916 420.3V420.5C193.916 421.9 194.4 423.083 195.366 424.05C196.366 425.017 197.533 425.5 198.866 425.5ZM231.382 433.4C228.749 433.4 226.399 432.933 224.332 432C222.299 431.067 220.715 429.75 219.582 428.05C218.449 426.35 217.882 424.417 217.882 422.25V407.95H228.182V422.1C228.182 423.2 228.482 424.067 229.082 424.7C229.715 425.3 230.499 425.6 231.432 425.6C232.332 425.6 233.065 425.3 233.632 424.7C234.232 424.067 234.532 423.2 234.532 422.1V407.95H244.632V422.25C244.632 424.45 244.065 426.4 242.932 428.1C241.832 429.767 240.282 431.067 238.282 432C236.282 432.933 233.982 433.4 231.382 433.4ZM261.829 433.4C259.162 433.4 256.795 432.867 254.729 431.8C252.695 430.7 251.095 429.167 249.929 427.2C248.795 425.233 248.229 423 248.229 420.5C248.229 418.1 248.829 415.917 250.029 413.95C251.229 411.983 252.862 410.433 254.929 409.3C256.995 408.167 259.295 407.6 261.829 407.6C265.062 407.6 267.612 408.267 269.479 409.6L268.529 416.25C266.629 415.683 265.062 415.4 263.829 415.4C262.229 415.4 260.962 415.867 260.029 416.8C259.095 417.7 258.629 418.933 258.629 420.5C258.629 422.067 259.095 423.317 260.029 424.25C260.962 425.183 262.195 425.65 263.729 425.65C265.062 425.65 266.629 425.367 268.429 424.8L269.379 431.8C268.245 432.367 267.095 432.767 265.929 433C264.762 433.267 263.395 433.4 261.829 433.4ZM285.12 433.4C282.453 433.4 280.086 432.867 278.02 431.8C275.986 430.7 274.386 429.167 273.22 427.2C272.086 425.233 271.52 423 271.52 420.5C271.52 418.1 272.12 415.917 273.32 413.95C274.52 411.983 276.153 410.433 278.22 409.3C280.286 408.167 282.586 407.6 285.12 407.6C288.353 407.6 290.903 408.267 292.77 409.6L291.82 416.25C289.92 415.683 288.353 415.4 287.12 415.4C285.52 415.4 284.253 415.867 283.32 416.8C282.386 417.7 281.92 418.933 281.92 420.5C281.92 422.067 282.386 423.317 283.32 424.25C284.253 425.183 285.486 425.65 287.02 425.65C288.353 425.65 289.92 425.367 291.72 424.8L292.67 431.8C291.536 432.367 290.386 432.767 289.22 433C288.053 433.267 286.686 433.4 285.12 433.4ZM305.154 433.4C302.354 433.4 300.17 432.5 298.604 430.7C297.037 428.9 296.254 426.45 296.254 423.35V407.95H306.854V422.9C306.854 423.667 307.054 424.267 307.454 424.7C307.887 425.1 308.437 425.3 309.104 425.3C309.77 425.3 310.454 425.1 311.154 424.7L311.704 431.65C310.97 432.217 310.004 432.65 308.804 432.95C307.637 433.25 306.42 433.4 305.154 433.4ZM301.554 404.2C299.987 404.2 298.654 403.717 297.554 402.75C296.487 401.75 295.954 400.533 295.954 399.1C295.954 397.667 296.52 396.467 297.654 395.5C298.787 394.533 300.087 394.05 301.554 394.05C303.087 394.05 304.404 394.55 305.504 395.55C306.637 396.55 307.204 397.733 307.204 399.1C307.204 400.567 306.637 401.783 305.504 402.75C304.37 403.717 303.054 404.2 301.554 404.2ZM314.615 408.3H324.665V413.4C326.599 409.533 329.665 407.6 333.865 407.6C337.065 407.6 339.565 408.75 341.365 411.05C343.199 413.317 344.115 416.467 344.115 420.5V433H333.615V419.45C333.615 418.017 333.299 416.917 332.665 416.15C332.065 415.383 331.215 415 330.115 415C329.315 415 328.532 415.267 327.765 415.8C326.999 416.3 326.365 417.033 325.865 418C325.399 418.967 325.165 420.067 325.165 421.3V433H314.615V408.3ZM362.091 433.4C359.291 433.4 356.791 432.85 354.591 431.75C352.425 430.65 350.725 429.133 349.491 427.2C348.291 425.233 347.691 422.983 347.691 420.45C347.691 417.917 348.308 415.683 349.541 413.75C350.775 411.783 352.475 410.267 354.641 409.2C356.841 408.133 359.341 407.6 362.141 407.6C364.975 407.6 367.475 408.15 369.641 409.25C371.841 410.317 373.541 411.817 374.741 413.75C375.941 415.683 376.541 417.917 376.541 420.45C376.541 423.017 375.925 425.283 374.691 427.25C373.491 429.183 371.791 430.7 369.591 431.8C367.425 432.867 364.925 433.4 362.091 433.4ZM362.191 425.9C363.558 425.9 364.675 425.4 365.541 424.4C366.441 423.367 366.891 422.05 366.891 420.45C366.891 418.85 366.441 417.55 365.541 416.55C364.675 415.517 363.558 415 362.191 415C360.825 415 359.691 415.517 358.791 416.55C357.925 417.55 357.491 418.85 357.491 420.45C357.491 422.05 357.925 423.367 358.791 424.4C359.691 425.4 360.825 425.9 362.191 425.9Z" fill="white"/>
<path d="M84.75 468.6H95.55V495.4H107.5V503H84.75V468.6ZM121.954 503.4C119.788 503.4 117.754 502.833 115.854 501.7C113.988 500.533 112.488 498.967 111.354 497C110.221 495 109.654 492.783 109.654 490.35C109.654 487.95 110.221 485.783 111.354 483.85C112.488 481.883 114.004 480.35 115.904 479.25C117.804 478.15 119.821 477.6 121.954 477.6C123.688 477.6 125.288 478.083 126.754 479.05C128.254 480.017 129.388 481.467 130.154 483.4V477.6H140.654V503H130.154V498.35C128.488 501.717 125.754 503.4 121.954 503.4ZM125.204 495.5C126.538 495.5 127.671 495.033 128.604 494.1C129.571 493.133 130.088 492 130.154 490.7V490.3C130.088 488.967 129.554 487.833 128.554 486.9C127.588 485.967 126.471 485.5 125.204 485.5C123.804 485.5 122.604 486 121.604 487C120.638 487.967 120.154 489.133 120.154 490.5C120.154 491.9 120.654 493.083 121.654 494.05C122.654 495.017 123.838 495.5 125.204 495.5ZM156.669 503.4C153.735 503.4 151.452 502.567 149.819 500.9C148.185 499.2 147.369 496.867 147.369 493.9V484.15H144.169V477.95H148.119L152.769 468.5H157.819V477.95H163.619V484.15H157.819V492.65C157.819 493.483 158.085 494.133 158.619 494.6C159.152 495.067 159.902 495.3 160.869 495.3C161.769 495.3 162.585 495.1 163.319 494.7L163.719 501.7C162.885 502.2 161.802 502.617 160.469 502.95C159.169 503.25 157.902 503.4 156.669 503.4ZM178.397 503.4C175.464 503.4 173.181 502.567 171.547 500.9C169.914 499.2 169.097 496.867 169.097 493.9V484.15H165.897V477.95H169.847L174.497 468.5H179.547V477.95H185.347V484.15H179.547V492.65C179.547 493.483 179.814 494.133 180.347 494.6C180.881 495.067 181.631 495.3 182.597 495.3C183.497 495.3 184.314 495.1 185.047 494.7L185.447 501.7C184.614 502.2 183.531 502.617 182.197 502.95C180.897 503.25 179.631 503.4 178.397 503.4ZM201.638 503.4C198.871 503.4 196.404 502.85 194.238 501.75C192.104 500.617 190.438 499.083 189.238 497.15C188.038 495.183 187.438 492.967 187.438 490.5C187.438 487.967 188.054 485.717 189.288 483.75C190.521 481.783 192.188 480.267 194.288 479.2C196.388 478.133 198.721 477.6 201.288 477.6C203.754 477.6 205.854 478.15 207.588 479.25C209.354 480.317 210.671 481.783 211.538 483.65C212.404 485.483 212.838 487.55 212.838 489.85C212.838 490.45 212.804 490.883 212.738 491.15L197.738 493.1C198.138 494.267 198.788 495.117 199.688 495.65C200.588 496.15 201.771 496.4 203.238 496.4C205.504 496.4 207.954 495.817 210.588 494.65L211.838 501.35C208.738 502.717 205.338 503.4 201.638 503.4ZM205.088 486.8C204.554 484.7 203.288 483.65 201.288 483.65C200.088 483.65 199.138 484.1 198.438 485C197.738 485.9 197.371 487.067 197.338 488.5L205.088 486.8Z" fill="white"/>
<path d="M84.75 538.6H96.35V552.65H99.95L106.6 538.6H118.15V540.85L110.25 555.65L119.3 570.75V573H107.15L99.75 559.35H96.35V573H84.75V538.6ZM132.599 573.4C130.432 573.4 128.399 572.833 126.499 571.7C124.632 570.533 123.132 568.967 121.999 567C120.865 565 120.299 562.783 120.299 560.35C120.299 557.95 120.865 555.783 121.999 553.85C123.132 551.883 124.649 550.35 126.549 549.25C128.449 548.15 130.465 547.6 132.599 547.6C134.332 547.6 135.932 548.083 137.399 549.05C138.899 550.017 140.032 551.467 140.799 553.4V547.6H151.299V573H140.799V568.35C139.132 571.717 136.399 573.4 132.599 573.4ZM135.849 565.5C137.182 565.5 138.315 565.033 139.249 564.1C140.215 563.133 140.732 562 140.799 560.7V560.3C140.732 558.967 140.199 557.833 139.199 556.9C138.232 555.967 137.115 555.5 135.849 555.5C134.449 555.5 133.249 556 132.249 557C131.282 557.967 130.799 559.133 130.799 560.5C130.799 561.9 131.299 563.083 132.299 564.05C133.299 565.017 134.482 565.5 135.849 565.5ZM158.263 554.15H155.113V547.95H158.263V545.85C158.263 542.15 159.147 539.35 160.913 537.45C162.713 535.55 165.213 534.6 168.413 534.6C170.98 534.6 173.363 535.25 175.563 536.55L175.213 543.3C173.28 542.533 171.663 542.15 170.363 542.15C169.363 542.15 168.597 542.4 168.063 542.9C167.53 543.367 167.263 544.05 167.263 544.95C167.263 545.817 167.547 546.817 168.113 547.95H175.113V554.15H168.813V573H158.263V554.15ZM179.992 554.15H176.842V547.95H179.992V545.85C179.992 542.15 180.875 539.35 182.642 537.45C184.442 535.55 186.942 534.6 190.142 534.6C192.708 534.6 195.092 535.25 197.292 536.55L196.942 543.3C195.008 542.533 193.392 542.15 192.092 542.15C191.092 542.15 190.325 542.4 189.792 542.9C189.258 543.367 188.992 544.05 188.992 544.95C188.992 545.817 189.275 546.817 189.842 547.95H196.842V554.15H190.542V573H179.992V554.15ZM212.184 573.4C209.418 573.4 206.951 572.85 204.784 571.75C202.651 570.617 200.984 569.083 199.784 567.15C198.584 565.183 197.984 562.967 197.984 560.5C197.984 557.967 198.601 555.717 199.834 553.75C201.068 551.783 202.734 550.267 204.834 549.2C206.934 548.133 209.268 547.6 211.834 547.6C214.301 547.6 216.401 548.15 218.134 549.25C219.901 550.317 221.218 551.783 222.084 553.65C222.951 555.483 223.384 557.55 223.384 559.85C223.384 560.45 223.351 560.883 223.284 561.15L208.284 563.1C208.684 564.267 209.334 565.117 210.234 565.65C211.134 566.15 212.318 566.4 213.784 566.4C216.051 566.4 218.501 565.817 221.134 564.65L222.384 571.35C219.284 572.717 215.884 573.4 212.184 573.4ZM215.634 556.8C215.101 554.7 213.834 553.65 211.834 553.65C210.634 553.65 209.684 554.1 208.984 555C208.284 555.9 207.918 557.067 207.884 558.5L215.634 556.8Z" fill="white"/>
<path d="M473.56 215.882C477.531 212.314 480.526 209.285 482.546 206.794C484.565 204.304 485.575 202.234 485.575 200.585C485.575 199.508 485.238 198.683 484.565 198.111C483.926 197.539 483.051 197.253 481.94 197.253C479.853 197.253 477.682 197.909 475.427 199.222L472.954 191.699C474.805 190.757 476.622 190.05 478.406 189.579C480.224 189.108 482.125 188.872 484.111 188.872C486.467 188.872 488.52 189.343 490.27 190.286C492.054 191.195 493.417 192.457 494.359 194.072C495.302 195.654 495.773 197.472 495.773 199.525C495.773 202.587 494.746 205.448 492.693 208.107C490.64 210.732 487.544 213.24 483.404 215.629H495.571V223H473.56V215.882ZM515.289 223.404C512.26 223.404 509.534 222.663 507.111 221.183C504.721 219.668 502.836 217.598 501.456 214.973C500.11 212.314 499.437 209.302 499.437 205.936C499.437 202.604 500.11 199.626 501.456 197C502.836 194.341 504.721 192.272 507.111 190.791C509.534 189.276 512.26 188.519 515.289 188.519C518.285 188.519 520.977 189.276 523.367 190.791C525.79 192.272 527.675 194.341 529.021 197C530.401 199.659 531.091 202.638 531.091 205.936C531.091 209.268 530.418 212.264 529.071 214.922C527.725 217.581 525.84 219.668 523.417 221.183C521.028 222.663 518.318 223.404 515.289 223.404ZM515.289 215.023C516.299 215.023 517.208 214.636 518.015 213.862C518.857 213.054 519.513 211.961 519.984 210.581C520.455 209.201 520.691 207.653 520.691 205.936C520.691 203.277 520.186 201.106 519.176 199.424C518.167 197.741 516.871 196.899 515.289 196.899C513.64 196.899 512.311 197.741 511.301 199.424C510.325 201.073 509.837 203.244 509.837 205.936C509.837 208.595 510.342 210.783 511.351 212.499C512.395 214.182 513.707 215.023 515.289 215.023Z" fill="white"/>
<path d="M473.56 285.882C477.531 282.314 480.526 279.285 482.546 276.794C484.565 274.304 485.575 272.234 485.575 270.585C485.575 269.508 485.238 268.683 484.565 268.111C483.926 267.539 483.051 267.253 481.94 267.253C479.853 267.253 477.682 267.909 475.427 269.222L472.954 261.699C474.805 260.757 476.622 260.05 478.406 259.579C480.224 259.108 482.125 258.872 484.111 258.872C486.467 258.872 488.52 259.343 490.27 260.286C492.054 261.195 493.417 262.457 494.359 264.072C495.302 265.654 495.773 267.472 495.773 269.525C495.773 272.587 494.746 275.448 492.693 278.107C490.64 280.732 487.544 283.24 483.404 285.629H495.571V293H473.56V285.882ZM515.289 293.404C512.26 293.404 509.534 292.663 507.111 291.183C504.721 289.668 502.836 287.598 501.456 284.973C500.11 282.314 499.437 279.302 499.437 275.936C499.437 272.604 500.11 269.626 501.456 267C502.836 264.341 504.721 262.272 507.111 260.791C509.534 259.276 512.26 258.519 515.289 258.519C518.285 258.519 520.977 259.276 523.367 260.791C525.79 262.272 527.675 264.341 529.021 267C530.401 269.659 531.091 272.638 531.091 275.936C531.091 279.268 530.418 282.264 529.071 284.922C527.725 287.581 525.84 289.668 523.417 291.183C521.028 292.663 518.318 293.404 515.289 293.404ZM515.289 285.023C516.299 285.023 517.208 284.636 518.015 283.862C518.857 283.054 519.513 281.961 519.984 280.581C520.455 279.201 520.691 277.653 520.691 275.936C520.691 273.277 520.186 271.106 519.176 269.424C518.167 267.741 516.871 266.899 515.289 266.899C513.64 266.899 512.311 267.741 511.301 269.424C510.325 271.073 509.837 273.244 509.837 275.936C509.837 278.595 510.342 280.783 511.351 282.499C512.395 284.182 513.707 285.023 515.289 285.023Z" fill="white"/>
<path d="M477.56 355.882C481.531 352.314 484.526 349.285 486.546 346.794C488.565 344.304 489.575 342.234 489.575 340.585C489.575 339.508 489.238 338.683 488.565 338.111C487.926 337.539 487.051 337.253 485.94 337.253C483.853 337.253 481.682 337.909 479.427 339.222L476.954 331.699C478.805 330.757 480.622 330.05 482.406 329.579C484.224 329.108 486.125 328.872 488.111 328.872C490.467 328.872 492.52 329.343 494.27 330.286C496.054 331.195 497.417 332.457 498.359 334.072C499.302 335.654 499.773 337.472 499.773 339.525C499.773 342.587 498.746 345.448 496.693 348.107C494.64 350.732 491.544 353.24 487.404 355.629H499.571V363H477.56V355.882ZM513.736 363.656C510.639 363.656 507.442 362.933 504.144 361.485L504.8 354.367C506.146 354.872 507.509 355.259 508.889 355.528C510.269 355.798 511.498 355.932 512.575 355.932C514.157 355.932 515.368 355.562 516.21 354.821C517.051 354.081 517.472 353.088 517.472 351.843C517.472 350.732 517.169 349.84 516.563 349.167C515.957 348.46 515.166 348.107 514.19 348.107C512.81 348.107 511.144 348.78 509.192 350.126L503.942 347.855L505.254 329.226H524.741L523.984 336.445H512.07L511.414 342.049C512.322 341.477 513.214 341.073 514.089 340.837C514.964 340.602 515.974 340.484 517.118 340.484C519.07 340.484 520.821 340.972 522.369 341.948C523.951 342.924 525.179 344.287 526.054 346.037C526.963 347.754 527.417 349.689 527.417 351.843C527.417 354.098 526.828 356.134 525.65 357.952C524.472 359.735 522.84 361.132 520.753 362.142C518.7 363.151 516.361 363.656 513.736 363.656Z" fill="white"/>
<path d="M483.303 433.555C479.635 433.555 476.252 432.899 473.156 431.586L474.822 424.165C477.481 425.242 479.954 425.781 482.243 425.781C485.003 425.781 486.383 424.754 486.383 422.701C486.383 421.254 485.676 420.227 484.262 419.622C482.849 419.016 480.493 418.713 477.194 418.713V412.453C480.19 412.453 482.428 412.15 483.909 411.544C485.423 410.938 486.181 410.08 486.181 408.969C486.181 407.455 484.885 406.697 482.293 406.697C479.836 406.697 477.295 407.27 474.67 408.414L472.701 401.548C476.404 399.731 480.291 398.822 484.363 398.822C487.46 398.822 489.967 399.562 491.886 401.043C493.838 402.524 494.814 404.543 494.814 407.101C494.814 408.75 494.376 410.248 493.501 411.594C492.66 412.941 491.515 414.018 490.068 414.825C491.986 415.701 493.501 416.895 494.612 418.41C495.756 419.924 496.328 421.607 496.328 423.458C496.328 425.511 495.773 427.295 494.662 428.81C493.585 430.324 492.054 431.502 490.068 432.344C488.116 433.151 485.861 433.555 483.303 433.555ZM515.585 433.404C512.556 433.404 509.83 432.663 507.406 431.183C505.017 429.668 503.132 427.598 501.752 424.973C500.406 422.314 499.733 419.302 499.733 415.936C499.733 412.604 500.406 409.626 501.752 407C503.132 404.341 505.017 402.272 507.406 400.791C509.83 399.276 512.556 398.519 515.585 398.519C518.58 398.519 521.273 399.276 523.663 400.791C526.086 402.272 527.971 404.341 529.317 407C530.697 409.659 531.387 412.638 531.387 415.936C531.387 419.268 530.714 422.264 529.367 424.922C528.021 427.581 526.136 429.668 523.713 431.183C521.323 432.663 518.614 433.404 515.585 433.404ZM515.585 425.023C516.595 425.023 517.503 424.636 518.311 423.862C519.153 423.054 519.809 421.961 520.28 420.581C520.751 419.201 520.987 417.653 520.987 415.936C520.987 413.277 520.482 411.106 519.472 409.424C518.463 407.741 517.167 406.899 515.585 406.899C513.936 406.899 512.606 407.741 511.597 409.424C510.621 411.073 510.133 413.244 510.133 415.936C510.133 418.595 510.637 420.783 511.647 422.499C512.69 424.182 514.003 425.023 515.585 425.023Z" fill="white"/>
<path d="M487.803 503.555C484.135 503.555 480.752 502.899 477.656 501.586L479.322 494.165C481.981 495.242 484.454 495.781 486.743 495.781C489.503 495.781 490.883 494.754 490.883 492.701C490.883 491.254 490.176 490.227 488.762 489.622C487.349 489.016 484.993 488.713 481.694 488.713V482.453C484.69 482.453 486.928 482.15 488.409 481.544C489.923 480.938 490.681 480.08 490.681 478.969C490.681 477.455 489.385 476.697 486.793 476.697C484.336 476.697 481.795 477.27 479.17 478.414L477.201 471.548C480.904 469.731 484.791 468.822 488.863 468.822C491.96 468.822 494.467 469.562 496.386 471.043C498.338 472.524 499.314 474.543 499.314 477.101C499.314 478.75 498.876 480.248 498.001 481.594C497.16 482.941 496.015 484.018 494.568 484.825C496.486 485.701 498.001 486.895 499.112 488.41C500.256 489.924 500.828 491.607 500.828 493.458C500.828 495.511 500.273 497.295 499.162 498.81C498.085 500.324 496.554 501.502 494.568 502.344C492.616 503.151 490.361 503.555 487.803 503.555ZM504.485 495.882C508.457 492.314 511.452 489.285 513.471 486.794C515.491 484.304 516.501 482.234 516.501 480.585C516.501 479.508 516.164 478.683 515.491 478.111C514.851 477.539 513.976 477.253 512.866 477.253C510.779 477.253 508.608 477.909 506.353 479.222L503.879 471.699C505.73 470.757 507.548 470.05 509.332 469.579C511.149 469.108 513.051 468.872 515.036 468.872C517.392 468.872 519.445 469.343 521.196 470.286C522.979 471.195 524.343 472.457 525.285 474.072C526.227 475.654 526.698 477.472 526.698 479.525C526.698 482.587 525.672 485.448 523.619 488.107C521.566 490.732 518.469 493.24 514.33 495.629H526.497V503H504.485V495.882Z" fill="white"/>
<path d="M464.56 565.882C468.531 562.314 471.526 559.285 473.546 556.794C475.565 554.304 476.575 552.234 476.575 550.585C476.575 549.508 476.238 548.683 475.565 548.111C474.926 547.539 474.051 547.253 472.94 547.253C470.853 547.253 468.682 547.909 466.427 549.222L463.954 541.699C465.805 540.757 467.622 540.05 469.406 539.579C471.224 539.108 473.125 538.872 475.111 538.872C477.467 538.872 479.52 539.343 481.27 540.286C483.054 541.195 484.417 542.457 485.359 544.072C486.302 545.654 486.773 547.472 486.773 549.525C486.773 552.587 485.746 555.448 483.693 558.107C481.64 560.732 478.544 563.24 474.404 565.629H486.571V573H464.56V565.882ZM490.689 565.882C494.661 562.314 497.656 559.285 499.676 556.794C501.695 554.304 502.705 552.234 502.705 550.585C502.705 549.508 502.368 548.683 501.695 548.111C501.056 547.539 500.18 547.253 499.07 547.253C496.983 547.253 494.812 547.909 492.557 549.222L490.084 541.699C491.935 540.757 493.752 540.05 495.536 539.579C497.353 539.108 499.255 538.872 501.241 538.872C503.597 538.872 505.65 539.343 507.4 540.286C509.184 541.195 510.547 542.457 511.489 544.072C512.431 545.654 512.903 547.472 512.903 549.525C512.903 552.587 511.876 555.448 509.823 558.107C507.77 560.732 504.674 563.24 500.534 565.629H512.701V573H490.689V565.882ZM526.866 573.656C523.769 573.656 520.572 572.933 517.274 571.485L517.93 564.367C519.276 564.872 520.639 565.259 522.019 565.528C523.399 565.798 524.627 565.932 525.704 565.932C527.286 565.932 528.498 565.562 529.339 564.821C530.181 564.081 530.602 563.088 530.602 561.843C530.602 560.732 530.299 559.84 529.693 559.167C529.087 558.46 528.296 558.107 527.32 558.107C525.94 558.107 524.274 558.78 522.322 560.126L517.072 557.855L518.384 539.226H537.871L537.114 546.445H525.2L524.543 552.049C525.452 551.477 526.344 551.073 527.219 550.837C528.094 550.602 529.104 550.484 530.248 550.484C532.2 550.484 533.95 550.972 535.499 551.948C537.08 552.924 538.309 554.287 539.184 556.037C540.093 557.754 540.547 559.689 540.547 561.843C540.547 564.098 539.958 566.134 538.78 567.952C537.602 569.735 535.97 571.132 533.883 572.142C531.83 573.151 529.491 573.656 526.866 573.656Z" fill="white"/>
<path d="M85.575 99.16H98.335V114.615H102.295L109.61 99.16H122.315V101.635L113.625 117.915L123.58 134.525V137H110.215L102.075 121.985H98.335V137H85.575V99.16ZM138.209 137.44C135.825 137.44 133.589 136.817 131.499 135.57C129.445 134.287 127.795 132.563 126.549 130.4C125.302 128.2 124.679 125.762 124.679 123.085C124.679 120.445 125.302 118.062 126.549 115.935C127.795 113.772 129.464 112.085 131.554 110.875C133.644 109.665 135.862 109.06 138.209 109.06C140.115 109.06 141.875 109.592 143.489 110.655C145.139 111.718 146.385 113.313 147.229 115.44V109.06H158.779V137H147.229V131.885C145.395 135.588 142.389 137.44 138.209 137.44ZM141.784 128.75C143.25 128.75 144.497 128.237 145.524 127.21C146.587 126.147 147.155 124.9 147.229 123.47V123.03C147.155 121.563 146.569 120.317 145.469 119.29C144.405 118.263 143.177 117.75 141.784 117.75C140.244 117.75 138.924 118.3 137.824 119.4C136.76 120.463 136.229 121.747 136.229 123.25C136.229 124.79 136.779 126.092 137.879 127.155C138.979 128.218 140.28 128.75 141.784 128.75ZM166.44 116.265H162.975V109.445H166.44V107.135C166.44 103.065 167.411 99.985 169.355 97.895C171.335 95.805 174.085 94.76 177.605 94.76C180.428 94.76 183.05 95.475 185.47 96.905L185.085 104.33C182.958 103.487 181.18 103.065 179.75 103.065C178.65 103.065 177.806 103.34 177.22 103.89C176.633 104.403 176.34 105.155 176.34 106.145C176.34 107.098 176.651 108.198 177.275 109.445H184.975V116.265H178.045V137H166.44V116.265ZM190.341 116.265H186.876V109.445H190.341V107.135C190.341 103.065 191.313 99.985 193.256 97.895C195.236 95.805 197.986 94.76 201.506 94.76C204.329 94.76 206.951 95.475 209.371 96.905L208.986 104.33C206.859 103.487 205.081 103.065 203.651 103.065C202.551 103.065 201.708 103.34 201.121 103.89C200.534 104.403 200.241 105.155 200.241 106.145C200.241 107.098 200.553 108.198 201.176 109.445H208.876V116.265H201.946V137H190.341V116.265ZM225.753 137.44C222.709 137.44 219.996 136.835 217.613 135.625C215.266 134.378 213.433 132.692 212.113 130.565C210.793 128.402 210.133 125.963 210.133 123.25C210.133 120.463 210.811 117.988 212.168 115.825C213.524 113.662 215.358 111.993 217.668 110.82C219.978 109.647 222.544 109.06 225.368 109.06C228.081 109.06 230.391 109.665 232.298 110.875C234.241 112.048 235.689 113.662 236.643 115.715C237.596 117.732 238.073 120.005 238.073 122.535C238.073 123.195 238.036 123.672 237.963 123.965L221.463 126.11C221.903 127.393 222.618 128.328 223.608 128.915C224.598 129.465 225.899 129.74 227.513 129.74C230.006 129.74 232.701 129.098 235.598 127.815L236.973 135.185C233.563 136.688 229.823 137.44 225.753 137.44ZM229.548 119.18C228.961 116.87 227.568 115.715 225.368 115.715C224.048 115.715 223.003 116.21 222.233 117.2C221.463 118.19 221.059 119.473 221.023 121.05L229.548 119.18Z" fill="white"/>
</svg>
