<svg width="224" height="206" viewBox="0 0 224 206" fill="none" xmlns="http://www.w3.org/2000/svg">
<path d="M97.4907 138.323C93.2444 117.723 77.2901 76.5229 47.4442 76.5229" stroke="#9DBE62" stroke-width="5.28483"/>
<path d="M140.713 138.768C142.684 125.726 151.45 98.7531 170.741 95.1963" stroke="#9DBE62" stroke-width="5.28483"/>
<path d="M111.14 138.323C108.865 117.723 100.13 72.4325 83.3871 56.071" stroke="#9DBE62" stroke-width="5.28483"/>
<path d="M120.24 138.323C123.425 114.611 132.797 64.2518 144.808 52.5142" stroke="#9DBE62" stroke-width="5.28483"/>
<rect width="80.9844" height="12.449" rx="6.22448" transform="matrix(-1 0 0 1 161.187 135.211)" fill="#F19B4C"/>
<path d="M155.727 147.66H85.6619L99.311 205.459H142.078L155.727 147.66Z" fill="url(#paint0_linear_203_1520)"/>
<path fill-rule="evenodd" clip-rule="evenodd" d="M167.485 93.7973C168.878 84.2569 180.72 77.9692 193.933 79.7532C197.683 80.2594 201.519 82.1956 205.092 84.7096C203.182 84.7441 200.094 85.0462 197.625 86.4532C193.76 88.6564 192.879 92.7349 192.879 92.7349C192.879 92.7349 198.265 93.2412 202.13 91.0379C204.782 89.5263 206.029 87.1322 206.551 85.7779C214.89 92.119 221.449 101.083 221.449 101.083C221.449 101.083 219.373 102.651 216.132 104.713C215.872 103.885 215.412 102.953 214.601 102.127C212.523 100.01 208.932 99.3817 208.932 99.3817C208.932 99.3817 208.71 102.186 210.788 104.303C211.63 105.161 212.721 105.775 213.721 106.201C210.63 108.051 206.881 110.071 202.994 111.648C202.997 111.615 203.312 107.469 200.237 104.336C197.15 101.191 191.815 100.257 191.815 100.257C191.815 100.257 191.485 104.424 194.572 107.569C197.645 110.7 202.946 111.64 202.994 111.648C198.174 113.603 193.142 114.877 188.886 114.302C176.105 112.576 166.091 103.338 167.485 93.7973Z" fill="#97D14E"/>
<path fill-rule="evenodd" clip-rule="evenodd" d="M143.79 59.706C156.806 67.027 172.815 63.7518 179.548 52.3907C181.427 49.2205 181.614 44.7762 180.907 40.0158C179.537 41.3823 177.092 43.2887 173.717 43.8563C168.274 44.7716 162.473 41.8589 162.473 41.8589C162.473 41.8589 165.497 37.4621 170.94 36.5467C174.598 35.9316 178.417 37.0453 180.529 37.842C178.197 26.082 171.287 13.3066 171.287 13.3066C171.287 13.3066 167.807 13.4769 162.899 14.0933C163.812 15.0267 164.733 16.219 165.252 17.5908C166.536 20.9799 164.885 24.1812 164.885 24.1812C164.885 24.1812 161.153 21.8876 159.869 18.4985C159.332 17.0831 159.308 15.7003 159.462 14.5699C155.009 15.247 149.904 16.2639 145.273 17.7722C145.903 18.1744 150.875 21.4613 152.661 26.1739C154.568 31.2093 152.115 35.9657 152.115 35.9657C152.115 35.9657 146.569 32.558 144.662 27.5225C142.894 22.857 144.87 18.431 145.17 17.8059C139.501 19.6639 134.557 22.2619 132.413 25.879C125.901 36.8679 130.774 52.385 143.79 59.706Z" fill="#97D14E"/>
<path fill-rule="evenodd" clip-rule="evenodd" d="M95.7626 73.9333C82.7466 81.2543 66.7368 77.9791 60.0039 66.618C58.1251 63.4478 57.938 59.0035 58.6449 54.2431C60.0155 55.6096 62.4606 57.516 65.8357 58.0836C71.2785 58.9989 77.0789 56.0862 77.0789 56.0862C77.0789 56.0862 74.0549 51.6894 68.6121 50.774C64.9543 50.1589 61.1351 51.2726 59.0233 52.0693C61.3552 40.3093 68.2648 27.5339 68.2648 27.5339C68.2648 27.5339 71.7454 27.7042 76.6534 28.3207C75.7412 29.254 74.8203 30.4463 74.3006 31.8181C73.0166 35.2072 74.6675 38.4085 74.6675 38.4085C74.6675 38.4085 78.4002 36.1149 79.6843 32.7258C80.2205 31.3104 80.2449 29.9277 80.0913 28.7973C84.5437 29.4744 89.6489 30.4914 94.2802 31.9998C93.6481 32.4032 88.6779 35.6896 86.8928 40.4011C84.9851 45.4366 87.438 50.193 87.438 50.193C87.438 50.193 92.984 46.7853 94.8918 41.7498C96.659 37.0855 94.6845 32.6606 94.3839 32.0337C100.052 33.8916 104.996 36.4895 107.139 40.1062C113.651 51.0952 108.779 66.6123 95.7626 73.9333Z" fill="#97D14E"/>
<path fill-rule="evenodd" clip-rule="evenodd" d="M55.4523 78.0155C56.0551 70.5953 45.7489 63.7735 32.4327 62.7787C28.6714 62.4977 24.5325 63.2669 20.5295 64.5155C22.3987 64.8844 25.3131 65.6562 27.4123 67.1335C30.7441 69.4782 30.7604 72.7121 30.7604 72.7121C30.7604 72.7121 25.3747 72.1445 22.0429 69.7998C19.7799 68.2073 19.0465 66.2046 18.8088 65.0835C9.33616 68.3781 1.0683 73.9526 1.0683 73.9526C1.0683 73.9526 2.78151 75.5011 5.53596 77.627C5.96097 77.0354 6.61403 76.3924 7.60936 75.8989C10.0782 74.6749 13.7177 74.8337 13.7177 74.8337C13.7177 74.8337 13.3546 76.9771 10.8858 78.2012C9.85333 78.7131 8.61606 78.9832 7.52589 79.1241C13.4561 83.4713 22.476 89.0689 30.2497 89.6497C43.1296 90.6119 54.8495 85.4357 55.4523 78.0155ZM26.093 83.572C29.7611 81.7533 30.3007 78.5687 30.3007 78.5687C30.3007 78.5687 24.893 78.3327 21.2249 80.1514C17.5568 81.9701 17.0173 85.1548 17.0173 85.1548C17.0173 85.1548 22.4249 85.3907 26.093 83.572Z" fill="#97D14E"/>
<defs>
<linearGradient id="paint0_linear_203_1520" x1="102.951" y1="191.231" x2="136.865" y2="162.006" gradientUnits="userSpaceOnUse">
<stop stop-color="#F19C4D"/>
<stop offset="1" stop-color="#986332"/>
</linearGradient>
</defs>
</svg>
