<svg width="1280" height="262" viewBox="0 0 1280 262" fill="none" xmlns="http://www.w3.org/2000/svg">
<rect x="228" y="1" width="110" height="93" fill="#B0A895"/>
<rect x="984" y="1" width="110" height="93" fill="#B0A895"/>
<path fill-rule="evenodd" clip-rule="evenodd" d="M117.859 0C116.582 0 115.353 0.489142 114.424 1.367L-0.435302 109.976C-1.43409 110.921 -2 112.234 -2 113.609V257C-2 259.761 0.238577 262 3 262H1278C1280.76 262 1283 259.761 1283 257V113.789C1283 112.31 1282.35 110.907 1281.21 109.957L1151.38 1.16758C1150.48 0.413347 1149.34 0 1148.17 0H975.12C980.481 0 985.617 2.15203 989.377 5.9733L1041.52 58.9733C1053.96 71.6188 1045.01 93 1027.27 93H284.745C266.337 93 257.704 70.2333 271.484 58.0282L331.323 5.02823C334.981 1.78861 339.698 0 344.584 0H117.859Z" fill="#F7ECD0"/>
<path fill-rule="evenodd" clip-rule="evenodd" d="M117.859 0C116.582 0 115.353 0.489142 114.424 1.367L-0.435302 109.976C-1.43409 110.921 -2 112.234 -2 113.609V257C-2 259.761 0.238577 262 3 262H1278C1280.76 262 1283 259.761 1283 257V113.789C1283 112.31 1282.35 110.907 1281.21 109.957L1151.38 1.16758C1150.48 0.413347 1149.34 0 1148.17 0H975.12C980.481 0 985.617 2.15203 989.377 5.9733L1041.52 58.9733C1053.96 71.6188 1045.01 93 1027.27 93H284.745C266.337 93 257.704 70.2333 271.484 58.0282L331.323 5.02823C334.981 1.78861 339.698 0 344.584 0H117.859Z" fill="#F7ECD0"/>
</svg>
