<svg width="1211" height="993" viewBox="0 0 1211 993" fill="none" xmlns="http://www.w3.org/2000/svg">
<path d="M0 15C0 6.71574 6.71573 0 15 0H881.461C889.746 0 896.461 6.71573 896.461 15V697.544C896.461 705.828 889.746 712.544 881.461 712.544H15C6.71573 712.544 0 705.828 0 697.544V15Z" fill="white"/>
<path d="M24.8105 34.2224C24.8105 26.2131 31.3034 19.7202 39.3127 19.7202H857.149C865.159 19.7202 871.651 26.2131 871.651 34.2224V678.321C871.651 686.331 865.159 692.824 857.149 692.824H39.3128C31.3034 692.824 24.8105 686.331 24.8105 678.321V34.2224Z" fill="#1A72E5"/>
<path d="M485.093 146.214C485.093 140.692 489.57 136.214 495.093 136.214H665.093C670.615 136.214 675.093 140.692 675.093 146.214V226.214C675.093 231.737 670.615 236.214 665.093 236.214H495.093C489.57 236.214 485.093 231.737 485.093 226.214V146.214Z" fill="white"/>
<path d="M490.925 152.367C490.925 147.183 495.127 142.981 500.311 142.981H659.874C665.058 142.981 669.26 147.184 669.26 152.367V220.646C669.26 225.83 665.058 230.032 659.874 230.032H500.311C495.127 230.032 490.925 225.83 490.925 220.646V152.367Z" fill="#19A998"/>
<path d="M521.377 208.007V164.37H547.712V169.058H526.661V183.802H546.348V188.49H526.661V203.319H548.053V208.007H521.377Z" fill="white"/>
<path d="M572.321 199.058V194.711L591.497 164.37H594.651V171.103H592.52L578.031 194.03V194.37H603.855V199.058H572.321ZM592.861 208.007V164.37H597.889V208.007H592.861Z" fill="white"/>
<path d="M625.476 208.603C622.976 208.603 620.725 208.106 618.722 207.112C616.719 206.118 615.114 204.754 613.907 203.021C612.699 201.288 612.039 199.314 611.925 197.098H617.039C617.238 199.072 618.133 200.706 619.724 201.998C621.329 203.277 623.246 203.916 625.476 203.916C627.266 203.916 628.857 203.497 630.249 202.659C631.655 201.821 632.756 200.67 633.552 199.207C634.361 197.73 634.766 196.061 634.766 194.2C634.766 192.297 634.347 190.599 633.509 189.108C632.685 187.602 631.549 186.416 630.1 185.549C628.651 184.683 626.996 184.243 625.135 184.228C623.8 184.214 622.43 184.42 621.023 184.846C619.617 185.258 618.459 185.791 617.55 186.444L612.607 185.848L615.249 164.37H637.92V169.058H619.681L618.147 181.927H618.403C619.297 181.217 620.42 180.628 621.769 180.159C623.118 179.69 624.525 179.456 625.988 179.456C628.658 179.456 631.037 180.095 633.126 181.373C635.228 182.638 636.876 184.37 638.069 186.572C639.276 188.774 639.88 191.288 639.88 194.115C639.88 196.899 639.255 199.385 638.005 201.572C636.769 203.745 635.064 205.464 632.891 206.728C630.718 207.978 628.246 208.603 625.476 208.603Z" fill="white"/>
<path d="M79.9701 474.089V430.453H85.2542V449.885H108.521V430.453H113.805V474.089H108.521V454.572H85.2542V474.089H79.9701Z" fill="white"/>
<path d="M133.333 474.856C131.259 474.856 129.377 474.466 127.687 473.685C125.996 472.889 124.654 471.746 123.66 470.254C122.665 468.748 122.168 466.93 122.168 464.8C122.168 462.925 122.538 461.405 123.276 460.24C124.015 459.061 125.002 458.138 126.238 457.47C127.474 456.802 128.837 456.305 130.329 455.979C131.834 455.638 133.347 455.368 134.867 455.169C136.856 454.913 138.468 454.721 139.704 454.594C140.954 454.452 141.863 454.217 142.431 453.891C143.013 453.564 143.305 452.996 143.305 452.186V452.016C143.305 449.913 142.729 448.28 141.579 447.115C140.442 445.95 138.717 445.368 136.401 445.368C134.001 445.368 132.119 445.893 130.755 446.944C129.391 447.996 128.432 449.118 127.879 450.311L123.106 448.606C123.958 446.618 125.094 445.069 126.515 443.962C127.95 442.839 129.512 442.058 131.202 441.618C132.907 441.163 134.583 440.936 136.231 440.936C137.282 440.936 138.489 441.064 139.853 441.319C141.231 441.561 142.559 442.065 143.837 442.832C145.13 443.599 146.202 444.757 147.055 446.305C147.907 447.854 148.333 449.927 148.333 452.527V474.089H143.305V469.658H143.049C142.708 470.368 142.14 471.128 141.344 471.937C140.549 472.747 139.491 473.436 138.17 474.004C136.849 474.572 135.236 474.856 133.333 474.856ZM134.1 470.339C136.089 470.339 137.765 469.949 139.129 469.167C140.506 468.386 141.543 467.378 142.239 466.142C142.95 464.906 143.305 463.606 143.305 462.243V457.641C143.092 457.896 142.623 458.131 141.898 458.344C141.188 458.542 140.364 458.72 139.427 458.876C138.504 459.018 137.602 459.146 136.721 459.26C135.854 459.359 135.151 459.444 134.611 459.516C133.305 459.686 132.083 459.963 130.947 460.346C129.825 460.716 128.915 461.277 128.219 462.03C127.538 462.768 127.197 463.777 127.197 465.055C127.197 466.802 127.843 468.123 129.136 469.018C130.442 469.899 132.097 470.339 134.1 470.339Z" fill="white"/>
<path d="M157.511 474.089V441.362H162.369V446.305H162.71C163.306 444.686 164.386 443.372 165.948 442.363C167.511 441.355 169.272 440.851 171.233 440.851C171.602 440.851 172.064 440.858 172.617 440.872C173.171 440.886 173.591 440.908 173.875 440.936V446.05C173.704 446.007 173.314 445.943 172.703 445.858C172.106 445.758 171.474 445.709 170.806 445.709C169.216 445.709 167.795 446.042 166.545 446.71C165.309 447.363 164.329 448.273 163.605 449.437C162.895 450.588 162.539 451.902 162.539 453.379V474.089H157.511Z" fill="white"/>
<path d="M179.835 474.089V441.362H184.693V446.476H185.119C185.801 444.729 186.902 443.372 188.422 442.406C189.942 441.426 191.767 440.936 193.898 440.936C196.057 440.936 197.854 441.426 199.288 442.406C200.737 443.372 201.866 444.729 202.676 446.476H203.017C203.855 444.785 205.112 443.443 206.788 442.449C208.464 441.44 210.474 440.936 212.818 440.936C215.744 440.936 218.138 441.852 219.999 443.685C221.859 445.503 222.79 448.337 222.79 452.186V474.089H217.761V452.186C217.761 449.771 217.101 448.045 215.78 447.008C214.459 445.971 212.903 445.453 211.114 445.453C208.812 445.453 207.03 446.149 205.766 447.541C204.501 448.919 203.869 450.666 203.869 452.783V474.089H198.756V451.675C198.756 449.814 198.152 448.315 196.945 447.179C195.737 446.028 194.182 445.453 192.278 445.453C190.972 445.453 189.75 445.801 188.614 446.497C187.491 447.193 186.582 448.159 185.886 449.395C185.204 450.616 184.864 452.03 184.864 453.635V474.089H179.835Z" fill="white"/>
<path d="M232.665 474.089V430.453H237.694V446.561H238.12C238.489 445.993 239.001 445.268 239.654 444.388C240.322 443.493 241.273 442.697 242.509 442.001C243.759 441.291 245.45 440.936 247.58 440.936C250.336 440.936 252.765 441.625 254.867 443.003C256.969 444.381 258.61 446.334 259.789 448.862C260.968 451.391 261.557 454.373 261.557 457.811C261.557 461.277 260.968 464.281 259.789 466.824C258.61 469.352 256.977 471.312 254.888 472.704C252.8 474.082 250.393 474.771 247.665 474.771C245.563 474.771 243.88 474.423 242.616 473.727C241.352 473.017 240.379 472.214 239.697 471.319C239.015 470.41 238.489 469.658 238.12 469.061H237.523V474.089H232.665ZM237.609 457.726C237.609 460.197 237.971 462.378 238.695 464.267C239.42 466.142 240.478 467.612 241.87 468.677C243.262 469.729 244.967 470.254 246.984 470.254C249.086 470.254 250.84 469.7 252.246 468.592C253.667 467.47 254.732 465.964 255.442 464.075C256.167 462.172 256.529 460.055 256.529 457.726C256.529 455.425 256.174 453.351 255.464 451.504C254.768 449.643 253.709 448.173 252.289 447.094C250.883 446 249.114 445.453 246.984 445.453C244.938 445.453 243.219 445.971 241.827 447.008C240.435 448.031 239.384 449.466 238.674 451.312C237.964 453.145 237.609 455.283 237.609 457.726Z" fill="white"/>
<path d="M289.874 460.709V441.362H294.903V474.089H289.874V468.55H289.533C288.766 470.212 287.573 471.625 285.954 472.79C284.334 473.94 282.289 474.516 279.817 474.516C277.772 474.516 275.954 474.068 274.363 473.173C272.772 472.264 271.522 470.9 270.613 469.082C269.704 467.25 269.249 464.942 269.249 462.158V441.362H274.278V461.817C274.278 464.203 274.945 466.106 276.28 467.527C277.63 468.947 279.349 469.658 281.437 469.658C282.687 469.658 283.958 469.338 285.251 468.699C286.557 468.06 287.651 467.079 288.532 465.758C289.427 464.437 289.874 462.754 289.874 460.709Z" fill="white"/>
<path d="M304.113 474.089V441.362H308.97V446.305H309.311C309.908 444.686 310.988 443.372 312.55 442.363C314.113 441.355 315.874 440.851 317.834 440.851C318.203 440.851 318.665 440.858 319.219 440.872C319.773 440.886 320.192 440.908 320.476 440.936V446.05C320.306 446.007 319.915 445.943 319.304 445.858C318.708 445.758 318.076 445.709 317.408 445.709C315.817 445.709 314.397 446.042 313.147 446.71C311.911 447.363 310.931 448.273 310.206 449.437C309.496 450.588 309.141 451.902 309.141 453.379V474.089H304.113Z" fill="white"/>
<path d="M338.651 487.044C336.222 487.044 334.134 486.731 332.387 486.106C330.64 485.496 329.184 484.686 328.019 483.677C326.868 482.683 325.952 481.618 325.27 480.481L329.276 477.669C329.73 478.266 330.306 478.947 331.002 479.714C331.698 480.496 332.649 481.17 333.857 481.738C335.078 482.321 336.676 482.612 338.651 482.612C341.293 482.612 343.473 481.973 345.192 480.694C346.911 479.416 347.77 477.413 347.77 474.686V468.038H347.344C346.975 468.635 346.449 469.373 345.767 470.254C345.1 471.121 344.134 471.895 342.87 472.577C341.62 473.244 339.929 473.578 337.799 473.578C335.157 473.578 332.784 472.953 330.682 471.703C328.594 470.453 326.939 468.635 325.718 466.248C324.51 463.862 323.907 460.964 323.907 457.555C323.907 454.203 324.496 451.284 325.675 448.798C326.854 446.298 328.495 444.366 330.597 443.003C332.699 441.625 335.128 440.936 337.884 440.936C340.014 440.936 341.705 441.291 342.955 442.001C344.219 442.697 345.185 443.493 345.853 444.388C346.534 445.268 347.06 445.993 347.429 446.561H347.941V441.362H352.799V475.027C352.799 477.839 352.159 480.126 350.881 481.888C349.617 483.663 347.912 484.963 345.767 485.787C343.637 486.625 341.265 487.044 338.651 487.044ZM338.48 469.061C340.497 469.061 342.202 468.599 343.594 467.676C344.986 466.753 346.044 465.425 346.769 463.692C347.493 461.959 347.855 459.885 347.855 457.47C347.855 455.112 347.5 453.031 346.79 451.227C346.08 449.423 345.029 448.01 343.637 446.987C342.245 445.964 340.526 445.453 338.48 445.453C336.35 445.453 334.574 445.993 333.154 447.072C331.747 448.152 330.689 449.601 329.979 451.419C329.283 453.237 328.935 455.254 328.935 457.47C328.935 459.743 329.29 461.753 330 463.5C330.725 465.233 331.79 466.596 333.196 467.591C334.617 468.571 336.378 469.061 338.48 469.061Z" fill="white"/>
<path d="M681.009 430.453V474.089H675.725V435.993H675.469L664.816 443.067V437.697L675.725 430.453H681.009Z" fill="white"/>
<path d="M708.303 474.686C705.49 474.686 702.983 474.203 700.782 473.237C698.594 472.271 696.854 470.929 695.561 469.21C694.283 467.477 693.587 465.467 693.473 463.18H698.843C698.956 464.587 699.439 465.801 700.292 466.824C701.144 467.832 702.259 468.613 703.637 469.167C705.015 469.721 706.542 469.998 708.218 469.998C710.093 469.998 711.755 469.672 713.203 469.018C714.652 468.365 715.789 467.456 716.613 466.291C717.436 465.126 717.848 463.777 717.848 462.243C717.848 460.638 717.451 459.224 716.655 458.003C715.86 456.767 714.695 455.801 713.161 455.105C711.627 454.409 709.752 454.061 707.536 454.061H704.042V449.373H707.536C709.269 449.373 710.789 449.061 712.095 448.436C713.417 447.811 714.446 446.93 715.185 445.794C715.938 444.658 716.314 443.322 716.314 441.788C716.314 440.311 715.987 439.025 715.334 437.932C714.681 436.838 713.757 435.986 712.564 435.375C711.385 434.764 709.993 434.459 708.388 434.459C706.882 434.459 705.462 434.736 704.127 435.29C702.806 435.829 701.726 436.618 700.888 437.655C700.05 438.677 699.596 439.913 699.524 441.362H694.411C694.496 439.075 695.185 437.072 696.478 435.354C697.77 433.621 699.461 432.271 701.549 431.305C703.651 430.339 705.959 429.856 708.473 429.856C711.172 429.856 713.488 430.403 715.419 431.497C717.351 432.577 718.836 434.004 719.872 435.78C720.909 437.555 721.428 439.473 721.428 441.533C721.428 443.99 720.782 446.085 719.489 447.818C718.211 449.551 716.471 450.751 714.269 451.419V451.76C717.024 452.214 719.176 453.386 720.725 455.275C722.273 457.15 723.047 459.473 723.047 462.243C723.047 464.615 722.401 466.746 721.108 468.635C719.83 470.51 718.083 471.987 715.867 473.067C713.651 474.146 711.13 474.686 708.303 474.686Z" fill="white"/>
<path d="M753.409 462.158L753.324 455.936H754.347L768.665 441.362H774.887L759.631 456.788H759.205L753.409 462.158ZM748.722 474.089V430.453H753.75V474.089H748.722ZM769.517 474.089L756.733 457.896L760.313 454.402L775.909 474.089H769.517Z" fill="white"/>
<path d="M781.359 474.089V441.362H786.217V446.476H786.643C787.325 444.729 788.425 443.372 789.945 442.406C791.465 441.426 793.29 440.936 795.421 440.936C797.58 440.936 799.377 441.426 800.812 442.406C802.261 443.372 803.39 444.729 804.2 446.476H804.54C805.379 444.785 806.636 443.443 808.312 442.449C809.988 441.44 811.998 440.936 814.342 440.936C817.268 440.936 819.661 441.852 821.522 443.685C823.383 445.503 824.313 448.337 824.313 452.186V474.089H819.285V452.186C819.285 449.771 818.624 448.045 817.303 447.008C815.982 445.971 814.427 445.453 812.637 445.453C810.336 445.453 808.553 446.149 807.289 447.541C806.025 448.919 805.393 450.666 805.393 452.783V474.089H800.279V451.675C800.279 449.814 799.675 448.315 798.468 447.179C797.261 446.028 795.705 445.453 793.802 445.453C792.495 445.453 791.273 445.801 790.137 446.497C789.015 447.193 788.106 448.159 787.41 449.395C786.728 450.616 786.387 452.03 786.387 453.635V474.089H781.359Z" fill="white"/>
<path d="M79.8373 589.187V545.551H106.002V550.238H85.1214V564.983H104.042V569.67H85.1214V589.187H79.8373Z" fill="white"/>
<path d="M119.399 545.551V589.187H114.37V545.551H119.399Z" fill="white"/>
<path d="M142.33 589.869C139.177 589.869 136.457 589.173 134.17 587.781C131.897 586.375 130.143 584.415 128.907 581.9C127.685 579.372 127.075 576.432 127.075 573.079C127.075 569.727 127.685 566.772 128.907 564.216C130.143 561.645 131.861 559.642 134.063 558.207C136.279 556.758 138.864 556.034 141.819 556.034C143.523 556.034 145.207 556.318 146.869 556.886C148.53 557.454 150.043 558.378 151.407 559.656C152.771 560.92 153.857 562.596 154.667 564.684C155.477 566.772 155.881 569.344 155.881 572.397V574.528H130.654V570.182H150.768C150.768 568.335 150.398 566.687 149.66 565.238C148.935 563.79 147.898 562.646 146.549 561.808C145.214 560.97 143.637 560.551 141.819 560.551C139.816 560.551 138.083 561.048 136.62 562.042C135.171 563.022 134.056 564.301 133.275 565.878C132.494 567.454 132.103 569.145 132.103 570.949V573.846C132.103 576.318 132.529 578.413 133.381 580.132C134.248 581.836 135.448 583.136 136.982 584.031C138.516 584.912 140.299 585.352 142.33 585.352C143.651 585.352 144.844 585.167 145.91 584.798C146.989 584.414 147.92 583.846 148.701 583.094C149.482 582.326 150.086 581.375 150.512 580.238L155.37 581.602C154.859 583.25 153.999 584.699 152.792 585.949C151.584 587.184 150.093 588.15 148.317 588.846C146.542 589.528 144.546 589.869 142.33 589.869Z" fill="white"/>
<path d="M168.559 569.5V589.187H163.531V556.46H168.388V561.574H168.815C169.582 559.912 170.746 558.576 172.309 557.568C173.871 556.545 175.888 556.034 178.36 556.034C180.576 556.034 182.515 556.488 184.177 557.397C185.839 558.292 187.131 559.656 188.055 561.488C188.978 563.307 189.44 565.608 189.44 568.392V589.187H184.411V568.733C184.411 566.162 183.744 564.159 182.408 562.724C181.073 561.275 179.241 560.551 176.911 560.551C175.306 560.551 173.871 560.899 172.607 561.595C171.357 562.291 170.37 563.307 169.646 564.642C168.921 565.977 168.559 567.596 168.559 569.5Z" fill="white"/>
<path d="M221.81 563.79L217.293 565.068C217.009 564.315 216.59 563.584 216.036 562.873C215.496 562.149 214.757 561.552 213.82 561.084C212.882 560.615 211.682 560.38 210.219 560.38C208.216 560.38 206.547 560.842 205.212 561.765C203.891 562.674 203.23 563.832 203.23 565.238C203.23 566.488 203.685 567.476 204.594 568.2C205.503 568.924 206.924 569.528 208.855 570.011L213.713 571.204C216.64 571.914 218.82 573.001 220.255 574.464C221.689 575.913 222.407 577.781 222.407 580.068C222.407 581.943 221.867 583.619 220.787 585.096C219.722 586.574 218.23 587.738 216.313 588.591C214.395 589.443 212.165 589.869 209.622 589.869C206.284 589.869 203.522 589.145 201.334 587.696C199.147 586.247 197.762 584.13 197.179 581.346L201.952 580.153C202.407 581.914 203.266 583.236 204.53 584.116C205.809 584.997 207.478 585.437 209.537 585.437C211.881 585.437 213.742 584.94 215.12 583.946C216.512 582.937 217.208 581.73 217.208 580.324C217.208 579.187 216.81 578.236 216.015 577.469C215.219 576.687 213.997 576.105 212.35 575.721L206.895 574.443C203.898 573.733 201.696 572.632 200.29 571.14C198.898 569.635 198.202 567.753 198.202 565.494C198.202 563.647 198.72 562.014 199.757 560.594C200.809 559.173 202.236 558.058 204.04 557.248C205.858 556.439 207.918 556.034 210.219 556.034C213.458 556.034 216 556.744 217.847 558.165C219.708 559.585 221.029 561.46 221.81 563.79Z" fill="white"/>
<path d="M230.658 589.187V545.551H235.686V561.659H236.112C236.481 561.091 236.993 560.366 237.646 559.486C238.314 558.591 239.266 557.795 240.501 557.099C241.751 556.389 243.442 556.034 245.572 556.034C248.328 556.034 250.757 556.723 252.859 558.101C254.962 559.478 256.602 561.432 257.781 563.96C258.96 566.488 259.55 569.471 259.55 572.909C259.55 576.375 258.96 579.379 257.781 581.922C256.602 584.45 254.969 586.41 252.881 587.802C250.793 589.18 248.385 589.869 245.658 589.869C243.555 589.869 241.872 589.521 240.608 588.825C239.344 588.115 238.371 587.312 237.689 586.417C237.007 585.508 236.481 584.755 236.112 584.159H235.516V589.187H230.658ZM235.601 572.824C235.601 575.295 235.963 577.476 236.687 579.365C237.412 581.24 238.47 582.71 239.862 583.775C241.254 584.826 242.959 585.352 244.976 585.352C247.078 585.352 248.832 584.798 250.239 583.69C251.659 582.568 252.724 581.062 253.435 579.173C254.159 577.27 254.521 575.153 254.521 572.824C254.521 570.522 254.166 568.449 253.456 566.602C252.76 564.741 251.702 563.271 250.281 562.192C248.875 561.098 247.106 560.551 244.976 560.551C242.93 560.551 241.212 561.069 239.82 562.106C238.428 563.129 237.376 564.564 236.666 566.41C235.956 568.243 235.601 570.38 235.601 572.824Z" fill="white"/>
<path d="M287.866 575.807V556.46H292.895V589.187H287.866V583.647H287.526C286.758 585.309 285.565 586.723 283.946 587.888C282.327 589.038 280.281 589.613 277.81 589.613C275.764 589.613 273.946 589.166 272.355 588.271C270.764 587.362 269.514 585.998 268.605 584.18C267.696 582.348 267.241 580.04 267.241 577.255V556.46H272.27V576.915C272.27 579.301 272.937 581.204 274.273 582.625C275.622 584.045 277.341 584.755 279.429 584.755C280.679 584.755 281.95 584.436 283.243 583.797C284.55 583.157 285.643 582.177 286.524 580.856C287.419 579.535 287.866 577.852 287.866 575.807Z" fill="white"/>
<path d="M302.105 589.187V556.46H306.963V561.403H307.304C307.9 559.784 308.98 558.47 310.542 557.461C312.105 556.453 313.866 555.949 315.826 555.949C316.196 555.949 316.657 555.956 317.211 555.97C317.765 555.984 318.184 556.005 318.468 556.034V561.147C318.298 561.105 317.907 561.041 317.296 560.956C316.7 560.856 316.068 560.807 315.4 560.807C313.809 560.807 312.389 561.14 311.139 561.808C309.903 562.461 308.923 563.37 308.198 564.535C307.488 565.686 307.133 567 307.133 568.477V589.187H302.105Z" fill="white"/>
<path d="M336.643 602.142C334.214 602.142 332.126 601.829 330.379 601.204C328.632 600.594 327.176 599.784 326.011 598.775C324.86 597.781 323.944 596.716 323.262 595.579L327.268 592.767C327.723 593.363 328.298 594.045 328.994 594.812C329.69 595.594 330.642 596.268 331.849 596.836C333.071 597.419 334.669 597.71 336.643 597.71C339.285 597.71 341.466 597.071 343.184 595.792C344.903 594.514 345.762 592.511 345.762 589.784V583.136H345.336C344.967 583.733 344.441 584.471 343.76 585.352C343.092 586.219 342.126 586.993 340.862 587.674C339.612 588.342 337.921 588.676 335.791 588.676C333.149 588.676 330.777 588.051 328.674 586.801C326.586 585.551 324.931 583.733 323.71 581.346C322.502 578.96 321.899 576.062 321.899 572.653C321.899 569.301 322.488 566.382 323.667 563.896C324.846 561.396 326.487 559.464 328.589 558.101C330.691 556.723 333.12 556.034 335.876 556.034C338.007 556.034 339.697 556.389 340.947 557.099C342.211 557.795 343.177 558.591 343.845 559.486C344.527 560.366 345.052 561.091 345.421 561.659H345.933V556.46H350.791V590.125C350.791 592.937 350.152 595.224 348.873 596.986C347.609 598.761 345.904 600.061 343.76 600.885C341.629 601.723 339.257 602.142 336.643 602.142ZM336.473 584.159C338.49 584.159 340.194 583.697 341.586 582.774C342.978 581.851 344.037 580.523 344.761 578.79C345.485 577.057 345.848 574.983 345.848 572.568C345.848 570.21 345.493 568.129 344.782 566.325C344.072 564.521 343.021 563.108 341.629 562.085C340.237 561.062 338.518 560.551 336.473 560.551C334.342 560.551 332.566 561.091 331.146 562.17C329.74 563.25 328.681 564.699 327.971 566.517C327.275 568.335 326.927 570.352 326.927 572.568C326.927 574.841 327.282 576.851 327.992 578.598C328.717 580.331 329.782 581.694 331.189 582.689C332.609 583.669 334.37 584.159 336.473 584.159Z" fill="white"/>
<path d="M645.251 545.551V589.187H639.967V551.091H639.711L629.058 558.165V552.795L639.967 545.551H645.251Z" fill="white"/>
<path d="M657.801 589.187V585.352L672.204 569.585C673.895 567.738 675.287 566.133 676.38 564.77C677.474 563.392 678.284 562.099 678.809 560.892C679.349 559.67 679.619 558.392 679.619 557.057C679.619 555.522 679.25 554.194 678.511 553.072C677.787 551.95 676.792 551.084 675.528 550.473C674.264 549.862 672.843 549.557 671.267 549.557C669.591 549.557 668.127 549.905 666.877 550.601C665.642 551.282 664.683 552.241 664.001 553.477C663.333 554.713 663 556.162 663 557.824H657.971C657.971 555.267 658.561 553.022 659.74 551.091C660.919 549.159 662.524 547.653 664.555 546.574C666.6 545.494 668.894 544.954 671.437 544.954C673.994 544.954 676.26 545.494 678.234 546.574C680.208 547.653 681.757 549.109 682.879 550.942C684.001 552.774 684.562 554.812 684.562 557.057C684.562 558.662 684.271 560.231 683.689 561.765C683.12 563.285 682.126 564.983 680.706 566.858C679.299 568.719 677.346 570.991 674.846 573.676L665.045 584.159V584.5H685.329V589.187H657.801Z" fill="white"/>
<path d="M694.129 589.187V585.352L708.532 569.585C710.223 567.738 711.615 566.133 712.708 564.77C713.802 563.392 714.612 562.099 715.137 560.892C715.677 559.67 715.947 558.392 715.947 557.057C715.947 555.522 715.578 554.194 714.839 553.072C714.115 551.95 713.12 551.084 711.856 550.473C710.592 549.862 709.172 549.557 707.595 549.557C705.919 549.557 704.456 549.905 703.206 550.601C701.97 551.282 701.011 552.241 700.329 553.477C699.662 554.713 699.328 556.162 699.328 557.824H694.299C694.299 555.267 694.889 553.022 696.068 551.091C697.247 549.159 698.852 547.653 700.883 546.574C702.929 545.494 705.223 544.954 707.765 544.954C710.322 544.954 712.588 545.494 714.562 546.574C716.536 547.653 718.085 549.109 719.207 550.942C720.329 552.774 720.89 554.812 720.89 557.057C720.89 558.662 720.599 560.231 720.017 561.765C719.448 563.285 718.454 564.983 717.034 566.858C715.627 568.719 713.674 570.991 711.174 573.676L701.373 584.159V584.5H721.657V589.187H694.129Z" fill="white"/>
<path d="M752.105 577.255L752.019 571.034H753.042L767.36 556.46H773.582L758.326 571.886H757.9L752.105 577.255ZM747.417 589.187V545.551H752.446V589.187H747.417ZM768.213 589.187L755.429 572.994L759.008 569.5L774.605 589.187H768.213Z" fill="white"/>
<path d="M780.054 589.187V556.46H784.912V561.574H785.338C786.02 559.826 787.121 558.47 788.641 557.504C790.16 556.524 791.986 556.034 794.116 556.034C796.276 556.034 798.072 556.524 799.507 557.504C800.956 558.47 802.085 559.826 802.895 561.574H803.236C804.074 559.883 805.331 558.541 807.007 557.547C808.683 556.538 810.693 556.034 813.037 556.034C815.963 556.034 818.357 556.95 820.217 558.782C822.078 560.601 823.008 563.434 823.008 567.284V589.187H817.98V567.284C817.98 564.869 817.32 563.143 815.999 562.106C814.677 561.069 813.122 560.551 811.332 560.551C809.031 560.551 807.249 561.247 805.984 562.639C804.72 564.017 804.088 565.764 804.088 567.88V589.187H798.974V566.772C798.974 564.912 798.371 563.413 797.163 562.277C795.956 561.126 794.401 560.551 792.497 560.551C791.19 560.551 789.969 560.899 788.832 561.595C787.71 562.291 786.801 563.257 786.105 564.493C785.423 565.714 785.082 567.128 785.082 568.733V589.187H780.054Z" fill="white"/>
<path d="M228.061 146.214C228.061 140.692 232.538 136.214 238.061 136.214H408.061C413.584 136.214 418.061 140.692 418.061 146.214V226.214C418.061 231.737 413.584 236.214 408.061 236.214H238.061C232.538 236.214 228.061 231.737 228.061 226.214V146.214Z" fill="white"/>
<path d="M233.893 159.935C233.893 155.108 237.554 151.068 242.358 150.595L321.998 142.74C322.61 142.679 323.226 142.679 323.838 142.739L403.761 150.597C408.566 151.069 412.229 155.11 412.229 159.938V212.49C412.229 217.319 408.564 221.361 403.757 221.831L323.875 229.65C323.266 229.71 322.653 229.71 322.044 229.65L242.362 221.833C237.557 221.361 233.893 217.32 233.893 212.492V159.935Z" fill="#1A72E5"/>
<path d="M311.441 207.694L330.959 169.086V168.745H308.459V164.058H336.413V169.001L316.981 207.694H311.441Z" fill="white"/>
<path d="M896.461 186.194H1210.39V229.74H896.461V186.194Z" fill="#C0C0C0"/>
<path d="M1166.84 992.43V223.007H1210.39V992.43H1166.84Z" fill="#C0C0C0"/>
</svg>
