<svg width="800" height="744" viewBox="0 0 800 744" fill="none" xmlns="http://www.w3.org/2000/svg">
<path d="M187.61 631.91C170.102 631.91 155.858 646.154 155.858 663.661C155.858 681.167 170.102 695.409 187.61 695.409C205.114 695.409 219.354 681.167 219.354 663.661C219.354 646.154 205.114 631.91 187.61 631.91Z" fill="#9E9791"/>
<path d="M620.225 631.91C602.717 631.91 588.473 646.154 588.473 663.661C588.473 681.167 602.717 695.409 620.225 695.409C637.729 695.409 651.969 681.167 651.969 663.661C651.969 646.154 637.729 631.91 620.225 631.91Z" fill="#9E9791"/>
<path d="M565.243 518.408H679.122C685.543 518.408 690.748 513.203 690.748 506.782V467.306C690.748 466.196 690.589 465.093 690.276 464.029L659.852 360.467C658.399 355.517 653.858 352.119 648.698 352.119H565.244C558.823 352.119 553.618 357.324 553.618 363.745V506.78C553.616 513.204 558.821 518.408 565.243 518.408ZM576.869 495.155V419.017L667.496 470.199V495.154H576.869V495.155Z" fill="#FC7704"/>
<path d="M91.9854 518.408H495.35C501.771 518.408 506.977 513.203 506.977 506.782V363.747C506.977 357.326 501.771 352.121 495.35 352.121H91.9854C85.5644 352.121 80.3591 357.326 80.3591 363.747V506.782C80.3591 513.204 85.5644 518.408 91.9854 518.408ZM103.612 387.707L458.811 495.155H103.612V387.707Z" fill="#FC7704"/>
<path d="M797.625 583.151C795.426 580.263 792.003 578.566 788.374 578.566H784.109L709.501 320.155H752.63C753.495 320.155 754.337 320.052 755.151 319.873C760.479 318.813 764.497 314.115 764.497 308.474C764.497 293.931 759.639 279.844 750.937 268.415C759.64 256.983 764.5 242.892 764.5 228.353C764.5 221.932 759.295 216.726 752.874 216.726C752.834 216.726 752.792 216.733 752.753 216.733C752.713 216.733 752.671 216.726 752.631 216.726H505.258V189.102C515.955 187.405 526.632 185.576 537.266 183.581C564.713 178.433 587.038 161.561 600.086 139.131C607.305 137.502 614.513 135.824 621.708 134.057C652.072 126.608 670.718 95.838 663.267 65.4653C657.018 40.032 634.381 22.2687 608.213 22.2687C603.674 22.2687 599.12 22.8201 594.673 23.9097C591.285 24.7418 587.89 25.5423 584.494 26.3346C567.745 10.1209 545.001 0.30835 520.325 0.30835C514.612 0.30835 508.848 0.844818 503.191 1.90779C443.725 13.0607 382.938 18.7144 322.519 18.7144C275.454 18.7144 227.818 15.2763 180.931 8.49324C176.525 7.85546 172.049 7.5349 167.626 7.5349C143.862 7.5349 121.82 16.8077 105.226 32.073C100.806 31.1545 96.3917 30.2128 91.9787 29.2378C87.9361 28.3443 83.8021 27.8892 79.6914 27.8892C53.3313 27.8892 30.0655 46.5992 24.3703 72.3746C21.1017 87.1632 23.789 102.342 31.9374 115.111C40.0857 127.88 52.7201 136.713 67.5087 139.98C73.8102 141.373 80.1216 142.704 86.4363 143.994C88.5589 147.891 90.9689 151.664 93.6712 155.283C108.446 175.058 130.04 187.896 154.472 191.429C163.849 192.785 173.256 194.02 182.677 195.15V216.723H11.6263C5.20524 216.723 0 221.928 0 228.349V308.526C0 314.947 5.20524 320.152 11.6263 320.152H24.7457V604.788H11.6263C5.20524 604.788 0 609.993 0 616.414V663.658C0 670.079 5.20524 675.284 11.6263 675.284H36.3719H75.5907H108.433C114.082 713.92 147.429 743.687 187.61 743.687C227.785 743.687 261.133 713.92 266.78 675.284H541.048C546.697 713.92 580.044 743.687 620.225 743.687C660.4 743.687 693.748 713.92 699.395 675.284H753.505C753.512 675.284 753.518 675.283 753.525 675.283H768.074C773.303 675.283 777.888 671.792 779.28 666.752L799.581 593.284C800.546 589.79 799.822 586.04 797.625 583.151ZM640.684 71.0077C645.08 88.9254 634.078 107.079 616.164 111.475C614.255 111.944 612.337 112.376 610.427 112.834C613.088 100.969 613.443 88.3939 611.065 75.7063C609.088 65.1746 605.358 55.3521 600.233 46.4895C602.858 45.8451 605.544 45.5212 608.215 45.5212C623.644 45.5229 636.998 56.0031 640.684 71.0077ZM72.5246 117.279C63.7983 115.35 56.3459 110.14 51.5376 102.606C46.7309 95.074 45.1448 86.1202 47.0731 77.3938C50.4331 62.185 64.1504 51.1434 79.6897 51.1434C82.1146 51.1434 88.0723 52.1781 88.6287 52.2993C82.3654 62.6052 78.0421 74.2414 76.2351 86.7314C74.6954 97.376 75.006 108.004 77.0622 118.245C75.5508 117.918 74.0361 117.612 72.5246 117.279ZM112.296 141.367C101.238 126.566 96.6043 108.346 99.2484 90.0631C104.138 56.2706 133.534 30.7891 167.626 30.7891C170.941 30.7891 174.301 31.0316 177.606 31.5083C225.588 38.4508 274.343 41.9702 322.519 41.9702C384.373 41.9702 446.601 36.182 507.478 24.765C511.727 23.9695 516.048 23.5642 520.325 23.5642C553.525 23.5642 582.076 47.2967 588.211 79.9964C595.24 117.481 570.464 153.699 532.98 160.729C463.702 173.721 392.9 180.31 322.541 180.31C267.771 180.31 212.344 176.31 157.802 168.421C139.517 165.773 123.356 156.167 112.296 141.367ZM205.931 197.714C244.773 201.596 283.817 203.56 322.541 203.56C375.721 203.56 429.145 199.862 482.003 192.562V216.726H205.931V197.714ZM23.2525 280.041H697.609C704.03 280.041 709.235 274.836 709.235 268.415C709.235 261.994 704.03 256.789 697.609 256.789H23.2525V239.979H739.618C737.479 247.538 733.293 254.46 727.427 259.861C722.702 264.21 722.398 271.566 726.746 276.289C726.886 276.442 727.038 276.575 727.185 276.716C727.271 276.803 727.334 276.884 727.429 276.972C733.308 282.381 737.499 289.324 739.631 296.904H694.045H36.3719H23.2525V280.041ZM47.9982 320.155H685.3L759.909 578.566H709.235C702.814 578.566 697.609 583.771 697.609 590.192V616.62C681.691 590.531 652.959 573.075 620.225 573.075C574.213 573.075 536.13 607.561 530.403 652.035H277.421C271.694 607.561 233.617 573.075 187.61 573.075C141.6 573.075 103.519 607.561 97.7918 652.035H87.2169V616.417C87.2169 609.996 82.0117 604.791 75.5907 604.791H47.9982V320.155ZM23.2525 628.044H63.9644V652.035H23.2525V628.044ZM187.61 720.438C156.302 720.438 130.83 694.968 130.83 663.662C130.83 632.355 156.302 606.885 187.61 606.885C218.914 606.885 244.382 632.355 244.382 663.662C244.382 694.968 218.914 720.438 187.61 720.438ZM620.225 720.438C588.917 720.438 563.445 694.968 563.445 663.662C563.445 632.355 588.917 606.885 620.225 606.885C651.529 606.885 676.997 632.355 676.997 663.662C676.996 694.968 651.528 720.438 620.225 720.438ZM759.223 652.034H720.862V601.818H773.1L759.223 652.034Z" fill="#F7831F"/>
<path d="M112.296 141.367C101.238 126.566 96.6043 108.346 99.2484 90.0631C104.138 56.2706 133.534 30.7891 167.626 30.7891C170.941 30.7891 174.301 31.0316 177.606 31.5083C225.588 38.4508 274.343 41.9702 322.519 41.9702C384.373 41.9702 446.601 36.182 507.478 24.765C511.727 23.9695 516.048 23.5642 520.325 23.5642C553.525 23.5642 582.076 47.2967 588.211 79.9964C595.24 117.481 570.464 153.699 532.98 160.729C463.702 173.721 392.9 180.31 322.541 180.31C267.771 180.31 212.344 176.31 157.802 168.421C139.517 165.773 123.356 156.167 112.296 141.367Z" fill="#FFCA9D"/>
<path d="M640.684 71.0077C645.08 88.9254 634.078 107.079 616.164 111.475C614.255 111.944 612.337 112.376 610.427 112.834C613.088 100.969 613.443 88.3939 611.065 75.7063C609.088 65.1746 605.358 55.3521 600.233 46.4895C602.858 45.8451 605.544 45.5212 608.215 45.5212C623.644 45.5229 636.998 56.0031 640.684 71.0077Z" fill="#EB3E3E"/>
<path d="M72.5246 117.279C63.7983 115.35 56.3459 110.14 51.5376 102.606C46.7309 95.074 45.1448 86.1202 47.0731 77.3938C50.4331 62.185 64.1504 51.1434 79.6897 51.1434C82.1146 51.1434 88.0723 52.1781 88.6287 52.2993C82.3654 62.6052 78.0421 74.2414 76.2351 86.7314C74.6954 97.376 75.006 108.004 77.0622 118.245C75.5508 117.918 74.0361 117.612 72.5246 117.279Z" fill="#EB3E3E"/>
</svg>
