<svg width="49" height="83" viewBox="0 0 49 83" fill="none" xmlns="http://www.w3.org/2000/svg">
<path d="M38.6541 27.3368C39.1191 25.366 39.375 23.2675 39.375 21.0872C39.375 9.80145 32.6597 0.651245 24.375 0.651245C16.0903 0.651245 9.375 9.80145 9.375 21.0872C9.375 23.2675 9.63094 25.366 10.0959 27.3368C4.22344 30.1071 0 37.6889 0 46.6322C0 57.9179 6.71531 67.0681 15 67.0681C16.9922 67.0681 18.8869 66.5189 20.625 65.5559V81.1179C20.625 81.8242 21.0441 82.3951 21.5625 82.3951H27.1875C27.7059 82.3951 28.125 81.8242 28.125 81.1179V65.5559C29.8631 66.5189 31.7578 67.0681 33.75 67.0681C42.0347 67.0681 48.75 57.9179 48.75 46.6322C48.75 37.6889 44.5266 30.1071 38.6541 27.3368ZM26.25 79.8406H22.5V64.3118C23.1562 63.7933 23.7853 63.2147 24.375 62.571C24.9647 63.2147 25.5938 63.7933 26.25 64.3118V79.8406ZM33.75 64.5136C31.0191 64.5136 28.4878 63.3705 26.3878 61.4253L32.5594 53.0184H36.5625C37.0809 53.0184 37.5 52.4475 37.5 51.7412C37.5 51.0348 37.0809 50.4639 36.5625 50.4639H32.8125V45.3549C32.8125 44.6486 32.3934 44.0777 31.875 44.0777C31.3566 44.0777 30.9375 44.6486 30.9375 45.3549V51.6109L25.3125 59.2769V58.1274V43.3292L28.7981 38.5817C29.1647 38.0823 29.1656 37.2725 28.7991 36.7731C28.4325 36.2737 27.8259 36.2941 27.4594 36.7935L24.375 40.9944L21.2512 36.7386C20.8847 36.2392 20.3756 36.3542 20.01 36.8536C19.6425 37.3555 19.6022 38.1078 19.9688 38.6072L23.4375 43.3318V58.1274V59.2744L17.8125 51.616V45.3549C17.8125 44.6486 17.3934 44.0777 16.875 44.0777C16.3566 44.0777 15.9375 44.6486 15.9375 45.3549V50.4639H12.1875C11.6691 50.4639 11.25 51.0348 11.25 51.7412C11.25 52.4475 11.6691 53.0184 12.1875 53.0184H16.1906L22.3622 61.4253C20.2622 63.3705 17.7309 64.5136 15 64.5136C7.75125 64.5136 1.875 56.5079 1.875 46.6322C1.875 37.8562 6.5175 30.5746 12.6375 29.0547C11.7572 26.6547 11.25 23.9534 11.25 21.0872C11.25 11.2115 17.1262 3.20574 24.375 3.20574C31.6238 3.20574 37.5 11.2115 37.5 21.0872C37.5 23.9534 36.9928 26.6547 36.1125 29.0547C42.2325 30.5746 46.875 37.8562 46.875 46.6322C46.875 56.5079 40.9987 64.5136 33.75 64.5136Z" fill="#394240"/>
<path d="M26.25 79.8406H22.5V64.3118C23.1562 63.7932 23.7853 63.2147 24.375 62.5709C24.9647 63.2147 25.5938 63.7932 26.25 64.3118V79.8406Z" fill="#506C7F"/>
<path d="M33.75 64.5136C31.0191 64.5136 28.4878 63.3705 26.3878 61.4253L32.5594 53.0184H36.5625C37.0809 53.0184 37.5 52.4475 37.5 51.7412C37.5 51.0349 37.0809 50.4639 36.5625 50.4639H32.8125V45.3549C32.8125 44.6486 32.3934 44.0777 31.875 44.0777C31.3566 44.0777 30.9375 44.6486 30.9375 45.3549V51.6109L25.3125 59.2769V58.1274V43.3292L28.7981 38.5817C29.1647 38.0823 29.1656 37.2725 28.7991 36.7731C28.4325 36.2737 27.8259 36.2941 27.4594 36.7935L24.375 40.9944L21.2512 36.7386C20.8847 36.2392 20.3756 36.3542 20.01 36.8536C19.6425 37.3555 19.6022 38.1078 19.9688 38.6072L23.4375 43.3318V58.1274V59.2744L17.8125 51.616V45.3549C17.8125 44.6486 17.3934 44.0777 16.875 44.0777C16.3566 44.0777 15.9375 44.6486 15.9375 45.3549V50.4639H12.1875C11.6691 50.4639 11.25 51.0349 11.25 51.7412C11.25 52.4475 11.6691 53.0184 12.1875 53.0184H16.1906L22.3622 61.4253C20.2622 63.3705 17.7309 64.5136 15 64.5136C7.75125 64.5136 1.875 56.5079 1.875 46.6322C1.875 37.8562 6.5175 30.5746 12.6375 29.0547C11.7572 26.6547 11.25 23.9534 11.25 21.0872C11.25 11.2115 17.1263 3.20575 24.375 3.20575C31.6238 3.20575 37.5 11.2115 37.5 21.0872C37.5 23.9534 36.9928 26.6547 36.1125 29.0547C42.2325 30.5746 46.875 37.8562 46.875 46.6322C46.875 56.5079 40.9987 64.5136 33.75 64.5136Z" fill="#B4CCB9"/>
</svg>
