<svg width="229" height="135" viewBox="0 0 229 135" fill="none" xmlns="http://www.w3.org/2000/svg">
<path d="M216.8 25.2222L99.2553 24.8736C86.3386 24.8352 75.8987 14.3332 75.937 1.41656L216.87 1.83461L216.8 25.2222Z" fill="#F69C3B"/>
<path d="M216.739 39.675L91.2861 39.675C69.5889 39.675 51.9998 22.0859 51.9998 0.388707L75.9215 0.388707C75.9215 13.9814 86.9405 25.0004 100.533 25.0004L216.701 25.0004L216.739 39.675Z" fill="#BAD6D8"/>
<path d="M33.4708 1.05494C32.6663 26.4646 53.0462 47.5 78.4686 47.5L123 47.5L228.091 47.5L228.091 35.5001L86.4111 35.5001C67.3876 35.5001 51.966 20.0785 51.966 1.05497L33.4708 1.05494Z" fill="#F69C3B"/>
<path d="M14.9998 1.16289C14.9997 32.8363 40.151 58.786 71.8089 59.7754L214 64.2192L214 45L78.2919 45C54.0814 45 34.4549 25.3735 34.4549 1.1629L14.9998 1.16289Z" fill="#DDCBC9"/>
<path d="M0.393907 1.04588V1.04588C1.14625 39.667 32.6742 70.58 71.3027 70.5715L216.223 70.5397L216.251 134.423L216.218 59.5397L73.3272 59.5711C40.9998 59.5782 14.7913 33.3702 14.7979 1.04273V1.04273L0.393907 1.04588Z" fill="#627A7F"/>
</svg>
