<svg width="114" height="496" viewBox="0 0 114 496" fill="none" xmlns="http://www.w3.org/2000/svg">
<path d="M68.1716 493.84L67.8969 134.786C67.8684 97.4055 38.4515 66.9711 1.11088 65.6901L1.11087 89.3498C26.1589 89.3498 46.4385 109.298 46.8499 134.342L52.7585 494.018L68.1716 493.84Z" fill="#F69C3B"/>
<path d="M83.1282 493.667L82.8503 130.283C82.8155 84.8074 46.5679 48.0231 1.11072 47.333L1.11072 65.6897C38.4252 66.9949 67.8008 97.4307 67.8008 134.787L67.8008 493.843L75.4645 493.755L83.1282 493.667Z" fill="#BAD6D8"/>
<path d="M0.588422 19.772C48.4637 19.772 87.0038 58.3172 87.0038 106.199L87.0038 493.623L79.5609 493.622L76.2198 122.584C75.8449 80.9496 42.2228 47.6278 0.5882 47.6278L0.588422 19.772Z" fill="#FF9A36"/>
<path d="M1.11086 20.0243C55.8968 20.0243 100 64.1333 100 118.926L100 493.366L106.119 493.366L87.0005 493.366L87.0005 123.821C87.0005 76.2305 48.6948 37.9198 1.11086 37.9198L1.11086 20.0243Z" fill="#DDCBC9"/>
<path d="M1.11086 2.1784C63.3759 2.17839 113.5 52.3091 113.5 114.582L113.5 494.711L106.5 494.711L100 494.711L96.3949 114.462C95.8978 62.0269 53.5464 20.0739 1.11086 20.0739L1.11086 2.1784Z" fill="#627A7F"/>
</svg>
