<svg width="186" height="176" viewBox="0 0 186 176" fill="none" xmlns="http://www.w3.org/2000/svg">
<g filter="url(#filter0_d_251_209)">
<g filter="url(#filter1_d_251_209)">
<rect x="4" y="39" width="178" height="129" fill="#DFCBD3"/>
<rect x="4.5" y="39.5" width="177" height="128" stroke="black"/>
</g>
<rect x="24.5" y="69.5" width="136" height="91" fill="#DFCBD3" stroke="#B6E4E6" stroke-width="3"/>
<path d="M39.7033 81.285V76.5086H40.3937L41.9224 79.9605L43.4934 76.5086H44.1134V81.285H43.6837V77.1144L42.1267 80.4678H41.69L40.1612 77.1003V81.285H39.7033ZM47.3941 77.3469C47.3096 77.6146 47.2556 77.7931 47.2321 77.8823L46.6756 79.6224H48.4438L47.8873 77.8823C47.7605 77.5066 47.6478 77.1567 47.5491 76.8326C47.5069 76.9876 47.4552 77.159 47.3941 77.3469ZM45.6682 81.285L47.2603 76.5015H47.8873L49.4794 81.285H48.9933L48.5495 79.9817H46.5629L46.1472 81.285H45.6682ZM51.0323 81.285V76.5015H51.5677L54.5195 80.5594V79.2772V76.5015H54.9422V81.285H54.5054L51.4691 77.0721V78.4248V81.285H51.0323ZM56.8963 76.5015H58.5448C59.2305 76.5015 59.7471 76.6753 60.0947 77.0228C60.4469 77.3798 60.6231 77.9974 60.6231 78.8756C60.6231 80.0122 60.3201 80.7355 59.7143 81.0454C59.4137 81.2051 59.0168 81.285 58.5237 81.285H56.8963V76.5015ZM57.3824 76.8749V80.9116H58.3687C59.0403 80.9116 59.5076 80.7543 59.7706 80.4396C60.0289 80.1202 60.1581 79.5989 60.1581 78.8756C60.1581 78.2181 60.0477 77.725 59.827 77.3962C59.5969 77.0487 59.1718 76.8749 58.5519 76.8749H57.3824ZM63.6653 77.3469C63.5807 77.6146 63.5267 77.7931 63.5032 77.8823L62.9467 79.6224H64.715L64.1584 77.8823C64.0316 77.5066 63.9189 77.1567 63.8203 76.8326C63.778 76.9876 63.7263 77.159 63.6653 77.3469ZM61.9393 81.285L63.5314 76.5015H64.1584L65.7506 81.285H65.2645L64.8206 79.9817H62.834L62.4183 81.285H61.9393ZM70.8681 77.523L70.4666 77.7062C70.2412 77.1003 69.8255 76.7974 69.2197 76.7974C68.6936 76.7974 68.3085 76.9712 68.0643 77.3187C67.8201 77.6663 67.698 78.204 67.698 78.932C67.698 79.6036 67.806 80.1061 68.022 80.4396C68.2428 80.8012 68.6255 80.982 69.1703 80.982C69.4709 80.982 69.7504 80.8881 70.0087 80.7003C70.2905 80.4889 70.4314 80.2001 70.4314 79.8337V79.1152H69.2126V78.7066H70.9034V79.3829L70.8681 81.285H70.5652L70.4595 80.665C70.3327 80.8717 70.1472 81.0408 69.903 81.1723C69.6635 81.2991 69.4005 81.3625 69.114 81.3625C67.8365 81.3625 67.1978 80.55 67.1978 78.9249C67.1978 78.0467 67.3833 77.4009 67.7543 76.9876C68.1066 76.6025 68.5974 76.4099 69.2267 76.4099C69.6071 76.4099 69.9406 76.5062 70.2271 76.6988C70.5136 76.8866 70.7273 77.1614 70.8681 77.523ZM39.2524 88.8678V88.5015H42.8524V88.8678H41.3025V93.285H40.8023V88.8678H39.2524ZM44.8711 93.285H44.3991V88.5015H44.8711V93.285ZM47.3285 88.8538V90.7136H48.4697C48.7938 90.7136 49.0568 90.6831 49.2588 90.622C49.5077 90.5469 49.6791 90.4036 49.773 90.1923C49.8247 90.0655 49.8505 89.9269 49.8505 89.7766C49.8505 89.4714 49.7637 89.2412 49.5899 89.0862C49.4631 88.9688 49.2494 88.896 48.9488 88.8678C48.8079 88.8585 48.6764 88.8538 48.5543 88.8538H47.3285ZM49.301 91.0165L50.4141 93.285H49.9069L48.822 91.0799H47.3285V93.285H46.8494V88.5015H48.5825C49.2024 88.5015 49.6486 88.6025 49.921 88.8044C50.1981 89.0064 50.3366 89.3281 50.3366 89.7696C50.3366 90.413 49.9914 90.8287 49.301 91.0165ZM55.2376 89.2624L54.8924 89.523C54.7656 89.3023 54.5918 89.1309 54.3711 89.0087C54.155 88.8866 53.9132 88.8256 53.6455 88.8256C53.2885 88.8256 53.0067 88.8913 52.8001 89.0228C52.5934 89.1543 52.4901 89.3469 52.4901 89.6005C52.4901 89.7931 52.5676 89.9551 52.7226 90.0866C52.8588 90.1993 53.042 90.2933 53.2721 90.3684C53.305 90.3778 53.4012 90.4107 53.5609 90.467C53.7253 90.5187 53.8357 90.5539 53.892 90.5727C54.0376 90.6338 54.1574 90.6831 54.2513 90.7206C54.4815 90.8146 54.6764 90.9132 54.836 91.0165C55.0004 91.1246 55.1249 91.2584 55.2094 91.4181C55.2987 91.5872 55.3433 91.7821 55.3433 92.0028C55.3433 92.4255 55.1836 92.759 54.8642 93.0032C54.5449 93.2427 54.1128 93.3625 53.568 93.3625C53.2439 93.3625 52.9386 93.3038 52.6521 93.1863C52.3093 93.0454 52.0604 92.8435 51.9054 92.5805C51.8068 92.4255 51.741 92.2541 51.7081 92.0662L52.1097 91.8901C52.3022 92.5993 52.8001 92.9539 53.6032 92.9539C53.8568 92.9539 54.0869 92.9116 54.2936 92.8271C54.5284 92.7378 54.6881 92.5922 54.7726 92.3903C54.8196 92.2916 54.8431 92.1672 54.8431 92.0169C54.8431 91.8807 54.8079 91.7328 54.7374 91.5731C54.7092 91.5214 54.6552 91.4674 54.5754 91.411C54.4861 91.3547 54.4251 91.3124 54.3922 91.2842C54.3406 91.2514 54.155 91.1715 53.8357 91.0447C53.7746 91.0259 53.6549 90.9837 53.4764 90.9179C53.4435 90.9132 53.42 90.9062 53.4059 90.8968C53.2087 90.8263 53.0607 90.7723 52.9621 90.7347C52.8682 90.6972 52.7508 90.6432 52.6099 90.5727C52.4737 90.5023 52.3703 90.4365 52.2999 90.3754C52.2341 90.3097 52.1707 90.2275 52.1097 90.1289C52.0533 90.0303 52.0158 89.9199 51.997 89.7978C51.9923 89.7649 51.9899 89.7109 51.9899 89.6357C51.9899 89.2365 52.1543 88.9336 52.4831 88.727C52.7883 88.5344 53.1547 88.4381 53.5821 88.4381C54.3429 88.4381 54.8947 88.7129 55.2376 89.2624ZM57.002 88.5015H58.6505C59.3362 88.5015 59.8528 88.6753 60.2004 89.0228C60.5526 89.3798 60.7287 89.9974 60.7287 90.8756C60.7287 92.0122 60.4258 92.7355 59.8199 93.0454C59.5194 93.2051 59.1225 93.285 58.6294 93.285H57.002V88.5015ZM57.4881 88.8749V92.9116H58.4744C59.146 92.9116 59.6133 92.7543 59.8763 92.4396C60.1346 92.1202 60.2638 91.5989 60.2638 90.8756C60.2638 90.2181 60.1534 89.725 59.9327 89.3962C59.7025 89.0487 59.2775 88.8749 58.6575 88.8749H57.4881ZM63.771 89.3469C63.6864 89.6146 63.6324 89.7931 63.6089 89.8823L63.0524 91.6224H64.8206L64.2641 89.8823C64.1373 89.5066 64.0246 89.1567 63.9259 88.8326C63.8837 88.9876 63.832 89.159 63.771 89.3469ZM62.045 93.285L63.6371 88.5015H64.2641L65.8562 93.285H65.3701L64.9263 91.9817H62.9397L62.524 93.285H62.045ZM70.9738 89.523L70.5723 89.7062C70.3468 89.1003 69.9312 88.7974 69.3253 88.7974C68.7993 88.7974 68.4142 88.9712 68.17 89.3187C67.9257 89.6663 67.8036 90.204 67.8036 90.932C67.8036 91.6036 67.9117 92.1061 68.1277 92.4396C68.3484 92.8012 68.7312 92.982 69.276 92.982C69.5766 92.982 69.856 92.8881 70.1144 92.7003C70.3961 92.4889 70.537 92.2001 70.537 91.8337V91.1152H69.3183V90.7066H71.009V91.3829L70.9738 93.285H70.6709L70.5652 92.665C70.4384 92.8717 70.2529 93.0408 70.0087 93.1723C69.7692 93.2991 69.5061 93.3625 69.2197 93.3625C67.9422 93.3625 67.3035 92.55 67.3035 90.9249C67.3035 90.0467 67.489 89.4009 67.86 88.9876C68.2122 88.6025 68.703 88.4099 69.3324 88.4099C69.7128 88.4099 70.0463 88.5062 70.3327 88.6988C70.6192 88.8866 70.8329 89.1614 70.9738 89.523ZM40.5628 101.157C40.3467 101.377 40.2082 101.711 40.1471 102.157C40.1143 102.35 40.0978 102.584 40.0978 102.862C40.0978 103.608 40.2105 104.148 40.436 104.482C40.6661 104.815 41.0489 104.982 41.5843 104.982C42.1244 104.982 42.5072 104.818 42.7326 104.489C42.9627 104.155 43.0778 103.615 43.0778 102.869C43.0778 102.328 43.0144 101.903 42.8876 101.593C42.7326 101.237 42.4978 101.002 42.1831 100.889C42.0187 100.828 41.8191 100.797 41.5843 100.797C41.1334 100.797 40.7929 100.917 40.5628 101.157ZM43.0496 100.974C43.4066 101.368 43.585 101.997 43.585 102.862C43.585 103.721 43.4183 104.353 43.0848 104.757C42.7514 105.161 42.2512 105.362 41.5843 105.362C40.9409 105.362 40.4524 105.172 40.119 104.792C39.7714 104.402 39.5976 103.761 39.5976 102.869C39.5976 102 39.7738 101.368 40.126 100.974C40.4595 100.598 40.9456 100.41 41.5843 100.41C42.2183 100.41 42.7068 100.598 43.0496 100.974ZM45.4297 105.285V100.502H45.9651L48.9169 104.559V103.277V100.502H49.3396V105.285H48.9028L45.8665 101.072V102.425V105.285H45.4297ZM54.4921 101.262L54.1469 101.523C54.0201 101.302 53.8463 101.131 53.6256 101.009C53.4096 100.887 53.1677 100.826 52.9 100.826C52.543 100.826 52.2612 100.891 52.0546 101.023C51.8479 101.154 51.7446 101.347 51.7446 101.601C51.7446 101.793 51.8221 101.955 51.9771 102.087C52.1133 102.199 52.2965 102.293 52.5266 102.368C52.5595 102.378 52.6558 102.411 52.8154 102.467C52.9798 102.519 53.0902 102.554 53.1465 102.573C53.2921 102.634 53.4119 102.683 53.5058 102.721C53.736 102.815 53.9309 102.913 54.0906 103.017C54.2549 103.125 54.3794 103.258 54.4639 103.418C54.5532 103.587 54.5978 103.782 54.5978 104.003C54.5978 104.426 54.4381 104.759 54.1187 105.003C53.7994 105.243 53.3673 105.362 52.8225 105.362C52.4984 105.362 52.1931 105.304 51.9066 105.186C51.5638 105.045 51.3149 104.843 51.1599 104.58C51.0613 104.426 50.9955 104.254 50.9626 104.066L51.3642 103.89C51.5568 104.599 52.0546 104.954 52.8577 104.954C53.1113 104.954 53.3414 104.912 53.5481 104.827C53.7829 104.738 53.9426 104.592 54.0271 104.39C54.0741 104.292 54.0976 104.167 54.0976 104.017C54.0976 103.881 54.0624 103.733 53.9919 103.573C53.9637 103.521 53.9097 103.467 53.8299 103.411C53.7407 103.355 53.6796 103.312 53.6467 103.284C53.5951 103.251 53.4096 103.172 53.0902 103.045C53.0291 103.026 52.9094 102.984 52.7309 102.918C52.698 102.913 52.6745 102.906 52.6604 102.897C52.4632 102.826 52.3152 102.772 52.2166 102.735C52.1227 102.697 52.0053 102.643 51.8644 102.573C51.7282 102.502 51.6249 102.437 51.5544 102.375C51.4887 102.31 51.4252 102.228 51.3642 102.129C51.3078 102.03 51.2703 101.92 51.2515 101.798C51.2468 101.765 51.2444 101.711 51.2444 101.636C51.2444 101.237 51.4088 100.934 51.7376 100.727C52.0428 100.534 52.4092 100.438 52.8366 100.438C53.5974 100.438 54.1493 100.713 54.4921 101.262ZM56.2565 100.502H57.905C58.5907 100.502 59.1073 100.675 59.4549 101.023C59.8071 101.38 59.9832 101.997 59.9832 102.876C59.9832 104.012 59.6803 104.735 59.0745 105.045C58.7739 105.205 58.377 105.285 57.8839 105.285H56.2565V100.502ZM56.7426 100.875V104.912H57.7289C58.4005 104.912 58.8678 104.754 59.1308 104.44C59.3891 104.12 59.5183 103.599 59.5183 102.876C59.5183 102.218 59.4079 101.725 59.1872 101.396C58.957 101.049 58.532 100.875 57.9121 100.875H56.7426ZM63.0255 101.347C62.9409 101.615 62.8869 101.793 62.8634 101.882L62.3069 103.622H64.0751L63.5186 101.882C63.3918 101.507 63.2791 101.157 63.1805 100.833C63.1382 100.988 63.0865 101.159 63.0255 101.347ZM61.2995 105.285L62.8916 100.502H63.5186L65.1107 105.285H64.6246L64.1808 103.982H62.1942L61.7785 105.285H61.2995ZM70.2283 101.523L69.8268 101.706C69.6013 101.1 69.1857 100.797 68.5798 100.797C68.0538 100.797 67.6687 100.971 67.4245 101.319C67.1803 101.666 67.0581 102.204 67.0581 102.932C67.0581 103.604 67.1662 104.106 67.3822 104.44C67.603 104.801 67.9857 104.982 68.5305 104.982C68.8311 104.982 69.1106 104.888 69.3689 104.7C69.6507 104.489 69.7916 104.2 69.7916 103.834V103.115H68.5728V102.707H70.2636V103.383L70.2283 105.285H69.9254L69.8197 104.665C69.6929 104.872 69.5074 105.041 69.2632 105.172C69.0237 105.299 68.7607 105.362 68.4742 105.362C67.1967 105.362 66.558 104.55 66.558 102.925C66.558 102.047 66.7435 101.401 67.1145 100.988C67.4668 100.602 67.9575 100.41 68.5869 100.41C68.9673 100.41 69.3008 100.506 69.5873 100.699C69.8737 100.887 70.0874 101.161 70.2283 101.523ZM39.2524 112.868V112.502H42.8524V112.868H41.3025V117.285H40.8023V112.868H39.2524ZM45.2022 113.157C44.9862 113.377 44.8476 113.711 44.7866 114.157C44.7537 114.35 44.7372 114.584 44.7372 114.862C44.7372 115.608 44.85 116.148 45.0754 116.482C45.3055 116.815 45.6883 116.982 46.2237 116.982C46.7638 116.982 47.1466 116.818 47.372 116.489C47.6022 116.155 47.7172 115.615 47.7172 114.869C47.7172 114.328 47.6538 113.903 47.527 113.593C47.372 113.237 47.1372 113.002 46.8225 112.889C46.6581 112.828 46.4585 112.797 46.2237 112.797C45.7728 112.797 45.4323 112.917 45.2022 113.157ZM47.689 112.974C48.046 113.368 48.2244 113.997 48.2244 114.862C48.2244 115.721 48.0577 116.353 47.7243 116.757C47.3908 117.161 46.8906 117.362 46.2237 117.362C45.5803 117.362 45.0918 117.172 44.7584 116.792C44.4108 116.402 44.2371 115.761 44.2371 114.869C44.2371 114 44.4132 113.368 44.7654 112.974C45.0989 112.598 45.585 112.41 46.2237 112.41C46.8577 112.41 47.3462 112.598 47.689 112.974ZM50.5482 112.854V114.714H51.6895C52.0135 114.714 52.2765 114.683 52.4785 114.622C52.7274 114.547 52.8988 114.404 52.9928 114.192C53.0444 114.065 53.0703 113.927 53.0703 113.777C53.0703 113.471 52.9834 113.241 52.8096 113.086C52.6828 112.969 52.4691 112.896 52.1685 112.868C52.0276 112.858 51.8961 112.854 51.774 112.854H50.5482ZM52.5208 115.017L53.6338 117.285H53.1266L52.0417 115.08H50.5482V117.285H50.0692V112.502H51.8022C52.4221 112.502 52.8683 112.602 53.1407 112.804C53.4178 113.006 53.5564 113.328 53.5564 113.77C53.5564 114.413 53.2112 114.829 52.5208 115.017ZM58.4573 113.262L58.1121 113.523C57.9853 113.302 57.8115 113.131 57.5908 113.009C57.3748 112.887 57.1329 112.826 56.8652 112.826C56.5082 112.826 56.2264 112.891 56.0198 113.023C55.8131 113.154 55.7098 113.347 55.7098 113.601C55.7098 113.793 55.7873 113.955 55.9423 114.087C56.0785 114.199 56.2617 114.293 56.4918 114.368C56.5247 114.378 56.621 114.411 56.7806 114.467C56.945 114.519 57.0554 114.554 57.1118 114.573C57.2573 114.634 57.3771 114.683 57.471 114.721C57.7012 114.815 57.8961 114.913 58.0558 115.017C58.2201 115.125 58.3446 115.258 58.4291 115.418C58.5184 115.587 58.563 115.782 58.563 116.003C58.563 116.426 58.4033 116.759 58.0839 117.003C57.7646 117.243 57.3325 117.362 56.7877 117.362C56.4636 117.362 56.1583 117.304 55.8719 117.186C55.529 117.045 55.2801 116.843 55.1251 116.58C55.0265 116.426 54.9607 116.254 54.9278 116.066L55.3294 115.89C55.522 116.599 56.0198 116.954 56.8229 116.954C57.0765 116.954 57.3067 116.912 57.5133 116.827C57.7481 116.738 57.9078 116.592 57.9924 116.39C58.0393 116.292 58.0628 116.167 58.0628 116.017C58.0628 115.881 58.0276 115.733 57.9571 115.573C57.929 115.521 57.8749 115.467 57.7951 115.411C57.7059 115.355 57.6448 115.312 57.6119 115.284C57.5603 115.251 57.3748 115.172 57.0554 115.045C56.9943 115.026 56.8746 114.984 56.6961 114.918C56.6632 114.913 56.6397 114.906 56.6257 114.897C56.4284 114.826 56.2805 114.772 56.1818 114.735C56.0879 114.697 55.9705 114.643 55.8296 114.573C55.6934 114.502 55.5901 114.437 55.5196 114.375C55.4539 114.31 55.3905 114.228 55.3294 114.129C55.273 114.03 55.2355 113.92 55.2167 113.798C55.212 113.765 55.2096 113.711 55.2096 113.636C55.2096 113.237 55.374 112.934 55.7028 112.727C56.0081 112.534 56.3744 112.438 56.8018 112.438C57.5626 112.438 58.1145 112.713 58.4573 113.262ZM60.2217 112.502H61.8702C62.5559 112.502 63.0725 112.675 63.4201 113.023C63.7723 113.38 63.9485 113.997 63.9485 114.876C63.9485 116.012 63.6455 116.735 63.0397 117.045C62.7391 117.205 62.3422 117.285 61.8491 117.285H60.2217V112.502ZM60.7078 112.875V116.912H61.6941C62.3657 116.912 62.833 116.754 63.096 116.44C63.3543 116.12 63.4835 115.599 63.4835 114.876C63.4835 114.218 63.3731 113.725 63.1524 113.396C62.9222 113.049 62.4972 112.875 61.8773 112.875H60.7078ZM66.9907 113.347C66.9061 113.615 66.8521 113.793 66.8286 113.882L66.2721 115.622H68.0404L67.4838 113.882C67.357 113.507 67.2443 113.157 67.1457 112.833C67.1034 112.988 67.0517 113.159 66.9907 113.347ZM65.2647 117.285L66.8568 112.502H67.4838L69.076 117.285H68.5899L68.146 115.982H66.1594L65.7437 117.285H65.2647ZM74.1935 113.523L73.792 113.706C73.5666 113.1 73.1509 112.797 72.545 112.797C72.019 112.797 71.6339 112.971 71.3897 113.319C71.1455 113.666 71.0234 114.204 71.0234 114.932C71.0234 115.604 71.1314 116.106 71.3474 116.44C71.5682 116.801 71.9509 116.982 72.4957 116.982C72.7963 116.982 73.0758 116.888 73.3341 116.7C73.6159 116.489 73.7568 116.2 73.7568 115.834V115.115H72.538V114.707H74.2288V115.383L74.1935 117.285H73.8906L73.7849 116.665C73.6581 116.872 73.4726 117.041 73.2284 117.172C72.9889 117.299 72.7259 117.362 72.4394 117.362C71.1619 117.362 70.5232 116.55 70.5232 114.925C70.5232 114.047 70.7087 113.401 71.0797 112.988C71.432 112.602 71.9228 112.41 72.5521 112.41C72.9325 112.41 73.266 112.506 73.5525 112.699C73.839 112.887 74.0526 113.161 74.1935 113.523ZM42.8735 124.868H40.1894V126.573H42.5213V126.946H40.1894V129.285H39.7033V124.502H42.8735V124.868ZM44.7392 124.854V126.714H45.8805C46.2046 126.714 46.4676 126.683 46.6695 126.622C46.9184 126.547 47.0899 126.404 47.1838 126.192C47.2355 126.065 47.2613 125.927 47.2613 125.777C47.2613 125.471 47.1744 125.241 47.0006 125.086C46.8738 124.969 46.6601 124.896 46.3595 124.868C46.2186 124.858 46.0871 124.854 45.965 124.854H44.7392ZM46.7118 127.017L47.8249 129.285H47.3176L46.2327 127.08H44.7392V129.285H44.2602V124.502H45.9932C46.6132 124.502 47.0593 124.602 47.3317 124.804C47.6088 125.006 47.7474 125.328 47.7474 125.77C47.7474 126.413 47.4022 126.829 46.7118 127.017ZM52.6554 129.285H49.45V124.502H52.6202V124.868H49.9361V126.545H52.2679V126.925H49.9361V128.919H52.6554V129.285ZM54.172 124.502H55.8204C56.5061 124.502 57.0228 124.675 57.3703 125.023C57.7226 125.38 57.8987 125.997 57.8987 126.876C57.8987 128.012 57.5958 128.735 56.9899 129.045C56.6893 129.205 56.2925 129.285 55.7993 129.285H54.172V124.502ZM54.658 124.875V128.912H55.6443C56.3159 128.912 56.7832 128.754 57.0463 128.44C57.3046 128.12 57.4337 127.599 57.4337 126.876C57.4337 126.218 57.3234 125.725 57.1026 125.396C56.8725 125.049 56.4474 124.875 55.8275 124.875H54.658ZM60.9409 125.347C60.8564 125.615 60.8024 125.793 60.7789 125.882L60.2223 127.622H61.9906L61.434 125.882C61.3072 125.507 61.1945 125.157 61.0959 124.833C61.0536 124.988 61.002 125.159 60.9409 125.347ZM59.2149 129.285L60.8071 124.502H61.434L63.0262 129.285H62.5401L62.0963 127.982H60.1096L59.694 129.285H59.2149ZM68.1438 125.523L67.7422 125.706C67.5168 125.1 67.1011 124.797 66.4953 124.797C65.9693 124.797 65.5841 124.971 65.3399 125.319C65.0957 125.666 64.9736 126.204 64.9736 126.932C64.9736 127.604 65.0816 128.106 65.2977 128.44C65.5184 128.801 65.9012 128.982 66.446 128.982C66.7465 128.982 67.026 128.888 67.2843 128.7C67.5661 128.489 67.707 128.2 67.707 127.834V127.115H66.4882V126.707H68.179V127.383L68.1438 129.285H67.8408L67.7352 128.665C67.6084 128.872 67.4228 129.041 67.1786 129.172C66.9391 129.299 66.6761 129.362 66.3896 129.362C65.1121 129.362 64.4734 128.55 64.4734 126.925C64.4734 126.047 64.6589 125.401 65.0299 124.988C65.3822 124.602 65.873 124.41 66.5023 124.41C66.8827 124.41 67.2162 124.506 67.5027 124.699C67.7892 124.887 68.0029 125.161 68.1438 125.523ZM42.6269 141.285H39.7033V136.502H40.1894V140.919H42.6269V141.285ZM45.9004 141.362C45.5246 141.362 45.21 141.304 44.9563 141.186L44.583 141.954L44.3082 141.806L44.6886 141.031C44.172 140.651 43.9137 139.93 43.9137 138.869C43.9137 138 44.0898 137.368 44.4421 136.974C44.7755 136.598 45.2616 136.41 45.9004 136.41C46.2808 136.41 46.6001 136.473 46.8585 136.6L47.2177 135.867L47.4925 136.008L47.1262 136.755C47.6428 137.145 47.9011 137.847 47.9011 138.862C47.9011 139.721 47.7344 140.353 47.4009 140.757C47.0675 141.161 46.5673 141.362 45.9004 141.362ZM47.3939 138.869C47.3939 138.051 47.2412 137.483 46.936 137.164L45.1395 140.82C45.3462 140.928 45.5998 140.982 45.9004 140.982C46.4405 140.982 46.8232 140.818 47.0487 140.489C47.2788 140.155 47.3939 139.615 47.3939 138.869ZM44.8789 137.157C44.6628 137.377 44.5243 137.711 44.4632 138.157C44.4303 138.35 44.4139 138.584 44.4139 138.862C44.4139 139.726 44.5712 140.315 44.8859 140.63L46.6823 136.966C46.4663 136.854 46.2056 136.797 45.9004 136.797C45.4495 136.797 45.109 136.917 44.8789 137.157ZM50.2593 136.854V138.714H51.4005C51.7246 138.714 51.9876 138.683 52.1895 138.622C52.4385 138.547 52.6099 138.404 52.7038 138.192C52.7555 138.065 52.7813 137.927 52.7813 137.777C52.7813 137.471 52.6944 137.241 52.5207 137.086C52.3938 136.969 52.1801 136.896 51.8796 136.868C51.7387 136.858 51.6072 136.854 51.4851 136.854H50.2593ZM52.2318 139.017L53.3449 141.285H52.8377L51.7528 139.08H50.2593V141.285H49.7802V136.502H51.5132C52.1332 136.502 52.5794 136.602 52.8518 136.804C53.1289 137.006 53.2674 137.328 53.2674 137.77C53.2674 138.413 52.9222 138.829 52.2318 139.017ZM54.97 136.502H56.6185C57.3042 136.502 57.8208 136.675 58.1684 137.023C58.5206 137.38 58.6967 137.997 58.6967 138.876C58.6967 140.012 58.3938 140.735 57.7879 141.045C57.4874 141.205 57.0905 141.285 56.5974 141.285H54.97V136.502ZM55.4561 136.875V140.912H56.4424C57.114 140.912 57.5813 140.754 57.8443 140.44C58.1026 140.12 58.2318 139.599 58.2318 138.876C58.2318 138.218 58.1214 137.725 57.9007 137.396C57.6705 137.049 57.2455 136.875 56.6255 136.875H55.4561ZM61.739 137.347C61.6544 137.615 61.6004 137.793 61.5769 137.882L61.0204 139.622H62.7886L62.2321 137.882C62.1053 137.507 61.9926 137.157 61.8939 136.833C61.8517 136.988 61.8 137.159 61.739 137.347ZM60.013 141.285L61.6051 136.502H62.2321L63.8242 141.285H63.3381L62.8943 139.982H60.9077L60.492 141.285H60.013ZM68.9418 137.523L68.5403 137.706C68.3148 137.1 67.8992 136.797 67.2933 136.797C66.7673 136.797 66.3822 136.971 66.138 137.319C65.8937 137.666 65.7716 138.204 65.7716 138.932C65.7716 139.604 65.8797 140.106 66.0957 140.44C66.3164 140.801 66.6992 140.982 67.244 140.982C67.5446 140.982 67.824 140.888 68.0823 140.7C68.3641 140.489 68.505 140.2 68.505 139.834V139.115H67.2863V138.707H68.977V139.383L68.9418 141.285H68.6389L68.5332 140.665C68.4064 140.872 68.2209 141.041 67.9767 141.172C67.7372 141.299 67.4741 141.362 67.1877 141.362C65.9102 141.362 65.2715 140.55 65.2715 138.925C65.2715 138.047 65.457 137.401 65.828 136.988C66.1802 136.602 66.671 136.41 67.3004 136.41C67.6808 136.41 68.0142 136.506 68.3007 136.699C68.5872 136.887 68.8009 137.161 68.9418 137.523ZM42.9017 149.262L42.5565 149.523C42.4297 149.302 42.2559 149.131 42.0352 149.009C41.8191 148.887 41.5772 148.826 41.3095 148.826C40.9526 148.826 40.6708 148.891 40.4642 149.023C40.2575 149.154 40.1542 149.347 40.1542 149.601C40.1542 149.793 40.2317 149.955 40.3867 150.087C40.5229 150.199 40.706 150.293 40.9362 150.368C40.969 150.378 41.0653 150.411 41.225 150.467C41.3894 150.519 41.4997 150.554 41.5561 150.573C41.7017 150.634 41.8215 150.683 41.9154 150.721C42.1455 150.815 42.3404 150.913 42.5001 151.017C42.6645 151.125 42.789 151.258 42.8735 151.418C42.9627 151.587 43.0073 151.782 43.0073 152.003C43.0073 152.426 42.8477 152.759 42.5283 153.003C42.2089 153.243 41.7768 153.362 41.232 153.362C40.908 153.362 40.6027 153.304 40.3162 153.186C39.9734 153.045 39.7244 152.843 39.5695 152.58C39.4708 152.426 39.4051 152.254 39.3722 152.066L39.7738 151.89C39.9663 152.599 40.4642 152.954 41.2673 152.954C41.5209 152.954 41.751 152.912 41.9577 152.827C42.1925 152.738 42.3522 152.592 42.4367 152.39C42.4837 152.292 42.5072 152.167 42.5072 152.017C42.5072 151.881 42.4719 151.733 42.4015 151.573C42.3733 151.521 42.3193 151.467 42.2395 151.411C42.1502 151.355 42.0892 151.312 42.0563 151.284C42.0046 151.251 41.8191 151.172 41.4997 151.045C41.4387 151.026 41.3189 150.984 41.1405 150.918C41.1076 150.913 41.0841 150.906 41.07 150.897C40.8728 150.826 40.7248 150.772 40.6262 150.735C40.5323 150.697 40.4148 150.643 40.2739 150.573C40.1377 150.502 40.0344 150.437 39.964 150.375C39.8982 150.31 39.8348 150.228 39.7738 150.129C39.7174 150.03 39.6798 149.92 39.661 149.798C39.6563 149.765 39.654 149.711 39.654 149.636C39.654 149.237 39.8184 148.934 40.1471 148.727C40.4524 148.534 40.8187 148.438 41.2461 148.438C42.007 148.438 42.5588 148.713 42.9017 149.262ZM46.5471 153.362C46.1713 153.362 45.8567 153.304 45.603 153.186L45.2297 153.954L44.9549 153.806L45.3353 153.031C44.8187 152.651 44.5604 151.93 44.5604 150.869C44.5604 150 44.7365 149.368 45.0888 148.974C45.4222 148.598 45.9083 148.41 46.5471 148.41C46.9275 148.41 47.2468 148.473 47.5052 148.6L47.8644 147.867L48.1392 148.008L47.7729 148.755C48.2895 149.145 48.5478 149.847 48.5478 150.862C48.5478 151.721 48.3811 152.353 48.0476 152.757C47.7142 153.161 47.214 153.362 46.5471 153.362ZM48.0406 150.869C48.0406 150.051 47.8879 149.483 47.5826 149.164L45.7862 152.82C45.9929 152.928 46.2465 152.982 46.5471 152.982C47.0872 152.982 47.4699 152.818 47.6954 152.489C47.9255 152.155 48.0406 151.615 48.0406 150.869ZM45.5256 149.157C45.3095 149.377 45.171 149.711 45.1099 150.157C45.077 150.35 45.0606 150.584 45.0606 150.862C45.0606 151.726 45.2179 152.315 45.5326 152.63L47.329 148.966C47.113 148.854 46.8523 148.797 46.5471 148.797C46.0962 148.797 45.7557 148.917 45.5256 149.157ZM50.4269 153.285V148.502H50.9623L53.9141 152.559V151.277V148.502H54.3368V153.285H53.9L50.8637 149.072V150.425V153.285H50.4269ZM56.2909 148.502H57.9394C58.6251 148.502 59.1417 148.675 59.4893 149.023C59.8415 149.38 60.0176 149.997 60.0176 150.876C60.0176 152.012 59.7147 152.735 59.1089 153.045C58.8083 153.205 58.4114 153.285 57.9183 153.285H56.2909V148.502ZM56.777 148.875V152.912H57.7633C58.4349 152.912 58.9022 152.754 59.1652 152.44C59.4235 152.12 59.5527 151.599 59.5527 150.876C59.5527 150.218 59.4423 149.725 59.2216 149.396C58.9914 149.049 58.5664 148.875 57.9465 148.875H56.777ZM63.0599 149.347C62.9753 149.615 62.9213 149.793 62.8978 149.882L62.3413 151.622H64.1095L63.553 149.882C63.4262 149.507 63.3135 149.157 63.2149 148.833C63.1726 148.988 63.1209 149.159 63.0599 149.347ZM61.3339 153.285L62.926 148.502H63.553L65.1451 153.285H64.659L64.2152 151.982H62.2286L61.8129 153.285H61.3339ZM70.2627 149.523L69.8612 149.706C69.6357 149.1 69.2201 148.797 68.6142 148.797C68.0882 148.797 67.7031 148.971 67.4589 149.319C67.2147 149.666 67.0925 150.204 67.0925 150.932C67.0925 151.604 67.2006 152.106 67.4166 152.44C67.6373 152.801 68.0201 152.982 68.5649 152.982C68.8655 152.982 69.1449 152.888 69.4033 152.7C69.6851 152.489 69.826 152.2 69.826 151.834V151.115H68.6072V150.707H70.298V151.383L70.2627 153.285H69.9598L69.8541 152.665C69.7273 152.872 69.5418 153.041 69.2976 153.172C69.0581 153.299 68.7951 153.362 68.5086 153.362C67.2311 153.362 66.5924 152.55 66.5924 150.925C66.5924 150.047 66.7779 149.401 67.1489 148.988C67.5011 148.602 67.9919 148.41 68.6213 148.41C69.0017 148.41 69.3352 148.506 69.6216 148.699C69.9081 148.887 70.1218 149.161 70.2627 149.523Z" fill="#101F28"/>
<path d="M105.542 77.206L105.401 76.8256L106.211 76.5015H106.627V81.285H106.155V76.9453L105.542 77.206ZM108.469 77.206L108.328 76.8256L109.138 76.5015H109.553V81.285H109.081V76.9453L108.469 77.206ZM111.508 80.5805H112.043V81.285H111.508V80.5805ZM116.144 77.0721C115.966 76.889 115.755 76.7974 115.51 76.7974C115.266 76.7974 115.052 76.889 114.869 77.0721C114.691 77.2506 114.559 77.4995 114.475 77.8189C114.385 78.1289 114.341 78.4952 114.341 78.9179C114.341 79.7586 114.515 80.3551 114.862 80.7073C115.041 80.8905 115.254 80.982 115.503 80.982C115.752 80.982 115.966 80.8952 116.144 80.7214C116.323 80.5429 116.454 80.2963 116.539 79.9817C116.619 79.6717 116.659 79.3171 116.659 78.9179C116.659 78.0443 116.487 77.4291 116.144 77.0721ZM116.757 80.6791C116.475 81.1347 116.057 81.3625 115.503 81.3625C114.954 81.3625 114.538 81.1347 114.256 80.6791C113.979 80.2329 113.841 79.6459 113.841 78.9179C113.841 78.1805 113.979 77.5841 114.256 77.1285C114.548 76.6495 114.963 76.4099 115.503 76.4099C116.043 76.4099 116.459 76.6495 116.75 77.1285C117.027 77.5841 117.166 78.1805 117.166 78.9179C117.166 79.6553 117.03 80.2423 116.757 80.6791ZM121.203 77.0721C121.025 76.889 120.814 76.7974 120.569 76.7974C120.325 76.7974 120.111 76.889 119.928 77.0721C119.75 77.2506 119.618 77.4995 119.534 77.8189C119.445 78.1289 119.4 78.4952 119.4 78.9179C119.4 79.7586 119.574 80.3551 119.921 80.7073C120.1 80.8905 120.313 80.982 120.562 80.982C120.811 80.982 121.025 80.8952 121.203 80.7214C121.382 80.5429 121.513 80.2963 121.598 79.9817C121.678 79.6717 121.718 79.3171 121.718 78.9179C121.718 78.0443 121.546 77.4291 121.203 77.0721ZM121.816 80.6791C121.535 81.1347 121.117 81.3625 120.562 81.3625C120.013 81.3625 119.597 81.1347 119.315 80.6791C119.038 80.2329 118.9 79.6459 118.9 78.9179C118.9 78.1805 119.038 77.5841 119.315 77.1285C119.607 76.6495 120.022 76.4099 120.562 76.4099C121.102 76.4099 121.518 76.6495 121.809 77.1285C122.086 77.5841 122.225 78.1805 122.225 78.9179C122.225 79.6553 122.089 80.2423 121.816 80.6791ZM123.917 79.9817V79.6083H125.544V79.9817H123.917ZM127.269 77.206L127.129 76.8256L127.939 76.5015H128.354V81.285H127.882V76.9453L127.269 77.206ZM132.802 77.6851C132.802 77.3751 132.704 77.1449 132.507 76.9947C132.323 76.8538 132.089 76.7833 131.802 76.7833C131.577 76.7833 131.386 76.8232 131.231 76.9031C131.039 77.0017 130.907 77.1449 130.837 77.3328C130.795 77.4408 130.774 77.5559 130.774 77.678C130.774 77.7766 130.799 77.894 130.851 78.0303C130.884 78.1101 130.957 78.197 131.069 78.2909C131.088 78.3097 131.14 78.3426 131.224 78.3895C131.285 78.4224 131.342 78.4506 131.393 78.4741C131.492 78.5257 131.626 78.5751 131.795 78.622C131.823 78.6361 131.898 78.6596 132.02 78.6925C132.542 78.4295 132.802 78.0937 132.802 77.6851ZM131.161 78.8052C130.978 78.7253 130.788 78.5891 130.59 78.3966C130.384 78.1993 130.28 77.9621 130.28 77.6851C130.28 77.422 130.337 77.206 130.449 77.0369C130.567 76.8491 130.71 76.7105 130.879 76.6213C131.058 76.5273 131.257 76.4616 131.478 76.424C131.586 76.4099 131.694 76.4029 131.802 76.4029C132.136 76.4029 132.427 76.4686 132.676 76.6001C132.948 76.741 133.129 76.9453 133.218 77.213C133.265 77.3539 133.289 77.5136 133.289 77.6921C133.289 77.988 133.173 78.2463 132.943 78.467C132.755 78.6408 132.565 78.7606 132.373 78.8263C132.687 78.9813 132.922 79.1433 133.077 79.3124C133.199 79.458 133.279 79.6271 133.317 79.8196C133.331 79.8948 133.338 79.9864 133.338 80.0944C133.338 80.3762 133.249 80.6204 133.07 80.8271C132.878 81.0478 132.617 81.2028 132.288 81.292C132.119 81.339 131.931 81.3625 131.725 81.3625C131.269 81.3625 130.9 81.238 130.619 80.9891C130.346 80.7543 130.21 80.4725 130.21 80.1437C130.21 79.6177 130.527 79.1715 131.161 78.8052ZM130.731 80.0873C130.731 80.3457 130.82 80.5594 130.999 80.7284C131.177 80.9163 131.436 81.0102 131.774 81.0102C132.042 81.0102 132.283 80.9327 132.5 80.7777C132.734 80.6087 132.852 80.3762 132.852 80.0803C132.852 79.9112 132.805 79.7445 132.711 79.5801C132.655 79.4862 132.528 79.3782 132.33 79.2561C132.208 79.1856 132.032 79.1105 131.802 79.0306C131.718 79.0118 131.619 78.9837 131.506 78.9461C131.257 79.0964 131.065 79.2725 130.929 79.4744C130.797 79.6717 130.731 79.876 130.731 80.0873ZM135.086 80.5805H135.621V81.285H135.086V80.5805ZM139.722 77.0721C139.544 76.889 139.333 76.7974 139.088 76.7974C138.844 76.7974 138.63 76.889 138.447 77.0721C138.269 77.2506 138.137 77.4995 138.053 77.8189C137.963 78.1289 137.919 78.4952 137.919 78.9179C137.919 79.7586 138.093 80.3551 138.44 80.7073C138.619 80.8905 138.832 80.982 139.081 80.982C139.33 80.982 139.544 80.8952 139.722 80.7214C139.901 80.5429 140.032 80.2963 140.117 79.9817C140.197 79.6717 140.237 79.3171 140.237 78.9179C140.237 78.0443 140.065 77.4291 139.722 77.0721ZM140.335 80.6791C140.053 81.1347 139.635 81.3625 139.081 81.3625C138.532 81.3625 138.116 81.1347 137.834 80.6791C137.557 80.2329 137.419 79.6459 137.419 78.9179C137.419 78.1805 137.557 77.5841 137.834 77.1285C138.125 76.6495 138.541 76.4099 139.081 76.4099C139.621 76.4099 140.037 76.6495 140.328 77.1285C140.605 77.5841 140.744 78.1805 140.744 78.9179C140.744 79.6553 140.608 80.2423 140.335 80.6791ZM144.781 77.0721C144.603 76.889 144.392 76.7974 144.147 76.7974C143.903 76.7974 143.689 76.889 143.506 77.0721C143.328 77.2506 143.196 77.4995 143.112 77.8189C143.023 78.1289 142.978 78.4952 142.978 78.9179C142.978 79.7586 143.152 80.3551 143.499 80.7073C143.678 80.8905 143.891 80.982 144.14 80.982C144.389 80.982 144.603 80.8952 144.781 80.7214C144.96 80.5429 145.091 80.2963 145.176 79.9817C145.256 79.6717 145.296 79.3171 145.296 78.9179C145.296 78.0443 145.124 77.4291 144.781 77.0721ZM145.394 80.6791C145.113 81.1347 144.695 81.3625 144.14 81.3625C143.591 81.3625 143.175 81.1347 142.893 80.6791C142.616 80.2329 142.478 79.6459 142.478 78.9179C142.478 78.1805 142.616 77.5841 142.893 77.1285C143.185 76.6495 143.6 76.4099 144.14 76.4099C144.68 76.4099 145.096 76.6495 145.387 77.1285C145.664 77.5841 145.803 78.1805 145.803 78.9179C145.803 79.6553 145.667 80.2423 145.394 80.6791ZM105.542 89.206L105.401 88.8256L106.211 88.5015H106.627V93.285H106.155V88.9453L105.542 89.206ZM108.469 89.206L108.328 88.8256L109.138 88.5015H109.553V93.285H109.081V88.9453L108.469 89.206ZM111.508 92.5805H112.043V93.285H111.508V92.5805ZM116.144 89.0721C115.966 88.889 115.755 88.7974 115.51 88.7974C115.266 88.7974 115.052 88.889 114.869 89.0721C114.691 89.2506 114.559 89.4995 114.475 89.8189C114.385 90.1289 114.341 90.4952 114.341 90.9179C114.341 91.7586 114.515 92.3551 114.862 92.7073C115.041 92.8905 115.254 92.982 115.503 92.982C115.752 92.982 115.966 92.8952 116.144 92.7214C116.323 92.5429 116.454 92.2963 116.539 91.9817C116.619 91.6717 116.659 91.3171 116.659 90.9179C116.659 90.0443 116.487 89.4291 116.144 89.0721ZM116.757 92.6791C116.475 93.1347 116.057 93.3625 115.503 93.3625C114.954 93.3625 114.538 93.1347 114.256 92.6791C113.979 92.2329 113.841 91.6459 113.841 90.9179C113.841 90.1805 113.979 89.5841 114.256 89.1285C114.548 88.6495 114.963 88.4099 115.503 88.4099C116.043 88.4099 116.459 88.6495 116.75 89.1285C117.027 89.5841 117.166 90.1805 117.166 90.9179C117.166 91.6553 117.03 92.2423 116.757 92.6791ZM121.203 89.0721C121.025 88.889 120.814 88.7974 120.569 88.7974C120.325 88.7974 120.111 88.889 119.928 89.0721C119.75 89.2506 119.618 89.4995 119.534 89.8189C119.445 90.1289 119.4 90.4952 119.4 90.9179C119.4 91.7586 119.574 92.3551 119.921 92.7073C120.1 92.8905 120.313 92.982 120.562 92.982C120.811 92.982 121.025 92.8952 121.203 92.7214C121.382 92.5429 121.513 92.2963 121.598 91.9817C121.678 91.6717 121.718 91.3171 121.718 90.9179C121.718 90.0443 121.546 89.4291 121.203 89.0721ZM121.816 92.6791C121.535 93.1347 121.117 93.3625 120.562 93.3625C120.013 93.3625 119.597 93.1347 119.315 92.6791C119.038 92.2329 118.9 91.6459 118.9 90.9179C118.9 90.1805 119.038 89.5841 119.315 89.1285C119.607 88.6495 120.022 88.4099 120.562 88.4099C121.102 88.4099 121.518 88.6495 121.809 89.1285C122.086 89.5841 122.225 90.1805 122.225 90.9179C122.225 91.6553 122.089 92.2423 121.816 92.6791ZM123.917 91.9817V91.6083H125.544V91.9817H123.917ZM127.269 89.206L127.129 88.8256L127.939 88.5015H128.354V93.285H127.882V88.9453L127.269 89.206ZM132.802 89.6851C132.802 89.3751 132.704 89.1449 132.507 88.9947C132.323 88.8538 132.089 88.7833 131.802 88.7833C131.577 88.7833 131.386 88.8232 131.231 88.9031C131.039 89.0017 130.907 89.1449 130.837 89.3328C130.795 89.4408 130.774 89.5559 130.774 89.678C130.774 89.7766 130.799 89.894 130.851 90.0303C130.884 90.1101 130.957 90.197 131.069 90.2909C131.088 90.3097 131.14 90.3426 131.224 90.3895C131.285 90.4224 131.342 90.4506 131.393 90.4741C131.492 90.5257 131.626 90.5751 131.795 90.622C131.823 90.6361 131.898 90.6596 132.02 90.6925C132.542 90.4295 132.802 90.0937 132.802 89.6851ZM131.161 90.8052C130.978 90.7253 130.788 90.5891 130.59 90.3966C130.384 90.1993 130.28 89.9621 130.28 89.6851C130.28 89.422 130.337 89.206 130.449 89.0369C130.567 88.8491 130.71 88.7105 130.879 88.6213C131.058 88.5273 131.257 88.4616 131.478 88.424C131.586 88.4099 131.694 88.4029 131.802 88.4029C132.136 88.4029 132.427 88.4686 132.676 88.6001C132.948 88.741 133.129 88.9453 133.218 89.213C133.265 89.3539 133.289 89.5136 133.289 89.6921C133.289 89.988 133.173 90.2463 132.943 90.467C132.755 90.6408 132.565 90.7606 132.373 90.8263C132.687 90.9813 132.922 91.1433 133.077 91.3124C133.199 91.458 133.279 91.6271 133.317 91.8196C133.331 91.8948 133.338 91.9864 133.338 92.0944C133.338 92.3762 133.249 92.6204 133.07 92.8271C132.878 93.0478 132.617 93.2028 132.288 93.292C132.119 93.339 131.931 93.3625 131.725 93.3625C131.269 93.3625 130.9 93.238 130.619 92.9891C130.346 92.7543 130.21 92.4725 130.21 92.1437C130.21 91.6177 130.527 91.1715 131.161 90.8052ZM130.731 92.0873C130.731 92.3457 130.82 92.5594 130.999 92.7284C131.177 92.9163 131.436 93.0102 131.774 93.0102C132.042 93.0102 132.283 92.9327 132.5 92.7777C132.734 92.6087 132.852 92.3762 132.852 92.0803C132.852 91.9112 132.805 91.7445 132.711 91.5801C132.655 91.4862 132.528 91.3782 132.33 91.2561C132.208 91.1856 132.032 91.1105 131.802 91.0306C131.718 91.0118 131.619 90.9837 131.506 90.9461C131.257 91.0964 131.065 91.2725 130.929 91.4744C130.797 91.6717 130.731 91.876 130.731 92.0873ZM135.086 92.5805H135.621V93.285H135.086V92.5805ZM139.722 89.0721C139.544 88.889 139.333 88.7974 139.088 88.7974C138.844 88.7974 138.63 88.889 138.447 89.0721C138.269 89.2506 138.137 89.4995 138.053 89.8189C137.963 90.1289 137.919 90.4952 137.919 90.9179C137.919 91.7586 138.093 92.3551 138.44 92.7073C138.619 92.8905 138.832 92.982 139.081 92.982C139.33 92.982 139.544 92.8952 139.722 92.7214C139.901 92.5429 140.032 92.2963 140.117 91.9817C140.197 91.6717 140.237 91.3171 140.237 90.9179C140.237 90.0443 140.065 89.4291 139.722 89.0721ZM140.335 92.6791C140.053 93.1347 139.635 93.3625 139.081 93.3625C138.532 93.3625 138.116 93.1347 137.834 92.6791C137.557 92.2329 137.419 91.6459 137.419 90.9179C137.419 90.1805 137.557 89.5841 137.834 89.1285C138.125 88.6495 138.541 88.4099 139.081 88.4099C139.621 88.4099 140.037 88.6495 140.328 89.1285C140.605 89.5841 140.744 90.1805 140.744 90.9179C140.744 91.6553 140.608 92.2423 140.335 92.6791ZM144.781 89.0721C144.603 88.889 144.392 88.7974 144.147 88.7974C143.903 88.7974 143.689 88.889 143.506 89.0721C143.328 89.2506 143.196 89.4995 143.112 89.8189C143.023 90.1289 142.978 90.4952 142.978 90.9179C142.978 91.7586 143.152 92.3551 143.499 92.7073C143.678 92.8905 143.891 92.982 144.14 92.982C144.389 92.982 144.603 92.8952 144.781 92.7214C144.96 92.5429 145.091 92.2963 145.176 91.9817C145.256 91.6717 145.296 91.3171 145.296 90.9179C145.296 90.0443 145.124 89.4291 144.781 89.0721ZM145.394 92.6791C145.113 93.1347 144.695 93.3625 144.14 93.3625C143.591 93.3625 143.175 93.1347 142.893 92.6791C142.616 92.2329 142.478 91.6459 142.478 90.9179C142.478 90.1805 142.616 89.5841 142.893 89.1285C143.185 88.6495 143.6 88.4099 144.14 88.4099C144.68 88.4099 145.096 88.6495 145.387 89.1285C145.664 89.5841 145.803 90.1805 145.803 90.9179C145.803 91.6553 145.667 92.2423 145.394 92.6791ZM105.542 101.206L105.401 100.826L106.211 100.502H106.627V105.285H106.155V100.945L105.542 101.206ZM108.469 101.206L108.328 100.826L109.138 100.502H109.553V105.285H109.081V100.945L108.469 101.206ZM111.508 104.58H112.043V105.285H111.508V104.58ZM116.144 101.072C115.966 100.889 115.755 100.797 115.51 100.797C115.266 100.797 115.052 100.889 114.869 101.072C114.691 101.251 114.559 101.5 114.475 101.819C114.385 102.129 114.341 102.495 114.341 102.918C114.341 103.759 114.515 104.355 114.862 104.707C115.041 104.89 115.254 104.982 115.503 104.982C115.752 104.982 115.966 104.895 116.144 104.721C116.323 104.543 116.454 104.296 116.539 103.982C116.619 103.672 116.659 103.317 116.659 102.918C116.659 102.044 116.487 101.429 116.144 101.072ZM116.757 104.679C116.475 105.135 116.057 105.362 115.503 105.362C114.954 105.362 114.538 105.135 114.256 104.679C113.979 104.233 113.841 103.646 113.841 102.918C113.841 102.181 113.979 101.584 114.256 101.129C114.548 100.649 114.963 100.41 115.503 100.41C116.043 100.41 116.459 100.649 116.75 101.129C117.027 101.584 117.166 102.181 117.166 102.918C117.166 103.655 117.03 104.242 116.757 104.679ZM121.203 101.072C121.025 100.889 120.814 100.797 120.569 100.797C120.325 100.797 120.111 100.889 119.928 101.072C119.75 101.251 119.618 101.5 119.534 101.819C119.445 102.129 119.4 102.495 119.4 102.918C119.4 103.759 119.574 104.355 119.921 104.707C120.1 104.89 120.313 104.982 120.562 104.982C120.811 104.982 121.025 104.895 121.203 104.721C121.382 104.543 121.513 104.296 121.598 103.982C121.678 103.672 121.718 103.317 121.718 102.918C121.718 102.044 121.546 101.429 121.203 101.072ZM121.816 104.679C121.535 105.135 121.117 105.362 120.562 105.362C120.013 105.362 119.597 105.135 119.315 104.679C119.038 104.233 118.9 103.646 118.9 102.918C118.9 102.181 119.038 101.584 119.315 101.129C119.607 100.649 120.022 100.41 120.562 100.41C121.102 100.41 121.518 100.649 121.809 101.129C122.086 101.584 122.225 102.181 122.225 102.918C122.225 103.655 122.089 104.242 121.816 104.679ZM123.917 103.982V103.608H125.544V103.982H123.917ZM127.269 101.206L127.129 100.826L127.939 100.502H128.354V105.285H127.882V100.945L127.269 101.206ZM132.802 101.685C132.802 101.375 132.704 101.145 132.507 100.995C132.323 100.854 132.089 100.783 131.802 100.783C131.577 100.783 131.386 100.823 131.231 100.903C131.039 101.002 130.907 101.145 130.837 101.333C130.795 101.441 130.774 101.556 130.774 101.678C130.774 101.777 130.799 101.894 130.851 102.03C130.884 102.11 130.957 102.197 131.069 102.291C131.088 102.31 131.14 102.343 131.224 102.39C131.285 102.422 131.342 102.451 131.393 102.474C131.492 102.526 131.626 102.575 131.795 102.622C131.823 102.636 131.898 102.66 132.02 102.692C132.542 102.429 132.802 102.094 132.802 101.685ZM131.161 102.805C130.978 102.725 130.788 102.589 130.59 102.397C130.384 102.199 130.28 101.962 130.28 101.685C130.28 101.422 130.337 101.206 130.449 101.037C130.567 100.849 130.71 100.711 130.879 100.621C131.058 100.527 131.257 100.462 131.478 100.424C131.586 100.41 131.694 100.403 131.802 100.403C132.136 100.403 132.427 100.469 132.676 100.6C132.948 100.741 133.129 100.945 133.218 101.213C133.265 101.354 133.289 101.514 133.289 101.692C133.289 101.988 133.173 102.246 132.943 102.467C132.755 102.641 132.565 102.761 132.373 102.826C132.687 102.981 132.922 103.143 133.077 103.312C133.199 103.458 133.279 103.627 133.317 103.82C133.331 103.895 133.338 103.986 133.338 104.094C133.338 104.376 133.249 104.62 133.07 104.827C132.878 105.048 132.617 105.203 132.288 105.292C132.119 105.339 131.931 105.362 131.725 105.362C131.269 105.362 130.9 105.238 130.619 104.989C130.346 104.754 130.21 104.472 130.21 104.144C130.21 103.618 130.527 103.172 131.161 102.805ZM130.731 104.087C130.731 104.346 130.82 104.559 130.999 104.728C131.177 104.916 131.436 105.01 131.774 105.01C132.042 105.01 132.283 104.933 132.5 104.778C132.734 104.609 132.852 104.376 132.852 104.08C132.852 103.911 132.805 103.744 132.711 103.58C132.655 103.486 132.528 103.378 132.33 103.256C132.208 103.186 132.032 103.11 131.802 103.031C131.718 103.012 131.619 102.984 131.506 102.946C131.257 103.096 131.065 103.272 130.929 103.474C130.797 103.672 130.731 103.876 130.731 104.087ZM135.086 104.58H135.621V105.285H135.086V104.58ZM139.722 101.072C139.544 100.889 139.333 100.797 139.088 100.797C138.844 100.797 138.63 100.889 138.447 101.072C138.269 101.251 138.137 101.5 138.053 101.819C137.963 102.129 137.919 102.495 137.919 102.918C137.919 103.759 138.093 104.355 138.44 104.707C138.619 104.89 138.832 104.982 139.081 104.982C139.33 104.982 139.544 104.895 139.722 104.721C139.901 104.543 140.032 104.296 140.117 103.982C140.197 103.672 140.237 103.317 140.237 102.918C140.237 102.044 140.065 101.429 139.722 101.072ZM140.335 104.679C140.053 105.135 139.635 105.362 139.081 105.362C138.532 105.362 138.116 105.135 137.834 104.679C137.557 104.233 137.419 103.646 137.419 102.918C137.419 102.181 137.557 101.584 137.834 101.129C138.125 100.649 138.541 100.41 139.081 100.41C139.621 100.41 140.037 100.649 140.328 101.129C140.605 101.584 140.744 102.181 140.744 102.918C140.744 103.655 140.608 104.242 140.335 104.679ZM144.781 101.072C144.603 100.889 144.392 100.797 144.147 100.797C143.903 100.797 143.689 100.889 143.506 101.072C143.328 101.251 143.196 101.5 143.112 101.819C143.023 102.129 142.978 102.495 142.978 102.918C142.978 103.759 143.152 104.355 143.499 104.707C143.678 104.89 143.891 104.982 144.14 104.982C144.389 104.982 144.603 104.895 144.781 104.721C144.96 104.543 145.091 104.296 145.176 103.982C145.256 103.672 145.296 103.317 145.296 102.918C145.296 102.044 145.124 101.429 144.781 101.072ZM145.394 104.679C145.113 105.135 144.695 105.362 144.14 105.362C143.591 105.362 143.175 105.135 142.893 104.679C142.616 104.233 142.478 103.646 142.478 102.918C142.478 102.181 142.616 101.584 142.893 101.129C143.185 100.649 143.6 100.41 144.14 100.41C144.68 100.41 145.096 100.649 145.387 101.129C145.664 101.584 145.803 102.181 145.803 102.918C145.803 103.655 145.667 104.242 145.394 104.679ZM105.542 113.206L105.401 112.826L106.211 112.502H106.627V117.285H106.155V112.945L105.542 113.206ZM108.469 113.206L108.328 112.826L109.138 112.502H109.553V117.285H109.081V112.945L108.469 113.206ZM111.508 116.58H112.043V117.285H111.508V116.58ZM116.144 113.072C115.966 112.889 115.755 112.797 115.51 112.797C115.266 112.797 115.052 112.889 114.869 113.072C114.691 113.251 114.559 113.5 114.475 113.819C114.385 114.129 114.341 114.495 114.341 114.918C114.341 115.759 114.515 116.355 114.862 116.707C115.041 116.89 115.254 116.982 115.503 116.982C115.752 116.982 115.966 116.895 116.144 116.721C116.323 116.543 116.454 116.296 116.539 115.982C116.619 115.672 116.659 115.317 116.659 114.918C116.659 114.044 116.487 113.429 116.144 113.072ZM116.757 116.679C116.475 117.135 116.057 117.362 115.503 117.362C114.954 117.362 114.538 117.135 114.256 116.679C113.979 116.233 113.841 115.646 113.841 114.918C113.841 114.181 113.979 113.584 114.256 113.129C114.548 112.649 114.963 112.41 115.503 112.41C116.043 112.41 116.459 112.649 116.75 113.129C117.027 113.584 117.166 114.181 117.166 114.918C117.166 115.655 117.03 116.242 116.757 116.679ZM121.203 113.072C121.025 112.889 120.814 112.797 120.569 112.797C120.325 112.797 120.111 112.889 119.928 113.072C119.75 113.251 119.618 113.5 119.534 113.819C119.445 114.129 119.4 114.495 119.4 114.918C119.4 115.759 119.574 116.355 119.921 116.707C120.1 116.89 120.313 116.982 120.562 116.982C120.811 116.982 121.025 116.895 121.203 116.721C121.382 116.543 121.513 116.296 121.598 115.982C121.678 115.672 121.718 115.317 121.718 114.918C121.718 114.044 121.546 113.429 121.203 113.072ZM121.816 116.679C121.535 117.135 121.117 117.362 120.562 117.362C120.013 117.362 119.597 117.135 119.315 116.679C119.038 116.233 118.9 115.646 118.9 114.918C118.9 114.181 119.038 113.584 119.315 113.129C119.607 112.649 120.022 112.41 120.562 112.41C121.102 112.41 121.518 112.649 121.809 113.129C122.086 113.584 122.225 114.181 122.225 114.918C122.225 115.655 122.089 116.242 121.816 116.679ZM123.917 115.982V115.608H125.544V115.982H123.917ZM127.269 113.206L127.129 112.826L127.939 112.502H128.354V117.285H127.882V112.945L127.269 113.206ZM132.802 113.685C132.802 113.375 132.704 113.145 132.507 112.995C132.323 112.854 132.089 112.783 131.802 112.783C131.577 112.783 131.386 112.823 131.231 112.903C131.039 113.002 130.907 113.145 130.837 113.333C130.795 113.441 130.774 113.556 130.774 113.678C130.774 113.777 130.799 113.894 130.851 114.03C130.884 114.11 130.957 114.197 131.069 114.291C131.088 114.31 131.14 114.343 131.224 114.39C131.285 114.422 131.342 114.451 131.393 114.474C131.492 114.526 131.626 114.575 131.795 114.622C131.823 114.636 131.898 114.66 132.02 114.692C132.542 114.429 132.802 114.094 132.802 113.685ZM131.161 114.805C130.978 114.725 130.788 114.589 130.59 114.397C130.384 114.199 130.28 113.962 130.28 113.685C130.28 113.422 130.337 113.206 130.449 113.037C130.567 112.849 130.71 112.711 130.879 112.621C131.058 112.527 131.257 112.462 131.478 112.424C131.586 112.41 131.694 112.403 131.802 112.403C132.136 112.403 132.427 112.469 132.676 112.6C132.948 112.741 133.129 112.945 133.218 113.213C133.265 113.354 133.289 113.514 133.289 113.692C133.289 113.988 133.173 114.246 132.943 114.467C132.755 114.641 132.565 114.761 132.373 114.826C132.687 114.981 132.922 115.143 133.077 115.312C133.199 115.458 133.279 115.627 133.317 115.82C133.331 115.895 133.338 115.986 133.338 116.094C133.338 116.376 133.249 116.62 133.07 116.827C132.878 117.048 132.617 117.203 132.288 117.292C132.119 117.339 131.931 117.362 131.725 117.362C131.269 117.362 130.9 117.238 130.619 116.989C130.346 116.754 130.21 116.472 130.21 116.144C130.21 115.618 130.527 115.172 131.161 114.805ZM130.731 116.087C130.731 116.346 130.82 116.559 130.999 116.728C131.177 116.916 131.436 117.01 131.774 117.01C132.042 117.01 132.283 116.933 132.5 116.778C132.734 116.609 132.852 116.376 132.852 116.08C132.852 115.911 132.805 115.744 132.711 115.58C132.655 115.486 132.528 115.378 132.33 115.256C132.208 115.186 132.032 115.11 131.802 115.031C131.718 115.012 131.619 114.984 131.506 114.946C131.257 115.096 131.065 115.272 130.929 115.474C130.797 115.672 130.731 115.876 130.731 116.087ZM135.086 116.58H135.621V117.285H135.086V116.58ZM139.722 113.072C139.544 112.889 139.333 112.797 139.088 112.797C138.844 112.797 138.63 112.889 138.447 113.072C138.269 113.251 138.137 113.5 138.053 113.819C137.963 114.129 137.919 114.495 137.919 114.918C137.919 115.759 138.093 116.355 138.44 116.707C138.619 116.89 138.832 116.982 139.081 116.982C139.33 116.982 139.544 116.895 139.722 116.721C139.901 116.543 140.032 116.296 140.117 115.982C140.197 115.672 140.237 115.317 140.237 114.918C140.237 114.044 140.065 113.429 139.722 113.072ZM140.335 116.679C140.053 117.135 139.635 117.362 139.081 117.362C138.532 117.362 138.116 117.135 137.834 116.679C137.557 116.233 137.419 115.646 137.419 114.918C137.419 114.181 137.557 113.584 137.834 113.129C138.125 112.649 138.541 112.41 139.081 112.41C139.621 112.41 140.037 112.649 140.328 113.129C140.605 113.584 140.744 114.181 140.744 114.918C140.744 115.655 140.608 116.242 140.335 116.679ZM144.781 113.072C144.603 112.889 144.392 112.797 144.147 112.797C143.903 112.797 143.689 112.889 143.506 113.072C143.328 113.251 143.196 113.5 143.112 113.819C143.023 114.129 142.978 114.495 142.978 114.918C142.978 115.759 143.152 116.355 143.499 116.707C143.678 116.89 143.891 116.982 144.14 116.982C144.389 116.982 144.603 116.895 144.781 116.721C144.96 116.543 145.091 116.296 145.176 115.982C145.256 115.672 145.296 115.317 145.296 114.918C145.296 114.044 145.124 113.429 144.781 113.072ZM145.394 116.679C145.113 117.135 144.695 117.362 144.14 117.362C143.591 117.362 143.175 117.135 142.893 116.679C142.616 116.233 142.478 115.646 142.478 114.918C142.478 114.181 142.616 113.584 142.893 113.129C143.185 112.649 143.6 112.41 144.14 112.41C144.68 112.41 145.096 112.649 145.387 113.129C145.664 113.584 145.803 114.181 145.803 114.918C145.803 115.655 145.667 116.242 145.394 116.679ZM105.542 125.206L105.401 124.826L106.211 124.502H106.627V129.285H106.155V124.945L105.542 125.206ZM108.469 125.206L108.328 124.826L109.138 124.502H109.553V129.285H109.081V124.945L108.469 125.206ZM111.508 128.58H112.043V129.285H111.508V128.58ZM116.144 125.072C115.966 124.889 115.755 124.797 115.51 124.797C115.266 124.797 115.052 124.889 114.869 125.072C114.691 125.251 114.559 125.5 114.475 125.819C114.385 126.129 114.341 126.495 114.341 126.918C114.341 127.759 114.515 128.355 114.862 128.707C115.041 128.89 115.254 128.982 115.503 128.982C115.752 128.982 115.966 128.895 116.144 128.721C116.323 128.543 116.454 128.296 116.539 127.982C116.619 127.672 116.659 127.317 116.659 126.918C116.659 126.044 116.487 125.429 116.144 125.072ZM116.757 128.679C116.475 129.135 116.057 129.362 115.503 129.362C114.954 129.362 114.538 129.135 114.256 128.679C113.979 128.233 113.841 127.646 113.841 126.918C113.841 126.181 113.979 125.584 114.256 125.129C114.548 124.649 114.963 124.41 115.503 124.41C116.043 124.41 116.459 124.649 116.75 125.129C117.027 125.584 117.166 126.181 117.166 126.918C117.166 127.655 117.03 128.242 116.757 128.679ZM121.203 125.072C121.025 124.889 120.814 124.797 120.569 124.797C120.325 124.797 120.111 124.889 119.928 125.072C119.75 125.251 119.618 125.5 119.534 125.819C119.445 126.129 119.4 126.495 119.4 126.918C119.4 127.759 119.574 128.355 119.921 128.707C120.1 128.89 120.313 128.982 120.562 128.982C120.811 128.982 121.025 128.895 121.203 128.721C121.382 128.543 121.513 128.296 121.598 127.982C121.678 127.672 121.718 127.317 121.718 126.918C121.718 126.044 121.546 125.429 121.203 125.072ZM121.816 128.679C121.535 129.135 121.117 129.362 120.562 129.362C120.013 129.362 119.597 129.135 119.315 128.679C119.038 128.233 118.9 127.646 118.9 126.918C118.9 126.181 119.038 125.584 119.315 125.129C119.607 124.649 120.022 124.41 120.562 124.41C121.102 124.41 121.518 124.649 121.809 125.129C122.086 125.584 122.225 126.181 122.225 126.918C122.225 127.655 122.089 128.242 121.816 128.679ZM123.917 127.982V127.608H125.544V127.982H123.917ZM127.269 125.206L127.129 124.826L127.939 124.502H128.354V129.285H127.882V124.945L127.269 125.206ZM132.873 126.46C132.873 126.202 132.842 125.936 132.781 125.664C132.716 125.41 132.6 125.204 132.436 125.044C132.262 124.88 132.035 124.797 131.753 124.797C131.466 124.797 131.231 124.903 131.048 125.114C130.846 125.349 130.745 125.659 130.745 126.044C130.745 126.453 130.849 126.746 131.055 126.925C131.248 127.099 131.497 127.186 131.802 127.186C132.126 127.186 132.481 127.045 132.866 126.763C132.871 126.725 132.873 126.624 132.873 126.46ZM132.154 127.524C132.042 127.557 131.924 127.573 131.802 127.573C131.384 127.573 131.022 127.444 130.717 127.186C130.407 126.927 130.252 126.552 130.252 126.058C130.252 125.781 130.304 125.518 130.407 125.269C130.506 125.03 130.673 124.826 130.907 124.657C131.138 124.487 131.431 124.403 131.788 124.403C132.845 124.403 133.373 125.192 133.373 126.77C133.373 127.611 133.216 128.249 132.901 128.686C132.591 129.128 132.183 129.348 131.675 129.348C131.351 129.348 130.994 129.245 130.604 129.038L130.738 128.679C131.081 128.867 131.391 128.961 131.668 128.961C132.006 128.961 132.276 128.811 132.478 128.51C132.685 128.205 132.807 127.763 132.845 127.186C132.615 127.359 132.384 127.472 132.154 127.524ZM135.203 128.58H135.738V129.285H135.203V128.58ZM139.839 125.072C139.661 124.889 139.449 124.797 139.205 124.797C138.961 124.797 138.747 124.889 138.564 125.072C138.386 125.251 138.254 125.5 138.17 125.819C138.08 126.129 138.036 126.495 138.036 126.918C138.036 127.759 138.21 128.355 138.557 128.707C138.736 128.89 138.949 128.982 139.198 128.982C139.447 128.982 139.661 128.895 139.839 128.721C140.018 128.543 140.149 128.296 140.234 127.982C140.314 127.672 140.354 127.317 140.354 126.918C140.354 126.044 140.182 125.429 139.839 125.072ZM140.452 128.679C140.17 129.135 139.752 129.362 139.198 129.362C138.649 129.362 138.233 129.135 137.951 128.679C137.674 128.233 137.536 127.646 137.536 126.918C137.536 126.181 137.674 125.584 137.951 125.129C138.242 124.649 138.658 124.41 139.198 124.41C139.738 124.41 140.154 124.649 140.445 125.129C140.722 125.584 140.861 126.181 140.861 126.918C140.861 127.655 140.725 128.242 140.452 128.679ZM144.898 125.072C144.72 124.889 144.509 124.797 144.264 124.797C144.02 124.797 143.806 124.889 143.623 125.072C143.445 125.251 143.313 125.5 143.229 125.819C143.139 126.129 143.095 126.495 143.095 126.918C143.095 127.759 143.269 128.355 143.616 128.707C143.795 128.89 144.008 128.982 144.257 128.982C144.506 128.982 144.72 128.895 144.898 128.721C145.077 128.543 145.208 128.296 145.293 127.982C145.373 127.672 145.413 127.317 145.413 126.918C145.413 126.044 145.241 125.429 144.898 125.072ZM145.511 128.679C145.229 129.135 144.811 129.362 144.257 129.362C143.708 129.362 143.292 129.135 143.01 128.679C142.733 128.233 142.595 127.646 142.595 126.918C142.595 126.181 142.733 125.584 143.01 125.129C143.302 124.649 143.717 124.41 144.257 124.41C144.797 124.41 145.213 124.649 145.504 125.129C145.781 125.584 145.92 126.181 145.92 126.918C145.92 127.655 145.784 128.242 145.511 128.679ZM105.542 137.206L105.401 136.826L106.211 136.502H106.627V141.285H106.155V136.945L105.542 137.206ZM110.814 137.072C110.636 136.889 110.425 136.797 110.18 136.797C109.936 136.797 109.723 136.889 109.539 137.072C109.361 137.251 109.229 137.5 109.145 137.819C109.056 138.129 109.011 138.495 109.011 138.918C109.011 139.759 109.185 140.355 109.532 140.707C109.711 140.89 109.924 140.982 110.173 140.982C110.422 140.982 110.636 140.895 110.814 140.721C110.993 140.543 111.124 140.296 111.209 139.982C111.289 139.672 111.329 139.317 111.329 138.918C111.329 138.044 111.157 137.429 110.814 137.072ZM111.427 140.679C111.146 141.135 110.728 141.362 110.173 141.362C109.624 141.362 109.208 141.135 108.926 140.679C108.649 140.233 108.511 139.646 108.511 138.918C108.511 138.181 108.649 137.584 108.926 137.129C109.218 136.649 109.633 136.41 110.173 136.41C110.713 136.41 111.129 136.649 111.42 137.129C111.697 137.584 111.836 138.181 111.836 138.918C111.836 139.655 111.7 140.242 111.427 140.679ZM113.64 140.58H114.176V141.285H113.64V140.58ZM118.277 137.072C118.099 136.889 117.887 136.797 117.643 136.797C117.399 136.797 117.185 136.889 117.002 137.072C116.823 137.251 116.692 137.5 116.607 137.819C116.518 138.129 116.474 138.495 116.474 138.918C116.474 139.759 116.647 140.355 116.995 140.707C117.173 140.89 117.387 140.982 117.636 140.982C117.885 140.982 118.099 140.895 118.277 140.721C118.456 140.543 118.587 140.296 118.672 139.982C118.751 139.672 118.791 139.317 118.791 138.918C118.791 138.044 118.62 137.429 118.277 137.072ZM118.89 140.679C118.608 141.135 118.19 141.362 117.636 141.362C117.086 141.362 116.671 141.135 116.389 140.679C116.112 140.233 115.973 139.646 115.973 138.918C115.973 138.181 116.112 137.584 116.389 137.129C116.68 136.649 117.096 136.41 117.636 136.41C118.176 136.41 118.592 136.649 118.883 137.129C119.16 137.584 119.299 138.181 119.299 138.918C119.299 139.655 119.162 140.242 118.89 140.679ZM123.336 137.072C123.158 136.889 122.946 136.797 122.702 136.797C122.458 136.797 122.244 136.889 122.061 137.072C121.883 137.251 121.751 137.5 121.667 137.819C121.577 138.129 121.533 138.495 121.533 138.918C121.533 139.759 121.706 140.355 122.054 140.707C122.232 140.89 122.446 140.982 122.695 140.982C122.944 140.982 123.158 140.895 123.336 140.721C123.515 140.543 123.646 140.296 123.731 139.982C123.811 139.672 123.85 139.317 123.85 138.918C123.85 138.044 123.679 137.429 123.336 137.072ZM123.949 140.679C123.667 141.135 123.249 141.362 122.695 141.362C122.146 141.362 121.73 141.135 121.448 140.679C121.171 140.233 121.032 139.646 121.032 138.918C121.032 138.181 121.171 137.584 121.448 137.129C121.739 136.649 122.155 136.41 122.695 136.41C123.235 136.41 123.651 136.649 123.942 137.129C124.219 137.584 124.358 138.181 124.358 138.918C124.358 139.655 124.221 140.242 123.949 140.679ZM126.049 139.982V139.608H127.677V139.982H126.049ZM129.402 137.206L129.261 136.826L130.071 136.502H130.487V141.285H130.015V136.945L129.402 137.206ZM135.006 138.46C135.006 138.202 134.975 137.936 134.914 137.664C134.848 137.41 134.733 137.204 134.569 137.044C134.395 136.88 134.167 136.797 133.885 136.797C133.599 136.797 133.364 136.903 133.181 137.114C132.979 137.349 132.878 137.659 132.878 138.044C132.878 138.453 132.981 138.746 133.188 138.925C133.381 139.099 133.63 139.186 133.935 139.186C134.259 139.186 134.613 139.045 134.999 138.763C135.003 138.725 135.006 138.624 135.006 138.46ZM134.287 139.524C134.174 139.557 134.057 139.573 133.935 139.573C133.517 139.573 133.155 139.444 132.85 139.186C132.54 138.927 132.385 138.552 132.385 138.058C132.385 137.781 132.437 137.518 132.54 137.269C132.639 137.03 132.805 136.826 133.04 136.657C133.27 136.487 133.564 136.403 133.921 136.403C134.977 136.403 135.506 137.192 135.506 138.77C135.506 139.611 135.348 140.249 135.034 140.686C134.724 141.128 134.315 141.348 133.808 141.348C133.484 141.348 133.127 141.245 132.737 141.038L132.871 140.679C133.214 140.867 133.524 140.961 133.801 140.961C134.139 140.961 134.409 140.811 134.611 140.51C134.818 140.205 134.94 139.763 134.977 139.186C134.747 139.359 134.517 139.472 134.287 139.524ZM137.335 140.58H137.871V141.285H137.335V140.58ZM141.972 137.072C141.794 136.889 141.582 136.797 141.338 136.797C141.094 136.797 140.88 136.889 140.697 137.072C140.518 137.251 140.387 137.5 140.302 137.819C140.213 138.129 140.169 138.495 140.169 138.918C140.169 139.759 140.342 140.355 140.69 140.707C140.868 140.89 141.082 140.982 141.331 140.982C141.58 140.982 141.794 140.895 141.972 140.721C142.15 140.543 142.282 140.296 142.367 139.982C142.446 139.672 142.486 139.317 142.486 138.918C142.486 138.044 142.315 137.429 141.972 137.072ZM142.585 140.679C142.303 141.135 141.885 141.362 141.331 141.362C140.781 141.362 140.366 141.135 140.084 140.679C139.807 140.233 139.668 139.646 139.668 138.918C139.668 138.181 139.807 137.584 140.084 137.129C140.375 136.649 140.791 136.41 141.331 136.41C141.871 136.41 142.287 136.649 142.578 137.129C142.855 137.584 142.993 138.181 142.993 138.918C142.993 139.655 142.857 140.242 142.585 140.679ZM147.031 137.072C146.853 136.889 146.641 136.797 146.397 136.797C146.153 136.797 145.939 136.889 145.756 137.072C145.577 137.251 145.446 137.5 145.361 137.819C145.272 138.129 145.228 138.495 145.228 138.918C145.228 139.759 145.401 140.355 145.749 140.707C145.927 140.89 146.141 140.982 146.39 140.982C146.639 140.982 146.853 140.895 147.031 140.721C147.21 140.543 147.341 140.296 147.426 139.982C147.505 139.672 147.545 139.317 147.545 138.918C147.545 138.044 147.374 137.429 147.031 137.072ZM147.644 140.679C147.362 141.135 146.944 141.362 146.39 141.362C145.84 141.362 145.425 141.135 145.143 140.679C144.866 140.233 144.727 139.646 144.727 138.918C144.727 138.181 144.866 137.584 145.143 137.129C145.434 136.649 145.85 136.41 146.39 136.41C146.93 136.41 147.346 136.649 147.637 137.129C147.914 137.584 148.053 138.181 148.053 138.918C148.053 139.655 147.916 140.242 147.644 140.679ZM108.614 153.285H105.69V148.502H106.176V152.919H108.614V153.285ZM109.929 148.502H110.45V151.334C110.45 151.742 110.499 152.069 110.598 152.313C110.701 152.595 110.899 152.785 111.19 152.883C111.354 152.935 111.537 152.961 111.739 152.961C112.138 152.961 112.441 152.862 112.648 152.665C112.826 152.496 112.939 152.231 112.986 151.869C113.005 151.733 113.014 151.554 113.014 151.334V148.502H113.522V151.383C113.522 152.069 113.376 152.571 113.085 152.89C112.794 153.205 112.338 153.362 111.718 153.362C111.108 153.362 110.657 153.205 110.365 152.89C110.074 152.576 109.929 152.083 109.929 151.411V148.502ZM118.763 148.494L117.086 150.263L118.974 153.285H118.432L116.741 150.58L115.875 151.481V153.285H115.389V148.494H115.875V150.918L118.192 148.494H118.763ZM123.836 148.494L122.159 150.263L124.047 153.285H123.505L121.814 150.58L120.948 151.481V153.285H120.461V148.494H120.948V150.918L123.265 148.494H123.836ZM128.74 153.285H125.534V148.502H128.704V148.868H126.02V150.545H128.352V150.925H126.02V152.919H128.74V153.285ZM129.805 148.868V148.502H133.405V148.868H131.855V153.285H131.355V148.868H129.805Z" fill="#101F28"/>
<line x1="76.7968" y1="81.8562" x2="103.332" y2="81.8562" stroke="#101F28" stroke-width="0.234828"/>
<line x1="79.8496" y1="117.55" x2="103.332" y2="117.55" stroke="#101F28" stroke-width="0.234828"/>
<line x1="75.153" y1="105.574" x2="103.332" y2="105.574" stroke="#101F28" stroke-width="0.234828"/>
<line x1="75.153" y1="153.479" x2="103.332" y2="153.479" stroke="#101F28" stroke-width="0.234828"/>
<line x1="75.153" y1="141.503" x2="103.332" y2="141.503" stroke="#101F28" stroke-width="0.234828"/>
<line x1="73.744" y1="129.526" x2="103.332" y2="129.526" stroke="#101F28" stroke-width="0.234828"/>
<line x1="76.7968" y1="93.5976" x2="103.332" y2="93.5976" stroke="#101F28" stroke-width="0.234828"/>
<path d="M21.0603 51.3265C20.8411 50.8882 20.7315 50.4334 20.7315 49.9622C20.7315 49.4033 20.8521 48.9101 21.0932 48.4828C21.3452 48.0444 21.6849 47.7102 22.1123 47.48C22.5507 47.2389 23.0383 47.1184 23.5753 47.1184C24.1561 47.1184 24.6602 47.2444 25.0876 47.4965C25.515 47.7485 25.8383 48.0937 26.0574 48.5321C26.2876 48.9595 26.4026 49.4362 26.4026 49.9622C26.4026 50.4772 26.2876 50.9375 26.0574 51.343L29.3286 62.6359H25.4657L25.0383 60.466H22.1123L21.6356 62.6359H17.9371L21.0603 51.3265ZM23.5753 51.0306C23.8712 51.0306 24.1013 50.9375 24.2657 50.7512C24.441 50.5539 24.5287 50.2909 24.5287 49.9622C24.5287 49.6225 24.4356 49.354 24.2493 49.1567C24.0739 48.9595 23.8383 48.8608 23.5424 48.8608C23.2466 48.8608 23.0109 48.9595 22.8356 49.1567C22.6603 49.354 22.5726 49.6225 22.5726 49.9622C22.5726 50.28 22.6657 50.5375 22.852 50.7348C23.0383 50.932 23.2794 51.0306 23.5753 51.0306ZM24.6438 58.4442L23.5753 53.4963L22.4575 58.4442H24.6438ZM36.9923 62.8331C36.3129 62.8331 35.6827 62.8222 35.1019 62.8002C34.5211 62.7783 33.7266 62.729 32.7184 62.6523V51.3265H38.3731C39.1731 51.3265 39.8909 51.4416 40.5265 51.6717C41.173 51.8909 41.6771 52.2087 42.0388 52.6251C42.4004 53.0416 42.5812 53.5237 42.5812 54.0717C42.5812 54.7511 42.4333 55.2881 42.1374 55.6826C41.8415 56.0661 41.3922 56.3346 40.7895 56.4881C42.3237 56.7291 43.0908 57.6332 43.0908 59.2003C43.0908 60.2852 42.5922 61.1619 41.5949 61.8304C40.6087 62.4989 39.0745 62.8331 36.9923 62.8331ZM37.6827 55.7977C38.1101 55.7977 38.4608 55.6936 38.7347 55.4853C39.0197 55.2771 39.1621 55.0086 39.1621 54.6799C39.1621 53.9018 38.6799 53.5128 37.7156 53.5128H36.3841V55.7977H37.6827ZM37.617 60.2524C38.2197 60.2524 38.6799 60.1428 38.9977 59.9236C39.3265 59.6935 39.4909 59.3757 39.4909 58.9702C39.4909 58.5318 39.3429 58.1976 39.0471 57.9675C38.7512 57.7264 38.3293 57.6058 37.7813 57.6058H36.3677V60.203C36.8608 60.2359 37.2772 60.2524 37.617 60.2524ZM46.8667 51.3265H50.1707L54.6747 57.425V51.3265H57.6171V62.6359H54.3295L49.7926 56.7511V62.6359H46.8667V51.3265ZM62.0583 51.3265H65.8555V62.6359H62.0583V51.3265ZM70.2992 51.3265H73.6032L78.1072 57.425V51.3265H81.0496V62.6359H77.762L73.2251 56.7511V62.6359H70.2992V51.3265ZM90.751 62.8989C89.6441 62.8989 88.6469 62.6359 87.7593 62.1098C86.8716 61.5729 86.1757 60.8441 85.6716 59.9236C85.1675 59.0031 84.9155 57.9894 84.9155 56.8826C84.9155 55.8196 85.1675 54.8443 85.6716 53.9566C86.1867 53.069 86.899 52.3676 87.8086 51.8525C88.7181 51.3375 89.7537 51.08 90.9153 51.08C91.551 51.08 92.1646 51.1512 92.7564 51.2936C93.3591 51.4361 93.9016 51.6388 94.3838 51.9019L93.2989 54.4497C92.5537 54.1429 91.8578 53.9895 91.2112 53.9895C90.3674 53.9895 89.7154 54.2634 89.2551 54.8114C88.7948 55.3484 88.5647 56.0552 88.5647 56.9319C88.5647 57.5017 88.6688 58.0168 88.877 58.4771C89.0853 58.9264 89.3757 59.2825 89.7483 59.5455C90.1318 59.8085 90.5647 59.94 91.0469 59.94C91.3099 59.94 91.529 59.9181 91.7044 59.8743V57.2278L94.5481 56.899V62.0441C93.3098 62.6139 92.0441 62.8989 90.751 62.8989ZM102.129 62.8989C100.584 62.8989 99.2798 62.6139 98.2168 62.0441L99.0387 59.4962C100.167 59.9017 101.176 60.1044 102.063 60.1044C102.545 60.1044 102.896 60.0496 103.115 59.94C103.345 59.8195 103.46 59.6441 103.46 59.414C103.46 59.2606 103.4 59.1291 103.28 59.0195C103.159 58.899 102.918 58.7675 102.556 58.625C102.195 58.4825 101.652 58.3072 100.929 58.099C100.041 57.836 99.351 57.4086 98.8579 56.8168C98.3647 56.2141 98.1181 55.5237 98.1181 54.7456C98.1181 53.5402 98.5127 52.6306 99.3017 52.0169C100.102 51.3923 101.176 51.08 102.524 51.08C103.225 51.08 103.915 51.1567 104.595 51.3101C105.274 51.4525 105.877 51.6662 106.403 51.9512L105.515 54.4333C104.902 54.2251 104.365 54.0771 103.904 53.9895C103.455 53.8909 103.017 53.8415 102.589 53.8415C101.866 53.8415 101.504 54.0388 101.504 54.4333C101.504 54.6306 101.619 54.8004 101.85 54.9429C102.091 55.0744 102.578 55.2442 103.313 55.4525C104.463 55.7593 105.334 56.2305 105.926 56.8661C106.518 57.4908 106.814 58.2414 106.814 59.1181C106.814 60.3345 106.419 61.2715 105.63 61.929C104.841 62.5756 103.674 62.8989 102.129 62.8989ZM112.416 53.8251H110.065V51.3265H118.597V53.8251H116.246V62.6359H112.416V53.8251ZM122.445 51.3265H126.243V62.6359H122.445V51.3265ZM130.686 51.3265H135.601C136.785 51.3265 137.831 51.5621 138.741 52.0334C139.661 52.5046 140.374 53.1621 140.878 54.0059C141.393 54.8497 141.65 55.8141 141.65 56.899C141.65 58.0387 141.398 59.0414 140.894 59.9072C140.401 60.7729 139.694 61.4468 138.774 61.929C137.864 62.4003 136.807 62.6359 135.601 62.6359H130.686V51.3265ZM135.437 59.677C136.259 59.677 136.883 59.4195 137.311 58.9044C137.749 58.3784 137.968 57.699 137.968 56.8661C137.968 56.0771 137.755 55.4525 137.327 54.9922C136.911 54.521 136.281 54.2854 135.437 54.2854H134.319V59.677H135.437ZM145.541 51.3265H153.48V53.8251H149.535V55.8798H153.135V57.951H149.535V60.1373H153.48V62.6359H145.541V51.3265ZM166.182 62.8989C164.122 62.8989 162.862 61.9455 162.402 60.0387L161.991 58.3455H161.218V62.6359H157.618V51.3265H162.599C163.541 51.3265 164.369 51.469 165.081 51.7539C165.804 52.0279 166.363 52.4169 166.758 52.921C167.152 53.4251 167.35 54.0059 167.35 54.6634C167.35 55.3977 167.169 56.0168 166.807 56.5209C166.456 57.0141 165.909 57.4195 165.163 57.7373C165.24 58.1538 165.328 58.5318 165.426 58.8716C165.558 59.288 165.739 59.5784 165.969 59.7428C166.199 59.9072 166.533 59.9893 166.972 59.9893C167.125 59.9893 167.366 59.9674 167.695 59.9236V62.603C167.18 62.8002 166.676 62.8989 166.182 62.8989ZM161.843 56.0442C162.654 56.0442 163.224 55.9566 163.552 55.7812C163.892 55.5949 164.062 55.2826 164.062 54.8443C164.062 54.4717 163.925 54.2032 163.651 54.0388C163.377 53.8635 162.944 53.7758 162.352 53.7758H161.218V56.0442H161.843Z" fill="#101F28"/>
<g filter="url(#filter2_d_251_209)">
<ellipse cx="11.5145" cy="45.4578" rx="4.22691" ry="3.63984" fill="white"/>
<path d="M15.624 45.4578C15.624 47.3873 13.8012 48.9802 11.5145 48.9802C9.22781 48.9802 7.40501 47.3873 7.40501 45.4578C7.40501 43.5283 9.22781 41.9353 11.5145 41.9353C13.8012 41.9353 15.624 43.5283 15.624 45.4578Z" stroke="black" stroke-width="0.234828"/>
</g>
<g filter="url(#filter3_d_251_209)">
<ellipse cx="174.485" cy="45.4578" rx="4.22691" ry="3.63984" fill="white"/>
<path d="M178.595 45.4578C178.595 47.3873 176.772 48.9802 174.485 48.9802C172.199 48.9802 170.376 47.3873 170.376 45.4578C170.376 43.5283 172.199 41.9353 174.485 41.9353C176.772 41.9353 178.595 43.5283 178.595 45.4578Z" stroke="black" stroke-width="0.234828"/>
</g>
<path d="M12.5712 44.2836L93.5 1.5L174.486 44.2836" stroke="black" stroke-linecap="round"/>
<g filter="url(#filter4_i_251_209)">
<ellipse cx="93.5" cy="5" rx="4.5" ry="4" fill="#3A6C89"/>
</g>
<path d="M97.5 5C97.5 6.87926 95.7661 8.5 93.5 8.5C91.2339 8.5 89.5 6.87926 89.5 5C89.5 3.12074 91.2339 1.5 93.5 1.5C95.7661 1.5 97.5 3.12074 97.5 5Z" stroke="#276183"/>
</g>
<defs>
<filter id="filter0_d_251_209" x="0" y="0.934448" width="186" height="175.221" filterUnits="userSpaceOnUse" color-interpolation-filters="sRGB">
<feFlood flood-opacity="0" result="BackgroundImageFix"/>
<feColorMatrix in="SourceAlpha" type="matrix" values="0 0 0 0 0 0 0 0 0 0 0 0 0 0 0 0 0 0 127 0" result="hardAlpha"/>
<feOffset dy="4"/>
<feGaussianBlur stdDeviation="2"/>
<feComposite in2="hardAlpha" operator="out"/>
<feColorMatrix type="matrix" values="0 0 0 0 0 0 0 0 0 0 0 0 0 0 0 0 0 0 0.25 0"/>
<feBlend mode="normal" in2="BackgroundImageFix" result="effect1_dropShadow_251_209"/>
<feBlend mode="normal" in="SourceGraphic" in2="effect1_dropShadow_251_209" result="shape"/>
</filter>
<filter id="filter1_d_251_209" x="0" y="39" width="186" height="137" filterUnits="userSpaceOnUse" color-interpolation-filters="sRGB">
<feFlood flood-opacity="0" result="BackgroundImageFix"/>
<feColorMatrix in="SourceAlpha" type="matrix" values="0 0 0 0 0 0 0 0 0 0 0 0 0 0 0 0 0 0 127 0" result="hardAlpha"/>
<feOffset dy="4"/>
<feGaussianBlur stdDeviation="2"/>
<feComposite in2="hardAlpha" operator="out"/>
<feColorMatrix type="matrix" values="0 0 0 0 0 0 0 0 0 0 0 0 0 0 0 0 0 0 0.25 0"/>
<feBlend mode="normal" in2="BackgroundImageFix" result="effect1_dropShadow_251_209"/>
<feBlend mode="normal" in="SourceGraphic" in2="effect1_dropShadow_251_209" result="shape"/>
</filter>
<filter id="filter2_d_251_209" x="6.34828" y="41.8179" width="10.3325" height="9.15829" filterUnits="userSpaceOnUse" color-interpolation-filters="sRGB">
<feFlood flood-opacity="0" result="BackgroundImageFix"/>
<feColorMatrix in="SourceAlpha" type="matrix" values="0 0 0 0 0 0 0 0 0 0 0 0 0 0 0 0 0 0 127 0" result="hardAlpha"/>
<feOffset dy="0.939314"/>
<feGaussianBlur stdDeviation="0.469657"/>
<feComposite in2="hardAlpha" operator="out"/>
<feColorMatrix type="matrix" values="0 0 0 0 0 0 0 0 0 0 0 0 0 0 0 0 0 0 0.25 0"/>
<feBlend mode="normal" in2="BackgroundImageFix" result="effect1_dropShadow_251_209"/>
<feBlend mode="normal" in="SourceGraphic" in2="effect1_dropShadow_251_209" result="shape"/>
</filter>
<filter id="filter3_d_251_209" x="169.319" y="41.8179" width="10.3325" height="9.15829" filterUnits="userSpaceOnUse" color-interpolation-filters="sRGB">
<feFlood flood-opacity="0" result="BackgroundImageFix"/>
<feColorMatrix in="SourceAlpha" type="matrix" values="0 0 0 0 0 0 0 0 0 0 0 0 0 0 0 0 0 0 127 0" result="hardAlpha"/>
<feOffset dy="0.939314"/>
<feGaussianBlur stdDeviation="0.469657"/>
<feComposite in2="hardAlpha" operator="out"/>
<feColorMatrix type="matrix" values="0 0 0 0 0 0 0 0 0 0 0 0 0 0 0 0 0 0 0.25 0"/>
<feBlend mode="normal" in2="BackgroundImageFix" result="effect1_dropShadow_251_209"/>
<feBlend mode="normal" in="SourceGraphic" in2="effect1_dropShadow_251_209" result="shape"/>
</filter>
<filter id="filter4_i_251_209" x="89" y="1" width="9" height="12" filterUnits="userSpaceOnUse" color-interpolation-filters="sRGB">
<feFlood flood-opacity="0" result="BackgroundImageFix"/>
<feBlend mode="normal" in="SourceGraphic" in2="BackgroundImageFix" result="shape"/>
<feColorMatrix in="SourceAlpha" type="matrix" values="0 0 0 0 0 0 0 0 0 0 0 0 0 0 0 0 0 0 127 0" result="hardAlpha"/>
<feOffset dy="4"/>
<feGaussianBlur stdDeviation="2"/>
<feComposite in2="hardAlpha" operator="arithmetic" k2="-1" k3="1"/>
<feColorMatrix type="matrix" values="0 0 0 0 0 0 0 0 0 0 0 0 0 0 0 0 0 0 0.25 0"/>
<feBlend mode="normal" in2="shape" result="effect1_innerShadow_251_209"/>
</filter>
</defs>
</svg>
