<svg width="303" height="316" viewBox="0 0 303 316" fill="none" xmlns="http://www.w3.org/2000/svg">
<path d="M265 281C265 281 256.622 278.816 290.647 278.314C324.672 277.811 268.671 255.692 212 251" stroke="#848484" stroke-width="2.72541"/>
<path d="M246.218 290.156C246.897 284.699 251.536 280.602 257.036 280.602H275.533C280.906 280.602 285.479 284.517 286.305 289.827L288.421 303.422C289.449 310.031 284.338 316 277.649 316H255.343C248.788 316 243.715 310.256 244.525 303.751L246.218 290.156Z" fill="#E9DECD"/>
<rect x="256.494" y="282.202" width="7.16765" height="9.63191" rx="2.45286" fill="#E9DECD" stroke="black" stroke-width="0.545081"/>
<rect x="269.165" y="282.202" width="7.16765" height="9.63191" rx="2.45286" fill="#E9DECD" stroke="black" stroke-width="0.545081"/>
<rect x="265.036" y="282.814" width="2.75455" height="8.40708" rx="1.37727" fill="#565656"/>
<rect x="38.0562" y="171.818" width="149.21" height="9.79662" fill="#D9CCB9"/>
<rect x="10.1735" width="204.975" height="171.818" rx="2.26076" fill="#D9CCB9"/>
<rect x="15.4486" y="6.24641" width="193.672" height="152.978" rx="3.01434" fill="#D7CCB8" stroke="black" stroke-width="1.50717"/>
<path d="M31.7647 186.165C32.4237 185.657 33.232 185.382 34.0637 185.382H202.646C203.654 185.382 204.62 185.786 205.328 186.504L230.974 212.511L0 210.627L31.7647 186.165Z" fill="#D9CCB9"/>
<path d="M221.177 274.682V217.033H217.41V274.682H221.177Z" fill="black"/>
<path d="M32.781 224.945H0V232.104H32.781V224.945Z" fill="black"/>
<path d="M36.5489 224.945H41.4472V232.104H36.5489V224.945Z" fill="black"/>
<path d="M44.4616 224.945H50.1135V232.104H44.4616V224.945Z" fill="black"/>
<path d="M51.9974 224.945H57.6493V232.104H51.9974V224.945Z" fill="black"/>
<path d="M60.2869 224.945H101.734V232.104H60.2869V224.945Z" fill="black"/>
<path d="M211.758 232.104H213.642V235.872H211.758V232.104Z" fill="black"/>
<path fill-rule="evenodd" clip-rule="evenodd" d="M230.974 212.511L0 210.627V224.945H32.781V232.104H0V239.264V248.307V256.973V265.827V274.682H209.874V264.509H213.642V274.682H217.41V217.033H221.177V274.682H224.569H230.974V212.511ZM36.5489 224.945H41.4472V232.104H36.5489V224.945ZM50.1135 224.945H44.4616V232.104H50.1135V224.945ZM51.9974 224.945H57.6493V232.104H51.9974V224.945ZM101.734 224.945H60.2869V232.104H101.734V224.945ZM211.758 232.104H213.642V235.872H211.758V232.104Z" fill="#D9CCB9"/>
<path d="M209.874 264.509V274.682H213.642V264.509H209.874Z" fill="black"/>
<path d="M230.597 212.885V274.305H224.569H221.554V217.033V216.656H221.177H217.41H217.033V217.033V274.305H214.018V264.509V264.132H213.642H209.874H209.497V264.509V274.305H0.376793V265.827V256.973V248.307V239.264V232.481H32.781H33.1578V232.104V224.945V224.569H32.781H0.376793V211.007L230.597 212.885ZM220.801 217.41V274.305H217.786V217.41H220.801ZM213.265 264.885V274.305H210.25V264.885H213.265ZM32.4042 231.728H0.376793V225.322H32.4042V231.728ZM230.066 212.127L1.09522 210.259L31.9946 186.463C32.5877 186.007 33.3152 185.759 34.0637 185.759H202.646C203.553 185.759 204.423 186.123 205.06 186.769L230.066 212.127ZM36.5489 224.569H36.1721V224.945V232.104V232.481H36.5489H41.4472H41.824V232.104V224.945V224.569H41.4472H36.5489ZM50.4902 224.945V224.569H50.1135H44.4616H44.0848V224.945V232.104V232.481H44.4616H50.1135H50.4902V232.104V224.945ZM51.9974 224.569H51.6206V224.945V232.104V232.481H51.9974H57.6493H58.0261V232.104V224.945V224.569H57.6493H51.9974ZM102.111 224.945V224.569H101.734H60.2869H59.9101V224.945V232.104V232.481H60.2869H101.734H102.111V232.104V224.945ZM211.758 231.728H211.381V232.104V235.872V236.249H211.758H213.642H214.018V235.872V232.104V231.728H213.642H211.758ZM36.9257 231.728V225.322H41.0704V231.728H36.9257ZM44.8384 231.728V225.322H49.7367V231.728H44.8384ZM52.3742 231.728V225.322H57.2725V231.728H52.3742ZM60.6637 231.728V225.322H101.357V231.728H60.6637ZM212.134 235.496V232.481H213.265V235.496H212.134Z" stroke="black" stroke-width="0.753586"/>
<path d="M181.614 202.715C181.614 202.813 181.567 202.954 181.379 203.141C181.191 203.329 180.89 203.532 180.462 203.744C179.606 204.167 178.321 204.585 176.633 204.988C173.263 205.794 168.372 206.522 162.309 207.136C150.188 208.361 133.434 209.12 114.922 209.12C96.4098 209.12 79.6558 208.361 67.5348 207.136C61.472 206.522 56.5805 205.794 53.211 204.988C51.5232 204.585 50.2379 204.167 49.3823 203.744C48.9537 203.532 48.6533 203.329 48.4649 203.141C48.2773 202.954 48.2296 202.813 48.2296 202.715C48.2296 202.616 48.2773 202.475 48.4649 202.288C48.6533 202.101 48.9537 201.897 49.3823 201.686C50.2379 201.263 51.5232 200.845 53.211 200.441C56.5805 199.636 61.472 198.907 67.5348 198.294C79.6558 197.068 96.4098 196.309 114.922 196.309C133.434 196.309 150.188 197.068 162.309 198.294C168.372 198.907 173.263 199.636 176.633 200.441C178.321 200.845 179.606 201.263 180.462 201.686C180.89 201.897 181.191 202.101 181.379 202.288C181.567 202.475 181.614 202.616 181.614 202.715Z" fill="#D2C6B3" stroke="black" stroke-width="0.753586"/>
<path d="M47.8528 195.179H181.991V201.961C181.991 201.961 181.237 208.743 114.545 208.743C47.8528 208.743 47.8528 201.961 47.8528 201.961V195.179Z" fill="url(#paint0_linear_477_653)"/>
<ellipse cx="114.922" cy="195.179" rx="67.0691" ry="6.78227" fill="#D9CCB9"/>
<path d="M77.2427 181.614H155.616V195.179C155.616 195.179 131.298 197.474 115.676 197.44C100.641 197.406 77.2427 195.179 77.2427 195.179V181.614Z" fill="url(#paint1_linear_477_653)"/>
<defs>
<linearGradient id="paint0_linear_477_653" x1="47.8528" y1="198.57" x2="181.991" y2="198.57" gradientUnits="userSpaceOnUse">
<stop stop-color="#A2988A"/>
<stop offset="0.505" stop-color="#D9CCB9"/>
<stop offset="1" stop-color="#A2988A"/>
</linearGradient>
<linearGradient id="paint1_linear_477_653" x1="47.8528" y1="189.527" x2="191.788" y2="189.527" gradientUnits="userSpaceOnUse">
<stop stop-color="#736C62"/>
<stop offset="0.48" stop-color="#D9CCB9"/>
<stop offset="1" stop-color="#736C62"/>
</linearGradient>
</defs>
</svg>
